<svg width="26" height="26" viewBox="15 12 26 25" fill="none" xmlns="http://www.w3.org/2000/svg">
<g id="Ammo icon 1">
<g id="Vector" filter="url(#filter0_dd_269_398)">
<path d="M33.628 15.6861C34.8793 15.6861 35.5297 19.4692 35.5297 20.4141V23.3398L36.0378 24.6063C36.0665 24.6645 36.0815 24.7311 36.0815 24.7964V32.8829C36.0815 33.1214 35.8881 33.3149 35.6495 33.3149H31.6063C31.3678 33.3149 31.1743 33.1214 31.1743 32.8829V24.7964C31.1743 24.7281 31.19 24.6637 31.218 24.6063L31.7262 23.3398V20.4141C31.7262 19.4693 32.3767 15.6861 33.6279 15.6861H33.628ZM22.3717 15.6861C23.623 15.6861 24.2734 19.4692 24.2734 20.4141V23.3398L24.7815 24.6063C24.8102 24.6645 24.8252 24.7311 24.8252 24.7964V32.8829C24.8252 33.1214 24.6318 33.3149 24.3932 33.3149H20.35C20.1115 33.3149 19.918 33.1214 19.918 32.8829V24.7964C19.918 24.7281 19.9337 24.6637 19.9617 24.6063L20.4699 23.3398V20.4141C20.4699 19.4693 21.1204 15.6861 22.3716 15.6861H22.3717ZM22.3717 16.5503C22.0085 16.5503 21.334 19.907 21.334 20.4141V22.9883H23.4094V20.4141C23.4094 19.9071 22.7348 16.5503 22.3717 16.5503ZM23.7557 24.3642L23.5503 23.8525H21.1931L20.9877 24.3642H23.7557ZM23.9613 25.2284H20.7821V32.4506H23.9613V25.2284ZM27.9999 15.686C29.2511 15.686 29.9016 19.4692 29.9016 20.414V23.3398L30.4097 24.6062C30.4384 24.6645 30.4535 24.731 30.4535 24.7963V32.8828C30.4535 33.1213 30.26 33.3148 30.0215 33.3148H25.9782C25.7397 33.3148 25.5462 33.1214 25.5462 32.8828V24.7963C25.5462 24.7281 25.5619 24.6637 25.59 24.6062L26.0979 23.3398V20.414C26.0979 19.4693 26.7486 15.686 27.9997 15.686H27.9999ZM27.9999 16.5502C27.6368 16.5502 26.9622 19.9069 26.9622 20.4141V22.9882H29.0376V20.4141C29.0376 19.907 28.363 16.5502 27.9999 16.5502ZM29.384 24.3642L29.1786 23.8525H26.8213L26.616 24.3642H29.384ZM29.5896 25.2284H26.4103V32.4506H29.5896V25.2284ZM33.6282 16.5503C33.2651 16.5503 32.5905 19.907 32.5905 20.4141V22.9883H34.6659V20.4141C34.6659 19.9071 33.9913 16.5503 33.6282 16.5503ZM35.0122 24.3642L34.8068 23.8525H32.4496L32.2442 24.3642H35.0122ZM35.2178 25.2284H32.0386V32.4506H35.2178V25.2284Z" fill="#87DA21"/>
<path d="M33.628 15.6861C34.8793 15.6861 35.5297 19.4692 35.5297 20.4141V23.3398L36.0378 24.6063C36.0665 24.6645 36.0815 24.7311 36.0815 24.7964V32.8829C36.0815 33.1214 35.8881 33.3149 35.6495 33.3149H31.6063C31.3678 33.3149 31.1743 33.1214 31.1743 32.8829V24.7964C31.1743 24.7281 31.19 24.6637 31.218 24.6063L31.7262 23.3398V20.4141C31.7262 19.4693 32.3767 15.6861 33.6279 15.6861H33.628ZM22.3717 15.6861C23.623 15.6861 24.2734 19.4692 24.2734 20.4141V23.3398L24.7815 24.6063C24.8102 24.6645 24.8252 24.7311 24.8252 24.7964V32.8829C24.8252 33.1214 24.6318 33.3149 24.3932 33.3149H20.35C20.1115 33.3149 19.918 33.1214 19.918 32.8829V24.7964C19.918 24.7281 19.9337 24.6637 19.9617 24.6063L20.4699 23.3398V20.4141C20.4699 19.4693 21.1204 15.6861 22.3716 15.6861H22.3717ZM22.3717 16.5503C22.0085 16.5503 21.334 19.907 21.334 20.4141V22.9883H23.4094V20.4141C23.4094 19.9071 22.7348 16.5503 22.3717 16.5503ZM23.7557 24.3642L23.5503 23.8525H21.1931L20.9877 24.3642H23.7557ZM23.9613 25.2284H20.7821V32.4506H23.9613V25.2284ZM27.9999 15.686C29.2511 15.686 29.9016 19.4692 29.9016 20.414V23.3398L30.4097 24.6062C30.4384 24.6645 30.4535 24.731 30.4535 24.7963V32.8828C30.4535 33.1213 30.26 33.3148 30.0215 33.3148H25.9782C25.7397 33.3148 25.5462 33.1214 25.5462 32.8828V24.7963C25.5462 24.7281 25.5619 24.6637 25.59 24.6062L26.0979 23.3398V20.414C26.0979 19.4693 26.7486 15.686 27.9997 15.686H27.9999ZM27.9999 16.5502C27.6368 16.5502 26.9622 19.9069 26.9622 20.4141V22.9882H29.0376V20.4141C29.0376 19.907 28.363 16.5502 27.9999 16.5502ZM29.384 24.3642L29.1786 23.8525H26.8213L26.616 24.3642H29.384ZM29.5896 25.2284H26.4103V32.4506H29.5896V25.2284ZM33.6282 16.5503C33.2651 16.5503 32.5905 19.907 32.5905 20.4141V22.9883H34.6659V20.4141C34.6659 19.9071 33.9913 16.5503 33.6282 16.5503ZM35.0122 24.3642L34.8068 23.8525H32.4496L32.2442 24.3642H35.0122ZM35.2178 25.2284H32.0386V32.4506H35.2178V25.2284Z" fill="#87DA21"/>
</g>
</g>
<defs>
<filter id="filter0_dd_269_398" x="0.280794" y="0.958154" width="55.4384" height="56.9033" filterUnits="userSpaceOnUse" color-interpolation-filters="sRGB">
<feFlood flood-opacity="0" result="BackgroundImageFix"/>
<feColorMatrix in="SourceAlpha" type="matrix" values="0 0 0 0 0 0 0 0 0 0 0 0 0 0 0 0 0 0 127 0" result="hardAlpha"/>
<feOffset dy="4.90929"/>
<feGaussianBlur stdDeviation="9.81859"/>
<feComposite in2="hardAlpha" operator="out"/>
<feColorMatrix type="matrix" values="0 0 0 0 0.529412 0 0 0 0 0.854902 0 0 0 0 0.129412 0 0 0 0.35 0"/>
<feBlend mode="normal" in2="BackgroundImageFix" result="effect1_dropShadow_269_398"/>
<feColorMatrix in="SourceAlpha" type="matrix" values="0 0 0 0 0 0 0 0 0 0 0 0 0 0 0 0 0 0 127 0" result="hardAlpha"/>
<feOffset dy="4.90929"/>
<feGaussianBlur stdDeviation="2.45465"/>
<feComposite in2="hardAlpha" operator="out"/>
<feColorMatrix type="matrix" values="0 0 0 0 0.529412 0 0 0 0 0.854902 0 0 0 0 0.129412 0 0 0 0.25 0"/>
<feBlend mode="normal" in2="effect1_dropShadow_269_398" result="effect2_dropShadow_269_398"/>
<feBlend mode="normal" in="SourceGraphic" in2="effect2_dropShadow_269_398" result="shape"/>
</filter>
</defs>
</svg>
