<?xml version="1.0" encoding="iso-8859-1"?>
<!-- Uploaded to: SVG Repo, www.svgrepo.com, Generator: SVG Repo Mixer Tools -->
<svg fill="#000000" height="26px" width="26px" version="1.1" id="Layer_1" xmlns="http://www.w3.org/2000/svg" xmlns:xlink="http://www.w3.org/1999/xlink"
	 viewBox="-100 -100 712 712" xml:space="preserve">
<g>
	<g>
		<path d="M326.718,459.023h0.942V150.104C327.66,143.974,326.859,0,257.024,0s-70.636,143.974-70.636,150.104v308.918h-1.106
			c-14.559,0-26.407,11.882-26.407,26.489c0,14.607,11.848,26.489,26.407,26.489h141.437c14.559,0,26.407-11.882,26.407-26.489
			C353.125,470.905,341.278,459.023,326.718,459.023z M256,17.545c40.272,0,51.404,81.673,52.814,123.614H203.182
			C204.57,99.218,215.676,17.545,256,17.545z M310.001,158.818v300.205H204.047V158.818H310.001z M326.718,494.341H185.282
			c-4.906,0-8.748-3.88-8.748-8.83c0-4.872,3.923-8.83,8.748-8.83h8.911h123.614h8.911c4.906,0,8.748,3.88,8.748,8.83
			C335.466,490.383,331.543,494.341,326.718,494.341z" fill="none" stroke="#87DA21" stroke-width="15px"/>
	</g>
</g>
</svg>