<svg width="33" height="32" viewBox="0 0 33 32" fill="none" xmlns="http://www.w3.org/2000/svg">
<path fill-rule="evenodd" clip-rule="evenodd" d="M21.2685 11.8306C21.2117 11.2946 21.1779 10.5732 21.2809 9.61222C21.3373 9.08588 21.3868 7.30348 21.76 6.15409C21.9735 5.4967 22.3235 5.03566 22.7358 4.88774C23.0318 4.78159 23.2867 4.78274 23.504 4.84149C23.8278 4.92899 24.0803 5.15325 24.2561 5.44034C24.3017 5.51503 24.3418 5.59389 24.3768 5.6742C24.594 5.16502 24.8434 4.72742 25.1028 4.45014C25.4389 4.09086 25.8131 3.95577 26.167 4.02348C26.3962 4.06733 26.6314 4.25921 26.7641 4.59828C26.9138 4.98068 26.9613 5.5987 26.9719 5.74713C26.9913 6.01588 26.9901 6.29182 26.9774 6.56921C27.2415 6.18265 27.5148 5.87566 27.7692 5.67473C28.2174 5.32097 28.6537 5.26014 28.9786 5.40036C29.5863 5.66254 29.8297 6.36598 29.6971 7.2938C29.6323 7.74681 29.485 8.25942 29.3039 8.76702C29.4292 8.73192 29.5516 8.71077 29.6674 8.70442C30.2324 8.67306 30.6755 8.93254 30.8376 9.46453C31.1734 10.5671 30.7968 11.4114 30.2313 12.2331C29.7816 12.8866 29.1932 13.5199 28.9583 14.3475C28.861 14.6903 28.9163 14.9786 28.916 15.2921C28.9154 15.7254 28.855 16.1949 28.4742 16.8117C28.3851 16.9561 28.2458 17.1079 28.0916 17.2851C27.8427 17.5716 27.5441 17.9618 27.5766 18.6667C27.7301 21.9963 27.8694 23.4534 28.5059 27.1406C28.5394 27.3346 28.4927 27.5477 28.2474 27.7084C28.1772 27.7544 28.0657 27.8042 27.9131 27.8398C27.7103 27.8869 27.3915 27.9212 27.0082 27.9408C25.6725 28.0089 23.5021 27.9148 23.0754 27.8383C22.6695 27.7654 22.6017 27.441 22.5948 27.3729C22.5158 26.5923 22.5912 24.3065 22.4688 21.4782C22.4487 21.0151 22.4821 19.462 22.3436 18.3227C22.2979 17.9478 22.2471 17.6232 22.1469 17.4365C22.084 17.4015 21.8165 17.2536 21.6015 17.1478C20.9986 16.8509 20.2175 16.4297 19.7457 15.7996C19.4119 15.3537 17.9381 12.7183 17.9144 12.6799C17.373 11.8053 17.4071 11.0979 17.6431 10.6435C18.054 9.85301 19.1442 9.63312 19.9406 10.3834C19.944 10.3866 19.9472 10.3898 19.9504 10.393C20.0488 10.4908 20.7214 11.2288 21.2687 11.8307L21.2685 11.8306ZM28.3349 11.0372C28.1898 11.2805 27.8757 11.3617 27.6311 11.2188C27.6289 11.2175 27.6268 11.2164 27.6247 11.215C27.3938 11.08 27.3103 10.7871 27.4352 10.5506C27.8218 9.80345 28.5471 8.27868 28.7082 7.15225C28.738 6.94371 28.7483 6.75171 28.7239 6.58683C28.7079 6.4784 28.6865 6.38069 28.6091 6.33131C28.5839 6.34069 28.5302 6.36163 28.4956 6.38288C28.3914 6.44663 28.2833 6.54152 28.1719 6.65944C27.667 7.19413 27.1424 8.15578 26.8402 9.25954C26.7548 9.57141 26.4318 10.4663 26.4318 10.4663C26.3434 10.7108 26.0821 10.8465 25.8313 10.7783C25.5804 10.7101 25.4238 10.4609 25.4713 10.2053C25.4713 10.2053 25.8329 8.26216 25.8807 7.74026C25.9377 7.1165 26.0209 6.44621 25.9757 5.8188C25.9699 5.73921 25.8969 5.35557 25.8499 5.11328C25.794 5.16984 25.7395 5.2389 25.6853 5.31682C25.3369 5.81839 25.0412 6.63879 24.8465 7.42724C24.5869 8.47892 24.5383 9.47757 24.5304 9.69423L24.5303 9.69694C24.5288 9.74402 24.5224 9.78694 24.5125 9.82611C24.4225 10.1811 24.0299 10.225 24.0299 10.225C24.0299 10.225 23.5127 10.2349 23.5323 9.6635V9.6612C23.5424 9.33027 23.5991 7.40496 23.5826 6.55987C23.5802 6.43654 23.5312 6.16955 23.404 5.96152C23.3631 5.89465 23.3188 5.826 23.2434 5.80558C23.1947 5.79236 23.139 5.80413 23.0728 5.82777C22.9751 5.86288 22.9199 5.97454 22.8555 6.10049C22.7406 6.32549 22.6551 6.61383 22.586 6.92644C22.3529 7.98039 22.3199 9.28905 22.2739 9.71844C22.1085 11.2645 22.3306 12.1398 22.3766 12.6088C22.4196 13.0454 22.3065 13.298 22.1171 13.4556C22.0174 13.5386 21.7498 13.6783 21.4217 13.4486C21.0096 13.1603 19.4475 11.3062 19.2454 11.101C18.996 10.8741 18.6564 10.859 18.529 11.1041C18.4054 11.342 18.4797 11.6961 18.7632 12.1542C18.7863 12.1916 20.2191 14.7659 20.5448 15.2011C20.9912 15.7972 21.8017 16.1297 22.2997 16.3786C22.6474 16.5523 22.8818 16.7296 22.9661 16.8611C23.1341 17.1233 23.2631 17.6143 23.3346 18.2021C23.4766 19.3694 23.4458 20.9608 23.4662 21.4349C23.571 23.8521 23.5275 25.8691 23.5639 26.8733C24.2639 26.9116 25.9736 26.9936 26.9572 26.9435C27.1249 26.935 27.3054 26.9149 27.4504 26.8958C26.865 23.4553 26.7285 21.9633 26.5788 18.7129C26.5365 17.796 26.8572 17.2278 27.1874 16.8105C27.3548 16.5988 27.5291 16.4411 27.6243 16.2871C27.9306 15.791 27.9243 15.4361 27.9131 15.0954C27.9025 14.7653 27.8925 14.4442 27.9973 14.075C28.263 13.1391 28.8999 12.4062 29.4085 11.667C29.8014 11.0961 30.1153 10.5217 29.882 9.75557C29.8597 9.68234 29.7761 9.69577 29.6968 9.70369C29.5422 9.71911 29.3723 9.78817 29.2095 9.89473C29.015 10.0218 28.8322 10.2037 28.6968 10.4318C28.6671 10.4818 28.4938 10.7716 28.3349 11.0371L28.3349 11.0372ZM3.65645 8.7671C3.47552 8.2595 3.32821 7.74689 3.26333 7.29387C3.13063 6.36617 3.37406 5.66273 3.98187 5.40043C4.30678 5.26023 4.74301 5.32095 5.19115 5.67481C5.44563 5.87564 5.71886 6.18273 5.98291 6.56929C5.97041 6.29201 5.96916 6.01595 5.98843 5.74721C5.99905 5.59867 6.04666 4.98075 6.19635 4.59835C6.32906 4.25929 6.56427 4.06742 6.79333 4.02355C7.14739 3.95585 7.52157 4.09095 7.85771 4.45022C8.11708 4.72742 8.36635 5.16513 8.58355 5.67427C8.61855 5.59396 8.65865 5.51511 8.70438 5.44042C8.88011 5.15322 9.13262 4.92906 9.45635 4.84157C9.67375 4.78282 9.92864 4.78167 10.2247 4.88782C10.6369 5.03574 10.9868 5.49678 11.2003 6.15417C11.5736 7.30345 11.6231 9.0859 11.6795 9.6123C11.7823 10.5732 11.7486 11.2946 11.6919 11.8307C12.2393 11.2288 12.9119 10.4908 13.0101 10.393C13.0134 10.3898 13.0167 10.3866 13.02 10.3834C13.8166 9.63301 14.9067 9.85301 15.3175 10.6435C15.5536 11.0979 15.5876 11.8054 15.0462 12.6799C15.0225 12.7182 13.5487 15.3538 13.2148 15.7996C12.743 16.4297 11.9621 16.8509 11.3591 17.1478C11.1441 17.2536 10.8766 17.4015 10.8136 17.4365C10.7135 17.6233 10.6627 17.9479 10.6171 18.3227C10.4784 19.462 10.512 21.015 10.4919 21.4782C10.3693 24.3067 10.4448 26.5926 10.3658 27.3729C10.3588 27.441 10.2911 27.7654 9.8852 27.8383C9.45854 27.9147 7.28792 28.0088 5.9524 27.9408C5.56928 27.9212 5.25032 27.8869 5.0475 27.8397C4.89479 27.8042 4.78333 27.7544 4.71323 27.7084C4.46781 27.5477 4.42126 27.3345 4.45469 27.1406C5.09104 23.4536 5.23064 21.9963 5.38397 18.6667C5.41647 17.9619 5.11793 17.5716 4.86888 17.2851C4.71492 17.108 4.57565 16.9562 4.48648 16.8117C4.10565 16.1949 4.04533 15.7254 4.04471 15.2921C4.04419 14.9786 4.09972 14.6904 4.00242 14.3475C3.76753 13.5198 3.17888 12.8866 2.7293 12.2331C2.164 11.4113 1.78744 10.567 2.12325 9.46452C2.28533 8.93255 2.72845 8.67306 3.29325 8.70442C3.40919 8.71077 3.53148 8.73181 3.6568 8.76702L3.65645 8.7671ZM9.42792 9.66137L9.42803 9.66408C9.44323 10.1526 8.93032 10.2251 8.93032 10.2251C8.93032 10.2251 8.44552 10.1708 8.42979 9.69709V9.69438C8.42166 9.46959 8.37229 8.47481 8.11373 7.4274C7.91904 6.63886 7.62331 5.81854 7.27477 5.31697C7.22071 5.23905 7.16634 5.16999 7.11029 5.11343C7.06321 5.35572 6.99029 5.73937 6.98456 5.81895C6.93936 6.44633 7.02248 7.11665 7.07946 7.74041C7.12727 8.26228 7.48893 10.2054 7.48893 10.2054C7.53622 10.4611 7.37976 10.7102 7.12882 10.7784C6.87799 10.8467 6.61685 10.7109 6.52839 10.4665C6.52839 10.4665 6.20527 9.57156 6.11997 9.25969C5.81767 8.15583 5.29319 7.19417 4.78829 6.65959C4.67693 6.54167 4.56881 6.44677 4.46463 6.38303C4.43015 6.36178 4.3762 6.34084 4.35109 6.33146C4.2737 6.38084 4.25234 6.47855 4.2363 6.58698C4.21182 6.75188 4.22203 6.94386 4.25193 7.1524C4.41641 8.30125 5.23902 10.0305 5.64766 10.8292C5.76776 11.0561 5.68766 11.3372 5.46599 11.4666C5.45099 11.4767 5.43526 11.4858 5.41974 11.4949C5.30974 11.5592 5.1787 11.577 5.05547 11.5445C4.93235 11.5121 4.82714 11.432 4.76318 11.3219C4.55849 10.957 4.29683 10.4881 4.2635 10.432C4.04309 10.0609 3.69913 9.80899 3.38393 9.72616C3.31299 9.70762 3.24455 9.69783 3.18153 9.70179C3.13685 9.70471 3.09174 9.71137 3.0782 9.75574C2.84497 10.522 3.15893 11.0963 3.55185 11.6672C4.06028 12.4064 4.69727 13.1393 4.963 14.0751C5.06779 14.4444 5.05779 14.7655 5.04706 15.0956C5.03602 15.4363 5.02967 15.7912 5.33602 16.2872C5.43102 16.4412 5.60541 16.599 5.7729 16.8107C6.10312 17.228 6.42384 17.7962 6.38154 18.7131C6.23175 21.9635 6.0952 23.4552 5.50986 26.896C5.65476 26.9151 5.83538 26.9352 6.00309 26.9437C6.98664 26.9938 8.69642 26.9117 9.39642 26.8735C9.43288 25.8695 9.38934 23.8524 9.49423 21.4351C9.51476 20.9607 9.48382 19.3695 9.6258 18.2023C9.69736 17.6146 9.82632 17.1236 9.99433 16.8613C10.0785 16.7298 10.313 16.5525 10.6607 16.3788C11.1585 16.1298 11.9691 15.7974 12.4156 15.2013C12.7413 14.7662 14.174 12.1917 14.1972 12.1543C14.4807 11.6963 14.5551 11.3422 14.4313 11.1042C14.3033 10.8577 13.9606 10.8744 13.7069 11.1089C13.4941 11.3287 11.9483 13.1621 11.5386 13.4489C11.2106 13.6785 10.9431 13.5389 10.8434 13.4559C10.6541 13.2983 10.5409 13.0458 10.5838 12.6091C10.63 12.1402 10.8521 11.2649 10.6866 9.71873C10.6406 9.28934 10.6075 7.9807 10.3745 6.92673C10.3054 6.61411 10.2199 6.32579 10.1051 6.10078C10.0407 5.97495 9.9855 5.86328 9.8878 5.82806C9.82165 5.80441 9.76582 5.79275 9.71728 5.80587C9.64186 5.82629 9.59759 5.89493 9.55655 5.96181C9.42936 6.16973 9.3804 6.4368 9.37801 6.56016C9.36145 7.40776 9.41863 9.34149 9.42822 9.66149L9.42792 9.66137Z" fill="white"/>
</svg>
