<svg width="33" height="32" viewBox="0 0 33 32" fill="none" xmlns="http://www.w3.org/2000/svg">
<path d="M20.5005 14.0001C20.5005 14.5501 20.0505 15.0001 19.5005 15.0001H13.5005C12.9505 15.0001 12.5005 14.5501 12.5005 14.0001C12.5005 13.4501 12.9505 13.0001 13.5005 13.0001H19.5005C20.0505 13.0001 20.5005 13.4501 20.5005 14.0001ZM30.5005 17.0001V21.0001C30.5005 23.7601 28.2605 26.0001 25.5005 26.0001H7.50049C4.74049 26.0001 2.50049 23.7601 2.50049 21.0001V17.0001C2.50049 13.1401 5.64049 10.0001 9.50049 10.0001H11.5005V9.00006C11.5005 7.35006 12.8505 6.00006 14.5005 6.00006H18.5005C20.1505 6.00006 21.5005 7.35006 21.5005 9.00006V10.0001H23.5005C27.3605 10.0001 30.5005 13.1401 30.5005 17.0001ZM8.50049 12.1001C6.22049 12.5601 4.50049 14.5801 4.50049 17.0001V21.0001C4.50049 22.6501 5.85049 24.0001 7.50049 24.0001H8.50049V12.1001ZM13.5005 10.0001H19.5005V9.00006C19.5005 8.45006 19.0505 8.00006 18.5005 8.00006H14.5005C13.9505 8.00006 13.5005 8.45006 13.5005 9.00006V10.0001ZM22.5005 12.0001H10.5005V24.0001H22.5005V12.0001ZM28.5005 17.0001C28.5005 14.5901 26.7805 12.5702 24.5005 12.1001V24.0001H25.5005C27.1505 24.0001 28.5005 22.6501 28.5005 21.0001V17.0001Z" fill="white"/>
</svg>
