<svg width="33" height="32" viewBox="0 0 33 32" fill="none" xmlns="http://www.w3.org/2000/svg">
<g clip-path="url(#clip0_716_1158)">
<path fill-rule="evenodd" clip-rule="evenodd" d="M27.3756 2.64625C27.2518 2.38 27.1731 2.23249 27.1731 2.23249C27.0506 1.99999 27.1306 1.71124 27.3556 1.575C27.5793 1.4375 27.8718 1.4975 28.0243 1.71125C28.1243 1.8525 28.2081 2.02125 28.2756 2.21375C28.8406 3.42751 30.3143 6.94122 30.1905 10.3162C30.1018 12.7362 29.948 14.3372 29.943 15.4311C29.9393 16.0573 29.9731 16.4923 30.1356 16.8098C30.3831 17.2923 30.3918 17.8123 30.2743 18.3086C30.1306 18.9211 29.7881 19.4911 29.6256 19.8411C29.3718 20.3873 28.4381 22.1373 28.073 22.9462C27.6768 23.8236 27.0805 25.3599 25.253 26.2976C24.3781 26.7464 23.788 26.8976 23.308 27.0614C22.928 27.1914 22.6355 27.3301 22.2955 27.7314C22.058 28.0126 21.6105 28.2714 21.048 28.4951C20.338 28.7776 19.428 29.0276 18.638 29.3126C18.2368 29.4564 17.8693 29.6089 17.5855 29.7814C17.403 29.8939 17.2505 29.9939 17.2093 30.1389C17.1618 30.3051 17.0318 30.4339 16.8643 30.4814C16.698 30.5289 16.5205 30.4864 16.3918 30.3701C16.3918 30.3701 14.5643 28.6926 13.9155 28.3751C13.6668 28.2526 13.0955 28.2226 12.4068 28.0989C11.1855 27.8777 9.65051 27.4314 8.57185 26.1777C7.78934 25.2702 7.18435 24.8851 6.65059 24.5539C6.0331 24.1701 5.49934 23.8414 4.91561 23.0339C4.14561 21.9701 4.10185 21.5789 4.16561 20.9964C4.20061 20.6826 4.29061 20.2951 4.30311 19.6202C4.31811 18.7452 4.50936 17.7727 4.53685 16.9202C4.55685 16.2702 4.51435 15.6889 4.02309 15.3877C3.40059 15.0064 3.1656 14.6677 3.07685 14.3727C3.00685 14.1389 3.0206 13.9102 3.08185 13.6677C3.13811 13.4439 3.25685 13.1989 3.2656 12.8739C3.27685 12.4551 3.05811 11.9464 2.8931 11.3826C2.6881 10.6776 2.54934 9.9064 2.76435 9.12514C2.95185 8.44013 3.08059 7.14765 3.42059 5.77021C3.7831 4.30146 4.3831 2.74648 5.4856 1.64381C5.6306 1.49881 5.85061 1.45756 6.03811 1.53881C6.22561 1.62131 6.3456 1.81006 6.33811 2.01505C6.33811 2.01505 6.19686 5.93505 6.8356 8.07745C7.12685 9.04996 7.49435 9.59369 7.84309 9.90494C8.09435 10.1299 8.33059 10.2324 8.49933 10.2999C8.93558 10.1124 9.84309 9.40369 10.5781 8.65993C11.0593 8.17369 11.4768 7.67993 11.5768 7.29492C11.6993 6.82241 12.0081 6.59492 12.4518 6.53241C12.7331 6.49241 13.0943 6.53991 13.4931 6.63366C13.9706 6.74616 14.5156 6.92241 15.0118 6.9899C15.3393 7.0349 15.6481 7.06365 15.8343 6.8524C15.9618 6.70865 16.1593 6.6499 16.3443 6.7024C16.3443 6.7024 18.6006 7.34616 20.3155 7.20365C21.5568 7.10115 22.083 6.82616 22.083 6.82616C22.083 6.82616 22.9305 6.71866 22.9305 7.19491C22.9305 8.46616 22.898 8.46616 23.303 9.43742C23.5118 9.93992 23.8405 10.3774 24.4555 10.3149C24.703 10.2899 24.9418 10.1237 25.1818 9.88867C25.6443 9.43491 26.0743 8.72243 26.4355 7.91118C26.998 6.65368 27.3943 5.15624 27.4668 3.94371C27.4955 3.4387 27.4793 2.98747 27.3755 2.64371L27.3756 2.64625ZM21.9644 7.94385C22.0119 8.47761 22.1219 9.2026 22.3806 9.8251C22.7606 10.7389 23.4394 11.4276 24.5568 11.3126C24.9994 11.2676 25.4543 11.0251 25.8819 10.6051C26.4194 10.0789 26.9294 9.2626 27.3494 8.3226C27.8031 7.30884 28.1544 6.15009 28.3368 5.08126C28.8219 6.56126 29.2594 8.43993 29.1918 10.2775C29.1031 12.7125 28.9493 14.3239 28.9431 15.425C28.9381 16.2625 29.0281 16.8388 29.2456 17.265C29.4193 17.605 29.3481 17.9775 29.2331 18.3175C29.0818 18.76 28.8418 19.1575 28.7206 19.4188C28.4656 19.9662 27.5281 21.7238 27.1631 22.5364C26.8256 23.2814 26.3506 24.6126 24.7981 25.4089C23.9831 25.8264 23.4318 25.9639 22.9856 26.1164C22.4393 26.3039 22.0218 26.5089 21.5331 27.0851C21.3731 27.2726 21.0556 27.4176 20.6793 27.5676C19.978 27.8464 19.0793 28.0927 18.2993 28.3739C17.7243 28.5814 17.2106 28.8101 16.8555 29.0714C16.7755 29.1289 16.703 29.1901 16.638 29.2526C16.0105 28.7039 14.8568 27.7251 14.3568 27.4789C14.0643 27.3351 13.398 27.2639 12.5855 27.1164C11.5543 26.9289 10.2418 26.5838 9.32927 25.5264C8.45303 24.5089 7.77802 24.0789 7.17927 23.7064C6.66551 23.3864 6.21303 23.1226 5.72676 22.4489C5.353 21.9314 5.19178 21.6601 5.15676 21.3976C5.13426 21.2301 5.16426 21.0738 5.19426 20.8651C5.23801 20.5676 5.29426 20.1926 5.30301 19.6389C5.32176 18.5789 5.59426 17.3764 5.53051 16.4114C5.47801 15.6014 5.20302 14.9401 4.54675 14.5389C4.248 14.3551 4.0855 14.2364 4.03926 14.0939C4.00051 13.9776 4.06426 13.8714 4.10301 13.7426C4.17676 13.5026 4.25801 13.2326 4.26675 12.9051C4.27925 12.4901 4.13175 11.9976 3.96425 11.4626C3.76675 10.8326 3.53049 10.1214 3.7305 9.39513C3.9205 8.70387 4.0505 7.40387 4.39301 6.01539C4.60176 5.1679 4.8905 4.28289 5.33677 3.50041L5.33552 3.50291C5.35802 4.9104 5.46802 6.98931 5.88053 8.36904C6.24677 9.59653 6.74053 10.2628 7.17802 10.6553C7.62053 11.0503 8.01426 11.169 8.21053 11.2678C8.30303 11.314 8.43803 11.3478 8.60928 11.3165C8.73677 11.294 8.93178 11.219 9.16304 11.084C9.86053 10.6803 11.0755 9.6878 11.8329 8.77153C12.1967 8.33153 12.4554 7.90028 12.5454 7.55028C12.5529 7.52278 12.5817 7.52778 12.6079 7.52528C12.6817 7.51778 12.7642 7.52278 12.8529 7.53278C13.1217 7.56528 13.4354 7.65152 13.7617 7.73903C14.3391 7.89153 14.9504 8.04153 15.4604 8.01527C15.7929 7.99777 16.0917 7.91152 16.3379 7.73777C17.0204 7.90902 18.8992 8.33028 20.3982 8.20527C21.1057 8.14652 21.6094 8.04777 21.9632 7.94652L21.9644 7.94385ZM19.0769 16.574C19.0769 16.574 19.1981 17.5315 19.2719 18.8327C19.2981 19.3002 19.3156 19.8077 19.3269 20.3327C19.3344 20.6602 19.3356 20.9915 19.3381 21.324C19.3406 21.8227 19.3356 22.319 19.2944 22.7927C19.2094 23.7427 19.0169 24.6002 18.5169 25.1552C18.4194 25.2515 18.4169 25.4077 18.5132 25.5077C18.6082 25.6065 18.7657 25.609 18.8657 25.5127C19.4144 25.0502 19.7869 24.3302 20.0257 23.479C20.1582 23.009 20.2432 22.5002 20.2932 21.9765C20.3207 21.679 20.3382 21.3752 20.3357 21.0727C20.3332 20.6177 20.2982 20.164 20.2494 19.7302C20.1957 19.2602 20.1207 18.814 20.0407 18.4102C19.8157 17.2627 19.5632 16.4665 19.5632 16.4665C19.5332 16.3327 19.4007 16.2477 19.2657 16.2777C19.1319 16.3077 19.0469 16.4415 19.0769 16.5752L19.0769 16.574ZM14.4094 16.754C14.4094 16.754 14.1882 17.4252 13.9894 18.4015C13.9207 18.7452 13.8544 19.124 13.8069 19.524C13.7644 19.8915 13.7344 20.2777 13.7344 20.6665C13.7344 20.924 13.7507 21.1815 13.7769 21.4352C13.8232 21.879 13.8994 22.3127 14.0157 22.714C14.2232 23.4315 14.5344 24.0465 14.9857 24.464C15.0782 24.5665 15.2357 24.5727 15.3382 24.4802C15.4394 24.3877 15.4469 24.2302 15.3544 24.1277C14.9669 23.6265 14.8269 22.9027 14.7632 22.1115C14.7307 21.709 14.7307 21.2927 14.7319 20.874C14.7332 20.5927 14.7332 20.3127 14.7357 20.0378C14.7394 19.594 14.7482 19.1652 14.7644 18.7715C14.8094 17.6665 14.8944 16.8578 14.8944 16.8578C14.9232 16.724 14.8382 16.5903 14.7044 16.5615C14.5694 16.5315 14.4369 16.6165 14.4069 16.7515L14.4094 16.754ZM10.827 23.8367C10.8345 23.8479 10.8445 23.8579 10.8545 23.8667C10.952 23.9641 11.0233 23.9341 11.0233 23.9341C11.0233 23.9341 11.3383 23.8479 11.162 23.3729C11.062 23.1016 10.967 22.4816 10.8058 21.1254C10.6633 20.0429 10.8845 18.9379 11.252 17.9579C11.4495 17.4329 11.6895 16.9429 11.957 16.5142C12.2645 16.0217 12.597 15.6042 12.9495 15.3279C13.4408 14.9304 13.7921 14.2967 14.007 13.6004C14.4095 12.2967 14.3833 10.8255 14.3833 10.8255C14.387 10.688 14.2795 10.573 14.142 10.568C14.0045 10.563 13.8895 10.6705 13.8845 10.8093C13.8845 10.8093 13.7645 12.168 13.2858 13.3418C13.0783 13.8543 12.8008 14.3305 12.407 14.6018C11.962 14.918 11.5121 15.3893 11.1245 15.9818C10.8083 16.4643 10.532 17.0243 10.3283 17.6318C9.95205 18.758 9.82579 20.0355 10.0708 21.2494C10.3708 22.6369 10.5546 23.2569 10.6633 23.5369C10.7196 23.6844 10.7758 23.7781 10.8258 23.8369L10.827 23.8367ZM20.1345 10.7041C20.1345 10.7041 19.5345 11.7529 19.837 13.1479C19.982 13.8179 20.347 14.5591 21.0732 15.3029C21.5245 15.7416 21.8307 16.2879 22.0658 16.8704C22.3032 17.4653 22.4607 18.1029 22.542 18.7491C22.727 20.2316 22.5557 21.7352 22.2007 22.7006C22.147 22.8281 22.2057 22.9731 22.3332 23.0281C22.4607 23.0806 22.6057 23.0218 22.6607 22.8956C22.9695 22.2581 23.2332 21.3806 23.3632 20.4068C23.4745 19.5706 23.4807 18.6693 23.3407 17.7981C23.2632 17.3231 23.1407 16.8581 22.962 16.4206C22.6807 15.7368 22.262 15.1243 21.7145 14.6256C21.0732 14.0681 20.727 13.4906 20.557 12.9568C20.1995 11.8368 20.5795 10.9293 20.5795 10.9293C20.6408 10.8068 20.592 10.6568 20.4683 10.5944C20.3458 10.5319 20.1957 10.5819 20.1345 10.7056L20.1345 10.7041ZM9.2209 12.3366C9.2209 12.3366 9.03215 13.0404 8.73215 13.9854C8.62465 14.3229 8.5034 14.6866 8.37591 15.0641C8.29841 15.2979 8.21591 15.5354 8.13841 15.7729C8.02091 16.1304 7.90591 16.4866 7.7734 16.8204C7.50215 17.4966 7.2034 18.0854 6.76089 18.3729C6.63839 18.4366 6.59214 18.5879 6.65589 18.7104C6.71964 18.8316 6.87089 18.8779 6.99339 18.8141C7.48589 18.6116 7.93213 18.1629 8.32589 17.5779C8.53464 17.2704 8.72088 16.9229 8.8884 16.5554C8.9834 16.3479 9.0709 16.1329 9.14465 15.9154C9.2559 15.5866 9.34215 15.2516 9.41214 14.9266C9.48839 14.5741 9.54214 14.2341 9.58464 13.9241C9.70214 13.0379 9.71715 12.4066 9.71715 12.4066C9.7359 12.2704 9.64089 12.1441 9.50464 12.1254C9.36715 12.1066 9.24214 12.2016 9.22214 12.3379L9.2209 12.3366ZM24.4897 13.1591C24.1472 13.1591 24.2297 14.1216 24.2634 14.6154C24.2809 14.8616 24.3109 15.1279 24.3622 15.4079C24.4097 15.6654 24.4747 15.9304 24.5659 16.1904C24.6272 16.3629 24.7034 16.5304 24.7884 16.6916C24.9359 16.9741 25.1059 17.2391 25.3047 17.4704C25.6384 17.8579 26.0222 18.1591 26.4772 18.3016C26.6022 18.3591 26.7497 18.3029 26.8059 18.1779C26.8634 18.0529 26.8072 17.9054 26.6822 17.8479C26.2934 17.6141 26.0534 17.2054 25.8447 16.7516C25.7322 16.5091 25.6459 16.2479 25.556 15.9879C25.4935 15.8104 25.4297 15.6354 25.371 15.4616C25.2735 15.1791 25.1797 14.9054 25.101 14.6504C24.8797 13.9304 24.7547 13.3929 24.7547 13.3929C24.746 13.2554 24.6272 13.1604 24.491 13.1604L24.4897 13.1591Z" fill="white"/>
</g>
<defs>
<clipPath id="clip0_716_1158">
<rect width="32" height="32" fill="white" transform="translate(0.5)"/>
</clipPath>
</defs>
</svg>
