<svg width="33" height="32" viewBox="0 0 33 32" fill="none" xmlns="http://www.w3.org/2000/svg">
<path d="M16.4915 22.1405C16.1192 22.1445 15.8213 22.4499 15.8288 22.8218L16.0506 24.5295C16.0378 25.4369 17.0508 25.4369 17.0376 24.5295L17.1713 22.8218C17.1763 22.4446 16.8691 22.1349 16.4915 22.1405Z" fill="white"/>
<path d="M14.5339 5.01095H18.4654L18.5973 5.785C18.7751 6.84031 19.5857 7.39991 20.6491 7.82948C22.1492 8.43708 23.1767 8.76281 24.643 9.46676C25.3008 9.78145 25.7541 10.2131 26.2469 11.024L28.8454 16.5352L27.5988 18.2387L24.6153 15.0443L24.5524 13.4684C24.5243 12.7887 23.7212 12.6944 23.612 13.2576L22.2396 20.3517C21.7507 22.878 22.3654 25.2392 22.5543 26.9875H10.445C10.6341 25.2392 11.247 22.8784 10.7596 20.3517L9.38789 13.2576C9.27799 12.6944 8.47298 12.7886 8.44674 13.4684L8.38414 15.0443L5.40067 18.2387L4.15264 16.5352L6.75067 11.024C7.24526 10.213 7.69891 9.78132 8.35422 9.46676C9.82088 8.76281 10.8488 8.43708 12.3507 7.82948C13.4135 7.40001 14.2227 6.84031 14.4023 5.785L14.5339 5.01095ZM13.9671 3.66657C13.6376 3.66657 13.3581 3.90199 13.3026 4.22625L13.0801 5.56105C12.9542 6.307 12.3391 6.37991 11.8488 6.58324L7.71547 8.28711C6.6659 8.71836 5.94694 9.57772 5.56152 10.3948L2.76712 16.3236C2.6615 16.5458 2.68567 16.8093 2.83223 17.0074L4.79879 19.6868C5.04879 20.0257 5.54295 20.0552 5.83025 19.748L8.68359 16.6928L9.44129 20.6075C9.90287 22.9886 9.08223 25.5272 9.01183 27.6371C8.99829 28.0161 9.30412 28.3311 9.68423 28.3311H23.3154C23.6945 28.3311 23.9984 28.0161 23.9878 27.6371C23.9153 25.5272 23.0972 22.9885 23.5559 20.6075L24.3153 16.6928L27.1695 19.748C27.4564 20.0552 27.9506 20.0257 28.2002 19.6868L30.1653 17.0074C30.3114 16.8094 30.3374 16.5462 30.2317 16.3236L27.4357 10.3943C27.0506 9.57719 26.3339 8.71783 25.284 8.28657L21.1506 6.58271C20.6578 6.37937 20.043 6.30676 19.9194 5.56052L19.695 4.22572C19.6417 3.90145 19.3597 3.66604 19.0319 3.66604L13.9671 3.66614L13.9671 3.66657Z" fill="white"/>
<path d="M14.1745 10.7552C14.1674 12.4093 12.9656 13.948 11.8193 14.6091C10.9947 15.0425 11.7041 16.2702 12.4917 15.7721C14.1337 14.8238 15.2546 12.8665 15.1837 10.7556C15.1524 9.7814 14.1764 10.0352 14.1746 10.7552L14.1745 10.7552Z" fill="white"/>
<path d="M18.8285 10.7552C18.8356 12.4093 20.0378 13.948 21.184 14.6091C22.0079 15.0425 21.2989 16.2702 20.5116 15.7721C18.8689 14.8238 17.7484 12.8665 17.8185 10.7556C17.8503 9.7814 18.8267 10.0352 18.8284 10.7552L18.8285 10.7552Z" fill="white"/>
<path d="M16.4915 13.8829C16.1192 13.8869 15.8213 14.1923 15.8288 14.5642L16.0642 20.4237C16.0524 21.1437 16.9676 21.1756 16.9676 20.4237L17.1714 14.5642C17.1763 14.1869 16.8691 13.8772 16.4915 13.8829Z" fill="white"/>
</svg>
