<svg width="33" height="32" viewBox="0 0 33 32" fill="none" xmlns="http://www.w3.org/2000/svg">
<path d="M17.8538 18.9789C17.7188 18.9827 17.5863 18.9314 17.4876 18.8389C17.3901 18.7452 17.3326 18.6164 17.3288 18.4802C17.3213 18.1977 17.5451 17.9627 17.8276 17.9552C21.7639 17.7477 25.2839 16.6114 27.2439 14.9176C28.2476 14.0501 28.7776 13.0788 28.7776 12.1074C28.7776 10.6037 27.5476 9.15996 25.3152 8.0437C22.969 6.86994 19.839 6.2237 16.5003 6.2237C13.1614 6.2237 10.0315 6.86994 7.68535 8.04244C5.45159 9.15868 4.22295 10.6024 4.22295 12.1062C4.22295 13.0774 4.75295 14.0487 5.75671 14.9163C7.71797 16.6126 11.238 17.7475 15.173 17.9539V17.9552C15.4555 17.9702 15.673 18.2114 15.658 18.4939C15.643 18.7764 15.4017 18.9939 15.1192 18.9789C13.058 18.8702 11.0491 18.5102 9.31285 17.9377C7.59159 17.3714 6.13045 16.5939 5.08671 15.6927C3.85173 14.6252 3.19922 13.3852 3.19922 12.1089C3.19922 10.1964 4.63047 8.42892 7.22802 7.12919C9.71303 5.88543 13.0056 5.20044 16.5006 5.20044C19.9955 5.20044 23.288 5.88545 25.7742 7.12793C28.3729 8.42668 29.803 10.1954 29.803 12.1077C29.803 13.3852 29.1504 14.6252 27.9155 15.6914C26.8717 16.5939 25.4104 17.3701 23.6893 17.9364C21.9518 18.5089 19.9456 18.8689 17.8829 18.9777C17.8729 18.9789 17.8642 18.9789 17.8542 18.9789L17.8538 18.9789Z" fill="white"/>
<path d="M27.5802 15.8176C27.4577 15.8176 27.339 15.7726 27.2452 15.6926C25.0527 13.7976 20.9351 12.6201 16.5015 12.6201C12.0666 12.6201 7.95003 13.7976 5.75777 15.6926C5.65527 15.7839 5.52027 15.8301 5.38278 15.8214C5.24653 15.8114 5.11903 15.7489 5.02902 15.6451C4.93901 15.5414 4.89527 15.4051 4.90652 15.2689C4.91777 15.1326 4.98277 15.0051 5.08777 14.9176C6.24652 13.9151 7.90164 13.0789 9.8715 12.4989C11.8753 11.9076 14.1678 11.5964 16.5016 11.5964C18.8354 11.5964 21.1278 11.9089 23.1318 12.4989C25.1018 13.0789 26.7555 13.9164 27.9155 14.9176C28.078 15.0576 28.1355 15.2839 28.0605 15.4839C27.9855 15.6839 27.7943 15.8176 27.5805 15.8176L27.5802 15.8176Z" fill="white"/>
<path d="M15.0716 25.3698H15.0428C11.8604 25.1923 8.91429 24.4323 6.74522 23.2286C4.45773 21.9586 3.19775 20.2798 3.19775 18.5022V12.1072C3.19775 11.8247 3.4265 11.5947 3.71026 11.5947C3.99277 11.5947 4.22151 11.8247 4.22151 12.1072V18.5022C4.22151 19.8909 5.29402 21.252 7.24151 22.3336C9.2765 23.4636 12.0676 24.1786 15.0991 24.3474C15.3816 24.3549 15.6054 24.5911 15.5979 24.8736C15.5904 25.1561 15.3541 25.3786 15.0716 25.3711L15.0716 25.3698Z" fill="white"/>
<path d="M17.9293 25.3699C17.6467 25.3786 17.4105 25.1549 17.403 24.8724C17.3955 24.5899 17.6193 24.3536 17.9018 24.3461C20.933 24.1774 23.7228 23.4624 25.7594 22.3324C27.7069 21.2511 28.7794 19.8911 28.7794 18.5009V12.1073C28.7794 11.8248 29.0081 11.5948 29.2906 11.5948C29.5744 11.5948 29.8031 11.8248 29.8031 12.1073V18.5022C29.8031 20.2797 28.5431 21.9585 26.2557 23.2286C24.0882 24.4324 21.1407 25.1924 17.9581 25.3699L17.9293 25.3699Z" fill="white"/>
<path d="M16.5004 26.7999C16.3641 26.7999 16.2341 26.7462 16.1379 26.6499L11.5504 22.0625C11.3504 21.8625 11.3504 21.5387 11.5504 21.3387L16.1379 16.7499C16.3379 16.5499 16.6629 16.5499 16.8629 16.7499L21.4503 21.3387C21.6503 21.5387 21.6503 21.8625 21.4503 22.0625L16.8629 26.6499C16.7666 26.7462 16.6366 26.7999 16.5004 26.7999ZM12.6366 21.6997L16.5004 25.5634L20.3641 21.6997L16.5004 17.8359L12.6366 21.6997Z" fill="white"/>
<path d="M16.5004 23.5712C15.7442 23.5712 15.0616 23.115 14.7716 22.4162C14.4816 21.7175 14.6416 20.9125 15.1779 20.3775C15.7129 19.8425 16.5166 19.6825 17.2166 19.9713C17.9154 20.2613 18.3716 20.9438 18.3716 21.7C18.3704 22.7325 17.5329 23.57 16.5004 23.5713L16.5004 23.5712ZM16.5004 20.8524C16.1579 20.8524 15.8491 21.0599 15.7179 21.3761C15.5866 21.6924 15.6591 22.0561 15.9016 22.2986C16.1441 22.5411 16.5079 22.6136 16.8241 22.4824C17.1416 22.3511 17.3479 22.0424 17.3479 21.6999C17.3467 21.2324 16.9679 20.8536 16.5004 20.8524Z" fill="white"/>
<path d="M21.0877 22.2125C20.8177 22.2125 20.5952 22.0037 20.5765 21.735C20.5577 21.4662 20.7502 21.23 21.0177 21.1925C21.029 21.1925 22.1202 21.0325 23.6377 20.435C25.0302 19.8862 27.0777 18.8437 28.9289 16.9923V16.9936C29.1302 16.8023 29.4477 16.8061 29.6439 17.0023C29.8401 17.1986 29.8439 17.5161 29.6526 17.7173C27.6652 19.7048 25.4702 20.8173 23.979 21.401C22.3565 22.036 21.2065 22.201 21.1577 22.2073C21.134 22.2098 21.1115 22.2123 21.0877 22.2123L21.0877 22.2125Z" fill="white"/>
<path d="M11.9127 22.2125C11.889 22.2125 11.8652 22.21 11.8427 22.2075C11.794 22.2013 10.6452 22.0375 9.02138 21.4013C7.53012 20.8175 5.33497 19.705 3.34777 17.7175C3.25152 17.6213 3.19777 17.4913 3.19777 17.355C3.19652 17.2188 3.25152 17.0888 3.34652 16.9925C3.54652 16.7925 3.87154 16.7925 4.07154 16.9925C5.92279 18.845 7.9718 19.8875 9.36407 20.4363C10.8816 21.0338 11.9728 21.1925 11.9841 21.1938V21.1925C12.2503 21.23 12.4428 21.4663 12.4241 21.735C12.4066 22.0038 12.1828 22.2125 11.9141 22.2125L11.9127 22.2125Z" fill="white"/>
</svg>
