<svg width="33" height="32" viewBox="0 0 33 32" fill="none" xmlns="http://www.w3.org/2000/svg">
<path d="M28.5 28L22.7 22.2M25.8333 14.6667C25.8333 20.5577 21.0577 25.3333 15.1667 25.3333C9.27563 25.3333 4.5 20.5577 4.5 14.6667C4.5 8.77563 9.27563 4 15.1667 4C21.0577 4 25.8333 8.77563 25.8333 14.6667Z" stroke="white" stroke-width="2.66667" stroke-linecap="round" stroke-linejoin="round"/>
<path d="M13.2931 13.5383C13.0821 13.5383 12.9019 13.3537 12.9019 13.147C12.9019 12.5448 12.3523 12.048 11.671 12.048C10.9896 12.048 10.4402 12.5447 10.4402 13.147C10.4402 13.358 10.2556 13.5383 10.049 13.5383C9.84239 13.5383 9.65771 13.3537 9.65771 13.147C9.65771 12.1008 10.5721 11.2612 11.6711 11.2612C12.77 11.2612 13.6844 12.1227 13.6844 13.147C13.6843 13.38 13.5305 13.5383 13.2932 13.5383H13.2931Z" fill="white"/>
<path d="M20.4626 13.5383C20.2515 13.5383 20.0713 13.3537 20.0713 13.147C20.0713 12.5448 19.5218 12.048 18.8405 12.048C18.1591 12.048 17.6096 12.5447 17.6096 13.147C17.6096 13.358 17.425 13.5383 17.2184 13.5383C17.0118 13.5383 16.8271 13.38 16.8271 13.147C16.8271 12.1008 17.7415 11.2612 18.8405 11.2612C19.9395 11.2612 20.8538 12.0964 20.8538 13.147C20.8538 13.38 20.6736 13.5383 20.4626 13.5383H20.4626Z" fill="white"/>
<path d="M15.126 18.3555C14.3127 18.3555 13.6358 18.1972 13.2402 17.9906C13.0556 17.8851 12.9764 17.6521 13.0819 17.4675C13.1874 17.2829 13.4204 17.2038 13.605 17.3092C14.5985 17.8324 17.8162 17.9378 19.4911 15.0585C19.5966 14.8739 19.8296 14.7948 20.0406 14.9266C20.2252 15.0322 20.3043 15.2651 20.1724 15.4762C18.8404 17.6785 16.748 18.3554 15.126 18.3554L15.126 18.3555Z" fill="white"/>
</svg>
