<svg width="33" height="32" viewBox="0 0 33 32" fill="none" xmlns="http://www.w3.org/2000/svg">
<path d="M28.5 28L22.7 22.2M25.8333 14.6667C25.8333 20.5577 21.0577 25.3333 15.1667 25.3333C9.27563 25.3333 4.5 20.5577 4.5 14.6667C4.5 8.77563 9.27563 4 15.1667 4C21.0577 4 25.8333 8.77563 25.8333 14.6667Z" stroke="white" stroke-width="2.66667" stroke-linecap="round" stroke-linejoin="round"/>
<path d="M21.1872 10.8242L20.2174 13.2263C20.1737 13.3355 20.0884 13.4228 19.9803 13.4692C19.8722 13.5155 19.7501 13.5169 19.6409 13.4732L18.6653 13.0815V17.7321C18.6653 18.0849 18.5251 18.4233 18.2756 18.6728C18.0261 18.9223 17.6877 19.0625 17.3348 19.0625H12.7035C12.3506 19.0625 12.0122 18.9223 11.7627 18.6728C11.5132 18.4233 11.3731 18.0849 11.3731 17.7321V13.0815L10.3974 13.4732C10.2882 13.5169 10.1661 13.5155 10.058 13.4692C9.9499 13.4228 9.86459 13.3355 9.82088 13.2263L8.85557 10.8242C8.81714 10.7322 8.81081 10.63 8.83765 10.534C8.86449 10.4379 8.92288 10.3538 9.0034 10.295L11.1602 8.77239C11.3844 8.61329 11.6526 8.52801 11.9275 8.52848H13.1278C13.2343 8.52718 13.3378 8.56423 13.4192 8.63292C13.5006 8.70157 13.5546 8.79728 13.5713 8.90248C13.6519 9.36299 13.9457 9.7582 14.3634 9.96816C14.7811 10.1782 15.2736 10.1782 15.6913 9.96816C16.109 9.7582 16.4028 9.36299 16.4834 8.90248C16.5001 8.79729 16.5541 8.70157 16.6356 8.63292C16.717 8.56423 16.8204 8.52718 16.9269 8.52848H18.1273C18.3981 8.53046 18.6618 8.6156 18.8827 8.77239L21.032 10.295C21.1139 10.3527 21.1737 10.4364 21.2019 10.5325C21.2301 10.6286 21.225 10.7315 21.1873 10.8242H21.1872Z" fill="white"/>
</svg>
