<svg width="33" height="32" viewBox="0 0 33 32" fill="none" xmlns="http://www.w3.org/2000/svg">
<path d="M28.5 28L22.7 22.2M25.8333 14.6667C25.8333 20.5577 21.0577 25.3333 15.1667 25.3333C9.27563 25.3333 4.5 20.5577 4.5 14.6667C4.5 8.77563 9.27563 4 15.1667 4C21.0577 4 25.8333 8.77563 25.8333 14.6667Z" stroke="white" stroke-width="2.66667" stroke-linecap="round" stroke-linejoin="round"/>
<path d="M18.179 8.12369H12.2018C12.2018 8.12369 12.5225 9.43887 11.5605 10.2042L11.7622 21.1963V21.1976C11.7647 21.2677 11.8211 21.3241 11.8912 21.3253H13.9404C14.0055 21.3241 14.0606 21.2752 14.0681 21.2101L15.1904 11.504L16.3127 21.2101C16.3202 21.2752 16.3753 21.3241 16.4405 21.3253H18.5059C18.576 21.3241 18.6324 21.2677 18.6337 21.1976L18.8353 10.2054C17.8483 9.43884 18.179 8.12369 18.179 8.12369L18.179 8.12369Z" fill="white"/>
<path d="M18.7176 6.89611H11.6633C11.6282 6.89485 11.5956 6.90863 11.5706 6.93243C11.5455 6.95623 11.5317 6.99005 11.5317 7.02387V7.66517H18.8364V7.02387C18.8364 6.95748 18.7851 6.90112 18.7174 6.89611L18.7176 6.89611Z" fill="white"/>
</svg>
