<svg width="33" height="32" viewBox="0 0 33 32" fill="none" xmlns="http://www.w3.org/2000/svg">
<path d="M28.5 28L22.7 22.2M25.8333 14.6667C25.8333 20.5577 21.0577 25.3333 15.1667 25.3333C9.27563 25.3333 4.5 20.5577 4.5 14.6667C4.5 8.77563 9.27563 4 15.1667 4C21.0577 4 25.8333 8.77563 25.8333 14.6667Z" stroke="white" stroke-width="2.66667" stroke-linecap="round" stroke-linejoin="round"/>
<path fill-rule="evenodd" clip-rule="evenodd" d="M22.1542 16.3491H8.13528V16.6994C8.13528 16.9787 8.24633 17.2455 8.44347 17.4426C8.64061 17.6398 8.90808 17.7508 9.18671 17.7508H21.1027C21.382 17.7508 21.6488 17.6398 21.846 17.4426C22.0431 17.2455 22.1542 16.978 22.1542 16.6994C22.1542 16.6994 22.1542 16.5259 22.1535 16.3491H22.1542ZM8.13528 15.6479H22.1233C21.9373 14.4795 20.924 13.5845 19.7036 13.5832C19.1694 13.5779 18.6463 13.5175 18.135 13.3999L16.7938 14.7312C16.6564 14.8673 16.4343 14.8666 16.2983 14.7293C16.1622 14.5919 16.1629 14.3698 16.3002 14.2338L17.3655 13.1764C17.0579 13.068 16.755 12.9366 16.4573 12.7835L15.3093 13.9223C15.1719 14.0583 14.9498 14.0577 14.8138 13.9203C14.6777 13.783 14.6784 13.5609 14.8157 13.4248L15.8284 12.4194C15.5951 12.2702 15.3651 12.1059 15.1384 11.9265C14.8933 11.7327 14.5746 11.6578 14.2683 11.7228C13.9621 11.7885 13.7012 11.987 13.5566 12.2643C13.556 12.2656 13.5553 12.2669 13.5547 12.2682C13.2662 12.84 12.6728 13.2329 11.9893 13.2329C11.6035 13.2329 11.2434 13.2073 10.9431 13.1186C10.5882 13.0141 10.328 12.8143 10.2702 12.4187C10.2695 12.4154 10.2689 12.4122 10.2682 12.4089C10.2058 12.0534 9.983 11.7471 9.66429 11.5776C9.34558 11.4087 8.96706 11.3969 8.63782 11.5447C8.31122 11.6906 8.13379 11.9581 8.13379 12.1815V15.6479L8.13528 15.6479Z" fill="white"/>
</svg>
