<svg width="33" height="32" viewBox="0 0 33 32" fill="none" xmlns="http://www.w3.org/2000/svg">
<path d="M14.5332 5.01094H18.4628L18.5947 5.78499C18.7743 6.83886 19.5867 7.3999 20.6484 7.82947L24.6441 9.46822C25.2831 9.81281 25.7517 10.2131 26.2441 11.0184L28.8464 16.5352L27.463 18.4203L24.1995 16.6646C24.7197 15.8497 25.1364 15.2093 25.3828 14.2571C25.568 13.5424 24.7418 13.2314 24.4438 14.0349C23.6068 16.2795 22.0604 17.0162 20.8014 17.0162H20.0326C19.1214 16.9996 19.1142 18.031 20.0326 18.148C21.0082 18.2703 21.7624 18.2237 22.7014 17.7868L22.2381 20.3571C21.7808 22.8847 22.3643 25.2403 22.5531 26.9867H10.4443C10.6334 25.2402 11.2148 22.8845 10.7592 20.3571L10.2942 17.7868C11.2332 18.2237 11.9887 18.2703 12.963 18.148C13.8832 18.0313 13.8754 16.9999 12.963 17.0162H12.1946C10.935 17.0162 9.38903 16.2796 8.5517 14.0349C8.25378 13.2314 7.42962 13.5425 7.61442 14.2571C7.86077 15.2093 8.27754 15.8496 8.79629 16.6646L5.53282 18.4203L4.1497 16.5352L6.75346 11.0184C7.24407 10.2131 7.71242 9.8127 8.3517 9.46822L12.3504 7.82947C13.411 7.4 14.2241 6.83886 14.4019 5.78499L14.5332 5.01094ZM13.9629 3.66656C13.6372 3.66656 13.3574 3.90375 13.302 4.22624L13.0758 5.56312C12.9496 6.30728 12.3385 6.38374 11.8464 6.58323L7.7117 8.2871C6.91138 8.72054 6.0893 9.28552 5.59504 10.3337L2.76517 16.3235C2.65955 16.5457 2.68371 16.8093 2.83027 17.0073L4.79651 19.6849C4.99277 19.9569 5.36153 20.0404 5.65766 19.8811L8.98539 18.0945L9.43905 20.6072C9.87073 22.9944 9.07958 25.5256 9.00779 27.6352C8.99498 28.0146 9.30041 28.331 9.6802 28.331H23.3175C23.6987 28.331 24.0023 28.0146 23.9899 27.6352C23.9174 25.5257 23.1266 22.9944 23.558 20.6072L24.0134 18.0945L27.3414 19.8811C27.6375 20.0404 28.0045 19.9569 28.2025 19.6849L30.1673 17.0073C30.3135 16.8093 30.3394 16.5461 30.2338 16.3235L27.4047 10.3331C26.9084 9.28488 26.0874 8.72001 25.286 8.28656L21.1526 6.5827C20.6602 6.38291 20.0472 6.30675 19.9209 5.56259L19.6952 4.22571C19.6419 3.9032 19.3617 3.66603 19.0339 3.66603L13.9632 3.66614L13.9629 3.66656Z" fill="white"/>
<path d="M11.3445 14.0683C10.9737 14.0736 10.6776 14.3794 10.6832 14.7495V15.1886C10.6775 15.5644 10.9793 15.8695 11.3556 15.8695C11.7296 15.8695 12.0315 15.5644 12.0262 15.1886V14.7495C12.0332 14.3719 11.7239 14.063 11.3445 14.0683Z" fill="white"/>
<path d="M16.5003 15.5979C16.272 15.6092 16.0313 15.7347 15.9164 15.9314C15.6142 16.4537 15.3109 16.7815 14.9162 17.0262C14.2626 17.4277 14.6716 18.0559 15.2973 17.8949C15.766 17.7743 16.1607 17.6022 16.4998 17.2242C16.8369 17.6022 17.2312 17.7739 17.6995 17.8949C18.3256 18.0559 18.7345 17.4277 18.0814 17.0262C17.6871 16.7816 17.383 16.4541 17.0812 15.9314C16.9685 15.7347 16.726 15.6092 16.5003 15.5979Z" fill="white"/>
<path d="M16.4888 23.9365C16.1183 23.9423 15.8222 24.2459 15.8282 24.6163V25.0569C15.8222 25.433 16.1244 25.7384 16.5006 25.7384C16.8747 25.7384 17.1758 25.4327 17.1708 25.0569V24.6163C17.1757 24.2388 16.8667 23.9312 16.4888 23.9365Z" fill="white"/>
<path d="M21.6332 14.0683C21.2631 14.0736 20.9668 14.3794 20.9722 14.7495V15.1886C20.9669 15.5644 21.2706 15.8695 21.6446 15.8695C22.0208 15.8695 22.3223 15.5644 22.317 15.1886V14.7495C22.3222 14.3719 22.013 14.063 21.6332 14.0683Z" fill="white"/>
</svg>
