<svg width="33" height="32" viewBox="0 0 33 32" fill="none" xmlns="http://www.w3.org/2000/svg">
<path d="M11.054 15.7626C11.9215 14.9751 12.4766 13.8501 12.4766 12.5877C12.4766 10.5252 11.0153 8.80019 9.07389 8.38393L9.07514 4.66019C9.07514 4.1627 8.67263 3.76019 8.17514 3.76019C7.67765 3.76019 7.27514 4.1627 7.27514 4.66019V8.38286C5.33389 8.79785 3.87247 10.5241 3.87247 12.5866C3.87247 13.8491 4.42871 14.9741 5.29623 15.7615C3.11122 16.8315 1.59863 19.0717 1.59863 21.6639C1.59863 25.2901 4.5485 28.2402 8.17357 28.2402C11.7986 28.2402 14.7485 25.2903 14.7485 21.6639C14.7498 19.0727 13.2372 16.8325 11.0536 15.7629L11.054 15.7626ZM5.67298 12.5877C5.67298 11.2089 6.79549 10.0864 8.17549 10.0864C9.55424 10.0864 10.678 11.2089 10.678 12.5877C10.678 13.9677 9.55549 15.0902 8.17549 15.0902C6.79549 15.0889 5.67298 13.9677 5.67298 12.5877ZM8.17549 26.4389C5.54298 26.4389 3.40056 24.2964 3.40056 21.6639C3.40056 19.0315 5.54306 16.8901 8.17549 16.8901C10.8079 16.8901 12.9504 19.0326 12.9504 21.6639C12.9504 24.2977 10.8079 26.4389 8.17549 26.4389Z" fill="white"/>
<path d="M8.17557 22.939C7.47307 22.939 6.90059 22.3665 6.90059 21.664C6.90059 21.1665 6.49808 20.764 6.00059 20.764C5.50309 20.764 5.10059 21.1665 5.10059 21.664C5.10059 23.3602 6.47933 24.7402 8.17552 24.7402C8.67301 24.7402 9.07552 24.3377 9.07552 23.8402C9.07552 23.3428 8.67301 22.939 8.17552 22.939L8.17557 22.939Z" fill="white"/>
<path d="M27.7032 15.7627C28.5707 14.9752 29.1269 13.8502 29.1269 12.5877C29.1269 10.5252 27.6644 8.80028 25.7243 8.38508L25.7255 4.66001C25.7255 4.16252 25.323 3.76001 24.8255 3.76001C24.328 3.76001 23.9255 4.16252 23.9255 4.66001V8.38268C21.9843 8.79892 20.5229 10.5239 20.5229 12.5853C20.5229 13.8466 21.0791 14.9728 21.9466 15.7603C19.7616 16.8303 18.249 19.0704 18.249 21.6627C18.249 25.2888 21.1989 28.2389 24.8253 28.2389C28.4504 28.2389 31.4002 25.2891 31.4002 21.6627C31.399 19.0727 29.8865 16.8325 27.7026 15.7624L27.7032 15.7627ZM22.3221 12.5877C22.3221 11.209 23.4446 10.0865 24.8246 10.0865C26.2046 10.0865 27.3271 11.209 27.3271 12.5877C27.3271 13.9677 26.2046 15.0902 24.8246 15.0902C23.4446 15.089 22.3221 13.9677 22.3221 12.5877ZM24.8246 26.4389C22.1909 26.4389 20.0497 24.2964 20.0497 21.664C20.0497 19.0316 22.1922 16.8901 24.8246 16.8901C27.4571 16.8901 29.5985 19.0327 29.5985 21.664C29.5997 24.2978 27.4572 26.4389 24.8246 26.4389Z" fill="white"/>
<path d="M24.8255 22.939C24.123 22.939 23.5505 22.3665 23.5505 21.664C23.5505 21.1665 23.148 20.764 22.6505 20.764C22.153 20.764 21.7505 21.1665 21.7505 21.664C21.7505 23.3602 23.1305 24.7402 24.8268 24.7402C25.3242 24.7402 25.7268 24.3377 25.7268 23.8402C25.7268 23.3428 25.323 22.939 24.8255 22.939L24.8255 22.939Z" fill="white"/>
</svg>
