<svg width="33" height="32" viewBox="0 0 33 32" fill="none" xmlns="http://www.w3.org/2000/svg">
<g clip-path="url(#clip0_920_679)">
<path d="M2.12638 8.05119C3.70523 6.669 5.54531 5.61775 7.53812 4.95972C9.53062 4.3017 11.6349 4.05044 13.7264 4.22066C14.8677 4.93431 21.4746 8.92999 28.0624 10.1449C28.1101 10.1542 28.1587 10.1589 28.2074 10.1588C28.3452 10.1573 28.4803 10.1205 28.6 10.0521C30.1262 9.0115 31.3533 7.58939 32.1595 5.92731C32.2416 5.75544 32.2598 5.56003 32.2109 5.37595C32.162 5.19199 32.049 5.03136 31.8925 4.92304C31.7358 4.81481 31.5458 4.76575 31.3564 4.78492C28.1017 4.96044 24.8388 4.65096 21.6753 3.86649C19.4769 3.44513 16.982 2.96617 14.102 2.64617H14.0743C11.7205 2.41076 9.34358 2.66857 7.09505 3.40327C4.84652 4.13785 2.77585 5.33316 1.01505 6.91287C0.815779 7.11401 0.737557 7.40537 0.809427 7.67921C0.881301 7.95297 1.09244 8.16849 1.36484 8.24577C1.63713 8.32296 1.93004 8.25056 2.13505 8.05525L2.12638 8.05119ZM21.3701 5.43994C24.1938 6.09442 27.0797 6.4417 29.9781 6.47567C29.4686 7.26911 28.8149 7.95972 28.0506 8.51191C24.5917 7.7293 21.2509 6.4941 18.1146 4.83831C19.2731 5.03987 20.3515 5.24684 21.3701 5.43988L21.3701 5.43994Z" fill="white"/>
<path d="M10.7036 16.3051C10.6842 16.2879 10.6639 16.2718 10.6428 16.257C10.6257 16.24 10.6161 16.2176 10.598 16.2027C10.5746 16.1884 10.5504 16.1756 10.5255 16.1642C10.4796 16.1334 10.4307 16.1077 10.3793 16.0875C10.3336 16.0699 10.2865 16.0563 10.2385 16.0469C10.1879 16.0376 10.1364 16.0329 10.0849 16.033C10.035 16.0338 9.98536 16.0395 9.93661 16.0501C9.88703 16.0595 9.83838 16.0738 9.79161 16.0928C9.74203 16.1143 9.69453 16.1404 9.64974 16.1706C9.62484 16.1829 9.60067 16.1964 9.57713 16.2112C9.55796 16.2283 9.54942 16.2507 9.53129 16.2678C9.51317 16.2849 9.48973 16.2965 9.47265 16.3168C9.43536 16.3627 5.70092 20.8672 1.90572 19.0902V19.0901C1.64676 18.9691 1.343 18.9955 1.10873 19.1592C0.874458 19.323 0.745396 19.5992 0.77009 19.884C0.794777 20.1687 0.969466 20.4187 1.22844 20.5397C2.02822 20.9202 2.9027 21.118 3.78844 21.1189C6.63004 21.1189 9.0151 19.0923 10.0988 18.0021C10.4349 18.3456 10.8999 18.7915 11.4759 19.2821C10.8113 20.2784 8.19913 23.7355 3.91433 23.7728H3.91423C3.62839 23.7742 3.36505 23.9278 3.22329 24.176C3.08152 24.4243 3.08298 24.7292 3.22704 24.976C3.3711 25.2229 3.6359 25.3742 3.92174 25.3728H3.92809C8.89449 25.3301 11.847 21.6 12.7441 20.2677C13.286 20.6561 13.8501 21.0122 14.4337 21.3344C13.7509 22.6667 11.767 25.9211 8.19793 27.0293V27.0294C7.92492 27.1142 7.71782 27.3382 7.6547 27.617C7.59168 27.8959 7.6821 28.1873 7.8921 28.3813C8.10199 28.5754 8.39959 28.6428 8.67263 28.558C11.838 27.4145 14.4262 25.0716 15.878 22.0353C16.5063 22.2984 17.1557 22.5079 17.8193 22.6614C16.8521 24.7293 15.4648 26.5729 13.7457 28.0748C13.543 28.2717 13.4593 28.561 13.5254 28.8358C13.5916 29.1106 13.7978 29.3301 14.0679 29.4132C14.3381 29.4963 14.6321 29.4307 14.8413 29.2406C16.8458 27.51 18.4221 25.3382 19.4461 22.8961C19.6594 22.911 19.8727 22.9323 20.0924 22.9323C20.6617 22.9275 21.2295 22.8737 21.7895 22.7713C21.3479 24.4946 20.5764 26.1161 19.5175 27.5457C19.3852 27.7116 19.3243 27.9233 19.3481 28.1341C19.3719 28.3449 19.4786 28.5377 19.6445 28.6699C19.8111 28.801 20.0229 28.8604 20.2333 28.8352C20.4438 28.8099 20.6356 28.7022 20.7666 28.5355C22.1354 26.6861 23.086 24.5613 23.5527 22.3083C24.2128 22.0799 24.8547 21.8017 25.4727 21.4763C25.2145 23.1067 24.7012 24.6862 23.9517 26.1568C23.826 26.4064 23.8396 26.7034 23.9874 26.9406C24.1351 27.1777 24.3958 27.3207 24.6752 27.318C24.9546 27.3152 25.2123 27.167 25.3553 26.927C26.3747 24.8816 27.0165 22.6692 27.2498 20.3958C27.8848 19.9551 28.4931 19.4771 29.0717 18.9644C28.9563 20.3231 28.7392 21.6713 28.422 22.9974C28.3322 23.2655 28.3904 23.5611 28.5753 23.7749C28.7601 23.9888 29.0442 24.0892 29.3224 24.0391C29.6006 23.989 29.8317 23.7958 29.9303 23.5308C30.4074 21.3431 30.7282 19.1241 30.8903 16.8908V16.8598C30.8924 16.7881 30.8845 16.7162 30.8669 16.6465C30.8636 16.6196 30.8586 16.5929 30.8519 16.5665C30.8231 16.4842 30.7805 16.4074 30.7261 16.3393C30.7186 16.3297 30.7165 16.318 30.709 16.3094C30.517 16.0812 25.9228 10.7212 20.0999 10.7212C17.3303 10.8389 14.67 11.8356 12.5052 13.567C12.2822 13.739 12.1661 14.0157 12.1995 14.2953C12.2329 14.5751 12.411 14.8166 12.6684 14.9312C12.9256 15.0459 13.2243 15.0167 13.4546 14.8544C15.354 13.3424 17.6759 12.4572 20.0999 12.3211C24.1842 12.3211 27.749 15.5435 29.0066 16.8256C27.75 18.1056 24.1853 21.328 20.0999 21.328C15.0162 21.3248 10.7463 16.3552 10.7037 16.3051L10.7036 16.3051Z" fill="white"/>
</g>
<defs>
<clipPath id="clip0_920_679">
<rect width="32" height="32" fill="white" transform="translate(0.5)"/>
</clipPath>
</defs>
</svg>
