<svg width="33" height="32" viewBox="0 0 33 32" fill="none" xmlns="http://www.w3.org/2000/svg">
<path fill-rule="evenodd" clip-rule="evenodd" d="M16.5003 5.76001C16.5524 5.76001 16.6043 5.76043 16.6562 5.76116L16.5003 5.76001C16.5686 5.76001 16.6368 5.76063 16.7049 5.76199C16.7457 5.76282 16.7863 5.76386 16.8269 5.76511C16.84 5.76553 16.8531 5.76595 16.8662 5.76647C16.9038 5.76772 16.9413 5.76928 16.9788 5.77095C16.994 5.77168 17.0093 5.77241 17.0245 5.77324C17.1776 5.78095 17.3297 5.79199 17.4809 5.80636C17.5728 5.81511 17.6642 5.82501 17.7553 5.83616C17.7709 5.83803 17.7864 5.84001 17.802 5.84199C17.8294 5.84543 17.8568 5.84907 17.8842 5.85272C17.9111 5.85636 17.9379 5.86011 17.9645 5.86386C17.9881 5.8673 18.0116 5.87074 18.0352 5.87428C18.0594 5.87793 18.0838 5.88168 18.1081 5.88553C18.1334 5.88949 18.1586 5.89355 18.1837 5.89772C18.2151 5.90293 18.2464 5.90824 18.2778 5.91376C18.2982 5.9173 18.3186 5.92095 18.339 5.9247C18.3571 5.92793 18.3752 5.93126 18.3931 5.93459C18.4373 5.94293 18.4817 5.95147 18.5259 5.96032C18.6138 5.97793 18.7013 5.99678 18.7885 6.01668C18.7994 6.01918 18.8104 6.02168 18.8212 6.02418C18.9096 6.0447 18.9979 6.06636 19.0855 6.08918C19.1057 6.09439 19.1259 6.0997 19.1461 6.10512C19.1687 6.11116 19.1912 6.1172 19.2135 6.12334C19.2377 6.12991 19.2618 6.13668 19.286 6.14345C19.4217 6.18178 19.5564 6.22282 19.6899 6.26647L19.7369 6.28209C19.7442 6.28449 19.7514 6.28689 19.7587 6.28939C19.7904 6.30001 19.8219 6.31074 19.8535 6.32168C19.8769 6.3298 19.9003 6.33793 19.9236 6.34626C19.9457 6.35407 19.9677 6.36189 19.9895 6.36991C20.0103 6.37741 20.0311 6.38501 20.0518 6.39272C20.195 6.44564 20.3365 6.50157 20.4764 6.56064C20.4921 6.5672 20.5076 6.57376 20.523 6.58043C20.5513 6.59251 20.5795 6.6047 20.6078 6.61709C20.625 6.6247 20.6423 6.6323 20.6595 6.64001C20.6907 6.65376 20.7215 6.66772 20.7525 6.68189C20.7649 6.68751 20.7775 6.69334 20.79 6.69918C20.8182 6.7122 20.8462 6.72522 20.874 6.73845C21.0064 6.80106 21.1374 6.86647 21.2667 6.9346C21.2903 6.9471 21.3138 6.9596 21.3373 6.9722C21.352 6.98001 21.3667 6.98804 21.3814 6.99606C21.4079 7.01043 21.4342 7.02481 21.4605 7.03939C21.485 7.05304 21.5095 7.06668 21.5338 7.08054C21.5477 7.08835 21.5614 7.09616 21.5752 7.10397C21.6055 7.12127 21.6356 7.13877 21.6657 7.15637C21.6701 7.15897 21.6746 7.16158 21.679 7.16418C21.7102 7.18251 21.7411 7.20085 21.7718 7.21939C21.7981 7.23512 21.8244 7.25116 21.8506 7.2672C21.9712 7.34126 22.0902 7.41783 22.2075 7.49668C22.2252 7.50856 22.2429 7.52054 22.2605 7.53252C22.2881 7.55137 22.3157 7.57033 22.3431 7.5895C22.3532 7.59647 22.3634 7.60366 22.3736 7.61075C22.3966 7.62689 22.4194 7.64293 22.442 7.65908C22.5853 7.76147 22.726 7.86741 22.8638 7.97689C22.8901 7.99773 22.9163 8.01877 22.9424 8.03991C22.969 8.06148 22.9954 8.08304 23.0215 8.10471C23.1177 8.18419 23.2124 8.26533 23.3055 8.34825C23.373 8.40835 23.4399 8.4695 23.5059 8.53148C23.561 8.58314 23.6154 8.63533 23.6692 8.68814C23.6857 8.70429 23.7023 8.72064 23.7187 8.737C23.7336 8.75179 23.7485 8.76668 23.7633 8.78148C23.7854 8.80377 23.8074 8.82606 23.8292 8.84846C23.8429 8.86241 23.8565 8.87648 23.8701 8.89064C23.8938 8.91523 23.9173 8.93981 23.9407 8.9645C23.9501 8.97439 23.9595 8.9845 23.9689 8.9945C24.0589 9.09043 24.1469 9.18793 24.2332 9.28711C24.2579 9.31555 24.2825 9.34409 24.3068 9.37284C24.3599 9.43523 24.412 9.49815 24.4635 9.56169C24.4727 9.57304 24.4818 9.5844 24.4909 9.59565C24.6128 9.74763 24.7305 9.90303 24.8438 10.062C24.8603 10.0851 24.8768 10.1085 24.8932 10.1319C24.9039 10.1473 24.9146 10.1627 24.9254 10.178C24.9393 10.1982 24.9532 10.2186 24.967 10.2389C24.9848 10.2649 25.0024 10.291 25.02 10.3172C25.0297 10.3318 25.0394 10.3464 25.0491 10.361C25.064 10.3837 25.0789 10.4064 25.0937 10.4292C25.107 10.4496 25.1202 10.47 25.1334 10.4906C25.1858 10.5727 25.237 10.6553 25.2871 10.7388C25.3257 10.803 25.3636 10.8678 25.4009 10.9331C25.4108 10.9506 25.4208 10.9681 25.4306 10.9856C25.44 11.0023 25.4493 11.019 25.4586 11.0356C25.4939 11.0993 25.5286 11.1635 25.5627 11.228C25.5764 11.2541 25.5902 11.2802 25.6037 11.3066C25.612 11.3226 25.6203 11.3388 25.6285 11.3548C25.6964 11.488 25.7615 11.6229 25.8237 11.7595C25.8339 11.7819 25.8441 11.8045 25.8542 11.827C25.8671 11.8559 25.8798 11.8849 25.8926 11.914C25.8998 11.9307 25.9071 11.9476 25.9143 11.9644C25.9229 11.9842 25.9312 12.004 25.9396 12.0238C25.9511 12.0509 25.9625 12.0782 25.9737 12.1056C25.9833 12.129 25.9929 12.1523 26.0022 12.1757C26.0576 12.313 26.11 12.4516 26.1593 12.5915C26.1652 12.608 26.171 12.6247 26.1767 12.6414C26.2218 12.7714 26.2644 12.9026 26.3044 13.0349C26.3068 13.0429 26.3092 13.0509 26.3116 13.0588L26.3044 13.0349C26.3642 13.233 26.4183 13.4338 26.4662 13.6368C26.6455 14.3954 26.7403 15.1866 26.7403 16C26.7403 21.6555 22.1557 26.24 16.5003 26.24C10.8448 26.24 6.26025 21.6555 6.26025 16C6.26025 15.252 6.34046 14.5226 6.49276 13.8202C6.49682 13.8029 6.50067 13.7855 6.50453 13.7681C6.56224 13.5072 6.63005 13.2503 6.70755 12.9975C6.71369 12.9783 6.71963 12.959 6.72567 12.9397C6.73328 12.9144 6.7413 12.8893 6.74932 12.8643C6.75651 12.8427 6.76359 12.821 6.77067 12.7993C6.97869 12.1659 7.24702 11.5599 7.56859 10.9879C7.57911 10.9696 7.58943 10.9513 7.59984 10.9332C7.77641 10.6234 7.9688 10.3237 8.1759 10.0352C8.1935 10.0109 8.2111 9.98669 8.22871 9.96252C8.23631 9.952 8.24402 9.94148 8.25183 9.93086C8.27548 9.89888 8.29923 9.86711 8.32309 9.83544C8.32892 9.82773 8.33486 9.81982 8.3409 9.8119C8.36225 9.78388 8.38361 9.75596 8.40517 9.72826C8.55142 9.53971 8.70424 9.35628 8.86309 9.17847C8.88361 9.15566 8.90424 9.13274 8.92507 9.10993C8.93496 9.09899 8.94496 9.08805 8.95496 9.07711C9.01205 9.01493 9.06996 8.95336 9.12861 8.89263C9.14507 8.87545 9.16174 8.85836 9.1783 8.84138C9.19246 8.82701 9.20653 8.81263 9.22069 8.79836C9.24184 8.7769 9.26319 8.75555 9.28465 8.7342C9.29527 8.72368 9.306 8.71305 9.31673 8.70253C9.37517 8.64492 9.43444 8.58795 9.49444 8.53159C9.51309 8.5142 9.53173 8.4969 9.55038 8.47961C9.73944 8.30482 9.93497 8.13711 10.1367 7.97689C10.1485 7.96752 10.1602 7.95825 10.1719 7.94908C10.1888 7.93575 10.2058 7.92241 10.2228 7.90918C10.2533 7.88554 10.2839 7.8621 10.3146 7.83866C10.3214 7.83356 10.3282 7.82845 10.3349 7.82335C10.3702 7.79679 10.4057 7.77033 10.4414 7.74408C10.4514 7.73668 10.4614 7.72929 10.4715 7.722C10.486 7.71147 10.5005 7.70095 10.515 7.69043C10.6862 7.56689 10.8614 7.44845 11.0405 7.33545C11.059 7.32368 11.0778 7.31201 11.0964 7.30034C11.1143 7.2892 11.1321 7.27815 11.15 7.26722C11.1708 7.25451 11.1918 7.2417 11.2129 7.22888C11.2832 7.18638 11.354 7.14482 11.4254 7.10399C11.4408 7.09524 11.4562 7.08649 11.4717 7.07774C11.5011 7.06107 11.5304 7.04472 11.5599 7.02847C11.5744 7.02044 11.5892 7.01232 11.6039 7.0043C11.629 6.99055 11.6541 6.97701 11.6793 6.96357C11.7028 6.95107 11.7263 6.93857 11.7498 6.92628C11.7691 6.91607 11.7884 6.90607 11.8078 6.89607C11.8311 6.88409 11.8544 6.87211 11.8778 6.86024C11.9443 6.82649 12.0113 6.79347 12.0787 6.76118C12.1687 6.71805 12.2583 6.6767 12.3485 6.6367C12.4204 6.60472 12.4927 6.57357 12.5655 6.54326C12.5887 6.53357 12.6119 6.52409 12.6352 6.51461C12.6522 6.50763 12.6695 6.50055 12.6868 6.49368C12.7722 6.4594 12.858 6.42628 12.9443 6.3943C12.954 6.39076 12.9635 6.38722 12.9731 6.38378C13.0042 6.37222 13.0357 6.36086 13.0672 6.34972C13.0897 6.3417 13.1121 6.33378 13.1345 6.32597C13.1554 6.31878 13.1763 6.31159 13.1972 6.30441C13.224 6.29534 13.2508 6.28628 13.2777 6.27743C13.3509 6.25316 13.4244 6.22972 13.4983 6.20711C13.5424 6.19357 13.5866 6.18034 13.631 6.16743C13.7076 6.14513 13.7846 6.12368 13.862 6.10305C13.8844 6.09711 13.9067 6.09128 13.9291 6.08555C13.9587 6.07784 13.9882 6.07034 14.0178 6.06305C14.0359 6.05847 14.0541 6.05399 14.0723 6.04961C14.1028 6.04222 14.1331 6.03493 14.1634 6.02784C14.1866 6.02243 14.2099 6.01711 14.2334 6.0118C14.2636 6.00493 14.2939 5.99826 14.3242 5.9917C14.3415 5.98795 14.3588 5.9843 14.3761 5.98065C14.4061 5.9743 14.4362 5.96805 14.4663 5.96201C14.4928 5.9567 14.5192 5.95149 14.5458 5.94638C14.5726 5.94118 14.5993 5.93607 14.6261 5.93118C14.6461 5.92743 14.6661 5.92378 14.6861 5.92024C14.7146 5.91513 14.7432 5.91013 14.7717 5.90534C14.8183 5.89742 14.8651 5.88982 14.9118 5.88253C15.0392 5.86263 15.1673 5.84513 15.2963 5.83003C15.3242 5.8268 15.3522 5.82357 15.3804 5.82055C15.4147 5.8168 15.4492 5.81326 15.4838 5.80982C15.4943 5.80878 15.505 5.80774 15.5157 5.8068C15.5582 5.80274 15.6006 5.79888 15.6432 5.79534C15.6545 5.7944 15.6659 5.79357 15.6773 5.79263C15.7218 5.78909 15.7662 5.78586 15.8108 5.78284C15.8209 5.78222 15.8308 5.78159 15.8407 5.78097C15.8794 5.77847 15.9184 5.77617 15.9573 5.77419C15.9772 5.77315 15.997 5.77211 16.0169 5.77128C16.1185 5.76649 16.2206 5.76326 16.323 5.76149C16.3265 5.76149 16.3299 5.76138 16.3332 5.76138C16.3886 5.76044 16.4444 5.76001 16.5003 5.76001ZM14.7402 10.7475C13.0202 12.7926 10.5146 14.1549 7.68843 14.3701C7.59104 14.8987 7.54031 15.4434 7.54031 16C7.54031 20.9486 11.5518 24.96 16.5003 24.96C21.4488 24.96 25.4603 20.9486 25.4603 16C25.4603 15.3299 25.3868 14.6769 25.2472 14.0488C24.397 14.2781 23.5029 14.4 22.5802 14.4C19.4336 14.4 16.6186 12.9808 14.7402 10.7475L14.7402 10.7475ZM13.1403 15.04C13.7588 15.04 14.2603 15.5415 14.2603 16.16C14.2603 16.7785 13.7588 17.28 13.1403 17.28C12.5217 17.28 12.0203 16.7785 12.0203 16.16C12.0203 15.5415 12.5217 15.04 13.1403 15.04ZM19.8603 15.04C20.4788 15.04 20.9803 15.5415 20.9803 16.16C20.9803 16.7785 20.4788 17.28 19.8603 17.28C19.2417 17.28 18.7403 16.7785 18.7403 16.16C18.7403 15.5415 19.2417 15.04 19.8603 15.04Z" fill="white"/>
</svg>
