<svg width="33" height="32" viewBox="0 0 33 32" fill="none" xmlns="http://www.w3.org/2000/svg">
<path d="M19.1558 31.2H18.9958L9.8438 30.4C8.91577 30.304 8.21183 29.5361 8.21183 28.608V22.528C8.21183 22.336 8.08381 22.208 8.01985 22.1441C5.13985 19.648 3.44385 16.0001 3.44385 12.3201C3.44385 5.98408 8.59585 0.800079 14.9638 0.800079C20.9798 0.800079 25.8758 5.31208 26.4198 11.2961C26.4198 11.4561 26.4838 11.6161 26.5479 11.7441L29.2359 15.8401C29.6519 16.4801 29.6839 17.2801 29.3319 17.9521C28.9799 18.6241 28.2759 19.0401 27.508 19.0401H26.484V22.7841C26.484 24.2561 25.3001 25.4402 23.828 25.4402H20.98V29.3762C20.98 29.8881 20.756 30.3681 20.4039 30.6881C20.0518 31.04 19.6038 31.2 19.1559 31.2H19.1558ZM14.9638 2.56C9.5558 2.56 5.2038 6.912 5.2038 12.32C5.2038 15.456 6.70775 18.688 9.1718 20.8C9.68377 21.248 9.9718 21.8561 9.9718 22.4961V28.5761L19.1558 29.44L19.2198 25.088C19.2198 24.32 19.8278 23.7119 20.5958 23.7119H23.7958C24.3078 23.7119 24.6919 23.2959 24.6919 22.8159L24.6918 18.4959C24.6918 17.8239 25.2357 17.2798 25.9078 17.2798H27.4758C27.6358 17.2798 27.7319 17.1838 27.7639 17.1198C27.7958 17.0559 27.8278 16.9279 27.7639 16.7998L25.0439 12.6718C24.8199 12.2879 24.6919 11.9038 24.6599 11.4558C24.2118 6.36779 20.0519 2.55979 14.9637 2.55979L14.9638 2.56Z" fill="white"/>
</svg>
