<svg width="33" height="32" viewBox="0 0 33 32" fill="none" xmlns="http://www.w3.org/2000/svg">
<path d="M29.2255 12.72H27.9405C27.2655 11.505 25.9605 10.67 24.4808 10.67H8.51089C7.03089 10.67 5.72582 11.5 5.05116 12.72H3.76614C3.11116 12.73 3.11116 13.71 3.76614 13.72H4.66614C4.41614 15.06 4.63614 16.745 4.93114 17.76C6.37114 23.1501 16.5261 22.8651 15.7762 14.185H17.2112C16.4612 22.8651 26.6163 23.1501 28.0563 17.76C28.3512 16.745 28.5713 15.06 28.3263 13.72H29.2263C29.8813 13.71 29.8813 12.73 29.2263 12.72H29.2255ZM18.2655 11.67C17.8555 12.08 17.5505 12.595 17.3855 13.18H15.6205C15.4555 12.595 15.1505 12.075 14.7405 11.67H18.2704H18.2655ZM11.2204 20.215C8.69542 20.675 5.3103 19.845 5.57057 14.53C5.60057 12.955 6.92057 11.67 8.51564 11.67H12.3106C13.5256 11.67 14.5356 12.55 14.7206 13.755C15.5606 19.3249 11.4104 20.1801 11.2203 20.2153L11.2204 20.215ZM27.1055 17.4652C26.0055 21.0652 21.9506 20.255 21.7652 20.215C21.5902 20.18 17.4354 19.33 18.2754 13.7548C18.4604 12.5448 19.4704 11.6698 20.6854 11.6698H24.4803C26.0753 11.6698 27.3952 12.9548 27.4254 14.5298C27.4454 15.6848 27.3354 16.6998 27.1004 17.4647L27.1055 17.4652ZM11.9506 13.4153L7.6503 16.7702C7.13532 17.1702 6.5203 16.3852 7.03532 15.9802C7.02032 15.9903 11.295 12.6602 11.3356 12.6253C11.8556 12.2253 12.4656 13.0103 11.9506 13.4153ZM11.3156 16.0903L9.8006 17.2753C9.5856 17.4453 9.2706 17.4103 9.1006 17.1903C8.9306 16.9703 8.9706 16.6603 9.1856 16.4903L10.7006 15.3053C11.2206 14.9053 11.8306 15.6903 11.3156 16.0953L11.3156 16.0903ZM7.16545 13.8102L8.68044 12.6252C8.90044 12.4552 9.21044 12.4952 9.38044 12.7102C9.55044 12.9302 9.51044 13.2402 9.29544 13.4102L7.78045 14.5952C7.69045 14.6652 7.58045 14.7003 7.47544 14.7003C7.02045 14.7153 6.79042 14.0802 7.16544 13.8053L7.16545 13.8102ZM24.4505 13.4153L20.1502 16.7702C19.6353 17.1702 19.0202 16.3852 19.5353 15.9802C19.5203 15.9902 23.795 12.6602 23.8355 12.6253C24.3555 12.2253 24.9655 13.0103 24.4505 13.4153ZM23.8155 16.0902L22.3005 17.2752C21.7856 17.6802 21.1755 16.8852 21.6856 16.4852L23.2005 15.3002C23.7155 14.9002 24.3305 15.6852 23.8155 16.0902ZM19.6654 13.8102L21.1804 12.6252C21.4004 12.4552 21.7104 12.4952 21.8804 12.7102C22.0504 12.9302 22.0104 13.2402 21.7954 13.4102L20.2804 14.5952C20.1904 14.6652 20.0804 14.7002 19.9754 14.7002C19.5204 14.7152 19.2904 14.0802 19.6654 13.8052L19.6654 13.8102Z" fill="white"/>
</svg>
