<svg width="33" height="32" viewBox="0 0 33 32" fill="none" xmlns="http://www.w3.org/2000/svg">
<path fill-rule="evenodd" clip-rule="evenodd" d="M21.0889 3.58234C20.9789 3.49109 20.7089 3.2736 20.4251 3.0636C19.3576 2.2761 17.3576 1.12109 14.8278 1.62109C12.5003 2.08109 9.66777 3.96485 6.7339 9.05842C-0.552499 21.7083 12.9766 30.4211 12.9766 30.4211C13.1928 30.5586 13.4766 30.5123 13.6378 30.3136C13.7978 30.1136 13.7803 29.8261 13.6003 29.6461C11.8028 27.8623 10.7715 25.2888 10.1678 22.8512C9.41528 19.8098 9.33403 16.9674 9.32904 16.0314C11.5253 15.0527 14.3416 12.4976 15.9317 10.9514C15.8455 11.1264 15.7505 11.3027 15.6505 11.4739C14.9955 12.6039 14.1179 13.559 14.1179 13.559C13.9705 13.719 13.9442 13.9564 14.0529 14.1464C14.1604 14.3352 14.3804 14.4327 14.5929 14.3864C16.6442 13.9364 18.3503 12.4439 19.4255 11.2614C19.1142 12.3826 18.6817 13.4551 18.6817 13.4551C18.6042 13.6501 18.6567 13.8726 18.8117 14.0126C18.968 14.1526 19.1942 14.1801 19.3792 14.0839C21.0155 13.2239 21.878 11.7789 22.3054 10.7652C23.0291 12.389 23.2016 14.3977 23.1128 16.3703C22.9491 20.0314 21.8654 23.573 21.4816 24.4279C20.8041 25.9379 20.6378 29.5804 20.6378 29.5804C20.6291 29.8067 20.7716 30.0104 20.9878 30.0779C21.2028 30.1454 21.4378 30.0604 21.5591 29.8704C25.454 23.7779 27.3794 19.1131 28.0865 15.5477C28.8191 11.8627 28.2616 9.31281 27.224 7.54908C25.3428 4.35148 21.8403 3.69281 21.0902 3.58641L21.0889 3.58234ZM10.7051 27.265C7.40273 24.0389 2.93019 17.665 7.60006 9.55754C10.3139 4.84501 12.8662 3.02901 15.0211 2.60261C17.5161 2.1101 19.4035 3.51512 20.1875 4.14386C20.455 4.35761 20.6363 4.49512 20.7038 4.52386C20.7513 4.54386 20.8025 4.55637 20.8538 4.56136C20.8538 4.56136 24.5063 4.90011 26.3612 8.0539C27.3075 9.66264 27.7712 11.9915 27.1037 15.3515C26.4812 18.484 24.8837 22.484 21.7963 27.5915C21.9088 26.609 22.095 25.499 22.3925 24.8339C22.7938 23.9401 23.9388 20.2403 24.11 16.4128C24.2263 13.8053 23.8825 11.1454 22.6025 9.23656C22.49 9.06906 22.285 8.98406 22.0875 9.02531C21.8888 9.06531 21.7338 9.22281 21.695 9.42155C21.695 9.42155 21.3925 11.0078 20.15 12.2717C20.4475 11.3292 20.7525 10.1692 20.7362 9.41782C20.7312 9.19782 20.5837 9.00657 20.3712 8.94782C20.1587 8.88907 19.9337 8.97532 19.815 9.16032C19.815 9.16032 18.2988 11.5578 15.9835 12.799C16.1648 12.5415 16.346 12.2615 16.5123 11.9727C17.026 11.0865 17.3948 10.099 17.2935 9.30021C17.2685 9.10771 17.136 8.94771 16.951 8.88771C16.766 8.82896 16.5635 8.88021 16.4323 9.02146C16.4323 9.02146 11.7597 14.034 8.64854 15.2279C8.45979 15.3004 8.3323 15.4804 8.32729 15.6816C8.32729 15.6816 8.23979 19.2331 9.19478 23.0891C9.54227 24.4916 10.0273 25.9315 10.701 27.2603L10.7035 27.264L10.7051 27.265ZM6.54886 17.4375C6.54886 17.4375 6.47886 18.2301 6.58136 19.305C6.61886 19.6901 6.67636 20.1125 6.78386 20.5375C6.88511 20.9375 7.03136 21.3401 7.20512 21.7275C7.47512 22.3301 7.81888 22.8875 8.22762 23.3488C8.31762 23.4713 8.49013 23.4975 8.61386 23.4075C8.73637 23.3163 8.76261 23.145 8.67261 23.0213C8.3876 22.5475 8.20136 21.9926 8.03763 21.4226C7.94763 21.1076 7.87513 20.7888 7.80013 20.4763C7.74763 20.2601 7.69263 20.0488 7.64013 19.8426C7.55388 19.5001 7.47263 19.1775 7.40388 18.8801C7.20513 18.0213 7.10137 17.415 7.10137 17.415C7.09637 17.2625 6.96762 17.1438 6.81513 17.15C6.66264 17.1563 6.54388 17.2838 6.55013 17.4363L6.54886 17.4375ZM20.9339 6.21648C20.9339 6.21648 22.4064 6.88024 23.6739 8.41272C24.1239 8.95522 24.5389 9.61021 24.8739 10.3865C25.1552 11.039 25.3839 11.774 25.4964 12.619C25.6314 13.6477 25.6227 14.8265 25.3489 16.1865C25.3127 16.334 25.4027 16.4839 25.5514 16.5202C25.6989 16.5577 25.8489 16.4665 25.8852 16.319C26.3065 14.8977 26.4477 13.6414 26.3777 12.5328C26.3177 11.5753 26.1077 10.7266 25.7939 9.99157C25.4165 9.11283 24.8965 8.39408 24.3477 7.81533C22.8452 6.23283 21.1288 5.69784 21.1288 5.69784C20.9863 5.64409 20.8263 5.71659 20.7738 5.85909C20.72 6.00159 20.7913 6.1616 20.935 6.21533L20.9339 6.21648ZM6.37899 15.949C6.37899 15.949 7.59523 15.219 9.25393 14.0853C9.83267 13.689 10.4664 13.2465 11.1164 12.7627C11.7114 12.3202 12.3239 11.8502 12.9202 11.354C13.3127 11.0278 13.6977 10.689 14.0714 10.3465C14.8952 9.59152 15.6664 8.8165 16.3177 8.06776C17.1664 7.09026 17.8089 6.154 18.1127 5.35149C18.1714 5.21149 18.1052 5.04898 17.9652 4.99024C17.8252 4.93024 17.6627 4.99649 17.6027 5.13649C17.1277 6.1615 15.9814 7.36398 14.6115 8.59889C13.9827 9.16763 13.3027 9.73764 12.619 10.3039C12.1665 10.6801 11.7139 11.0564 11.2665 11.4214C10.5515 12.0076 9.85395 12.5689 9.21395 13.0764C7.42144 14.4964 6.07155 15.4901 6.07155 15.4901C5.94405 15.5739 5.9103 15.7464 5.99405 15.8726C6.07905 16.0001 6.2503 16.0352 6.37656 15.9501L6.37899 15.949ZM7.54649 11.9517C7.54649 11.9517 8.87398 11.0342 10.5316 9.73792C11.1441 9.25792 11.8041 8.73042 12.4478 8.16541C13.0778 7.6129 13.6878 7.02792 14.2553 6.4604C15.339 5.37538 16.2415 4.33789 16.7115 3.6028C16.799 3.4778 16.769 3.3053 16.6453 3.21778C16.5203 3.13029 16.3478 3.16029 16.2603 3.28528C15.8915 3.75779 15.2865 4.34779 14.5653 5.00152C14.1115 5.41403 13.6103 5.84654 13.0928 6.29403C12.6053 6.71654 12.0978 7.14528 11.6053 7.57654C10.9903 8.11654 10.394 8.65528 9.84402 9.14904C8.34152 10.4978 7.20402 11.5203 7.20402 11.5203C7.08402 11.614 7.06402 11.7878 7.15777 11.9078C7.25277 12.0278 7.42527 12.0478 7.54527 11.954L7.54649 11.9517Z" fill="white"/>
</svg>
