<svg width="33" height="32" viewBox="0 0 33 32" fill="none" xmlns="http://www.w3.org/2000/svg">
<path d="M27.3109 13.9712C27.2659 13.7149 27.2121 13.4625 27.1471 13.2125C25.9309 8.49619 21.5535 5.20392 16.4972 5.20392C11.4447 5.20392 7.06711 8.50019 5.85085 13.2165C5.7871 13.4665 5.7321 13.719 5.69085 13.9714C2.93325 15.3189 1.24951 17.1965 1.24951 19.3026C1.24951 23.504 7.94711 26.7976 16.5007 26.7976C25.0508 26.7976 31.7519 23.505 31.7519 19.3026C31.7519 17.1964 30.0682 15.3189 27.3106 13.9714L27.3109 13.9712ZM7.55353 13.0974C7.58228 13.0049 7.61478 12.9124 7.64603 12.8225C7.85728 12.2374 8.12979 11.6799 8.45227 11.165C8.63727 10.8637 8.84227 10.5762 9.06352 10.3012C9.14102 10.2049 9.21727 10.1124 9.29727 10.0225C9.37352 9.93245 9.45352 9.8437 9.53727 9.75745C9.60102 9.68995 9.66227 9.6262 9.72602 9.56245C9.83852 9.44995 9.94977 9.34495 10.0648 9.23869C10.151 9.16494 10.2373 9.08869 10.3235 9.01494C10.4073 8.94744 10.4898 8.87994 10.5735 8.81369C10.5923 8.79744 10.6148 8.78119 10.6348 8.76869C10.6985 8.71744 10.7598 8.66994 10.8273 8.62494C10.9623 8.52619 11.1023 8.42994 11.2435 8.34369C11.3298 8.28244 11.416 8.22869 11.506 8.17744C11.5898 8.12619 11.676 8.07494 11.7623 8.02744C11.8035 8.00494 11.846 7.98244 11.8873 7.95994C11.9635 7.91869 12.041 7.87994 12.1173 7.84119C12.136 7.82869 12.1585 7.81869 12.181 7.80869C12.2735 7.76119 12.3735 7.71244 12.4685 7.67119C12.4723 7.66744 12.4785 7.66494 12.481 7.66494C12.5798 7.61994 12.6823 7.57494 12.7848 7.53369C12.9323 7.47244 13.0798 7.41494 13.2298 7.36369C13.3098 7.33494 13.3898 7.30619 13.4735 7.27994C13.5085 7.26744 13.5435 7.25494 13.5823 7.24494C13.6723 7.21619 13.7648 7.18994 13.8573 7.16244C13.8673 7.16244 13.876 7.15869 13.8823 7.15619C13.9948 7.12744 14.1035 7.09869 14.2148 7.07244C14.2323 7.06494 14.2485 7.06244 14.261 7.06244C14.3735 7.03369 14.4823 7.01119 14.5935 6.98869C14.8273 6.94119 15.0635 6.90494 15.301 6.87619C15.4323 6.85994 15.5635 6.84744 15.6948 6.83494C15.7048 6.83494 15.7135 6.83494 15.7235 6.83119C15.9798 6.81244 16.2385 6.80244 16.4985 6.80244C16.7573 6.80244 17.0173 6.81244 17.2735 6.83119C17.6573 6.86369 18.0348 6.91494 18.4035 6.98869C18.5285 7.01119 18.6498 7.03994 18.771 7.06869C18.8897 7.09369 19.0047 7.12619 19.1197 7.15869C19.126 7.15869 19.1322 7.16244 19.1422 7.16244C19.2347 7.19119 19.3272 7.21744 19.4172 7.24494C19.4522 7.25494 19.491 7.26744 19.526 7.27994C19.596 7.30244 19.6672 7.32494 19.7372 7.35369C19.901 7.40869 20.0635 7.46869 20.2235 7.53619C20.3222 7.57744 20.4222 7.61994 20.5185 7.66369C20.5222 7.66369 20.5247 7.66744 20.531 7.66994C20.6272 7.71119 20.726 7.75994 20.8184 7.80744C20.841 7.81369 20.8597 7.82619 20.8797 7.83619C20.9784 7.88368 21.0747 7.93493 21.171 7.98993C21.1747 7.98993 21.1772 7.99368 21.1835 7.99619C21.2885 8.05368 21.391 8.11493 21.4935 8.17493C21.5835 8.22618 21.6697 8.27993 21.756 8.34118C21.8972 8.42744 22.0347 8.52369 22.1722 8.62244C22.2334 8.66744 22.2934 8.70869 22.3509 8.75369C22.4759 8.84994 22.5972 8.94619 22.716 9.04868C22.7922 9.11617 22.8697 9.18368 22.946 9.24993C23.036 9.32993 23.1222 9.41368 23.2085 9.49618C23.2947 9.57993 23.3785 9.66618 23.461 9.75493C23.8135 10.1299 24.1359 10.5324 24.421 10.9649C24.4685 11.0349 24.5135 11.1087 24.5585 11.1799C24.706 11.4162 24.8397 11.6599 24.9647 11.9099C25.0734 12.1312 25.1722 12.3549 25.266 12.5849C25.2947 12.6612 25.3235 12.7387 25.3522 12.8187C25.391 12.9237 25.426 13.0299 25.461 13.1387C25.4647 13.1487 25.4672 13.1574 25.471 13.1674C25.461 13.1774 25.451 13.1874 25.4384 13.1962C25.2085 13.4074 24.9622 13.6062 24.7085 13.7911C24.4434 13.9961 24.1672 14.1849 23.8797 14.3611C21.8247 15.6374 19.2461 16.3424 16.4973 16.3424C13.7549 16.3424 11.1722 15.6411 9.11837 14.3649C8.83088 14.1887 8.55213 13.9999 8.28586 13.7949C8.02961 13.6062 7.78712 13.4074 7.55586 13.1962C7.54586 13.1862 7.53711 13.1799 7.52711 13.1712C7.53461 13.1449 7.54461 13.1199 7.55336 13.0974L7.55353 13.0974ZM16.501 25.1964C8.33459 25.1964 2.84979 22.1462 2.84979 19.3014C2.84979 18.1077 3.81355 16.8827 5.53113 15.855C5.53738 16.3413 5.57613 16.8375 5.64988 17.3275C5.67488 17.4875 5.74863 17.6375 5.86113 17.7563C8.33737 20.3638 12.3123 21.9227 16.4974 21.9227C20.6825 21.9227 24.6611 20.3639 27.1374 17.7528C27.2499 17.6341 27.3224 17.4841 27.3486 17.3241C27.4224 16.8341 27.4611 16.3416 27.4674 15.8553C29.1886 16.8828 30.1525 18.1078 30.1525 19.3017C30.1525 22.1479 24.665 25.1967 16.5013 25.1967L16.501 25.1964Z" fill="white"/>
</svg>
