<svg width="32" height="33" viewBox="0 0 32 33" fill="none" xmlns="http://www.w3.org/2000/svg">
<g id="Frame 371">
<path id="Vector" fill-rule="evenodd" clip-rule="evenodd" d="M16.0003 6.03979C16.0524 6.03979 16.1043 6.04021 16.1562 6.04094L16.0003 6.03979C16.0686 6.03979 16.1368 6.04042 16.2049 6.04177C16.2457 6.04261 16.2863 6.04365 16.3269 6.0449C16.34 6.04532 16.3531 6.04573 16.3662 6.04625C16.4038 6.0475 16.4413 6.04907 16.4788 6.05073C16.494 6.05146 16.5093 6.05219 16.5245 6.05302C16.6776 6.06073 16.8297 6.07177 16.9809 6.08615C17.0728 6.0949 17.1642 6.1048 17.2553 6.11594C17.2709 6.11782 17.2864 6.1198 17.302 6.12177C17.3294 6.12521 17.3568 6.12886 17.3842 6.1325C17.4111 6.13615 17.4379 6.1399 17.4645 6.14365C17.4881 6.14709 17.5116 6.15052 17.5352 6.15407C17.5594 6.15771 17.5838 6.16146 17.6081 6.16532C17.6334 6.16927 17.6586 6.17334 17.6837 6.1775C17.7151 6.18271 17.7464 6.18802 17.7778 6.19355C17.7982 6.19709 17.8186 6.20073 17.839 6.20448C17.8571 6.20771 17.8752 6.21105 17.8931 6.21438C17.9373 6.22271 17.9817 6.23125 18.0259 6.24011C18.1138 6.25771 18.2013 6.27657 18.2885 6.29646C18.2994 6.29896 18.3104 6.30146 18.3212 6.30396C18.4096 6.32448 18.4979 6.34615 18.5855 6.36896C18.6057 6.37417 18.6259 6.37948 18.6461 6.3849C18.6687 6.39094 18.6912 6.39698 18.7135 6.40313C18.7377 6.40969 18.7618 6.41646 18.786 6.42323C18.9217 6.46157 19.0564 6.50261 19.1899 6.54625L19.2369 6.56188C19.2442 6.56428 19.2514 6.56667 19.2587 6.56917C19.2904 6.5798 19.3219 6.59053 19.3535 6.60146C19.3769 6.60959 19.4003 6.61771 19.4236 6.62605C19.4457 6.63386 19.4677 6.64167 19.4895 6.64969C19.5103 6.65719 19.5311 6.6648 19.5518 6.6725C19.695 6.72542 19.8365 6.78136 19.9764 6.84042C19.9921 6.84698 20.0076 6.85355 20.023 6.86021C20.0513 6.8723 20.0795 6.88448 20.1078 6.89688C20.125 6.90448 20.1423 6.91209 20.1595 6.9198C20.1907 6.93355 20.2215 6.94751 20.2525 6.96167C20.2649 6.9673 20.2775 6.97313 20.29 6.97896C20.3182 6.99198 20.3462 7.005 20.374 7.01824C20.5064 7.08084 20.6374 7.14626 20.7667 7.21438C20.7903 7.22688 20.8138 7.23938 20.8373 7.25199C20.852 7.2598 20.8667 7.26782 20.8814 7.27584C20.9079 7.29022 20.9342 7.30459 20.9605 7.31917C20.985 7.33282 21.0095 7.34647 21.0338 7.36032C21.0477 7.36813 21.0614 7.37595 21.0752 7.38376C21.1055 7.40105 21.1356 7.41855 21.1657 7.43615C21.1701 7.43876 21.1746 7.44136 21.179 7.44397C21.2102 7.4623 21.2411 7.48063 21.2718 7.49917C21.2981 7.5149 21.3244 7.53094 21.3506 7.54699C21.4712 7.62105 21.5902 7.69761 21.7075 7.77647C21.7252 7.78834 21.7429 7.80032 21.7605 7.8123C21.7881 7.83116 21.8157 7.85012 21.8431 7.86928C21.8532 7.87626 21.8634 7.88345 21.8736 7.89053C21.8966 7.90668 21.9194 7.92272 21.942 7.93886C22.0853 8.04126 22.226 8.1472 22.3638 8.25668C22.3901 8.27751 22.4163 8.29855 22.4424 8.3197C22.469 8.34126 22.4954 8.36282 22.5215 8.38449C22.6177 8.46397 22.7124 8.54511 22.8055 8.62803C22.873 8.68814 22.9399 8.74928 23.0059 8.81126C23.061 8.86293 23.1154 8.91511 23.1692 8.96793C23.1857 8.98407 23.2023 9.00043 23.2187 9.01678C23.2336 9.03157 23.2485 9.04647 23.2633 9.06126C23.2854 9.08355 23.3074 9.10585 23.3292 9.12824C23.3429 9.1422 23.3565 9.15626 23.3701 9.17043C23.3938 9.19501 23.4173 9.2196 23.4407 9.24428C23.4501 9.25418 23.4595 9.26428 23.4689 9.27428C23.5589 9.37022 23.6469 9.46772 23.7332 9.56689C23.7579 9.59533 23.7825 9.62387 23.8068 9.65262C23.8599 9.71502 23.912 9.77793 23.9635 9.84147C23.9727 9.85283 23.9818 9.86418 23.9909 9.87543C24.1128 10.0274 24.2305 10.1828 24.3438 10.3418C24.3603 10.3649 24.3768 10.3882 24.3932 10.4117C24.4039 10.4271 24.4146 10.4425 24.4254 10.4578C24.4393 10.478 24.4532 10.4983 24.467 10.5187C24.4848 10.5447 24.5024 10.5707 24.52 10.597C24.5297 10.6116 24.5394 10.6262 24.5491 10.6407C24.564 10.6634 24.5789 10.6862 24.5937 10.709C24.607 10.7294 24.6202 10.7498 24.6334 10.7704C24.6858 10.8525 24.737 10.9351 24.7871 11.0185C24.8257 11.0828 24.8636 11.1476 24.9009 11.2129C24.9108 11.2304 24.9208 11.2479 24.9306 11.2654C24.94 11.2821 24.9493 11.2988 24.9586 11.3154C24.9939 11.3791 25.0286 11.4432 25.0627 11.5078C25.0764 11.5339 25.0902 11.56 25.1037 11.5864C25.112 11.6024 25.1203 11.6185 25.1285 11.6346C25.1964 11.7678 25.2615 11.9027 25.3237 12.0393C25.3339 12.0617 25.3441 12.0843 25.3542 12.1068C25.3671 12.1356 25.3798 12.1647 25.3926 12.1938C25.3998 12.2105 25.4071 12.2274 25.4143 12.2442C25.4229 12.264 25.4312 12.2838 25.4396 12.3036C25.4511 12.3306 25.4625 12.358 25.4737 12.3854C25.4833 12.4088 25.4929 12.4321 25.5022 12.4555C25.5576 12.5928 25.61 12.7314 25.6593 12.8713C25.6652 12.8878 25.671 12.9045 25.6767 12.9212C25.7218 13.0512 25.7644 13.1824 25.8044 13.3147C25.8068 13.3227 25.8092 13.3306 25.8116 13.3386L25.8044 13.3147C25.8642 13.5128 25.9183 13.7136 25.9662 13.9166C26.1455 14.6752 26.2403 15.4664 26.2403 16.2798C26.2403 21.9353 21.6557 26.5198 16.0003 26.5198C10.3448 26.5198 5.76025 21.9353 5.76025 16.2798C5.76025 15.5318 5.84046 14.8024 5.99276 14.1C5.99682 14.0827 6.00067 14.0653 6.00453 14.0479C6.06224 13.787 6.13005 13.5301 6.20755 13.2773C6.21369 13.258 6.21963 13.2388 6.22567 13.2195C6.23328 13.1942 6.2413 13.1691 6.24932 13.1441C6.25651 13.1225 6.26359 13.1008 6.27067 13.0791C6.47869 12.4457 6.74702 11.8397 7.06859 11.2677C7.07911 11.2494 7.08943 11.2311 7.09984 11.2129C7.27641 10.9032 7.4688 10.6035 7.6759 10.315C7.6935 10.2906 7.7111 10.2665 7.72871 10.2423C7.73631 10.2318 7.74402 10.2213 7.75183 10.2106C7.77548 10.1787 7.79923 10.1469 7.82309 10.1152C7.82892 10.1075 7.83486 10.0996 7.8409 10.0917C7.86225 10.0637 7.88361 10.0357 7.90517 10.008C8.05142 9.8195 8.20424 9.63607 8.36309 9.45825C8.38361 9.43544 8.40424 9.41253 8.42507 9.38971C8.43496 9.37877 8.44496 9.36784 8.45496 9.3569C8.51205 9.29471 8.56996 9.23315 8.62861 9.17242C8.64507 9.15523 8.66174 9.13815 8.6783 9.12117C8.69246 9.10679 8.70653 9.09242 8.72069 9.07815C8.74184 9.05669 8.76319 9.03533 8.78465 9.01398C8.79527 9.00346 8.806 8.99284 8.81673 8.98231C8.87517 8.92471 8.93444 8.86773 8.99444 8.81138C9.01309 8.79398 9.03173 8.77669 9.05038 8.7594C9.23944 8.5846 9.43497 8.41689 9.63673 8.25668C9.6485 8.2473 9.66016 8.23803 9.67194 8.22886C9.68881 8.21553 9.70579 8.2022 9.72277 8.18897C9.75329 8.16532 9.78391 8.14189 9.81464 8.11845C9.82141 8.11334 9.82818 8.10824 9.83485 8.10314C9.87016 8.07657 9.90568 8.05011 9.94141 8.02386C9.95141 8.01647 9.96141 8.00907 9.97152 8.00178C9.986 7.99126 10.0005 7.98074 10.015 7.97022C10.1862 7.84668 10.3614 7.72824 10.5405 7.61523C10.559 7.60346 10.5778 7.59179 10.5964 7.58013C10.6143 7.56898 10.6321 7.55794 10.65 7.547C10.6708 7.53429 10.6918 7.52148 10.7129 7.50867C10.7832 7.46617 10.854 7.42461 10.9254 7.38377C10.9408 7.37502 10.9562 7.36627 10.9717 7.35752C11.0011 7.34086 11.0304 7.3245 11.0599 7.30825C11.0744 7.30023 11.0892 7.2921 11.1039 7.28408C11.129 7.27033 11.1541 7.25679 11.1793 7.24336C11.2028 7.23086 11.2263 7.21836 11.2498 7.20606C11.2691 7.19586 11.2884 7.18586 11.3078 7.17586C11.3311 7.16388 11.3544 7.1519 11.3778 7.14002C11.4443 7.10627 11.5113 7.07325 11.5787 7.04096C11.6687 6.99784 11.7583 6.95648 11.8485 6.91648C11.9204 6.8845 11.9927 6.85336 12.0655 6.82304C12.0887 6.81336 12.1119 6.80388 12.1352 6.7944C12.1522 6.78742 12.1695 6.78034 12.1868 6.77346C12.2722 6.73919 12.358 6.70607 12.4443 6.67408C12.454 6.67054 12.4635 6.667 12.4731 6.66356C12.5042 6.652 12.5357 6.64065 12.5672 6.6295C12.5897 6.62148 12.6121 6.61356 12.6345 6.60575C12.6554 6.59856 12.6763 6.59138 12.6972 6.58419C12.724 6.57513 12.7508 6.56607 12.7777 6.55721C12.8509 6.53294 12.9244 6.5095 12.9983 6.4869C13.0424 6.47336 13.0866 6.46013 13.131 6.44721C13.2076 6.42492 13.2846 6.40346 13.362 6.38284C13.3844 6.3769 13.4067 6.37106 13.4291 6.36534C13.4587 6.35763 13.4882 6.35013 13.5178 6.34284C13.5359 6.33825 13.5541 6.33377 13.5723 6.3294C13.6028 6.322 13.6331 6.31471 13.6634 6.30763C13.6866 6.30221 13.7099 6.2969 13.7334 6.29159C13.7636 6.28471 13.7939 6.27804 13.8242 6.27148C13.8415 6.26773 13.8588 6.26409 13.8761 6.26044C13.9061 6.25409 13.9362 6.24784 13.9663 6.24179C13.9928 6.23648 14.0192 6.23127 14.0458 6.22617C14.0726 6.22096 14.0993 6.21586 14.1261 6.21096C14.1461 6.20721 14.1661 6.20356 14.1861 6.20002C14.2146 6.19492 14.2432 6.18992 14.2717 6.18513C14.3183 6.17721 14.3651 6.16961 14.4118 6.16231C14.5392 6.14242 14.6673 6.12492 14.7963 6.10981C14.8242 6.10658 14.8522 6.10335 14.8804 6.10033C14.9147 6.09658 14.9492 6.09304 14.9838 6.0896C14.9943 6.08856 15.005 6.08752 15.0157 6.08658C15.0582 6.08252 15.1006 6.07867 15.1432 6.07513C15.1545 6.07419 15.1659 6.07335 15.1773 6.07242C15.2218 6.06888 15.2662 6.06565 15.3108 6.06263C15.3209 6.062 15.3308 6.06138 15.3407 6.06075C15.3794 6.05825 15.4184 6.05596 15.4573 6.05398C15.4772 6.05294 15.497 6.0519 15.5169 6.05106C15.6185 6.04627 15.7206 6.04304 15.823 6.04127C15.8265 6.04127 15.8299 6.04117 15.8332 6.04117C15.8886 6.04023 15.9444 6.03979 16.0003 6.03979ZM14.2402 11.0273C12.5202 13.0724 10.0146 14.4347 7.18843 14.6499C7.09104 15.1785 7.04031 15.7232 7.04031 16.2798C7.04031 21.2284 11.0518 25.2398 16.0003 25.2398C20.9488 25.2398 24.9603 21.2284 24.9603 16.2798C24.9603 15.6097 24.8868 14.9567 24.7472 14.3286C23.897 14.5578 23.0029 14.6798 22.0802 14.6798C18.9336 14.6798 16.1186 13.2605 14.2402 11.0273L14.2402 11.0273ZM12.6403 15.3198C13.2588 15.3198 13.7603 15.8213 13.7603 16.4398C13.7603 17.0583 13.2588 17.5598 12.6403 17.5598C12.0217 17.5598 11.5203 17.0583 11.5203 16.4398C11.5203 15.8213 12.0217 15.3198 12.6403 15.3198ZM19.3603 15.3198C19.9788 15.3198 20.4803 15.8213 20.4803 16.4398C20.4803 17.0583 19.9788 17.5598 19.3603 17.5598C18.7417 17.5598 18.2403 17.0583 18.2403 16.4398C18.2403 15.8213 18.7417 15.3198 19.3603 15.3198Z" fill="white"/>
</g>
</svg>
