<svg width="33" height="32" viewBox="0 0 33 32" fill="none" xmlns="http://www.w3.org/2000/svg">
<g clip-path="url(#clip0_716_1252)">
<path d="M28.8948 9.29224C28.6754 8.44038 28.3806 7.6211 28.0183 6.85704C26.7466 4.17838 24.6357 2.16478 21.9138 1.03304C21.1338 0.708777 20.2986 0.456697 19.4314 0.284297C18.4848 0.0954435 17.4993 -0.000183105 16.5029 -0.000183105C15.5051 -0.000183105 14.5185 0.0958596 13.5703 0.28491C12.7031 0.457724 11.8679 0.709817 11.0882 1.03438C8.36744 2.16656 6.25758 4.17944 4.98611 6.85518C4.62414 7.61715 4.32902 8.43675 4.10819 9.29142C3.76518 10.622 3.59131 12.0634 3.59131 13.5773C3.59131 14.0267 3.60766 14.4903 3.64214 14.9952C3.69297 15.7469 3.78506 16.5187 3.91662 17.2896C5.13257 24.421 9.95742 31.9997 16.5028 31.9997C23.0476 31.9997 27.871 24.421 29.0865 17.2898C29.2184 16.513 29.3109 15.7414 29.3606 14.9948C29.3948 14.4874 29.4112 14.0241 29.4112 13.5775C29.4111 12.0632 29.2372 10.6215 28.8945 9.29214L28.8948 9.29224ZM27.2326 14.8517C27.186 15.5436 27.1013 16.2387 26.9837 16.9317C25.8555 23.5493 21.5917 29.8664 16.5029 29.8664C11.4149 29.8664 7.14827 23.5493 6.01947 16.9312C5.90145 16.2386 5.81718 15.5435 5.77062 14.8512C5.74176 14.4248 5.72478 13.9996 5.72478 13.5772C5.72478 12.2009 5.88332 10.9518 6.17385 9.8247C6.36447 9.08656 6.61291 8.40251 6.91302 7.77064C7.83145 5.83752 9.03707 3.07758 10.9501 3.47091C11.7444 3.63414 13.6014 6.51491 14.2136 7.59278C14.8176 8.65768 16.1563 12.5232 16.1695 12.5589C16.2218 12.6968 16.3544 12.7879 16.5019 12.7879C16.6495 12.7879 16.7817 12.6968 16.8343 12.5589C16.8478 12.5234 18.1861 8.65784 18.7902 7.59278C19.4025 6.51371 21.2624 3.63224 22.0542 3.46984C23.9675 3.07694 25.1729 5.8364 26.0913 7.77064C26.3907 8.40211 26.6396 9.08616 26.8297 9.8247C27.1203 10.9518 27.2788 12.2008 27.2788 13.5772C27.2785 13.9995 27.2615 14.4247 27.2331 14.8514L27.2326 14.8517ZM7.08006 14.1535L14.643 15.4871C14.275 17.5754 12.2828 18.9701 10.1947 18.6021C8.10619 18.2334 6.71179 16.2415 7.08006 14.1535V14.1535ZM18.3598 15.4871L25.9227 14.1535C26.2907 16.2417 24.8958 18.2343 22.8078 18.6023C20.7195 18.9702 18.7278 17.5753 18.3598 15.4871V15.4871ZM15.4006 22.2295L14.1825 26.2242C14.1597 26.2992 14.0907 26.35 14.0125 26.35C13.9342 26.35 13.8653 26.2988 13.8425 26.2242L12.6243 22.2295C12.608 22.1759 12.618 22.1175 12.6513 22.072C12.6847 22.0269 12.7377 22.0003 12.7942 22.0003H15.2305C15.287 22.0003 15.3399 22.0269 15.3734 22.072C15.4069 22.1171 15.4173 22.1755 15.4006 22.2295ZM20.3787 22.2295L19.1606 26.2242C19.1379 26.2992 19.0685 26.35 18.9903 26.35C18.912 26.35 18.8431 26.2988 18.82 26.2242L17.6018 22.2295C17.5855 22.1759 17.5955 22.1175 17.6292 22.072C17.6627 22.0269 17.7156 22.0003 17.7718 22.0003H20.2081C20.2642 22.0003 20.3176 22.0269 20.3507 22.072C20.3847 22.1171 20.3951 22.1755 20.3787 22.2295Z" fill="white"/>
</g>
<defs>
<clipPath id="clip0_716_1252">
<rect width="32" height="32" fill="white" transform="translate(0.5)"/>
</clipPath>
</defs>
</svg>
