<svg width="33" height="32" viewBox="0 0 33 32" fill="none" xmlns="http://www.w3.org/2000/svg">
<path d="M26.0664 14.181C27.0726 12.4748 27.6026 10.5298 27.6001 8.54849C27.6001 4.69089 27.1214 2.74849 25.9976 2.05355C24.8751 1.35857 23.4126 2.0898 21.7163 2.93606C20.15 3.71731 18.3739 4.6023 16.5 4.6023C14.6262 4.6023 12.8515 3.71606 11.2838 2.93606C9.58751 2.08982 8.12375 1.35982 7.00242 2.05355C5.88242 2.74606 5.39991 4.6923 5.39991 8.54982C5.39741 10.5311 5.9274 12.4762 6.93367 14.1824C6.40242 14.6498 6.17242 15.3724 6.33492 16.0611C6.49867 16.7498 7.02743 17.2911 7.71242 17.4711C7.52992 18.0524 7.63617 18.6861 7.99743 19.1773C8.35868 19.6673 8.93119 19.9573 9.54119 19.9573C9.60369 19.9573 9.66619 19.9548 9.72869 19.9486H9.72744C9.84244 20.6761 10.3649 21.2736 11.0699 21.4848C11.7762 21.6961 12.5399 21.4836 13.0362 20.9386L14.2899 21.4461C14.2737 21.5836 14.2649 21.7223 14.2624 21.8611C14.2649 22.9423 15.0387 23.8686 16.1012 24.0611V24.6336H14.2999C14.1424 24.6336 13.9987 24.7261 13.9362 24.8711L13.2124 26.5223C13.1487 26.6686 13.1774 26.8373 13.2849 26.9536L16.2087 30.096C16.2837 30.1772 16.3899 30.2222 16.4999 30.2222C16.6099 30.2222 16.7162 30.1772 16.7912 30.096L19.7149 26.9536C19.8224 26.8373 19.8511 26.6686 19.7874 26.5223L19.0636 24.8711C19.0011 24.7261 18.8574 24.6336 18.6999 24.6336H16.8974V24.0598C17.9611 23.8661 18.7349 22.9411 18.7361 21.8598C18.7349 21.7211 18.7261 21.5823 18.7099 21.4448L19.9636 20.9373C20.4586 21.4824 21.2236 21.6948 21.9286 21.4836C22.6349 21.2723 23.1574 20.6748 23.2711 19.9461C23.3336 19.9523 23.3961 19.9548 23.4586 19.9548V19.9561C24.0674 19.9561 24.6412 19.6661 25.0012 19.1748C25.3624 18.6848 25.4686 18.0511 25.2874 17.4698C25.9712 17.2911 26.5012 16.7486 26.6649 16.0598C26.8274 15.3711 26.5974 14.6486 26.0661 14.1811L26.0664 14.181ZM16.5 29.2408L14.4887 27.0782H18.5111L16.5 29.2408ZM18.8162 26.2832H14.1837L14.5587 25.4269H18.44L18.8162 26.2832ZM7.07869 15.617C7.07869 15.2695 7.23869 14.942 7.51245 14.7283C7.78743 14.5158 8.1437 14.442 8.47994 14.5295C8.81618 14.6158 9.09245 14.8533 9.22994 15.172C9.36619 15.4908 9.34744 15.8558 9.17869 16.1583C8.7812 16.2358 8.41744 16.437 8.1412 16.7345C7.54621 16.7033 7.07994 16.212 7.07869 15.617ZM8.42119 18.0395C8.41994 17.4308 8.90743 16.9333 9.51618 16.9195C10.1262 16.907 10.6337 17.3833 10.6587 17.992C10.2274 18.2433 9.90994 18.6533 9.77492 19.1345C9.44492 19.207 9.09868 19.1245 8.83618 18.912C8.57243 18.6983 8.41994 18.3783 8.42119 18.0395ZM11.6212 20.7682C11.1674 20.7682 10.7587 20.4945 10.5862 20.0757C10.4125 19.657 10.5087 19.1757 10.8287 18.8557C11.1487 18.5345 11.6312 18.4395 12.05 18.612C12.4687 18.7857 12.7412 19.1945 12.7412 19.647C12.7412 20.2657 12.2387 20.767 11.6212 20.7682ZM16.4999 23.2995C15.7049 23.2983 15.0599 22.6545 15.0586 21.8582C15.1249 20.9795 15.2999 20.112 15.5786 19.2745C16.0236 17.8895 16.4186 17.6082 16.4999 17.6082C16.5811 17.6082 16.9761 17.8908 17.4211 19.2745C17.6999 20.112 17.8749 20.9795 17.9411 21.8582C17.9399 22.6545 17.2949 23.2982 16.4999 23.2995ZM18.5849 20.6357C18.4811 20.0932 18.3461 19.5582 18.1786 19.032C17.6999 17.5395 17.1499 16.8132 16.4999 16.8132C15.8499 16.8132 15.2999 17.5395 14.8211 19.0332C14.6536 19.5595 14.5186 20.0945 14.4149 20.637L13.4411 20.2432V20.242C13.6324 19.6595 13.5311 19.0195 13.1711 18.5232C12.8111 18.0257 12.2349 17.732 11.6211 17.732C11.5574 17.732 11.4949 17.7345 11.4336 17.7407V17.742C11.3136 16.9907 10.7624 16.382 10.0274 16.187C10.2399 15.507 10.0574 14.7657 9.55364 14.262C9.04988 13.7595 8.3074 13.577 7.6274 13.7895C6.68991 12.202 6.19489 10.3921 6.19615 8.54948C6.19615 5.14441 6.59615 3.24068 7.42239 2.73054C8.16615 2.27054 9.4474 2.90929 10.9299 3.64804C12.5736 4.46804 14.4387 5.39929 16.4997 5.39929C18.5609 5.39929 20.4261 4.46929 22.0709 3.64804C23.5534 2.90929 24.8347 2.27054 25.5784 2.73054C26.4034 3.24054 26.8046 5.1443 26.8046 8.54948L26.8034 8.55073C26.8059 10.3932 26.3109 12.2033 25.3721 13.7907C24.6921 13.5782 23.9509 13.7607 23.4471 14.2645C22.9433 14.7682 22.7609 15.5095 22.9721 16.1907C22.2384 16.3832 21.6871 16.992 21.5659 17.742C21.5046 17.7357 21.4421 17.7332 21.3784 17.7332V17.732C20.7646 17.732 20.1884 18.0257 19.8284 18.5232C19.4684 19.0195 19.3671 19.6595 19.5584 20.242L18.5849 20.6357ZM21.3787 20.767C20.9262 20.767 20.5175 20.4932 20.345 20.0745C20.1712 19.6557 20.2675 19.1745 20.5875 18.8532C20.9087 18.5332 21.3912 18.4382 21.81 18.612C22.2275 18.7857 22.5 19.1945 22.5 19.6482C22.4987 20.267 21.9975 20.767 21.3787 20.7682L21.3787 20.767ZM23.4575 19.1595H23.4587C23.38 19.1595 23.3025 19.1507 23.225 19.1332C23.09 18.652 22.7737 18.242 22.3412 17.9907C22.36 17.542 22.645 17.1482 23.065 16.9907C23.4837 16.832 23.9575 16.9395 24.2687 17.2632C24.5787 17.587 24.6662 18.0645 24.49 18.477C24.3137 18.8908 23.9075 19.1583 23.4587 19.157L23.4575 19.1595ZM24.8575 16.7333H24.8587C24.5825 16.4358 24.2187 16.2345 23.8212 16.1583C23.5775 15.7208 23.655 15.1758 24.0075 14.822C24.3613 14.4683 24.9062 14.392 25.3437 14.6333C25.7812 14.8758 26.005 15.3795 25.8925 15.8658C25.78 16.3533 25.3575 16.707 24.8587 16.7333L24.8575 16.7333Z" fill="white"/>
</svg>
