<svg width="33" height="32" viewBox="0 0 33 32" fill="none" xmlns="http://www.w3.org/2000/svg">
<path d="M11.6027 2.54501V2.53751L11.6039 2.53376V2.52876L11.6052 2.52501L11.6064 2.52251V2.52001L11.6077 2.51626L11.6089 2.51376V2.51251L11.6102 2.50876L11.6114 2.50626V2.50501L11.6189 2.48251V2.48126L11.6202 2.47876L11.6214 2.47501L11.6227 2.47376V2.47126L11.6239 2.46751L11.6252 2.46501V2.46376L11.6264 2.46001L11.6277 2.45751V2.45626L11.6289 2.45251L11.6314 2.44751L11.6327 2.44376V2.44251L11.6364 2.43501L11.6377 2.43376L11.6402 2.43001L11.6414 2.42751V2.42626L11.6439 2.42001V2.41876L11.6477 2.41251L11.6527 2.40501L11.6564 2.39876L11.6602 2.39376V2.39251L11.6639 2.38751L11.6652 2.38626L11.6689 2.38126L11.6702 2.38001L11.6802 2.36751L11.6839 2.36251L11.6889 2.35751V2.35626L11.6939 2.35126V2.35001L11.6952 2.34876L11.7002 2.34501L11.7014 2.34376L11.7064 2.34001L11.7077 2.33876L11.7127 2.33501L11.7139 2.33376L11.7189 2.33001L11.7202 2.32876L11.7264 2.32376L11.7327 2.32001V2.31876L11.7377 2.31501L11.7389 2.31376L11.7452 2.31001L11.7502 2.30626L11.7527 2.30501L11.7589 2.30126H11.7602L11.7639 2.29876L11.7664 2.29626L11.7702 2.29376L11.7852 2.28626L11.7864 2.28501C12.6402 1.8125 14.6376 1.59125 16.5813 1.59125C18.6213 1.59125 20.6424 1.8425 21.2664 2.30874L21.2789 2.31874L21.2839 2.32249L21.2852 2.32374L21.2902 2.32749L21.2914 2.32874L21.2977 2.33374V2.33499L21.3102 2.34499L21.3202 2.35499H21.3214L21.3339 2.36749L21.3377 2.37249L21.3389 2.37374L21.3477 2.38499L21.3489 2.38624L21.3527 2.39124L21.3539 2.39249L21.3902 2.46499V2.46749L21.3927 2.47374V2.47499L21.3952 2.48124V2.48249L21.3977 2.48874V2.48999L21.4002 2.49624V2.49749L21.4052 2.51249L21.4077 2.52749V2.53749L21.4089 2.54374V2.55124L21.5577 3.815C21.8402 4.42999 22.0489 5.0425 22.1839 5.64876C22.3201 6.26252 22.3789 6.87002 22.3614 7.47002C22.5439 8.77751 22.6289 11.1388 22.6151 14.5538C22.6026 17.965 22.4926 22.4274 22.2851 27.9375C22.3839 28.2237 22.4414 28.5137 22.4576 28.8062C22.4751 29.1187 22.4464 29.435 22.3726 29.75C22.3589 29.8112 22.3264 29.865 22.2839 29.9062L22.2801 29.9087L22.2776 29.9112L22.2739 29.9137L22.2714 29.9162L22.2676 29.9187L22.2651 29.9212L22.2614 29.9237L22.2426 29.9375L22.2351 29.9412L22.2289 29.945L22.2276 29.9462L22.2151 29.9525L22.2139 29.9537L22.2076 29.9562L22.2014 29.96L22.1951 29.9625L22.1889 29.9662H22.1876L22.1739 29.9725L22.1589 29.9775C21.5564 30.2175 20.8939 30.355 20.1751 30.3887C19.4614 30.4225 18.6914 30.3537 17.8639 30.1837L17.8489 30.1812L17.8439 30.18H17.8414L17.8201 30.175H17.8189L17.8126 30.1725H17.8114L17.8051 30.17H17.8039L17.7976 30.1675L17.7751 30.16L17.7626 30.155L17.7614 30.1537L17.7551 30.1512H17.7539L17.7476 30.1475L17.7464 30.1462L17.7401 30.1437L17.7389 30.1425L17.7326 30.1387L17.7314 30.1375L17.7201 30.13L17.7189 30.1287L17.7076 30.1212L17.7064 30.12L17.7014 30.1162L17.7001 30.115L17.6889 30.105L17.6839 30.1012L17.6826 30.1L17.6564 30.0712L17.6526 30.0662L17.6514 30.065C17.6314 30.0387 17.6151 30.01 17.6039 29.9775C17.5989 29.9637 17.5951 29.9487 17.5914 29.9337L17.5901 29.9312C17.5151 29.5425 17.4876 29.1712 17.5039 28.8187C17.5214 28.4775 17.5814 28.1537 17.6826 27.8512C17.7676 24.1088 17.6814 20.8126 17.4239 17.9648C17.2139 15.6299 16.8889 13.5963 16.4476 11.8659C16.0164 13.5934 15.7151 15.6259 15.5276 17.9622C15.3001 20.816 15.2414 24.1123 15.3276 27.8507C15.4301 28.1532 15.4889 28.477 15.5064 28.8195C15.5239 29.172 15.4951 29.5432 15.4214 29.932L15.4201 29.9345C15.4176 29.9495 15.4139 29.9645 15.4076 29.9782C15.3964 30.0107 15.3801 30.0395 15.3601 30.0657L15.3589 30.067L15.3551 30.072C15.3476 30.082 15.3389 30.092 15.3289 30.1007L15.3276 30.102L15.3226 30.1057L15.3114 30.1157L15.3101 30.117L15.3051 30.1207L15.3039 30.122L15.2926 30.1295L15.2914 30.1307L15.2801 30.1382L15.2789 30.1395L15.2726 30.1432L15.2714 30.1445L15.2651 30.147L15.2639 30.1482L15.2576 30.152H15.2564L15.2501 30.1545L15.2489 30.1557L15.2364 30.1607L15.2139 30.1682L15.2076 30.1707H15.2064L15.2001 30.1732H15.1989L15.1926 30.1757H15.1914L15.1701 30.1807H15.1676L15.1626 30.182L15.1476 30.1845C13.4851 30.5257 12.0527 30.457 10.8527 29.9782L10.8377 29.9732L10.824 29.967H10.8227L10.8165 29.9632L10.8102 29.9607L10.804 29.957L10.7977 29.9545L10.7965 29.9532L10.784 29.947L10.7827 29.9457L10.7765 29.942L10.769 29.9382L10.7502 29.9245L10.7465 29.922L10.744 29.9195L10.7402 29.917L10.7377 29.9145L10.734 29.912L10.7315 29.9095L10.7277 29.907C10.6852 29.8657 10.6527 29.8132 10.639 29.7507C10.564 29.4357 10.5365 29.1195 10.554 28.807C10.5702 28.5132 10.629 28.2232 10.7265 27.9382C10.519 22.4281 10.409 17.9657 10.3965 14.5545C10.3827 11.1406 10.4677 8.77821 10.6502 7.47074C10.6327 6.87199 10.6927 6.26325 10.829 5.64949C10.964 5.04199 11.1727 4.43074 11.454 3.81573L11.6027 2.54823L11.6027 2.54501ZM14.1564 3.41002C14.1339 3.53377 14.1139 3.65877 14.0952 3.78378C14.0802 3.88878 14.0664 3.99003 14.0552 4.09002C14.2814 4.12502 14.5064 4.15502 14.7314 4.18127C15.0576 4.21752 15.3801 4.24502 15.6952 4.26127H15.7039L16.1539 4.27752L16.5889 4.28127H16.6251C17.0664 4.27752 17.5126 4.25502 17.9577 4.21377C18.3002 4.18252 18.6464 4.13877 18.9964 4.08252L18.8777 3.42503C18.1526 3.50378 17.3464 3.54128 16.5389 3.54003C15.7202 3.53753 14.8977 3.49378 14.1577 3.41128L14.1564 3.41002ZM13.4239 3.97751C13.4352 3.88376 13.4477 3.78876 13.4627 3.69127C13.4789 3.57627 13.4989 3.45502 13.5227 3.32751C13.2189 3.28126 12.9339 3.22501 12.6739 3.16251C12.5002 3.12001 12.3377 3.07501 12.1889 3.02626L12.1139 3.66626C12.3114 3.72001 12.5089 3.77251 12.7101 3.82376L12.7126 3.82501L12.7189 3.82626H12.7201L12.7439 3.83251L12.7514 3.83501L13.2464 3.94501L13.4239 3.97876L13.4239 3.97751ZM19.5076 3.34127L19.5614 3.64751L19.6214 3.96877L19.8076 3.93252L20.3001 3.82126L20.3076 3.81876L20.3139 3.81751L20.3164 3.81626L20.3239 3.81376L20.7289 3.71002L20.8852 3.66627L20.8114 3.03752C20.6714 3.08627 20.5177 3.13127 20.3552 3.17252C20.1014 3.23627 19.8152 3.29252 19.5077 3.34002L19.5076 3.34127ZM16.1988 8.26981H16.2288L16.2863 8.26606C16.3176 7.80355 16.3388 7.30104 16.3438 6.76355C16.3488 6.19979 16.3376 5.58355 16.3026 4.9148L16.1376 4.91355L16.0013 4.90855C16.0026 5.51479 16.0138 6.09981 16.0351 6.66106C16.0563 7.22106 16.0888 7.75605 16.1313 8.26607L16.1963 8.26857L16.1988 8.26981ZM16.6001 8.87231C16.6451 9.12231 16.6813 9.36981 16.7076 9.61733L16.7288 9.83858C16.8076 9.76733 16.8926 9.69858 16.9813 9.63108C17.3176 9.37858 17.7264 9.15484 18.2051 8.96233C18.3689 8.89733 18.5551 8.97608 18.6201 9.13983C18.6851 9.30358 18.6063 9.48983 18.4426 9.55482C18.0138 9.72732 17.6538 9.92356 17.3638 10.1423C17.1263 10.3211 16.9351 10.5148 16.7901 10.7236C17.3776 12.6848 17.8001 15.0809 18.0538 17.9073C18.3076 20.7236 18.3951 23.9724 18.3188 27.651C18.8601 27.7548 19.4063 27.8135 19.9576 27.8235C20.5126 27.8348 21.0751 27.7973 21.6451 27.7135C21.8476 22.2946 21.9563 17.9061 21.9676 14.5535C21.9801 11.2698 21.9013 8.97326 21.7326 7.66846C21.2776 7.31721 20.9113 6.85972 20.6376 6.29846C20.3914 5.79222 20.2164 5.19846 20.1164 4.51846L19.9389 4.55846L19.4363 4.65596L19.4288 4.65721L19.4238 4.65846H19.4213C18.9601 4.74096 18.4913 4.80346 18.0163 4.84721C17.6613 4.87971 17.3038 4.90221 16.9451 4.91096C16.9788 5.57347 16.9901 6.19347 16.9838 6.76846C16.9776 7.44469 16.9488 8.04595 16.9076 8.57347C16.8963 8.72472 16.7813 8.84222 16.6376 8.86472H16.6351L16.6051 8.87097L16.6001 8.87231ZM16.0763 9.71482L16.0726 9.68482C16.0451 9.42732 16.0051 9.16357 15.9538 8.89482L15.8201 8.87857L15.7976 8.87482L15.7926 8.87357H15.7901L15.7851 8.87232L15.7763 8.87107H15.7738L15.7676 8.86982H15.7663L15.7601 8.86857H15.7588L15.7526 8.86607H15.7513L15.7451 8.86357H15.7438L15.7376 8.86107H15.7363L15.7301 8.85857L15.7226 8.85607L15.7163 8.85357L15.7088 8.85107L15.6901 8.83982H15.6888L15.6576 8.82107H15.6563L15.6438 8.81357L15.6388 8.80857H15.6376L15.6263 8.79732H15.6251L15.6026 8.77482V8.77357L15.5963 8.76732L15.5926 8.76232V8.76107L15.5876 8.75607V8.75482L15.5838 8.74982V8.74857L15.5801 8.74232V8.74107L15.5713 8.72857L15.5676 8.72232V8.72107L15.5526 8.69607L15.5463 8.68232L15.5413 8.66732L15.5363 8.65357V8.65232L15.5326 8.63857V8.63732L15.5301 8.62357V8.62232L15.5288 8.61607V8.61357L15.5276 8.60732V8.60482L15.5263 8.59857V8.58232C15.4713 7.98357 15.4301 7.35107 15.4051 6.68357C15.3826 6.11107 15.3713 5.50859 15.3713 4.87856C15.1338 4.86231 14.8976 4.84106 14.6663 4.81481C14.3376 4.77856 14.0063 4.72981 13.6776 4.67356H13.6738L13.6688 4.67231L13.6601 4.67106L13.6576 4.66981L13.6451 4.66731L13.6376 4.66606L13.6301 4.66356L13.1238 4.56731L12.9338 4.52481C12.8326 5.19355 12.6526 5.77857 12.4001 6.27857C12.1138 6.84982 11.7326 7.31107 11.2726 7.66481C11.1038 8.97105 11.0251 11.2661 11.0376 14.5499C11.0501 17.9024 11.1576 22.2901 11.3601 27.7099C11.9288 27.7949 12.4901 27.8311 13.0438 27.8211C13.5976 27.8099 14.1451 27.7524 14.6864 27.6486C14.6076 23.966 14.6676 20.7174 14.8914 17.9076C15.1176 15.0726 15.5139 12.6702 16.1051 10.7012C16.0026 10.5137 15.8714 10.3574 15.7126 10.2337C15.5201 10.0849 15.2826 9.97866 15.0001 9.91617C14.8288 9.87867 14.7201 9.70742 14.7576 9.53617C14.7951 9.36492 14.9663 9.25617 15.1376 9.29367C15.5038 9.37367 15.8201 9.51492 16.0814 9.71241L16.0763 9.71482ZM14.8238 29.5986C14.8626 29.3348 14.8751 29.0836 14.8638 28.8461C14.8538 28.6498 14.8263 28.461 14.7826 28.2786C14.2113 28.3873 13.6338 28.4473 13.0526 28.4598C12.4601 28.4711 11.8651 28.4323 11.2676 28.3448C11.2251 28.5098 11.1988 28.6748 11.1888 28.8398C11.1776 29.0373 11.1901 29.2373 11.2263 29.4398C12.2351 29.8048 13.4338 29.8585 14.8236 29.5985L14.8238 29.5986ZM12.3038 4.37882L11.9426 4.28257C11.7226 4.79132 11.5576 5.29257 11.4488 5.78633C11.3763 6.11508 11.3276 6.44382 11.3026 6.76884C11.5026 6.54509 11.6775 6.28758 11.8251 5.99633C12.0538 5.54257 12.2163 5.00507 12.3051 4.38009L12.3038 4.37882ZM21.7713 29.4399C21.8075 29.2374 21.8188 29.0374 21.8088 28.8399C21.7988 28.6749 21.7738 28.5099 21.73 28.3449C21.1313 28.4324 20.5363 28.4712 19.9438 28.4599C19.3626 28.4487 18.7851 28.3887 18.2151 28.2787C18.1713 28.4599 18.1438 28.6487 18.1338 28.8461C18.1226 29.0836 18.1363 29.3349 18.1738 29.5986C18.8751 29.7299 19.5288 29.7812 20.1326 29.7536C20.7251 29.7262 21.2713 29.6211 21.77 29.4399L21.7713 29.4399ZM21.695 6.75855C21.67 6.43605 21.6213 6.11231 21.5488 5.78605C21.44 5.29354 21.2738 4.79106 21.055 4.28354L20.8938 4.32979L20.7388 4.36854C20.8275 5.00353 20.985 5.55355 21.2113 6.01729C21.3475 6.29603 21.5088 6.54354 21.695 6.75855ZM15.8865 4.25354C15.7103 4.24479 15.5753 4.09479 15.584 3.91855C15.5928 3.74231 15.7428 3.6073 15.919 3.61605L16.249 3.62355L16.5752 3.61605C16.7515 3.6073 16.9015 3.7423 16.9102 3.91855C16.919 4.09481 16.784 4.24479 16.6077 4.25354L16.249 4.26479L15.8865 4.25354ZM20.1916 2.55605C19.3553 2.34855 17.9816 2.24106 16.574 2.24106C15.2152 2.24106 13.8438 2.34606 12.9129 2.56482C13.2191 2.63482 13.5654 2.69357 13.9379 2.74232C14.7304 2.84607 15.6367 2.89982 16.5367 2.90232C17.4254 2.90482 18.3117 2.85607 19.0829 2.75732H19.0842L19.0929 2.75607H19.0967L19.1004 2.75482L19.1154 2.75232H19.1167C19.5092 2.70107 19.8742 2.63482 20.1916 2.55482L20.1916 2.55605Z" fill="white"/>
</svg>
