<svg width="33" height="32" viewBox="0 0 33 32" fill="none" xmlns="http://www.w3.org/2000/svg">
<path d="M20.2086 6.49893C20.2086 4.99893 19.3048 3.6464 17.9186 3.0728C16.5336 2.49904 14.9386 2.81655 13.8772 3.87656C12.816 4.93781 12.4997 6.5328 13.0735 7.91922C13.6472 9.30546 14.9997 10.208 16.4996 10.208C18.5458 10.2055 20.2047 8.54672 20.2084 6.49917L20.2086 6.49893ZM14.071 6.49893C14.071 5.51642 14.6622 4.63144 15.5697 4.25517C16.4772 3.8789 17.5222 4.08767 18.2172 4.78141C18.9122 5.4764 19.1197 6.52141 18.7434 7.4289C18.3672 8.3364 17.4822 8.92765 16.4997 8.92765C15.1584 8.9264 14.0722 7.84016 14.0709 6.4989L14.071 6.49893Z" fill="white"/>
<path d="M6.22506 12.5536C6.12006 13.3886 6.67882 14.1611 7.50506 14.3236L12.1515 15.3598V27.5809C12.1465 28.3984 12.759 29.0884 13.5727 29.1809C13.6465 29.1909 13.7215 29.1959 13.7965 29.1959C14.5352 29.1984 15.1802 28.6921 15.3552 27.9746L16.5002 23.5709L17.6452 27.9898C17.8202 28.7086 18.4652 29.2149 19.204 29.2124C19.279 29.2124 19.354 29.2061 19.4277 29.1961C20.2415 29.1048 20.854 28.4148 20.849 27.5961V15.3598L25.5079 14.3236C26.3204 14.1436 26.8667 13.3823 26.7754 12.5561C26.6854 11.7299 25.9879 11.1036 25.1567 11.1036H7.8604C7.01915 11.0811 6.30416 11.7148 6.22542 12.5536L6.22506 12.5536ZM25.5013 12.6948C25.5188 12.7811 25.4988 12.8698 25.4476 12.9411C25.3951 13.0136 25.3176 13.0598 25.2301 13.0723L20.0714 14.2211C19.7727 14.2861 19.5614 14.5548 19.5689 14.8611V27.5974V27.5961C19.5664 27.7699 19.4377 27.9161 19.2651 27.9386C19.0926 27.9611 18.9302 27.8536 18.8839 27.6861L17.1214 20.8573V20.8323L17.0989 20.7711L17.0701 20.7136L17.0414 20.6661V20.6648C17.0289 20.6461 17.0151 20.6273 16.9989 20.6111C16.9901 20.5961 16.9776 20.5836 16.9639 20.5723C16.9501 20.5548 16.9326 20.5386 16.9126 20.5248C16.8989 20.5123 16.8839 20.5011 16.8676 20.4923C16.8501 20.4786 16.8314 20.4673 16.8101 20.4573C16.7939 20.4473 16.7776 20.4386 16.7589 20.4323L16.6951 20.4073H16.3251L16.2639 20.4298L16.2064 20.4548L16.1551 20.4873V20.4861C16.1364 20.4973 16.1189 20.5098 16.1039 20.5248C16.0876 20.5361 16.0726 20.5498 16.0589 20.5636L16.0176 20.6086L15.9826 20.6598L15.9501 20.7111L15.9214 20.7686L15.8989 20.8298V20.8548L14.1164 27.6697C14.0701 27.8372 13.9076 27.9447 13.7351 27.9222C13.5626 27.8998 13.4339 27.7548 13.4314 27.581V14.8447C13.4389 14.5385 13.2276 14.2697 12.9289 14.2047L7.77019 13.0722C7.59644 13.031 7.4827 12.8647 7.50519 12.6872C7.52894 12.5097 7.68144 12.3797 7.86018 12.3834H25.1727C25.2577 12.3809 25.339 12.4122 25.4015 12.4709C25.4627 12.5284 25.499 12.6097 25.5015 12.6947L25.5013 12.6948Z" fill="white"/>
</svg>
