<svg width="33" height="32" viewBox="0 0 33 32" fill="none" xmlns="http://www.w3.org/2000/svg">
<path d="M3.90248 13.6003L7.40222 16.3718C7.6293 16.552 7.95867 16.5176 8.14358 16.2942L9.83336 14.2562V25.1479C9.83336 25.9562 10.6151 26.5578 12.1568 26.9359C13.3099 27.2192 14.8531 27.375 16.5019 27.375C18.0665 27.375 23.1707 27.2146 23.1707 25.1479V14.2562L24.8561 16.2931C25.0405 16.5171 25.3712 16.552 25.5981 16.3718L29.0978 13.6003C29.3171 13.4269 29.365 13.1139 29.208 12.8826L25.0179 6.72581C24.9592 6.63936 24.8767 6.57269 24.7804 6.53258L20.2532 4.66539C20.0891 4.5982 19.9032 4.63934 19.7563 4.73674C19.6086 4.83361 19.5188 5.02111 19.5165 5.19767C19.4975 6.59402 18.3438 7.73047 16.9449 7.73047H16.0593C15.3747 7.73047 14.728 7.46277 14.2414 6.97994C13.7645 6.49922 13.4968 5.86639 13.4877 5.15858C13.4877 4.98045 13.399 4.81431 13.251 4.71535C13.1028 4.6164 12.9153 4.59817 12.7513 4.66535L8.22034 6.53255C8.12377 6.57266 8.04117 6.63932 7.98252 6.72578L3.79292 12.8815C3.63532 13.1128 3.68303 13.4263 3.90251 13.6003L3.90248 13.6003ZM22.1041 25.1478C22.1041 25.553 20.1801 26.3082 16.502 26.3082C12.8241 26.3082 10.9001 25.553 10.9001 25.1478V24.366C11.2405 24.5363 11.654 24.6859 12.1569 24.8093C13.31 25.0926 14.8531 25.2483 16.5019 25.2483C17.6169 25.2483 20.5222 25.1629 22.1041 24.368L22.1041 25.1478ZM28.0473 13.0718L25.3454 15.2114L24.8819 14.6514L27.5987 12.4127L28.0473 13.0718ZM8.77448 7.45819L12.5006 5.92224C12.6454 6.60088 12.9834 7.22693 13.4871 7.73421C14.1775 8.41963 15.0909 8.79723 16.0592 8.79723H16.9448C18.6804 8.79723 20.1496 7.56024 20.5026 5.92229L24.2258 7.45824L26.996 11.5276L24.2021 13.8299L23.0482 12.4358C22.9046 12.2619 22.6674 12.1983 22.4568 12.2744C22.245 12.3504 22.1042 12.5509 22.1042 12.7759V23.0213C22.1042 23.4265 20.1802 24.1817 16.5021 24.1817C12.8242 24.1817 10.9002 23.4265 10.9002 23.0213V12.7759C10.9002 12.5509 10.7593 12.3504 10.5476 12.2744C10.4885 12.253 10.4275 12.2426 10.3668 12.2426C10.2111 12.2426 10.0592 12.3108 9.95624 12.4358L8.80093 13.8299L6.00573 11.5267L8.77448 7.45819ZM5.40328 12.4121L8.12062 14.6509L7.65582 15.2118L4.95395 13.0723L5.40328 12.4121Z" fill="white"/>
</svg>
