<svg width="33" height="32" viewBox="0 0 33 32" fill="none" xmlns="http://www.w3.org/2000/svg">
<path d="M30.8848 17.175C30.8648 17.12 30.8448 17.06 30.8048 16.97C30.4298 16.205 29.5548 15.905 28.9748 15.71C27.3398 15.155 25.6449 14.52 23.9297 13.82C23.9697 13.465 23.7947 13.1 23.4547 12.91L22.2697 12.245C22.0447 12.12 21.7847 12.085 21.5347 12.15C21.3047 12.21 21.1097 12.35 20.9798 12.545C20.5498 12.35 20.1698 12.175 19.8198 12.01C19.8948 11.825 19.9148 11.62 19.8598 11.42C19.7948 11.18 19.6348 10.975 19.4098 10.85L18.2198 10.185C17.7598 9.92997 17.1648 10.08 16.8998 10.53L16.8848 10.555C16.3397 10.275 15.7597 9.96498 15.1248 9.61999C14.7098 9.39499 14.1797 9.49499 13.8898 9.85999L11.5698 12.7651C11.3398 13.0501 11.1248 13.32 10.8548 13.4901C10.5648 13.6701 10.1848 13.7351 9.84479 13.7751C8.87977 13.9001 8.07977 13.8201 7.46479 13.5301C7.31979 13.4651 7.17977 13.3801 7.03977 13.2751C6.66479 12.9851 6.39977 12.5951 6.31977 12.2051C6.22977 11.7501 5.83977 11.4351 5.37476 11.4351L3.98476 11.4301C3.50476 11.4301 3.09476 11.7751 3.02977 12.2351C2.73479 14.2351 2.43977 16.23 2.13977 18.23L2.11477 18.39C2.09477 18.52 2.07977 18.65 2.06477 18.775C1.99977 19.3001 1.99477 19.71 2.03977 20.1001C2.13477 20.8801 2.48977 21.5301 3.02977 21.935C3.76476 22.485 4.73977 22.49 5.44977 22.495H6.83977C9.58964 22.495 12.3648 22.47 15.1048 22.425C16.7248 22.395 18.3499 22.36 19.9798 22.315C23.1099 22.225 26.3398 22.135 29.3048 20.73C29.8699 20.465 30.4899 20.115 30.7899 19.48C30.9849 19.065 31.0049 18.615 31.0049 18.185C30.9999 17.8701 30.9999 17.5101 30.8849 17.175L30.8848 17.175ZM21.7845 13.055L22.9695 13.72L21.1895 16.7051C20.9995 17.0201 20.5795 17.1301 20.2546 16.9501C19.9295 16.7651 19.8146 16.3601 20.0046 16.0451L21.7845 13.055ZM17.7347 11L18.9197 11.665L16.7247 15.345C16.5347 15.66 16.1147 15.77 15.7897 15.59C15.6297 15.5 15.5197 15.36 15.4697 15.185C15.4197 15.01 15.4447 14.835 15.5397 14.68L17.7347 11ZM3.0848 18.36C3.3848 16.365 3.67979 14.3651 3.9748 12.3651L5.3648 12.3851C5.4898 13.0001 5.86981 13.5751 6.4348 14.0101C6.6298 14.1601 6.8348 14.2851 7.03981 14.3751C7.82981 14.7451 8.8148 14.8551 9.96488 14.7051C10.4049 14.6501 10.9149 14.5601 11.3649 14.2801C11.7849 14.0251 12.0749 13.6601 12.3299 13.3401L14.6499 10.4401C15.2799 10.7851 15.8549 11.0901 16.3999 11.3751L14.7049 14.2201C14.4849 14.5901 14.4249 15.0201 14.5399 15.4351C14.6549 15.8501 14.9299 16.1951 15.3099 16.4051C15.5699 16.5501 15.8549 16.6201 16.1349 16.6201C16.7049 16.6201 17.2649 16.3351 17.5699 15.8201L19.3499 12.8351C19.6999 13.0001 20.0749 13.1751 20.4949 13.3651L19.1749 15.58C18.9549 15.95 18.8949 16.38 19.0099 16.795C19.1249 17.21 19.3999 17.555 19.7799 17.765C20.0399 17.91 20.3249 17.98 20.6049 17.98C21.1749 17.98 21.7349 17.695 22.0399 17.18L23.5349 14.675C25.2799 15.39 27.005 16.035 28.6698 16.6C29.0998 16.745 29.5048 16.9 29.7549 17.125C28.4799 17.745 27.1498 18.255 25.7898 18.6301C22.5749 19.5101 19.3597 19.3901 15.9498 19.2701L15.5498 19.2501C12.6898 19.1501 9.78472 19.1301 6.97485 19.1151L4.86984 19.1001C4.31984 19.0951 4.06984 19.0601 3.66483 18.8601L3.05981 18.5601C3.05981 18.5451 3.06481 18.5301 3.06481 18.5201L3.0848 18.36ZM29.9088 19.095C29.7338 19.455 29.2938 19.7 28.8788 19.895C26.0988 21.21 22.9687 21.3 19.9489 21.39C18.3239 21.43 16.7039 21.47 15.0839 21.5C11.8839 21.555 8.6388 21.58 5.44893 21.57C4.70392 21.565 4.05395 21.535 3.61395 21.205C3.28395 20.96 3.05896 20.52 2.99395 20C2.97895 19.87 2.97395 19.73 2.97395 19.58L3.22895 19.705C3.80895 19.99 4.21895 20.045 4.86393 20.05L6.96895 20.065C9.77401 20.08 12.674 20.095 15.514 20.195L15.899 20.21C17.039 20.25 18.194 20.295 19.354 20.295C21.584 20.295 23.8289 20.14 26.039 19.535C27.409 19.16 28.7441 18.655 30.034 18.035C30.034 18.09 30.039 18.145 30.039 18.2C30.034 18.53 30.024 18.85 29.909 19.095L29.9088 19.095Z" fill="white"/>
</svg>
