<svg width="32" height="32" viewBox="0 0 32 32" fill="none" xmlns="http://www.w3.org/2000/svg">
<g id="Frame 371">
<path id="Vector" fill-rule="evenodd" clip-rule="evenodd" d="M10.0643 1.60617H11.763C12.2505 1.60617 12.3692 1.97118 12.4405 2.07118C12.6768 2.27368 12.8555 2.52617 13.0492 2.79993C13.5205 3.46494 14.1005 4.28494 16.0004 4.28494C17.9004 4.28494 18.4817 3.46494 18.9516 2.79993C19.1454 2.52617 19.3242 2.27369 19.5604 2.07118C19.6316 1.96993 19.7504 1.60617 20.2379 1.60617C20.6304 1.60617 21.9641 1.55742 22.2154 1.66117C22.4854 1.77367 22.6616 2.03992 22.6616 2.33242C22.6479 6.80602 21.7516 12.6087 26.428 13.785C26.6305 13.835 26.7655 14.0175 26.7655 14.2175H26.7668V28.8436C26.7668 29.7023 26.063 30.4061 25.2043 30.4061L6.79786 30.4048C5.93911 30.4048 5.23535 29.7011 5.23535 28.8423V14.2162C5.23535 14 5.38785 13.8212 5.59159 13.7787C9.58892 12.755 9.48012 8.45125 9.37532 4.25872C9.36532 3.86747 9.27907 2.33371 9.39407 2.05496L9.55157 1.81871L9.55032 1.81746C9.68782 1.68246 9.87158 1.60621 10.0641 1.60621L10.0643 1.60617ZM12.523 3.59118C12.6368 5.66993 13.2068 10.5437 16.0003 10.5437C18.7939 10.5437 19.3641 5.67011 19.4777 3.59118C18.9077 4.35993 18.1002 5.17742 16.0003 5.17742C13.9004 5.17742 13.0929 4.35993 12.523 3.59118ZM11.5968 2.49868H10.2305C10.263 7.21494 11.1155 13.0376 6.12813 14.5536V28.8421C6.12813 29.2121 6.42813 29.5121 6.79813 29.5121H25.2032C25.5732 29.5121 25.8732 29.2121 25.8732 28.8421V14.5536C20.8844 13.0374 21.7383 7.21468 21.7708 2.49868H20.4058C20.3858 5.11868 19.8683 11.4363 16.0007 11.4363C12.1331 11.4363 11.6156 5.11894 11.597 2.49868H11.5968Z" fill="white"/>
</g>
</svg>
