<svg width="33" height="32" viewBox="0 0 33 32" fill="none" xmlns="http://www.w3.org/2000/svg">
<path fill-rule="evenodd" clip-rule="evenodd" d="M10.5643 1.60629H12.263C12.7505 1.60629 12.8692 1.9713 12.9405 2.0713C13.1768 2.27381 13.3555 2.52629 13.5492 2.80005C14.0205 3.46506 14.6005 4.28506 16.5004 4.28506C18.4004 4.28506 18.9817 3.46506 19.4516 2.80005C19.6454 2.52629 19.8242 2.27381 20.0604 2.0713C20.1316 1.97005 20.2504 1.60629 20.7379 1.60629C21.1304 1.60629 22.4641 1.55754 22.7154 1.66129C22.9854 1.77379 23.1616 2.04004 23.1616 2.33254C23.1479 6.80614 22.2516 12.6088 26.928 13.7851C27.1305 13.8351 27.2655 14.0176 27.2655 14.2176H27.2668V28.8437C27.2668 29.7025 26.563 30.4062 25.7043 30.4062L7.29786 30.405C6.43911 30.405 5.73535 29.7012 5.73535 28.8425V14.2163C5.73535 14.0001 5.88785 13.8213 6.09159 13.7788C10.0889 12.7551 9.98012 8.45137 9.87532 4.25884C9.86532 3.86759 9.77907 2.33383 9.89407 2.05508L10.0516 1.81883L10.0503 1.81758C10.1878 1.68258 10.3716 1.60633 10.5641 1.60633L10.5643 1.60629ZM13.023 3.5913C13.1368 5.67005 13.7068 10.5438 16.5003 10.5438C19.2939 10.5438 19.8641 5.67024 19.9777 3.5913C19.4077 4.36005 18.6002 5.17754 16.5003 5.17754C14.4004 5.17754 13.5929 4.36005 13.023 3.5913ZM12.0968 2.4988H10.7305C10.763 7.21506 11.6155 13.0377 6.62813 14.5537V28.8423C6.62813 29.2123 6.92813 29.5123 7.29813 29.5123H25.7032C26.0732 29.5123 26.3732 29.2123 26.3732 28.8423V14.5537C21.3844 13.0375 22.2383 7.2148 22.2708 2.4988H20.9058C20.8858 5.1188 20.3683 11.4364 16.5007 11.4364C12.6331 11.4364 12.1156 5.11906 12.097 2.4988H12.0968Z" fill="white"/>
</svg>
