<svg width="33" height="32" viewBox="0 0 33 32" fill="none" xmlns="http://www.w3.org/2000/svg">
<path d="M26.5816 11.3338C25.1416 10.2213 23.348 7.97651 22.9928 3.59145L22.9916 3.5902C22.8953 2.47396 21.9628 1.61521 20.8428 1.61145H12.1578C11.0378 1.6152 10.1053 2.47396 10.009 3.5902C9.65152 7.97633 7.86027 10.2227 6.41888 11.3339C5.79264 11.8202 5.42389 12.5689 5.42139 13.3627V26.8389C5.42014 28.1652 6.41763 29.2789 7.73515 29.4227L16.4565 30.3865V30.3852C16.4852 30.389 16.5152 30.389 16.544 30.3852L25.2667 29.4227C26.5841 29.279 27.5816 28.1652 27.5804 26.8389V13.364C27.5779 12.5703 27.2092 11.8203 26.5817 11.334L26.5816 11.3338ZM16.6566 5.94505L13.1176 2.40745H19.9339L16.6566 5.94505ZM6.21656 26.8389V13.364C6.21531 12.8165 6.47031 12.2977 6.90531 11.964C8.47155 10.754 10.4216 8.33038 10.8016 3.65651C10.8578 3.0115 11.3591 2.49401 12.0028 2.41777L16.1154 6.52923L14.6491 8.11425C13.9366 8.88049 13.5416 9.88801 13.5429 10.9342V26.083C13.5416 27.3043 14.0791 28.4643 15.0129 29.2518L15.2491 29.4518L7.823 28.6344C6.90801 28.5331 6.2155 27.7606 6.21676 26.8394L6.21656 26.8389ZM26.783 26.8389C26.7855 27.7589 26.093 28.5327 25.1779 28.6339L16.6265 29.5764L15.5265 28.6426C14.7727 28.0064 14.3377 27.0689 14.3377 26.0814V10.9339C14.3377 10.0877 14.6565 9.27268 15.2327 8.65267L21.0053 2.41907C21.6453 2.49782 22.1427 3.01406 22.199 3.65657C22.5803 8.33017 24.5278 10.7542 26.0953 11.964C26.5303 12.2978 26.7853 12.8153 26.784 13.364L26.783 26.8389ZM16.5003 12.1104C15.979 12.1104 15.509 12.4241 15.3103 12.9054C15.1103 13.3866 15.2203 13.9404 15.589 14.3091C15.9565 14.6779 16.5115 14.7891 16.9928 14.5891C17.4741 14.3904 17.7878 13.9216 17.789 13.4004C17.789 12.6891 17.2115 12.1116 16.5003 12.1104ZM16.5003 13.8916C16.3003 13.8916 16.1203 13.7716 16.0441 13.5866C15.9678 13.4029 16.0103 13.1904 16.1516 13.0491C16.2941 12.9079 16.5065 12.8666 16.6903 12.9429C16.874 13.0204 16.9941 13.2004 16.9941 13.4004C16.9928 13.6716 16.7716 13.8916 16.5003 13.8916ZM16.5003 17.453C15.979 17.453 15.509 17.7667 15.3103 18.248C15.1103 18.7305 15.2203 19.2842 15.589 19.653C15.9578 20.0205 16.5115 20.1317 16.9928 19.9317C17.4753 19.7317 17.789 19.263 17.789 18.7417C17.7878 18.0305 17.2115 17.4542 16.5003 17.453ZM16.5003 19.2342C16.3003 19.2342 16.1203 19.1142 16.0441 18.9292C15.9678 18.7455 16.0103 18.533 16.1516 18.3917C16.2928 18.2505 16.5053 18.208 16.689 18.2842C16.874 18.3605 16.9941 18.5405 16.9941 18.7405C16.9928 19.013 16.7728 19.233 16.5003 19.2342ZM16.5003 22.7956V22.7943C15.979 22.7943 15.509 23.1093 15.3103 23.5905C15.1103 24.0718 15.2203 24.6255 15.589 24.9943C15.9578 25.3631 16.5115 25.4731 16.9928 25.2731C17.4753 25.0743 17.789 24.6043 17.789 24.0831C17.7878 23.3718 17.2115 22.7968 16.5003 22.7956ZM16.5003 24.5768C16.3003 24.5768 16.1203 24.4568 16.0441 24.2718C15.9678 24.088 16.0103 23.8756 16.1516 23.7343C16.2928 23.593 16.5053 23.5506 16.689 23.6281C16.874 23.7043 16.9941 23.8843 16.9941 24.083C16.9941 24.3555 16.7728 24.5768 16.5003 24.578L16.5003 24.5768ZM20.6118 20.0429C20.6118 19.8242 20.7905 19.6454 21.0093 19.6454H24.9117C25.0192 19.643 25.1229 19.6829 25.2004 19.758C25.2767 19.833 25.3204 19.9354 25.3204 20.043C25.3204 20.1505 25.2767 20.2542 25.2004 20.328C25.1229 20.403 25.0192 20.4442 24.9117 20.4405H21.0093C20.9043 20.4405 20.803 20.3992 20.728 20.3242C20.6543 20.2492 20.6118 20.148 20.6118 20.043L20.6118 20.0429ZM7.46669 20.0429C7.46669 19.8242 7.64544 19.6454 7.86418 19.6454H11.9917C12.2067 19.6517 12.3779 19.828 12.3779 20.0429C12.3779 20.2579 12.2066 20.4342 11.9917 20.4404H7.86418C7.75918 20.4404 7.65793 20.3992 7.58293 20.3242C7.50918 20.2492 7.46669 20.1479 7.46669 20.0429ZM11.2254 20.9604H8.62912C7.97661 20.9617 7.44787 21.4904 7.44787 22.1429V24.6342C7.44787 25.0629 7.68037 25.458 8.05536 25.6667L9.35536 26.388V26.3892C9.7116 26.5892 10.1466 26.5892 10.5029 26.3892L11.8003 25.6642C12.1753 25.4554 12.4078 25.0592 12.4066 24.6304V22.1417C12.4066 21.4892 11.8778 20.9604 11.2253 20.9604L11.2254 20.9604ZM11.6116 24.634C11.6116 24.774 11.5341 24.9028 11.4116 24.9715L10.1141 25.694C9.99785 25.759 9.85536 25.759 9.73787 25.694L8.43787 24.9728V24.9715C8.31536 24.904 8.23912 24.774 8.23786 24.634V22.1415C8.23911 21.9278 8.41161 21.7553 8.62411 21.7553H11.2216C11.4341 21.7553 11.6078 21.9278 11.6078 22.1415L11.6116 24.634ZM24.2591 20.9604H21.6628C21.0103 20.9604 20.4816 21.4892 20.4803 22.1417V24.6342C20.4803 25.0629 20.7128 25.458 21.0878 25.6667L22.3878 26.388V26.3892C22.7453 26.5892 23.1803 26.5892 23.5366 26.3892L24.8341 25.6642C25.209 25.4554 25.4403 25.0592 25.4403 24.6304V22.1417C25.4403 21.4892 24.9116 20.9604 24.2591 20.9604ZM24.6453 24.634C24.6453 24.774 24.5691 24.9028 24.4466 24.9715L23.1491 25.694C23.0328 25.759 22.8903 25.759 22.7741 25.694L21.4741 24.9728V24.9715C21.3503 24.904 21.2741 24.774 21.2741 24.634V22.1415C21.2741 21.9278 21.4466 21.7553 21.6603 21.7553H24.2566C24.4703 21.7553 24.6428 21.9278 24.6428 22.1415L24.6453 24.634Z" fill="white"/>
</svg>
