<svg width="33" height="32" viewBox="0 0 33 32" fill="none" xmlns="http://www.w3.org/2000/svg">
<path d="M30.4341 24.5101L28.4766 21.0786L28.8291 20.7261H28.8303C29.0053 20.5511 29.0253 20.2749 28.8791 20.0761L25.9604 16.1161C25.9942 14.2424 25.4629 12.4025 24.4354 10.8361L25.0241 10.2474C25.4516 9.81864 25.4516 9.12363 25.0241 8.69488L23.7979 7.46864C23.3692 7.04115 22.6741 7.04115 22.2454 7.46864L21.6566 8.05739C20.1229 7.05488 18.3292 6.5224 16.4966 6.52613C16.4554 6.52613 16.4154 6.53113 16.3741 6.53238L12.4253 3.62358L12.4241 3.62233C12.2253 3.47608 11.9491 3.49733 11.7753 3.67108L11.4228 4.02359L7.99031 2.0661C7.79406 1.95359 7.5478 1.9861 7.38905 2.1461L2.64666 6.8885C2.48791 7.04725 2.45415 7.29351 2.56666 7.48975L4.52415 10.9223C4.26665 11.1848 3.81791 11.5073 4.1229 11.9248L7.0317 15.8736C7.0317 15.9148 7.02545 15.9548 7.02545 15.9961C6.9217 21.086 11.4057 25.571 16.4969 25.4662C16.5369 25.4662 16.5769 25.4612 16.6169 25.46L20.5769 28.3776V28.3788C20.7757 28.5251 21.0519 28.5051 21.2269 28.3301L21.5794 27.9776L25.0109 29.9351V29.9338C25.2071 30.0463 25.4534 30.0126 25.6121 29.8538L30.3545 25.1114C30.5133 24.9527 30.547 24.7064 30.4345 24.5102L30.4341 24.5101ZM7.82659 3.12397L10.6879 4.75648L5.25646 10.1879L3.62395 7.32661L7.82659 3.12397ZM22.953 8.17651H22.9517C22.9705 8.15651 22.9955 8.14526 23.0217 8.14526C23.048 8.14526 23.073 8.15651 23.0905 8.17651L24.3167 9.40275H24.318C24.3367 9.42025 24.348 9.44525 24.348 9.4715C24.3467 9.49775 24.3367 9.52275 24.3167 9.54025L23.8405 10.0165V10.0177C23.433 9.51774 22.9755 9.06024 22.4755 8.65272L22.953 8.17651ZM5.18313 11.6776L12.1781 4.68264L14.8781 6.67139C12.9543 7.00139 11.1805 7.92013 9.80073 9.30013C8.42094 10.6801 7.50198 12.454 7.17198 14.3775L5.18313 11.6776ZM8.02686 15.9962C8.03436 8.47757 17.1658 4.69517 22.4871 10.0074H22.4859C24.0646 11.5999 24.9509 13.7525 24.9509 15.9962C24.9509 18.2387 24.0647 20.3912 22.4859 21.985C17.1645 27.2965 8.03334 23.5138 8.02694 15.9962H8.02686ZM20.8231 27.3189L18.1133 25.3214C20.037 24.9914 21.8122 24.0727 23.1933 22.6927C24.5733 21.3114 25.492 19.5364 25.822 17.6127L27.8195 20.3239L20.8231 27.3189ZM25.1746 28.8764L22.3133 27.2439L27.7447 21.8124L29.3772 24.6748L25.1746 28.8764Z" fill="white"/>
<path d="M21.7136 21.2125C26.3437 16.6 23.0311 8.60744 16.4973 8.61891C14.5435 8.62766 12.6722 9.40891 11.2909 10.7902C9.90943 12.1714 9.12839 14.0427 9.11964 15.9966C9.10839 22.5304 17.102 25.843 21.7132 21.2128L21.7136 21.2125ZM10.12 15.9962C10.11 10.3477 17.0197 7.48478 21.0064 11.4874C22.1951 12.6862 22.8626 14.3074 22.8626 15.9962C22.8626 17.685 22.1951 19.3064 21.0064 20.505C17.0189 24.5077 10.1101 21.645 10.12 15.9962Z" fill="white"/>
<path d="M16.4971 17.2837C16.8783 17.2787 17.2383 17.105 17.4796 16.81C17.7196 16.5137 17.8171 16.1262 17.7433 15.7512C17.6696 15.3775 17.4346 15.055 17.0996 14.8725C16.7646 14.6887 16.3658 14.6637 16.0108 14.8037L14.3583 13.1512C14.1621 12.9625 13.8508 12.9662 13.6583 13.1587C13.4658 13.3512 13.4633 13.6625 13.6521 13.8587L15.3046 15.5112C15.1783 15.8225 15.1783 16.17 15.3046 16.4812L14.1121 17.6737C13.9233 17.8712 13.9258 18.1812 14.1183 18.375C14.3108 18.5675 14.6221 18.57 14.8183 18.3812L16.0108 17.1887C16.1658 17.2512 16.3308 17.2837 16.4971 17.2837ZM16.7008 15.7925C16.8096 15.9062 16.8071 16.085 16.6958 16.1962C16.5858 16.3062 16.4058 16.3087 16.2933 16.2C16.1846 16.0862 16.1871 15.9075 16.2971 15.7962C16.4083 15.6862 16.5871 15.6837 16.7008 15.7925Z" fill="white"/>
</svg>
