<svg width="33" height="32" viewBox="0 0 33 32" fill="none" xmlns="http://www.w3.org/2000/svg">
<path d="M30.4998 15.5424V19C30.4998 19.6974 30.3446 20.3537 29.998 21.1143C29.9387 22.9598 28.4434 24.4489 26.5956 24.4988L9.67856 30.9671C9.62158 30.9888 9.56096 31 9.50002 31H5.00002C3.07013 31 1.50002 29.4299 1.50002 27.5C1.50002 25.8681 2.62263 24.4936 4.13615 24.108C3.97646 23.7658 3.95574 23.3803 4.08344 23.0164C4.2975 22.4085 4.88531 22.0001 5.54606 22.0001H8.49993C8.61347 22.0001 8.72357 22.0387 8.81222 22.1097L10.9628 23.8301L11.1463 23.6465C12.8855 21.9075 18.8767 18.5001 21.9999 18.5001H22.4999V15.4607C22.4999 14.7182 22.352 13.9737 22.0603 13.2478C21.6675 12.2705 21.4999 11.2992 21.4999 10C21.4999 8.65827 21.6057 7.70741 22.1642 6.52803C22.3838 6.06387 22.4999 5.5448 22.4999 5.02688V5.00001C22.4999 3.92177 22.9225 2.91073 23.6897 2.15334C24.4569 1.39595 25.4722 0.986992 26.5526 1.00011C27.615 1.01397 28.6086 1.43553 29.3502 2.1871C30.0917 2.93867 30.5 3.93763 30.5 5.00017V5.02704C30.5 5.54496 30.616 6.06403 30.8356 6.52808C31.3942 7.70755 31.5 8.6584 31.5 10.0001C31.5 11.3243 31.3322 12.2955 30.939 13.247C30.701 13.8236 30.5 14.8748 30.5 15.5425L30.4998 15.5424ZM29.9315 6.95573C29.649 6.35875 29.4998 5.69179 29.4998 5.02688V5.00001C29.4998 3.33929 28.1995 2.02161 26.5398 2.00001C25.7311 1.98865 24.9677 2.29678 24.3923 2.86481C23.8168 3.43294 23.4999 4.19126 23.4999 5.00001V5.02688C23.4999 5.69179 23.3506 6.35875 23.0681 6.95584C22.5878 7.97021 22.4999 8.77688 22.4999 10.0001C22.4999 11.1791 22.6414 12.012 22.9881 12.8748C23.3277 13.7198 23.4999 14.5898 23.4999 15.4606V18.191L24.7762 17.5528C25.0232 17.4293 25.3236 17.5293 25.4471 17.7764C25.5706 18.0234 25.4704 18.3237 25.2235 18.4472L23.2235 19.4472L23.2233 19.4468C23.156 19.4806 23.0803 19.5001 22.9999 19.5001H21.9999C20.7609 19.5001 18.7433 20.1683 16.4644 21.3333C14.5483 22.3129 12.6521 23.5549 11.8535 24.3536L11.3535 24.8536C11.1733 25.0337 10.8865 25.0496 10.6876 24.8904L8.32442 22.9999H5.54601C5.30862 22.9999 5.09978 23.14 5.02655 23.3479C4.9627 23.53 5.0254 23.6756 5.08926 23.7658C5.18863 23.9058 5.35353 23.9999 5.49979 23.9999H7.49979C7.77592 23.9999 7.99979 24.2238 7.99979 24.4999C7.99979 24.776 7.77594 24.9999 7.49979 24.9999H4.99979C4.18366 24.9999 3.45771 25.3931 3.00115 25.9999H6.49982C6.77595 25.9999 6.99982 26.2238 6.99982 26.4999C6.99982 26.776 6.77596 26.9999 6.49982 26.9999H2.55022C2.5173 27.1616 2.4999 27.3288 2.4999 27.4999C2.4999 27.671 2.5173 27.8382 2.55022 27.9999H6.49982C6.77595 27.9999 6.99982 28.2238 6.99982 28.4999C6.99982 28.776 6.77596 28.9999 6.49982 28.9999H3.00115C3.45771 29.6067 4.18366 29.9999 4.99979 29.9999H9.40753L26.3214 23.5327C26.3784 23.5109 26.4389 23.4998 26.4999 23.4998C27.8785 23.4998 28.9999 22.3783 28.9999 20.9998C28.9999 20.926 29.0163 20.8531 29.0477 20.7865C29.3647 20.1145 29.4999 19.5802 29.4999 18.9998V15.5422C29.4999 14.7402 29.726 13.5644 30.0147 12.8651C30.3548 12.0419 30.4999 11.185 30.4999 9.99978C30.4999 8.77666 30.412 7.97 29.9317 6.95552L29.9315 6.95573Z" fill="white"/>
</svg>
