<svg width="33" height="32" viewBox="0 0 33 32" fill="none" xmlns="http://www.w3.org/2000/svg">
<path d="M26.3391 20.6371C26.4988 21.5952 26.7692 22.2944 27.0306 22.9714C27.3746 23.8611 27.6997 24.7014 27.6997 26C27.6997 28.4262 25.7259 30.4 23.2997 30.4C22.5442 30.4 21.8047 30.1984 21.0591 29.9949C20.3275 29.7952 19.6364 29.6065 18.9007 29.6065L16.4997 29.609C15.9503 29.6096 15.4165 29.8102 14.901 30.0042C14.3845 30.1987 13.8505 30.4 13.2997 30.4H7.69973C6.37619 30.4 5.29973 29.3235 5.29973 28C5.29973 26.6998 6.3388 25.6377 7.63027 25.6009C10.0875 25.2073 12.4751 24.4707 14.7273 23.4118C15.0784 23.2463 15.342 23.1222 15.4374 23.0754C16.0429 22.6706 16.4227 21.9318 16.4317 21.1369L16.4989 15.3483C16.3057 14.253 16.0848 13.1349 15.8666 12.031C15.3316 9.32088 15.0285 6.26835 14.9123 2.42381C14.9056 2.20746 14.9872 1.99787 15.138 1.84267C15.2886 1.68756 15.4957 1.59985 15.712 1.59985H24.7541C25.0876 1.59985 25.3861 1.80662 25.5033 2.1186C26.3906 4.48247 26.8998 7.18767 26.8998 9.54073C26.8998 10.6416 26.8079 11.7503 26.6269 12.8365L26.0998 15.9999V17.7429C26.0998 18.711 26.1804 19.6847 26.3391 20.6371L26.3391 20.6371ZM25.5378 23.5475C25.261 22.8313 24.9474 22.0194 24.7608 20.9004C24.5874 19.8608 24.4997 18.7987 24.4997 17.743V15.9338C24.4997 15.8896 24.5035 15.8457 24.5105 15.8022L25.0488 12.5734C25.2155 11.574 25.2996 10.5539 25.2996 9.54087C25.2996 7.57316 24.8891 5.2422 24.1908 3.20007H16.5396C16.6698 6.56994 16.9576 9.29634 17.4408 11.7441C17.6571 12.8394 17.8805 13.9722 18.0779 15.0902L18.0875 15.1455C18.0958 15.1942 18.1 15.2437 18.0993 15.293L18.0312 21.1554C18.0159 22.5154 17.358 23.7438 16.2795 24.4359C16.2159 24.4782 16.2104 24.4817 15.4076 24.8593C13.0015 25.9905 10.4502 26.7745 7.82409 27.1898C7.78347 27.1967 7.74149 27.1999 7.69961 27.1999C7.25836 27.1999 6.89961 27.5587 6.89961 27.9999C6.89961 28.4412 7.25836 28.7999 7.69961 28.7999H13.2996C13.5591 28.7999 13.9367 28.6578 14.337 28.5068C14.9257 28.2853 15.6586 28.0095 16.4979 28.0089L18.8996 28.0067C19.8509 28.0067 20.6794 28.2329 21.5098 28.4598C22.1236 28.6268 22.7584 28.7999 23.2996 28.7999C24.8435 28.7999 26.0996 27.5439 26.0996 25.9999C26.0996 25.0002 25.8519 24.3596 25.5377 23.5474L25.5378 23.5475Z" fill="white"/>
<path d="M20.8399 25.6C20.6351 25.6 20.4306 25.5219 20.2742 25.3661C19.9616 25.0534 19.9616 24.5469 20.2739 24.2345C20.5085 23.9999 20.5664 23.6425 20.4181 23.3462L20.1241 22.758C19.9267 22.3628 20.087 21.8825 20.4818 21.6848C20.8776 21.4871 21.3573 21.6474 21.555 22.0425L21.8491 22.6309C22.3054 23.5442 22.1272 24.6434 21.4052 25.3659C21.2498 25.5218 21.0447 25.5999 20.8399 25.5999L20.8399 25.6Z" fill="white"/>
</svg>
