<svg width="33" height="32" viewBox="0 0 33 32" fill="none" xmlns="http://www.w3.org/2000/svg">
<path d="M6.66044 20.6371C6.50076 21.5952 6.23034 22.2944 5.96887 22.9714C5.62492 23.8611 5.2998 24.7014 5.2998 26C5.2998 28.4262 7.27356 30.4 9.6998 30.4C10.4553 30.4 11.1948 30.1984 11.9404 29.9949C12.672 29.7952 13.3631 29.6065 14.0988 29.6065L16.4998 29.609C17.0492 29.6096 17.583 29.8102 18.0985 30.0042C18.615 30.1987 19.1491 30.4 19.6998 30.4H25.2998C26.6233 30.4 27.6998 29.3235 27.6998 28C27.6998 26.6998 26.6607 25.6377 25.3692 25.6009C22.912 25.2073 20.5244 24.4707 18.2722 23.4118C17.9211 23.2463 17.6575 23.1222 17.5621 23.0754C16.9567 22.6706 16.5768 21.9318 16.5678 21.1369L16.5006 15.3483C16.6938 14.253 16.9147 13.1349 17.1329 12.031C17.6679 9.32088 17.971 6.26835 18.0872 2.42381C18.0939 2.20746 18.0123 1.99787 17.8616 1.84267C17.7109 1.68756 17.5038 1.59985 17.2875 1.59985H8.24537C7.91193 1.59985 7.61339 1.80662 7.49619 2.1186C6.60891 4.48247 6.09974 7.18767 6.09974 9.54073C6.09974 10.6416 6.19162 11.7503 6.37265 12.8365L6.89974 15.9999V17.7429C6.89974 18.711 6.81912 19.6847 6.66036 20.6371L6.66044 20.6371ZM7.4617 23.5475C7.73847 22.8313 8.05212 22.0194 8.23868 20.9004C8.41212 19.8608 8.49983 18.7987 8.49983 17.743V15.9338C8.49983 15.8896 8.49598 15.8457 8.489 15.8022L7.95076 12.5734C7.78399 11.574 7.69993 10.5539 7.69993 9.54087C7.69993 7.57316 8.11046 5.2422 8.80867 3.20007H16.4599C16.3297 6.56994 16.042 9.29634 15.5587 11.7441C15.3424 12.8394 15.119 13.9722 14.9216 15.0902L14.9121 15.1455C14.9037 15.1942 14.8996 15.2437 14.9002 15.293L14.9683 21.1554C14.9836 22.5154 15.6415 23.7438 16.72 24.4359C16.7836 24.4782 16.7891 24.4817 17.592 24.8593C19.998 25.9905 22.5493 26.7745 25.1754 27.1898C25.216 27.1967 25.258 27.1999 25.2999 27.1999C25.7412 27.1999 26.0999 27.5587 26.0999 27.9999C26.0999 28.4412 25.7412 28.7999 25.2999 28.7999H19.6999C19.4404 28.7999 19.0628 28.6578 18.6625 28.5068C18.0738 28.2853 17.3409 28.0095 16.5016 28.0089L14.0999 28.0067C13.1486 28.0067 12.3201 28.2329 11.4897 28.4598C10.876 28.6268 10.2411 28.7999 9.69993 28.7999C8.15598 28.7999 6.89993 27.5439 6.89993 25.9999C6.89993 25.0002 7.14764 24.3596 7.46179 23.5474L7.4617 23.5475Z" fill="white"/>
<path d="M12.1596 25.6C12.3644 25.6 12.5689 25.5219 12.7253 25.3661C13.0379 25.0534 13.0379 24.5469 12.7256 24.2345C12.4911 23.9999 12.4331 23.6425 12.5814 23.3462L12.8754 22.758C13.0728 22.3628 12.9125 21.8825 12.5177 21.6848C12.1219 21.4871 11.6422 21.6474 11.4445 22.0425L11.1504 22.6309C10.6941 23.5442 10.8723 24.6434 11.5943 25.3659C11.7497 25.5218 11.9548 25.5999 12.1596 25.5999L12.1596 25.6Z" fill="white"/>
</svg>
