<svg width="33" height="32" viewBox="0 0 33 32" fill="none" xmlns="http://www.w3.org/2000/svg">
<path d="M2.50021 15.5424V19C2.50021 19.6974 2.65542 20.3537 3.00197 21.1143C3.06135 22.9598 4.55656 24.4489 6.40437 24.4988L23.3214 30.9671C23.3784 30.9888 23.439 31 23.5 31H28C29.9299 31 31.5 29.4299 31.5 27.5C31.5 25.8681 30.3774 24.4936 28.8638 24.108C29.0235 23.7658 29.0443 23.3803 28.9166 23.0164C28.7025 22.4085 28.1147 22.0001 27.4539 22.0001H24.5001C24.3865 22.0001 24.2764 22.0387 24.1878 22.1096L22.0372 23.8301L21.8537 23.6465C20.1145 21.9075 14.1233 18.5001 11.0001 18.5001H10.5001V15.4607C10.5001 14.7182 10.648 13.9737 10.9397 13.2478C11.3325 12.2705 11.5001 11.2992 11.5001 10C11.5001 8.65827 11.3943 7.70741 10.8358 6.52803C10.6162 6.06387 10.5001 5.5448 10.5001 5.02688V5.00001C10.5001 3.92177 10.0775 2.91073 9.31032 2.15334C8.54312 1.39595 7.52781 0.986992 6.44739 1.00011C5.38499 1.01397 4.39144 1.43552 3.64979 2.1871C2.90832 2.93867 2.5 3.93763 2.5 5.00016V5.02704C2.5 5.54496 2.38396 6.06403 2.16437 6.52808C1.60584 7.70755 1.5 8.6584 1.5 10.0001C1.5 11.3243 1.66781 12.2955 2.06104 13.247C2.29896 13.8236 2.5 14.8748 2.5 15.5425L2.50021 15.5424ZM3.06845 6.95573C3.35096 6.35875 3.50021 5.69179 3.50021 5.02688V5.00001C3.50021 3.33929 4.80053 2.02161 6.46021 2.00001C7.26885 1.98865 8.03229 2.29678 8.6077 2.8648C9.18322 3.43294 9.5001 4.19126 9.5001 5.00001V5.02688C9.5001 5.69179 9.64938 6.35875 9.93186 6.95584C10.4122 7.97021 10.5001 8.77688 10.5001 10.0001C10.5001 11.1791 10.3586 12.012 10.0119 12.8748C9.67229 13.7198 9.5001 14.5898 9.5001 15.4606V18.191L8.22376 17.5528C7.97678 17.4293 7.67637 17.5293 7.55293 17.7764C7.42939 18.0234 7.5296 18.3237 7.77647 18.4472L9.77647 19.4472L9.77668 19.4468C9.84397 19.4806 9.9197 19.5001 10.0001 19.5001H11.0001C12.2391 19.5001 14.2567 20.1683 16.5356 21.3333C18.4517 22.3129 20.3479 23.5549 21.1465 24.3536L21.6465 24.8536C21.8267 25.0337 22.1135 25.0496 22.3124 24.8904L24.6756 22.9999H27.454C27.6914 22.9999 27.9002 23.14 27.9734 23.3479C28.0373 23.53 27.9746 23.6756 27.9107 23.7658C27.8114 23.9058 27.6465 23.9999 27.5002 23.9999H25.5002C25.2241 23.9999 25.0002 24.2238 25.0002 24.4999C25.0002 24.776 25.2241 24.9999 25.5002 24.9999H28.0002C28.8163 24.9999 29.5423 25.3931 29.9988 25.9999H26.5002C26.224 25.9999 26.0002 26.2238 26.0002 26.4999C26.0002 26.776 26.224 26.9999 26.5002 26.9999H30.4498C30.4827 27.1616 30.5001 27.3288 30.5001 27.4999C30.5001 27.671 30.4827 27.8382 30.4498 27.9999H26.5002C26.224 27.9999 26.0002 28.2238 26.0002 28.4999C26.0002 28.776 26.224 28.9999 26.5002 28.9999H29.9988C29.5423 29.6067 28.8163 29.9999 28.0002 29.9999H23.5925L6.67861 23.5327C6.62163 23.5109 6.56111 23.4998 6.50007 23.4998C5.12153 23.4998 4.00007 22.3783 4.00007 20.9998C4.00007 20.926 3.98371 20.8531 3.95225 20.7865C3.63527 20.1145 3.50007 19.5802 3.50007 18.9998V15.5422C3.50007 14.7402 3.27402 13.5644 2.98527 12.8651C2.64516 12.0419 2.50007 11.185 2.50007 9.99978C2.50007 8.77666 2.58798 7.97 3.06831 6.95552L3.06845 6.95573Z" fill="white"/>
</svg>
