<svg width="51" height="51" viewBox="0 0 51 51" fill="none" xmlns="http://www.w3.org/2000/svg">
<g clip-path="url(#clip0_1039_677)">
<path d="M35.336 19.5739V17.6823C35.334 16.1358 34.7188 14.6532 33.6252 13.5598C32.5318 12.4662 31.0492 11.851 29.5026 11.849H29.4102C30.5352 10.7546 31.1696 9.25183 31.1693 7.68233V6.01566C31.1693 3.93166 30.0575 2.00591 28.2526 0.963998C26.4478 -0.0781686 24.2241 -0.0781686 22.4193 0.963998C20.6145 2.006 19.5026 3.93179 19.5026 6.01566V7.68233C19.5023 9.25183 20.1368 10.7546 21.2618 11.849H21.1693C19.6228 11.851 18.1402 12.4662 17.0468 13.5598C15.9532 14.6532 15.3379 16.1358 15.336 17.6823V19.5739C15.3301 20.8957 15.8785 22.1594 16.8477 23.0581C17.5798 23.742 18.5087 24.1782 19.5027 24.3049V25.8882C19.5033 26.4663 19.4421 27.043 19.3202 27.6081L15.4134 46.1556C15.2281 47.0158 15.392 47.9144 15.8689 48.6538C16.3457 49.3932 17.0967 49.9131 17.9567 50.099C18.1927 50.1559 18.4349 50.1839 18.6776 50.1823C19.4359 50.179 20.1706 49.9181 20.7613 49.4424C21.3518 48.9666 21.7631 48.3042 21.9276 47.564L25.336 33.6748L28.7377 47.5398V47.5396C28.8987 48.2851 29.3092 48.9532 29.9013 49.4337C30.4934 49.9141 31.2319 50.1781 31.9944 50.1822C32.2286 50.1845 32.4622 50.1588 32.6902 50.1056C33.5552 49.9252 34.3127 49.4076 34.7948 48.6672C35.2771 47.9267 35.4442 47.0246 35.2593 46.1605L31.3509 27.6056C31.2294 27.0419 31.1685 26.4671 31.1693 25.8906V24.3072C32.3212 24.1612 33.3802 23.5997 34.1475 22.7283C34.9146 21.8567 35.3373 20.7349 35.336 19.5738L35.336 19.5739ZM21.1693 7.68225V6.01558C21.1693 4.52696 21.9634 3.1515 23.2526 2.40716C24.5418 1.66287 26.1301 1.66287 27.4193 2.40716C28.7085 3.15146 29.5026 4.52696 29.5026 6.01558V7.68225C29.5026 9.17087 28.7085 10.5463 27.4193 11.2907C26.1301 12.035 24.5418 12.035 23.2526 11.2907C21.9634 10.5464 21.1693 9.17087 21.1693 7.68225ZM33.6293 46.5089C33.7232 46.9373 33.6412 47.3855 33.4018 47.753C33.1552 48.1311 32.7663 48.3935 32.3235 48.4806C32.2156 48.5052 32.105 48.5169 31.9944 48.5156C31.609 48.5117 31.2367 48.3756 30.9395 48.1302C30.6425 47.8849 30.4386 47.5449 30.3619 47.1673L26.886 33.0006C26.7714 32.5348 26.4535 32.1453 26.0203 31.9397C25.587 31.734 25.0842 31.734 24.651 31.9397C24.2177 32.1453 23.8999 32.5348 23.7853 33.0006L20.3053 47.1914C20.2119 47.6239 19.951 48.0018 19.5795 48.2422C19.2081 48.4828 18.7566 48.5663 18.3238 48.4747C17.891 48.383 17.5122 48.1236 17.2703 47.7532C17.0299 47.3839 16.9483 46.9333 17.0436 46.5032L20.9503 27.9582H20.9502C21.0961 27.2786 21.1696 26.5856 21.1694 25.8906V24.224C21.3019 24.1932 21.4386 24.1572 21.5794 24.1099C22.6521 23.7183 23.7859 23.5207 24.9277 23.5265C25.0898 23.5234 25.2511 23.5065 25.4103 23.4756C25.5206 23.4935 25.6318 23.5049 25.7436 23.5098C26.8863 23.5032 28.0211 23.7008 29.0943 24.0931C29.2276 24.139 29.3652 24.1698 29.5019 24.2023V25.8906C29.5014 26.5842 29.5746 27.2759 29.7202 27.954L33.6293 46.5089ZM30.5943 22.6739H30.3918C30.1325 22.6562 29.8765 22.6052 29.6301 22.5222C28.9297 22.274 28.2077 22.0914 27.4735 21.9763C27.8894 21.2564 27.9509 20.3851 27.6402 19.6138C27.7711 19.6472 27.9011 19.6814 28.0352 19.7172C29.0515 20.0247 30.1075 20.1814 31.1693 20.1822C31.467 20.1822 31.7421 20.0233 31.891 19.7655C32.0399 19.5077 32.0399 19.19 31.891 18.9322C31.7421 18.6744 31.467 18.5155 31.1693 18.5155C30.2545 18.5142 29.345 18.376 28.4709 18.1055C27.5904 17.8328 26.6746 17.6902 25.7527 17.6822C25.5818 17.6845 25.4115 17.7011 25.2436 17.7322C25.1361 17.7148 25.0279 17.7037 24.9193 17.6988C23.9975 17.7066 23.0818 17.849 22.2011 18.1214C21.327 18.3922 20.4175 18.5307 19.5027 18.5322C19.205 18.5322 18.9299 18.691 18.781 18.9488C18.6321 19.2068 18.6321 19.5243 18.781 19.7822C18.9299 20.0401 19.205 20.1988 19.5027 20.1988C20.5647 20.1969 21.6207 20.0392 22.6368 19.7306C23.3755 19.4973 24.1448 19.3745 24.9193 19.3655C25.2483 19.3738 25.5614 19.5081 25.7942 19.7408C26.0268 19.9734 26.161 20.2866 26.1693 20.6155C26.1573 20.9418 26.0228 21.2516 25.7927 21.4832C25.5627 21.7148 25.2538 21.8513 24.9276 21.8655C23.6039 21.8554 22.289 22.0812 21.0443 22.5322C20.7963 22.61 20.5391 22.6547 20.2794 22.6656C19.4281 22.7154 18.5942 22.4119 17.9739 21.8267C17.3537 21.2416 17.0024 20.4265 17.0027 19.5738V17.6822C17.004 16.5776 17.4434 15.5185 18.2245 14.7374C19.0056 13.9563 20.0647 13.5169 21.1693 13.5156H29.5027C30.6073 13.5169 31.6664 13.9563 32.4475 14.7374C33.2286 15.5185 33.668 16.5776 33.6693 17.6822V19.5738C33.6718 20.3925 33.3493 21.1787 32.7728 21.7599C32.1963 22.3409 31.413 22.6697 30.5943 22.6739Z" fill="white"/>
</g>
<defs>
<clipPath id="clip0_1039_677">
<rect width="50" height="50" fill="white" transform="translate(0.335938 0.182251)"/>
</clipPath>
</defs>
</svg>
