<svg width="51" height="51" viewBox="0 0 51 51" fill="none" xmlns="http://www.w3.org/2000/svg">
<path d="M46.0234 40.9539L35.1267 18.3485C34.9177 17.9325 34.5232 17.6395 34.0642 17.5575C33.6013 17.4735 33.1267 17.622 32.7947 17.954L21.1697 29.6415C20.8318 29.9716 20.6775 30.4461 20.7517 30.911C20.824 31.3817 21.1306 31.7821 21.5642 31.9735L44.0859 42.8914C44.2831 42.9793 44.496 43.0282 44.7109 43.036C45.1035 43.036 45.4785 42.8797 45.7519 42.5985C46.1835 42.1649 46.2929 41.5028 46.0234 40.9539ZM24.6075 30.2447L33.3984 21.4539L41.6076 38.4539L24.6075 30.2447ZM19.795 26.2857C20.0802 26.5572 20.2404 26.9342 20.2404 27.3287C20.2404 27.7213 20.0802 28.0982 19.795 28.3697C19.5255 28.6607 19.1485 28.8267 18.7521 28.8267C18.3576 28.8267 17.9787 28.6607 17.7111 28.3697L10.6269 21.223C10.2343 20.8031 9.68355 20.5648 9.10738 20.5648C8.53121 20.5648 7.98042 20.8031 7.58588 21.223L6.98238 21.8265V21.8285C6.7109 22.1137 6.33396 22.2738 5.93942 22.2738C5.54684 22.2738 5.16988 22.1137 4.89842 21.8285C4.61326 21.557 4.45117 21.1801 4.45117 20.7855C4.45117 20.393 4.61328 20.016 4.89842 19.7445L5.50192 19.141C6.45309 18.1879 7.74217 17.6547 9.08592 17.6547C10.4297 17.6547 11.7188 18.1879 12.6699 19.141L19.795 26.2857ZM6.21088 14.1199C5.63863 13.5437 5.63863 12.614 6.21088 12.0359C8.19134 10.0808 11.3767 10.0808 13.3575 12.0359L23.6292 22.3076H23.6273C23.9124 22.5791 24.0745 22.956 24.0745 23.3486C24.0745 23.7431 23.9124 24.1201 23.6273 24.3915C23.3538 24.6708 22.9788 24.829 22.5863 24.829C22.2015 24.8271 21.8323 24.6689 21.5648 24.3915L11.3148 14.1199C10.9222 13.7 10.3714 13.4597 9.79522 13.4597C9.21905 13.4597 8.66826 13.6999 8.27372 14.1199C7.69951 14.6785 6.78543 14.6785 6.21122 14.1199L6.21088 14.1199ZM19.8984 14.9109C18.9472 13.9656 18.414 12.6805 18.414 11.3387C18.414 9.99687 18.9472 8.71171 19.8984 7.76641C20.4745 7.19025 21.4062 7.19025 21.9824 7.76641C22.5566 8.34062 22.5566 9.27425 21.9824 9.84846C21.1484 10.7 21.1484 12.0613 21.9824 12.911L27.4199 18.3485C27.9921 18.9266 27.9921 19.8563 27.4199 20.4325C26.8418 21.0047 25.912 21.0047 25.3359 20.4325L19.8984 14.9109ZM25.9825 12.9949C25.2872 12.3055 24.8966 11.368 24.8966 10.3914C24.8966 9.41291 25.2873 8.47541 25.9825 7.78596C26.5568 7.21175 27.4904 7.21175 28.0646 7.78596C28.6408 8.36212 28.6408 9.29379 28.0646 9.86996C27.9181 10.0125 27.8361 10.2078 27.8361 10.411C27.8361 10.6219 27.9181 10.8231 28.0646 10.9735L31.4396 14.3485C32.0118 14.9266 32.0118 15.8563 31.4396 16.4325C31.1583 16.6981 30.7853 16.8465 30.3986 16.8485C30.0177 16.8465 29.6525 16.6981 29.3771 16.4325L25.9825 12.9949Z" fill="white"/>
</svg>
