<svg width="51" height="51" viewBox="0 0 51 51" fill="none" xmlns="http://www.w3.org/2000/svg">
<path d="M49.6235 15.6977C49.5239 14.852 48.9731 14.3168 48.7934 14.143C47.3383 12.7289 43.2388 9.63341 41.0376 7.973C40.5122 7.57846 40.0122 7.20345 39.9321 7.13316C39.813 7.0277 39.6821 6.93395 39.5473 6.83824C39.352 6.70738 39.1372 6.5941 38.9223 6.5023C38.6079 6.37145 38.272 6.2816 37.9321 6.24254C36.1118 6.01793 34.2719 5.86168 32.4379 5.76791C32.3989 5.76205 32.3637 5.76205 32.3227 5.76205H32.3129C31.0238 5.6976 29.7328 5.66245 28.4477 5.66245H28.4086C27.1078 5.66245 25.809 5.6976 24.4984 5.76205C24.4731 5.76205 24.4535 5.76205 24.4281 5.76791C22.5883 5.86362 20.7485 6.02377 18.9223 6.24837C18.2876 6.32845 17.6918 6.56283 17.1821 6.92804C17.1762 6.92804 17.1762 6.9339 17.1723 6.9339C17.1664 6.93976 17.1625 6.94366 17.1567 6.94366L17.1469 6.94952C17.1371 6.95538 17.1313 6.95929 17.1274 6.96515L17.1117 6.97491C17.057 7.01398 17.0063 7.05499 16.9516 7.09991L16.9457 7.10577L8.1353 14.0729C7.08451 14.9029 6.90484 16.4322 7.73491 17.4869L11.729 22.5378C12.2095 23.1432 12.9185 23.4636 13.6392 23.4636C14.1685 23.4636 14.6997 23.2936 15.1451 22.9382L16.4849 21.8776C16.5044 22.6921 16.5201 23.5026 16.524 24.3132C16.5337 26.6726 16.4732 29.0436 16.3443 31.4086H18.3599C18.4908 29.0395 18.5494 26.6644 18.5396 24.3032C18.5298 22.2329 18.4693 20.1391 18.3541 18.0686C18.3248 17.5139 17.8482 17.0881 17.2935 17.1194C16.7388 17.1487 16.3131 17.6253 16.3443 18.1799C16.3638 18.5803 16.3834 18.9807 16.4048 19.3791L13.9048 21.3596C13.7857 21.4553 13.6607 21.4553 13.5943 21.4494C13.5298 21.4397 13.4088 21.4104 13.315 21.2952L9.32088 16.2443C9.17635 16.0646 9.20565 15.799 9.39119 15.6545L15.6958 10.6703C15.7602 11.2211 15.8266 11.7758 15.8813 12.3246C15.936 12.8402 16.3716 13.225 16.8813 13.225C16.9165 13.225 16.9516 13.225 16.9868 13.2191C17.5376 13.1586 17.9419 12.6645 17.8813 12.1137C17.8071 11.3988 17.727 10.6742 17.6372 9.96329C17.6763 9.48867 17.8227 9.10392 18.0727 8.82267C18.1333 8.75821 18.1919 8.69767 18.2622 8.64298L18.3423 8.58243C18.5864 8.40275 18.8716 8.28165 19.1821 8.24259C20.6274 8.0629 22.0864 7.92814 23.5413 7.8383V7.86369C23.5413 9.91448 25.2053 11.5785 27.2561 11.5785H27.4319V13.9789C27.4319 14.5336 27.8811 14.9848 28.4378 14.9848C28.9924 14.9848 29.4436 14.5356 29.4436 13.9789V11.5785H29.6194C31.6702 11.5785 33.3342 9.91444 33.3342 7.86369V7.8383C34.7893 7.934 36.2483 8.06876 37.6934 8.24259C37.8536 8.26212 38.0079 8.30314 38.1582 8.36173C38.2579 8.4008 38.3633 8.45744 38.4473 8.51603C38.4922 8.54533 38.5567 8.59025 38.627 8.65665C38.7325 8.7465 39.0176 8.96134 39.8321 9.57657C41.8477 11.0961 46.0313 14.2562 47.3967 15.5824C47.4572 15.6429 47.6115 15.7933 47.631 15.932C47.6467 16.0629 47.5353 16.2426 47.4767 16.3363C46.2111 18.3968 45.3459 19.4867 43.6271 21.2017C43.5412 21.2877 43.3967 21.4322 43.2677 21.4459C43.1525 21.4615 42.9924 21.3717 42.8576 21.2857C42.2033 20.8912 41.342 20.2213 40.4572 19.4205C40.5217 18.0005 40.6076 16.5806 40.7228 15.1763C40.7678 14.6216 40.3537 14.1372 39.8029 14.0904C39.2483 14.0455 38.7638 14.4595 38.717 15.0103C38.467 18.0845 38.3361 21.2095 38.3225 24.2953C38.3029 29.3949 38.6018 34.5453 39.2228 39.6099C39.2326 39.7153 39.2228 39.7739 39.217 39.7993C39.1564 40.02 38.9572 40.1685 38.7267 40.1685L26.8497 40.1724C26.9395 40.563 26.9903 40.9673 26.9903 41.3833C26.9903 41.6587 26.9707 41.9224 26.9297 42.1841H38.7247C39.8556 42.1841 40.8556 41.4243 41.1544 40.3345C41.2345 40.0337 41.2599 39.7153 41.2149 39.3696C40.6056 34.3892 40.3107 29.3188 40.3302 24.3092C40.3361 23.5338 40.3458 22.7584 40.3653 21.9791C40.8302 22.3483 41.3302 22.7096 41.8146 23.0045C42.0489 23.1451 42.5587 23.4537 43.2404 23.4537C43.3263 23.4537 43.4103 23.4479 43.5001 23.4381C44.3204 23.3424 44.8458 22.819 45.045 22.6178C46.8751 20.7935 47.84 19.567 49.1857 17.3778C49.3282 17.1473 49.7189 16.5184 49.6232 15.6981L49.6235 15.6977ZM31.3151 7.85225C31.3151 8.7917 30.5495 9.55733 29.6101 9.55733H27.2448C26.3054 9.55733 25.5397 8.7917 25.5397 7.85225V7.72725C26.4948 7.69209 27.4538 7.67256 28.405 7.67256H28.444C29.3933 7.67256 30.3542 7.69209 31.3093 7.72725V7.85225H31.3151ZM32.8503 17.6431C32.2956 17.6431 31.8444 17.1939 31.8444 16.6372C31.8444 16.0825 32.2936 15.6313 32.8503 15.6313H35.8054C36.3601 15.6313 36.8113 16.0805 36.8113 16.6372C36.8113 17.1919 36.3621 17.6431 35.8054 17.6431H32.8503ZM21.6495 33.4164H4.35448C2.51857 33.4164 1.03027 34.9067 1.03027 36.7406C1.03027 37.641 1.38965 38.4613 1.97561 39.061C1.38969 39.6606 1.03027 40.4809 1.03027 41.3813C1.03027 43.2172 2.52052 44.7055 4.35448 44.7055H21.6495C23.4854 44.7055 24.9737 43.2152 24.9737 41.3813C24.9737 40.4809 24.6143 39.6606 24.0284 39.061C24.6143 38.4613 24.9737 37.641 24.9737 36.7406C24.9756 34.9125 23.4854 33.4164 21.6495 33.4164ZM4.35448 35.4262H21.6495C22.3741 35.4262 22.9639 36.016 22.9639 36.7406C22.9639 37.4652 22.3741 38.0551 21.6495 38.0551L4.35448 38.057C3.62986 38.057 3.04002 37.4672 3.04002 36.7426C3.04002 36.0179 3.62986 35.4262 4.35448 35.4262ZM21.6495 42.6978H4.35448C3.62986 42.6978 3.04002 42.108 3.04002 41.3834C3.04002 40.6587 3.62986 40.0689 4.35448 40.0689H21.6495C22.3741 40.0689 22.9639 40.6587 22.9639 41.3834C22.9659 42.108 22.3741 42.6978 21.6495 42.6978Z" fill="white"/>
</svg>
