<svg width="51" height="51" viewBox="0 0 51 51" fill="none" xmlns="http://www.w3.org/2000/svg">
<path fill-rule="evenodd" clip-rule="evenodd" d="M22.5689 22.0572C21.9229 21.8468 21.3059 21.6647 20.7034 21.4433C19.9319 21.1598 19.2478 20.7109 18.5624 20.2648C17.3674 19.4878 16.393 18.4902 15.5634 17.3418C15.1879 16.8218 14.9958 16.2209 14.7974 15.6188C14.5479 14.8637 14.5119 14.0932 14.524 13.3092C14.5515 11.5481 14.946 9.87577 15.6675 8.27002C16.066 7.38607 16.578 6.57144 17.0971 5.75944C17.2816 5.47087 17.5025 5.1989 17.7421 4.95444C18.0461 4.64341 18.418 4.41994 18.8536 4.32944C18.981 4.30291 19.1141 4.28891 19.2445 4.29298C19.364 4.29705 19.4231 4.26304 19.4685 4.14601C19.5435 3.952 19.6355 3.76206 19.738 3.5806C20.06 3.01305 20.5184 2.6081 21.1649 2.45755C21.5044 2.3791 21.8549 2.38855 22.1924 2.46911C22.6044 2.56758 22.891 2.83304 23.004 3.24661C23.0764 3.50914 23.1365 3.78211 23.1466 4.05261C23.1975 5.46015 22.795 6.75703 22.1415 7.98719C21.5915 9.02415 21.059 10.0707 20.6536 11.1732C20.3466 12.0103 20.184 12.8847 20.2551 13.7813C20.2732 14.0089 20.3837 14.2393 20.4921 14.4473C20.9856 15.4013 21.7606 16.0298 22.7785 16.3614C23.0165 16.4389 23.2566 16.5098 23.4955 16.5829C23.5341 16.5945 23.573 16.6024 23.5945 16.608C23.5609 14.143 24.6 12.3634 26.9731 11.573C29.2955 10.8 31.3485 11.976 32.3243 13.4084C33.5333 15.1835 33.4119 17.3865 32.2183 19.0034C32.5053 19.0874 32.7989 19.1569 33.0813 19.2585C33.9088 19.557 34.6793 19.9805 35.4674 20.3666C36.9604 21.0985 38.1539 22.187 39.1749 23.4735C40.3023 24.8941 41.0499 26.5024 41.4234 28.2781C41.6049 29.141 41.6409 30.0196 41.65 30.8995C41.6575 31.622 41.6425 32.343 41.567 33.0636C41.5139 33.5706 41.3595 34.0141 41.0074 34.3956C40.3339 35.1237 39.3259 35.1307 38.6649 34.6741C38.0629 34.2581 37.5894 33.7197 37.3129 33.0341C37.1488 32.6266 37.1068 32.1881 37.1124 31.7521C37.1223 31.0021 37.0788 30.2586 36.9063 29.5266C36.6583 28.4747 36.2143 27.5226 35.4589 26.7301C35.1349 26.3896 34.7529 26.1285 34.352 25.8942C33.8035 25.5732 33.2509 25.2552 32.6244 25.1041C32.4625 25.0651 32.2939 25.0477 32.1269 25.0332C31.9379 25.0167 31.943 25.0232 31.9254 25.2052C31.882 25.6548 31.8409 26.1048 31.7849 26.5522C31.6424 27.6912 31.351 28.7962 31.0034 29.8886C30.7063 30.8247 30.3258 31.7272 29.9484 32.6316C29.8673 32.8247 29.7758 33.0156 29.7239 33.2161C29.672 33.4166 29.6508 33.628 29.638 33.8365C29.5535 35.1905 29.5535 36.5421 29.7579 37.8896C29.8815 38.7035 30.2374 39.3645 30.8919 39.8761C31.7254 40.5286 32.5839 41.1367 33.5594 41.5611C33.9969 41.7511 34.4474 41.9052 34.9219 41.9701C35.6738 42.0727 36.1683 42.4892 36.4139 43.1946C36.8579 44.4706 36.8234 45.7351 36.1069 46.8932C35.4464 47.9598 34.0205 48.3647 32.89 47.4672C32.389 47.0698 32.0466 46.5613 31.8364 45.9663C31.773 45.7863 31.6774 45.7112 31.5 45.6548C30.145 45.2197 28.791 44.7757 27.5475 44.0647C26.8425 43.6622 26.2035 43.1772 25.7456 42.4907C25.4286 42.0167 25.2106 41.4936 25.0147 40.9612C24.4266 39.3628 23.9322 37.7358 23.5882 36.0658C23.5303 35.7849 23.4958 35.4992 23.4502 35.2159C23.4452 35.1843 23.4392 35.1534 23.4292 35.103C23.3708 35.1384 23.3223 35.1659 23.2757 35.1964C22.4898 35.7109 21.8633 36.3848 21.3503 37.1628C21.0428 37.6293 20.8877 38.1674 20.7407 38.7014C20.5038 39.5579 20.3592 40.4314 20.3187 41.3199C20.2932 41.8694 20.2547 42.4179 20.2502 42.9683C20.2461 43.4828 20.3513 43.9864 20.5087 44.4778C20.6372 44.8798 20.7956 45.2743 20.8887 45.6838C20.9572 45.9833 20.9751 46.3048 20.9497 46.6108C20.9333 46.8147 20.8438 47.0453 20.7123 47.2013C20.4273 47.5398 20.0537 47.7348 19.5938 47.7923C19.2328 47.8367 18.8758 47.8567 18.5163 47.8487C17.6449 47.8302 16.7769 47.7672 15.9328 47.5322C15.6823 47.4627 15.4353 47.3611 15.2043 47.2412C14.8549 47.0597 14.6648 46.7571 14.6428 46.3592C14.6102 45.7721 14.7072 45.2146 15.0158 44.7037C15.1823 44.4262 15.4072 44.2083 15.6724 44.0307C15.7508 43.9777 15.7604 43.9287 15.7429 43.8392C15.6014 43.1271 15.4299 42.4186 15.3418 41.7002C15.2694 41.1126 15.2839 40.5127 15.2863 39.9181C15.2928 38.1686 15.6524 36.477 16.2163 34.8327C16.4758 34.0747 16.8092 33.3356 17.1818 32.6256C17.7243 31.5921 18.4309 30.6741 19.4137 30.0091C19.6423 29.8541 19.9022 29.7415 20.1567 29.6316C20.2632 29.5861 20.3317 29.5312 20.3872 29.4336C20.9092 28.5146 21.2926 27.5376 21.5692 26.5231C21.8607 25.455 22.1211 24.379 22.3732 23.3016C22.471 22.8849 22.5086 22.4534 22.5692 22.0574L22.5689 22.0572ZM23.9818 18.0888C23.9018 18.0782 23.7808 18.0738 23.6669 18.0432C23.2434 17.9288 22.8204 17.8142 22.4024 17.6837C20.9944 17.2442 19.9359 16.3777 19.2519 15.0667C19.0653 14.7097 18.9019 14.3391 18.8703 13.9306C18.7903 12.8876 18.9519 11.869 19.2818 10.8881C19.6662 9.74258 20.2048 8.65908 20.7793 7.59854C21.2063 6.81112 21.5214 5.9955 21.6944 5.11854C21.7784 4.69 21.7409 4.26354 21.754 3.83404C21.5614 3.80246 21.4029 3.8285 21.2504 3.93755C21.0599 4.07313 20.9533 4.26307 20.8614 4.46555C20.7453 4.71913 20.6379 4.97664 20.5219 5.23005C20.3829 5.53458 20.1348 5.67651 19.8069 5.68905C19.6594 5.6941 19.5103 5.69963 19.3638 5.68759C19.1194 5.66659 18.9218 5.76458 18.7487 5.91806C18.6508 6.00448 18.5513 6.09661 18.4797 6.20403C18.2347 6.56796 18.0052 6.94249 17.7627 7.30803C17.1488 8.23657 16.7132 9.25007 16.3778 10.3035C16.0193 11.4304 15.9068 12.595 15.9008 13.7769C15.8972 14.5819 16.1192 15.3245 16.4189 16.0504C16.6298 16.5598 16.9949 16.9763 17.3528 17.3879C18.0338 18.1715 18.8248 18.8219 19.7097 19.3694C20.4293 19.8154 21.1711 20.2014 21.9877 20.4294C22.5198 20.5784 23.0592 20.704 23.5927 20.8494C23.6738 20.8713 23.7517 20.9314 23.8132 20.9924C23.9397 21.1169 23.9522 21.2839 23.9547 21.4504C23.9636 22.1268 23.8951 22.7974 23.7517 23.4555C23.5527 24.3691 23.3287 25.2764 23.0997 26.1825C22.7353 27.6275 22.2517 29.0266 21.4832 30.316C21.3707 30.5044 21.2042 30.6195 21.0218 30.7225C20.6943 30.9081 20.3483 31.0695 20.0437 31.2875C19.3517 31.7825 18.8512 32.4581 18.4566 33.1941C18.1017 33.857 17.7836 34.55 17.5411 35.2611C16.9955 36.861 16.667 38.5082 16.6825 40.209C16.6866 40.6595 16.6731 41.1176 16.7446 41.5601C16.8751 42.3772 17.0551 43.1866 17.2296 43.9957C17.309 44.3627 17.2207 44.6532 16.9231 44.8767C16.7822 44.9822 16.6316 45.0753 16.4842 45.1728C16.2006 45.3613 16.0891 45.6419 16.0537 45.9657C16.0431 46.0627 16.0667 46.1182 16.1712 46.1373C16.6256 46.2203 17.0778 46.3258 17.5356 46.3883C18.1071 46.4662 18.6816 46.4618 19.2482 46.3233C19.4537 46.2724 19.5512 46.1334 19.4936 45.9324C19.4371 45.7354 19.3696 45.5419 19.2955 45.3508C19.0291 44.6604 18.872 43.9433 18.838 43.2063C18.8151 42.7113 18.8441 42.2133 18.868 41.7169C18.9105 40.8269 18.9954 39.9413 19.1885 39.0684C19.36 38.2934 19.5649 37.5274 19.9259 36.8179C20.4165 35.8534 21.1525 35.0875 21.9785 34.4055C22.4674 34.002 23.0101 33.698 23.6344 33.5481C24.3174 33.3845 24.7903 33.7521 24.8079 34.4501C24.8174 34.8056 24.8465 35.1651 24.9134 35.5136C25.2614 37.3261 25.8084 39.0811 26.4493 40.8107C26.7889 41.7262 27.3844 42.3932 28.2353 42.8562C28.8103 43.1687 29.4098 43.4228 30.0188 43.6552C30.8583 43.9757 31.6984 44.2947 32.5734 44.5037C32.7563 44.5481 32.8664 44.6311 32.9194 44.8042C32.931 44.8432 32.9494 44.8806 32.9619 44.9192C33.043 45.1682 33.1115 45.4221 33.2064 45.6651C33.3304 45.9812 33.5353 46.2402 33.8154 46.4371C34.0594 46.6101 34.4144 46.6381 34.6719 46.3852C34.7389 46.3186 34.7959 46.2402 34.8699 46.1837C35.05 46.0462 35.139 45.8567 35.1969 45.6482C35.2934 45.3041 35.3044 44.9517 35.293 44.5982C35.2814 44.2432 35.224 43.8982 35.0664 43.5736C35.0068 43.4516 34.9233 43.3871 34.7889 43.3642C34.0864 43.2447 33.4069 43.0461 32.7614 42.7406C31.6894 42.2331 30.7179 41.57 29.8099 40.8142C29.0869 40.2138 28.6163 39.4477 28.4438 38.5227C28.3343 37.9397 28.2458 37.3468 28.2148 36.7546C28.1724 35.9397 28.1873 35.1217 28.1878 34.3046C28.1883 34.0635 28.2228 33.8222 28.2448 33.5811C28.3027 32.9436 28.5327 32.3572 28.7839 31.7761C29.5973 29.8896 30.2484 27.9552 30.4588 25.8961C30.5088 25.4067 30.5604 24.9161 30.5868 24.4251C30.6092 23.9965 30.8008 23.727 31.2233 23.664C31.8092 23.5764 32.3943 23.6085 32.9708 23.7475C33.7063 23.9256 34.3584 24.2915 35.0063 24.6645C35.4733 24.9335 35.9168 25.236 36.3043 25.6155C37.3864 26.678 38.0053 27.983 38.3073 29.4519C38.4677 30.2359 38.5073 31.0294 38.5088 31.8284C38.5092 32.3219 38.6217 32.7934 38.9207 33.2058C39.0621 33.4008 39.2448 33.5148 39.4767 33.5603C39.7583 33.6144 40.0947 33.4334 40.1737 33.1603C40.2292 32.9703 40.2622 32.7698 40.2752 32.5717C40.2882 32.3688 40.2627 32.1632 40.2607 31.9578C40.2578 31.6043 40.2593 31.2513 40.2612 30.8982C40.2653 29.9557 40.2217 29.0138 39.9678 28.1026C39.5182 26.4916 38.7738 25.0356 37.6328 23.7939C36.9482 23.0489 36.2233 22.3544 35.3268 21.8699C34.7028 21.5328 34.0633 21.2239 33.4284 20.9073C32.8145 20.6028 32.1619 20.4109 31.4929 20.2743C31.3164 20.2384 31.1343 20.2319 30.9549 20.2169C30.9125 20.2133 30.863 20.2224 30.8244 20.2415C30.6944 20.3054 30.5689 20.379 30.4395 20.4449C29.8099 20.7673 29.1325 20.8974 28.4334 20.916C28.1724 20.923 27.9088 20.8754 27.6479 20.8465C27.1754 20.7945 26.7314 20.643 26.306 20.4384C25.63 20.1139 25.0569 19.6559 24.6079 19.0559C24.3873 18.7568 24.202 18.4307 23.9819 18.0888L23.9818 18.0888ZM28.3852 19.5647C30.3222 19.5237 31.8097 18.0558 31.8176 16.1468C31.8261 14.1998 30.3306 12.7143 28.4117 12.6998C26.4667 12.6848 24.9848 14.2008 24.9607 16.0777C24.9342 18.0512 26.4897 19.5307 28.3852 19.5647H28.3852Z" fill="white"/>
</svg>
