<svg width="51" height="51" viewBox="0 0 51 51" fill="none" xmlns="http://www.w3.org/2000/svg">
<path d="M22.5492 34.4063C22.7494 34.4078 22.9416 34.3289 23.0831 34.1874C23.2246 34.0458 23.3035 33.8535 23.3022 33.6533C23.3009 33.4539 23.2217 33.2629 23.0813 33.1212C22.9365 32.9872 22.7465 32.9127 22.5492 32.9127C22.352 32.9127 22.1619 32.9872 22.0172 33.1212C21.8758 33.2632 21.7964 33.4556 21.7964 33.6559C21.7964 33.8562 21.8758 34.0484 22.0172 34.1904C22.16 34.3285 22.3507 34.4059 22.5492 34.4063L22.5492 34.4063Z" fill="white"/>
<path d="M19.1055 27.9054C19.1006 27.9572 19.1006 28.0093 19.1055 28.061L20.6466 35.8168L19.2109 44.9883C19.1825 45.1642 19.2175 45.3444 19.3093 45.497C19.4013 45.6495 19.5443 45.7645 19.7129 45.8217L21.7209 46.4793C21.7972 46.5035 21.8768 46.5154 21.9569 46.5144C22.0791 46.5136 22.1994 46.4844 22.3082 46.4291C22.4867 46.3321 22.6187 46.1675 22.6747 45.9722L23.9748 41.5396C24.1134 41.6618 24.2923 41.728 24.4768 41.7254H24.5321C24.7282 41.7033 24.9081 41.6063 25.0341 41.4543L31.0982 34.2155C31.6737 33.5308 31.9455 32.6412 31.8507 31.7517C31.7559 30.8623 31.3029 30.0498 30.5962 29.5017L26.8011 26.5801L26.7459 23.5078C27.0485 23.6458 27.3772 23.7177 27.7097 23.7186C27.8783 23.7204 28.0468 23.7036 28.2117 23.6685L33.7939 22.4687C33.9849 22.4264 34.1521 22.312 34.2608 22.1491C34.3693 21.9863 34.4106 21.7879 34.3761 21.5953L33.9696 19.6576C33.9362 19.4669 33.8303 19.2964 33.6739 19.1822C33.5176 19.068 33.3231 19.0188 33.1312 19.0451L28.9898 19.5973L26.3291 14.6827C26.0851 14.0889 25.6594 13.5874 25.113 13.2501C24.5666 12.9129 23.9273 12.7571 23.2871 12.8053H23.2168L21.9216 13.0112C21.1456 13.1441 20.4513 13.5723 19.9839 14.2059L19.9337 14.2561L17.2682 17.8505C16.7789 18.509 16.5171 19.3091 16.5225 20.1295C16.5281 20.95 16.8003 21.7463 17.2983 22.3985L19.0451 24.6775L18.9749 26.5198C18.9574 26.9854 19.0012 27.4513 19.1054 27.9054L19.1055 27.9054ZM18.478 18.754L21.0834 15.24C21.3112 14.8281 21.7137 14.5418 22.1778 14.462L23.4277 14.2863C23.8375 14.268 24.2381 14.4123 24.5422 14.6878C24.8494 14.9665 25.0306 15.3577 25.0442 15.7722L25.2399 26.9417C25.2437 27.1713 25.3506 27.387 25.5311 27.529L29.6174 30.6665C30.006 30.9547 30.2613 31.3881 30.3245 31.8679C30.3879 32.3475 30.254 32.8323 29.9537 33.2116L24.4317 39.8681L23.9799 39.4564L27.9959 33.1614C28.1166 32.9715 28.146 32.7377 28.0763 32.5238C28.0073 32.3092 27.8449 32.1375 27.6344 32.0569L22.9156 30.2096H22.9158C22.1883 29.9261 21.5676 29.4224 21.1402 28.7691C20.7127 28.1158 20.4998 27.3453 20.5313 26.5652V26.53L21.0333 27.1626V27.1624C21.1474 27.3132 21.3144 27.4152 21.5007 27.4477C21.687 27.4804 21.8786 27.4412 22.0373 27.3382L23.6487 26.2991C23.8085 26.1932 23.9216 26.03 23.9646 25.8432C24.0076 25.6563 23.977 25.4602 23.8796 25.2951L20.9178 20.6165L23.4278 17.6496C23.59 17.4475 23.6368 17.1761 23.5518 16.9313C23.4667 16.6863 23.2616 16.5025 23.0089 16.4444C22.7565 16.3864 22.4918 16.4624 22.3082 16.6456L19.4118 20.0593C19.307 20.1807 19.2441 20.3327 19.2324 20.4926C19.2208 20.6526 19.2606 20.8122 19.3466 20.9477L22.1628 25.4657L21.7562 25.7267L18.5133 21.4948L18.5132 21.495C18.2076 21.1051 18.0388 20.6257 18.0324 20.1304C18.026 19.6352 18.1826 19.1515 18.478 18.754L18.478 18.754ZM27.8603 22.1677C27.6953 22.2015 27.5239 22.1853 27.3681 22.1208C27.2124 22.0564 27.0797 21.9469 26.9867 21.8062L26.8663 21.6204V21.6206C27.0577 21.6044 27.2356 21.5158 27.3637 21.3728C27.4919 21.23 27.5606 21.0436 27.5559 20.8516C27.5512 20.6597 27.4732 20.4769 27.3383 20.3404C27.1578 20.1723 26.9059 20.1046 26.6655 20.1597V19.482C26.7157 19.4869 26.7662 19.4869 26.8162 19.482C26.9528 19.4817 27.0866 19.4435 27.2026 19.3716L27.9457 20.7571C28.0104 20.8725 28.1037 20.9694 28.2168 21.0382C28.2462 21.1813 28.3179 21.3125 28.4225 21.4147C28.565 21.5532 28.7559 21.6309 28.9547 21.6309C29.1534 21.6309 29.3443 21.5532 29.4868 21.4147C29.5929 21.3036 29.6644 21.164 29.6927 21.013L30.3352 20.9277C30.3413 21.1163 30.4184 21.2955 30.5511 21.4297C30.6098 21.4861 30.6776 21.532 30.7518 21.5653L27.8603 22.1677ZM32.5038 21.1637L31.6454 21.3444C31.7639 21.2045 31.8265 21.0258 31.8211 20.8424C31.826 20.7922 31.826 20.7419 31.8211 20.6917L32.4888 20.6617C32.4592 20.7386 32.444 20.8202 32.4435 20.9027C32.4481 20.9926 32.4685 21.0808 32.5038 21.1637ZM21.4599 44.7927L21.0683 44.6672C21.1546 44.524 21.1901 44.3561 21.1692 44.1904C21.1483 44.0245 21.0719 43.8708 20.9528 43.7536L21.1786 42.3329C21.1811 42.3197 21.1811 42.3061 21.1786 42.2927L21.8413 38.101C21.8751 38.2332 21.9426 38.3543 22.0372 38.4525C22.1799 38.5904 22.3706 38.6679 22.5693 38.6684C22.616 38.6733 22.6631 38.6733 22.7098 38.6684L22.3585 39.2155C22.3332 39.2635 22.3131 39.314 22.2982 39.3662C22.2005 39.4 22.1114 39.4547 22.0372 39.5268C21.8959 39.6688 21.8165 39.861 21.8165 40.0613C21.8165 40.2618 21.8959 40.454 22.0372 40.596C22.1799 40.734 22.3706 40.8113 22.5693 40.8118H22.6546L22.4237 41.4494C22.2394 41.473 22.0706 41.5653 21.9515 41.708C21.8322 41.8506 21.771 42.033 21.7805 42.2186C21.7898 42.4042 21.8689 42.5796 22.0021 42.7093L22.0472 42.7444L21.4599 44.7927ZM23.0814 37.3732H23.0813C22.9365 37.239 22.7464 37.1647 22.5492 37.1647C22.3519 37.1647 22.1619 37.239 22.0171 37.3732C21.9782 37.4104 21.9444 37.4526 21.9166 37.4987L22.0923 36.3742C22.225 36.4713 22.3848 36.5241 22.5492 36.5247C22.7494 36.5261 22.9415 36.4473 23.083 36.3058C23.2246 36.1643 23.3035 35.9719 23.3022 35.7717C23.3009 35.5724 23.2216 35.3813 23.0813 35.2397C22.9451 35.1161 22.7695 35.0447 22.5858 35.0383C22.4019 35.032 22.2219 35.0908 22.0773 35.2045L21.254 31.0531V31.0529C21.4326 31.1752 21.6187 31.2858 21.8112 31.3843C21.8063 31.4276 21.8063 31.4714 21.8112 31.5149C21.8132 31.7136 21.8932 31.9035 22.0339 32.0439C22.1745 32.1842 22.3647 32.2638 22.5634 32.2653C22.7621 32.2668 22.9536 32.1901 23.0962 32.052C23.1274 32.0208 23.1559 31.9873 23.1817 31.9515L23.7791 32.1824L23.9296 35.6012C23.9223 35.6611 23.9223 35.7218 23.9296 35.7819C23.9244 35.8353 23.9244 35.8891 23.9296 35.9425C23.9277 36.2066 23.8938 36.4695 23.8293 36.7256L23.7489 37.0018L23.277 37.7296C23.2428 37.5992 23.1755 37.4797 23.0812 37.3832L23.0814 37.3732ZM25.3906 34.3612L25.3053 32.7699L26.1838 33.1163L25.3906 34.3612Z" fill="white"/>
<path d="M27.7348 7.04244C27.3992 6.13094 26.7406 5.37434 25.8842 4.91614C25.0278 4.45795 24.0331 4.32981 23.0886 4.55648C22.1439 4.78296 21.3154 5.34821 20.76 6.145C20.2046 6.9418 19.9609 7.91475 20.0751 8.87934C20.1894 9.8438 20.6536 10.7329 21.3798 11.3779C22.106 12.0231 23.0437 12.379 24.015 12.3786C24.4812 12.3741 24.9432 12.2891 25.3805 12.1276C26.3671 11.7626 27.169 11.0215 27.6104 10.0664C28.0516 9.11143 28.0964 8.02034 27.7349 7.03237L27.7348 7.04244ZM21.7109 9.26122C21.488 8.64992 21.5154 7.97536 21.787 7.38413C22.0586 6.7929 22.5526 6.33274 23.1616 6.10366C23.433 6.00283 23.7205 5.95185 24.01 5.95299C24.6123 5.95316 25.1939 6.17425 25.6441 6.57459C26.0943 6.97495 26.3819 7.52663 26.4525 8.12501C26.5229 8.72327 26.3714 9.32675 26.0266 9.82072C25.6817 10.3147 25.1676 10.6651 24.5816 10.8051C23.9956 10.9453 23.3787 10.8654 22.8476 10.5809C22.3166 10.2962 21.9085 9.82677 21.7007 9.26118L21.7109 9.26122Z" fill="white"/>
</svg>
