<svg width="51" height="51" viewBox="0 0 51 51" fill="none" xmlns="http://www.w3.org/2000/svg">
<path d="M40.5209 29.9356C39.3346 29.8492 38.1629 30.2415 37.2679 31.0251C37.0215 31.2413 36.7993 31.4836 36.6053 31.7479L35.8523 28.9718C35.8428 28.941 35.831 28.9107 35.8171 28.8815C35.6168 28.1608 35.2017 27.5183 34.6274 27.0392C31.4598 24.6799 26.244 20.7893 25.4007 20.207L19.6628 15.2674L14.1057 4.84589C14.0291 4.7034 13.9086 4.58934 13.7622 4.52054C13.6158 4.45191 13.4511 4.43214 13.2924 4.46433L11.164 4.90111C10.9552 4.94376 10.7741 5.07318 10.6661 5.25685C10.5579 5.44053 10.5328 5.66162 10.5968 5.8649L11.3799 8.3497L10.0496 6.34171C9.93371 6.16915 9.75233 6.05133 9.54757 6.01554C9.35132 5.97534 9.14722 6.01505 8.98036 6.12584L7.21341 7.29048L7.21325 7.29064C7.06046 7.39228 6.94967 7.54622 6.90162 7.72336C6.85358 7.90066 6.87156 8.0894 6.95228 8.25443L11.4301 17.185C11.6746 17.6499 11.9971 18.0694 12.3839 18.4248L20.1498 25.9196L21.5153 27.5763L21.6258 27.6867L27.9459 32.7318L31.3244 39.3381C31.3591 39.4057 31.403 39.4682 31.4548 39.5239L37.7047 45.8892C37.8467 46.0325 38.0399 46.1137 38.2419 46.115C38.3587 46.1159 38.4742 46.0882 38.5782 46.0346L40.3853 45.131V45.1311C40.5834 45.0328 40.7281 44.8524 40.7812 44.6378C40.8345 44.4232 40.7906 44.1961 40.6615 44.0167L40.4958 43.8008L41.4295 43.2486C41.6033 43.1498 41.73 42.9852 41.7808 42.7917C41.8315 42.5974 41.8007 42.3907 41.6955 42.2195L39.6875 38.8562H40.1946C41.7606 38.8566 43.2134 38.0397 44.0267 36.7016C44.84 35.3633 44.896 33.6976 44.1744 32.3074C43.4528 30.9176 42.0583 30.005 40.4957 29.9002L40.5209 29.9356ZM43.1816 34.6092L43.1814 34.6094C43.1288 35.4001 42.7624 36.1371 42.1639 36.6565C41.5653 37.1759 40.7841 37.4346 39.9938 37.3753C38.9486 37.3155 38.0116 36.7111 37.5263 35.7835C37.0408 34.8558 37.0786 33.7414 37.6253 32.8487C38.1721 31.9558 39.1477 31.4159 40.1946 31.4267H40.4005H40.4004C41.1884 31.4795 41.9229 31.8437 42.4419 32.439C42.9609 33.0342 43.2215 33.8115 43.1664 34.5993L43.1816 34.6092ZM32.6397 38.5249L28.3877 30.252C28.2977 30.0758 28.1413 29.9426 27.9532 29.8815C27.765 29.8203 27.5602 29.8363 27.3837 29.9257C27.2829 29.9747 27.1952 30.0469 27.1278 30.1365L22.6099 26.5573L16.7666 19.4389C16.3756 18.9533 16.0916 18.3903 15.9332 17.7874L12.2838 6.20628L13.0418 6.05072L18.4082 16.1007C18.4553 16.1814 18.5144 16.2541 18.5839 16.3166L24.4321 21.3717C24.4635 21.398 24.4972 21.4215 24.5325 21.4419C24.8939 21.6728 30.2251 25.6386 33.6889 28.2239H33.6891C34.0716 28.5401 34.3314 28.9805 34.4231 29.4685C34.5148 29.9562 34.4327 30.4609 34.1911 30.8946L33.3979 32.3102C33.2465 32.5068 33.0634 32.6766 32.8557 32.8122L32.956 32.8524H32.9562C32.8872 33.0109 32.8764 33.1887 32.9259 33.3544L34.3466 37.8322C34.3711 37.9098 34.4086 37.9827 34.4571 38.0481L38.9198 44.1775L38.4178 44.4384L32.6397 38.5249ZM13.4282 17.3205C13.1632 17.0828 12.9393 16.803 12.7656 16.4922L12.0778 15.1117C12.2118 15.0792 12.3348 15.0117 12.4342 14.9159C12.5756 14.7739 12.6548 14.5818 12.6548 14.3814C12.6548 14.1809 12.5756 13.9888 12.4342 13.8468C12.2986 13.7222 12.1227 13.6503 11.9387 13.6438C11.7547 13.6374 11.5743 13.6969 11.4302 13.8116L9.95935 10.8498C10.0889 10.8158 10.2079 10.7503 10.3058 10.6591C10.4471 10.5169 10.5264 10.3248 10.5264 10.1244C10.5264 9.92409 10.4471 9.73193 10.3058 9.58977C10.1713 9.46394 9.99612 9.39008 9.81211 9.38174C9.62795 9.37357 9.44705 9.43126 9.30179 9.54466L8.62413 8.16417L9.0307 7.89814C9.02825 7.92984 9.02825 7.9617 9.0307 7.9934C9.02939 8.19358 9.10832 8.38592 9.24984 8.52745C9.39135 8.66898 9.58352 8.74788 9.78371 8.74642H9.84401L11.6964 11.5576L11.6963 11.5577C11.5771 11.5844 11.4678 11.6434 11.3801 11.7283C11.2387 11.8703 11.1595 12.0627 11.1595 12.263C11.1595 12.4633 11.2387 12.6555 11.3801 12.7975C11.5225 12.9362 11.7134 13.0137 11.9121 13.0137C12.111 13.0137 12.3019 12.9362 12.4444 12.7975C12.4574 12.7854 12.4692 12.772 12.4795 12.7575L13.0518 13.6209L13.2877 14.3839C13.2897 14.5442 13.3404 14.6999 13.4332 14.8307L13.7494 15.8347H13.7496C13.6592 15.869 13.577 15.9221 13.5085 15.9902C13.3672 16.1324 13.2879 16.3246 13.2879 16.5249C13.2879 16.7252 13.3672 16.9174 13.5085 17.0596C13.6878 17.2406 13.9486 17.3148 14.1963 17.2553L14.4422 18.0335V18.0333C14.3208 17.9551 14.1801 17.9116 14.0357 17.9078L13.4282 17.3205ZM39.4367 41.3461C39.2936 41.3643 39.1599 41.4275 39.0551 41.5269C39.0146 41.5675 38.9792 41.613 38.9497 41.6623L38.0361 40.4073C38.1525 40.2665 38.2131 40.088 38.2069 39.9053C38.1979 39.7164 38.1193 39.5375 37.9859 39.4033C37.8799 39.3051 37.7488 39.238 37.607 39.2097C37.4653 39.1813 37.3184 39.1929 37.1828 39.2427L36.0683 37.7367C36.0508 37.5712 35.9763 37.4168 35.8575 37.3001C35.816 37.2623 35.7684 37.2318 35.7169 37.2097L35.4759 36.4114C35.6205 36.385 35.7537 36.3149 35.8575 36.2106C35.9266 36.1438 35.9812 36.0635 36.0181 35.9748C36.2073 36.4707 36.4827 36.9296 36.8313 37.3301C36.7394 37.4594 36.6888 37.6133 36.6858 37.7718C36.6844 37.972 36.7633 38.1643 36.9048 38.3059C37.0463 38.4474 37.2386 38.5263 37.4388 38.5248C37.541 38.5242 37.642 38.502 37.7349 38.4596L39.4367 41.3461ZM35.0241 34.9959L34.6927 33.9517H34.6929C34.7202 33.9995 34.754 34.0435 34.7932 34.0822C34.9328 34.2277 35.124 34.3125 35.3253 34.3182C35.4595 34.3166 35.591 34.2803 35.7069 34.2128L35.737 34.3233C35.7311 34.5885 35.7479 34.8539 35.7873 35.1163C35.5714 34.9457 35.2822 34.9001 35.0241 34.9959ZM35.3304 32.8122C35.1304 32.8039 34.9359 32.8782 34.7924 33.0179C34.6491 33.1575 34.5694 33.35 34.5723 33.5502V33.6004L34.472 33.3142C34.5272 33.249 34.5774 33.1837 34.6276 33.1134C34.6439 33.0936 34.6573 33.0716 34.6678 33.0482L35.1698 32.1998L35.3304 32.8122Z" fill="white"/>
</svg>
