<svg width="51" height="51" viewBox="0 0 51 51" fill="none" xmlns="http://www.w3.org/2000/svg">
<path d="M19.8359 34.5672C19.6951 34.7088 19.6162 34.9002 19.6162 35.0998C19.6162 35.2993 19.6951 35.4909 19.8359 35.6323C19.977 35.7731 20.1683 35.852 20.3677 35.8516C20.5671 35.8512 20.758 35.7713 20.8984 35.6299C21.0389 35.4883 21.117 35.2967 21.1159 35.0973C21.1147 34.8986 21.0356 34.7085 20.896 34.5672C20.7518 34.4337 20.5625 34.3595 20.3659 34.3595C20.1694 34.3595 19.9802 34.4338 19.8359 34.5672Z" fill="white"/>
<path d="M21.496 15.1222L17.136 26.4822C16.9655 26.9647 16.8711 27.4709 16.8561 27.9822V35.7172L9.83608 43.1422C9.70815 43.2754 9.63393 43.451 9.62742 43.6356C9.62091 43.8201 9.68276 44.0005 9.80109 44.1422L11.0412 45.6422C11.1839 45.8156 11.3965 45.9165 11.6211 45.9173C11.779 45.9185 11.9329 45.8693 12.061 45.7773L21.061 39.2773C21.8882 38.6836 22.4429 37.783 22.6011 36.7773L22.9461 34.6823L24.6812 35.7723C24.757 35.8198 24.8164 35.8896 24.8511 35.9723L28.951 45.4723H28.9512C29.0107 45.6056 29.1074 45.7191 29.2298 45.7988C29.3522 45.8787 29.495 45.9215 29.6411 45.9224H31.7811C32 45.9295 32.2114 45.8421 32.3612 45.6823C32.502 45.5086 32.5602 45.2824 32.5212 45.0623L30.5711 34.6573V34.6572C30.3385 33.3902 29.8032 32.198 29.0111 31.1822L25.9862 27.3422L27.1662 23.6822L30.9111 25.5273C31.0158 25.5768 31.1302 25.6025 31.2461 25.6022C31.3042 25.6093 31.3629 25.6093 31.421 25.6022L40.466 23.4322H40.4662C40.6397 23.3911 40.7929 23.2895 40.8982 23.1456C41.0036 23.0017 41.0543 22.8251 41.0412 22.6472L40.8863 20.6472H40.8861C40.864 20.4508 40.7652 20.2711 40.6112 20.1472C40.4517 20.0167 40.2457 19.9571 40.0412 19.9822L36.6062 20.4272L40.4761 19.0023C40.6519 18.9375 40.7969 18.8091 40.8821 18.6422C40.9673 18.4754 40.9867 18.2827 40.9361 18.1022L40.3711 16.0372C40.3194 15.8501 40.1975 15.6901 40.0308 15.5904C39.8641 15.4908 39.6656 15.4592 39.4761 15.5022L32.6211 17.1523L27.9161 13.8873H27.9163C27.5919 13.6326 27.2267 13.4347 26.8362 13.3022H26.7662L25.2662 13.0223C24.4916 12.88 23.6918 13.0117 23.0038 13.3948C22.316 13.7781 21.7828 14.3888 21.4962 15.1222L21.496 15.1222ZM24.996 14.4823L26.436 14.7523C26.6954 14.8361 26.9342 14.9741 27.136 15.1573L32.021 18.5472L32.0212 18.5474C32.1978 18.6686 32.4172 18.7105 32.6262 18.6623L39.0962 17.1022L39.2912 17.8023L31.7512 20.5723L26.1012 17.6423C25.8655 17.5337 25.5903 17.5549 25.3738 17.6981C25.1573 17.8412 25.0304 18.0861 25.0379 18.3456C25.0455 18.605 25.1868 18.8422 25.4112 18.9724L26.8663 19.7274L24.4362 27.2624C24.3561 27.4994 24.4013 27.7608 24.5563 27.9574L27.8362 32.1223C28.4769 32.9366 28.9109 33.8939 29.1012 34.9123L30.8862 44.4123H30.1362L26.2312 35.3973C26.076 35.0363 25.8142 34.731 25.4812 34.5223L19.9812 31.0223C19.3176 30.6122 18.8152 29.9867 18.5576 29.2504C18.3001 28.514 18.303 27.7116 18.5662 26.9772L22.8962 15.6822C23.051 15.2664 23.3472 14.9181 23.7331 14.6987C24.1188 14.4793 24.5695 14.4026 25.0061 14.4822L24.996 14.4823ZM31.496 24.0173L31.456 23.9673C31.2685 23.7924 31.0048 23.7245 30.7559 23.7873L29.191 23.0173C29.2426 22.9852 29.2911 22.9483 29.336 22.9073C29.4768 22.7658 29.5557 22.5744 29.5557 22.3749C29.5557 22.1754 29.4768 21.9838 29.336 21.8424C29.1918 21.7089 29.0025 21.6347 28.8061 21.6347C28.6094 21.6347 28.4201 21.7089 28.2759 21.8424C28.1363 21.9835 28.0572 22.1737 28.056 22.3723V22.4573L27.606 22.2372L28.136 20.5973V20.5974C28.1705 20.6676 28.216 20.7317 28.271 20.7874C28.4131 20.9249 28.6032 21.0019 28.801 21.0024C28.918 21.0027 29.0333 20.9734 29.136 20.9174L29.9509 21.3424L30.5759 21.7224H30.5761C30.509 21.7535 30.4467 21.7939 30.391 21.8424C30.2502 21.9838 30.1713 22.1754 30.1713 22.3749C30.1713 22.5745 30.2502 22.7659 30.391 22.9073C30.5292 23.0456 30.7159 23.1246 30.9114 23.1272C31.1068 23.13 31.2956 23.0562 31.4374 22.9218C31.5793 22.7872 31.6632 22.6028 31.671 22.4073C31.8054 22.4802 31.9591 22.5098 32.1111 22.4924H32.2961H32.2959C32.3121 22.6661 32.3881 22.8287 32.511 22.9524C32.6498 23.1238 32.8571 23.2253 33.0775 23.2302C33.2981 23.2349 33.5095 23.1423 33.6557 22.9771C33.8018 22.8117 33.8677 22.5906 33.836 22.3723C33.8388 22.334 33.8388 22.2956 33.836 22.2574L34.4709 22.1823C34.4496 22.2487 34.4379 22.3178 34.4359 22.3874C34.4346 22.5866 34.5132 22.7782 34.6542 22.9192C34.7951 23.0601 34.9867 23.1387 35.1859 23.1374H35.2709L31.496 24.0173ZM38.031 22.4473V22.3722C38.0366 22.1771 37.9667 21.9873 37.836 21.8423C37.7932 21.8066 37.7462 21.7764 37.6961 21.7523L39.4511 21.5274V21.6424V21.6423C39.2446 21.6271 39.0413 21.6997 38.8911 21.8423C38.7698 21.9652 38.694 22.1257 38.6761 22.2974L38.031 22.4473ZM35.836 21.9924L36.7559 21.8773C36.6451 21.9976 36.5776 22.1514 36.564 22.3145C36.5504 22.4774 36.5916 22.6403 36.6811 22.7773L35.481 23.0674V23.0672C35.5704 23.0295 35.6518 22.9751 35.7209 22.9072C35.8621 22.765 35.941 22.5726 35.941 22.3722C35.9387 22.2388 35.9026 22.1081 35.836 21.9924ZM16.411 40.7924C16.2719 40.7307 16.1177 40.7112 15.9675 40.7361C15.8174 40.7608 15.6778 40.8292 15.566 40.9323C15.4226 41.0718 15.3399 41.2623 15.336 41.4623V41.5523L12.5809 43.5523C12.5739 43.3648 12.4973 43.1864 12.3659 43.0523C12.2932 42.983 12.2061 42.9301 12.111 42.8974L13.266 41.6824C13.302 41.7965 13.3635 41.9008 13.446 41.9874C13.587 42.1283 13.7784 42.2071 13.9778 42.2068C14.1771 42.2063 14.3681 42.1264 14.5085 41.9849C14.6488 41.8433 14.7271 41.6518 14.726 41.4524C14.7247 41.2538 14.6457 41.0636 14.5059 40.9224C14.407 40.8311 14.2837 40.7702 14.1509 40.7473L15.3609 39.4673H15.3611C15.3902 39.6174 15.4613 39.7561 15.566 39.8674C15.7068 40.003 15.8951 40.0782 16.0906 40.077C16.286 40.0759 16.4734 39.9984 16.6127 39.8612C16.7518 39.724 16.8319 39.5378 16.836 39.3423C16.8347 39.1438 16.7557 38.9535 16.6159 38.8124C16.4919 38.696 16.3308 38.627 16.161 38.6174L17.461 37.2424C17.461 37.5103 17.6039 37.7579 17.836 37.8918C18.0681 38.0258 18.3539 38.0258 18.586 37.8918C18.8181 37.7579 18.961 37.5103 18.961 37.2424C18.9704 37.0349 18.8946 36.8324 18.751 36.6824C18.5961 36.5344 18.3842 36.4613 18.1709 36.4823C18.2884 36.3423 18.3523 36.1651 18.3509 35.9823V35.8074C18.5017 35.7803 18.641 35.7089 18.751 35.6023C18.8918 35.4608 18.9707 35.2694 18.9707 35.0699C18.9707 34.8704 18.8918 34.6788 18.751 34.5374C18.639 34.4381 18.4995 34.3753 18.3509 34.3573V33.7174C18.501 33.6881 18.6397 33.6171 18.751 33.5125C18.8918 33.3709 18.9707 33.1795 18.9707 32.9799C18.9707 32.7804 18.8918 32.5888 18.751 32.4474C18.6395 32.3465 18.5 32.282 18.3509 32.2625V31.6824C18.5975 31.9223 18.8692 32.1352 19.161 32.3173L19.661 32.6424C19.606 32.7456 19.5768 32.8605 19.576 32.9773C19.578 33.1754 19.6576 33.3645 19.7977 33.5043C19.9378 33.6441 20.1273 33.7232 20.3252 33.7249C20.5231 33.7263 20.7137 33.65 20.856 33.5125L20.9209 33.4374L21.5509 33.8324L21.1159 36.5325V36.5323C21.0933 36.6671 21.0581 36.7993 21.0109 36.9273C20.9759 36.8393 20.9232 36.7592 20.856 36.6923C20.7155 36.5686 20.5352 36.4995 20.3478 36.4975C20.1605 36.4957 19.9789 36.5613 19.836 36.6824C19.6968 36.8198 19.6172 37.0061 19.6143 37.2016C19.6114 37.3971 19.6854 37.5859 19.8203 37.7273C19.9554 37.8686 20.1405 37.9513 20.336 37.9575L20.231 38.0475L18.8859 39.0024C18.8497 38.9334 18.8042 38.8694 18.751 38.8124C18.6068 38.6788 18.4175 38.6046 18.2209 38.6046C18.0244 38.6046 17.8352 38.6788 17.6909 38.8124C17.5518 38.9537 17.4737 39.144 17.4737 39.3424C17.4737 39.5408 17.5518 39.7311 17.6909 39.8724L16.411 40.7924Z" fill="white"/>
<path d="M29.1209 13.1822C30.3237 13.1822 31.4772 12.7044 32.3276 11.854C33.1782 11.0035 33.6559 9.85004 33.6559 8.64724C33.6559 7.44445 33.1782 6.29095 32.3276 5.44054C31.4772 4.58995 30.3237 4.11224 29.1209 4.11224C27.9181 4.11224 26.7646 4.58995 25.9142 5.44054C25.0638 6.29095 24.5859 7.44445 24.5859 8.64724C24.5872 9.84954 25.0654 11.0024 25.9157 11.8525C26.7658 12.7027 27.9186 13.181 29.1209 13.1822ZM29.1209 5.61224C29.9259 5.61224 30.6978 5.93207 31.2669 6.50124C31.8361 7.07042 32.1559 7.84224 32.1559 8.64724C32.1559 9.45208 31.8361 10.2241 31.2669 10.7932C30.6978 11.3624 29.9259 11.6822 29.1209 11.6822C28.3161 11.6822 27.5441 11.3624 26.9749 10.7932C26.4058 10.2241 26.0859 9.45208 26.0859 8.64724C26.0859 7.84224 26.4058 7.07041 26.9749 6.50124C27.5441 5.93208 28.3161 5.61224 29.1209 5.61224Z" fill="white"/>
</svg>
