<svg width="51" height="51" viewBox="0 0 51 51" fill="none" xmlns="http://www.w3.org/2000/svg">
<path fill-rule="evenodd" clip-rule="evenodd" d="M25.3359 46.8573C37.3021 46.8573 47.0025 37.1568 47.0025 25.1906C47.0025 13.2243 37.3021 3.52393 25.3359 3.52393C13.3696 3.52393 3.66919 13.2243 3.66919 25.1906C3.66919 37.1568 13.3696 46.8573 25.3359 46.8573ZM25.3359 44.3573C35.9213 44.3573 44.5025 35.776 44.5025 25.1906C44.5025 14.6052 35.9213 6.02393 25.3359 6.02393C14.7504 6.02393 6.16919 14.6052 6.16919 25.1906C6.16919 35.776 14.7504 44.3573 25.3359 44.3573Z" fill="white"/>
<path fill-rule="evenodd" clip-rule="evenodd" d="M34.6542 12.7993C34.6542 12.339 34.2811 11.966 33.8208 11.966H16.8575C16.3972 11.966 16.0242 12.339 16.0242 12.7993V13.6327C16.0242 14.093 16.3972 14.466 16.8575 14.466H17.7366C18.1967 14.466 18.5699 14.839 18.5699 15.2993V19.9493C18.5699 20.1733 18.6601 20.3878 18.8199 20.5445L22.9435 24.5872C23.2766 24.9138 23.2766 25.4506 22.9435 25.7773L18.8199 29.8199C18.6601 29.9766 18.5699 30.1911 18.5699 30.4151V35.0651C18.5699 35.5254 18.1967 35.8984 17.7366 35.8984H16.8541C16.3938 35.8984 16.0208 36.2715 16.0208 36.7318V37.5651C16.0208 38.0254 16.3938 38.3984 16.8541 38.3984H33.8208C34.281 38.3984 34.6541 38.0254 34.6541 37.5651V36.7318C34.6541 36.2715 34.281 35.8984 33.8208 35.8984H32.9348C32.4745 35.8984 32.1015 35.5254 32.1015 35.0651V30.0651C32.1015 30.0651 32.1013 30.0649 32.1012 30.0649C32.101 30.0649 32.101 30.0648 32.101 30.0646L32.1012 30.0644C32.1013 30.0644 32.1013 30.0643 32.1012 30.0641L27.7283 25.777C27.3951 25.4504 27.3951 24.9136 27.7283 24.5869L32.1012 20.2999C32.1013 20.2997 32.1013 20.2995 32.1012 20.2995L32.101 20.2994C32.101 20.2992 32.101 20.299 32.1012 20.299C32.1013 20.299 32.1015 20.2989 32.1015 20.2989V15.2989C32.1015 14.8386 32.4745 14.4656 32.9348 14.4656H33.8208C34.281 14.4656 34.6541 14.0925 34.6541 13.6322L34.6542 12.7993ZM25.9196 27.5048C25.5955 27.187 25.0768 27.187 24.7528 27.5048L21.3201 30.8702C21.1603 31.0269 21.0701 31.2413 21.0701 31.4652V35.0651C21.0701 35.5254 21.4432 35.8985 21.9035 35.8985H28.7685C29.2286 35.8985 29.6018 35.5254 29.6018 35.0651V31.4647C29.6018 31.2408 29.5116 31.0264 29.3518 30.8695L25.9196 27.5048ZM24.7528 22.8598C25.0768 23.1775 25.5955 23.1775 25.9196 22.8598L29.3517 19.495C29.5115 19.3381 29.6017 19.1237 29.6017 18.8998V15.2994C29.6017 14.8391 29.2285 14.466 28.7684 14.466H21.9034C21.4431 14.466 21.07 14.8391 21.07 15.2994V18.8993C21.07 19.1233 21.1602 19.3376 21.32 19.4943L24.7528 22.8598Z" fill="white"/>
</svg>
