<svg width="51" height="51" viewBox="0 0 51 51" fill="none" xmlns="http://www.w3.org/2000/svg">
<path d="M18.5112 40.2372C18.7105 40.2385 18.9021 40.1599 19.0431 40.019C19.184 39.878 19.2625 39.6866 19.2612 39.4872C19.2599 39.2887 19.1809 39.0984 19.0413 38.9573C18.8971 38.8236 18.7078 38.7494 18.5112 38.7494C18.3147 38.7494 18.1254 38.8236 17.9812 38.9573C17.8404 39.0987 17.7615 39.2901 17.7615 39.4896C17.7615 39.6892 17.8404 39.8808 17.9812 40.0222C18.1235 40.1597 18.3134 40.2367 18.5112 40.2372L18.5112 40.2372Z" fill="white"/>
<path d="M14.906 45.6406C15.0467 45.8242 15.2649 45.9314 15.496 45.9306H18.336C18.4921 45.9308 18.6445 45.8829 18.7724 45.7934C18.9003 45.7041 18.9977 45.5773 19.0511 45.4306L20.2111 41.9306L20.081 45.1806C20.0867 45.3675 20.1616 45.5457 20.2911 45.6806C20.4314 45.8341 20.6281 45.9243 20.8361 45.9306H23.3011C23.4798 45.9303 23.6526 45.8662 23.7884 45.7498C23.9239 45.6334 24.0136 45.4723 24.0411 45.2957L25.6661 35.0257C25.8378 33.9292 25.6848 32.8063 25.226 31.7957L23.081 27.0757L23.4811 22.1857L24.0661 22.7557C24.5664 23.2495 25.2339 23.5379 25.9364 23.5638C26.639 23.5897 27.3257 23.3513 27.8611 22.8957L28.0511 22.7357H34.3361C34.7457 22.7344 35.138 22.5694 35.4255 22.2772C35.7127 21.9852 35.8714 21.5904 35.866 21.1807V12.9907C35.866 12.5845 35.7051 12.1948 35.4183 11.9071C35.1315 11.6193 34.7423 11.457 34.3361 11.4557H25.5811C25.1745 11.457 24.7847 11.6191 24.4971 11.9067C24.2097 12.1943 24.0474 12.584 24.0461 12.9907V15.0658L23.291 14.0407V14.0107H23.2912C23.2738 13.9866 23.2536 13.9648 23.2311 13.9456C22.6866 13.2936 21.9107 12.8778 21.0661 12.7856H19.486H19.4862C18.7134 12.7882 17.9659 13.0612 17.3732 13.557C16.7804 14.0529 16.3801 14.7405 16.2411 15.5006L14.8111 26.5006C14.5511 28.2806 14.8461 29.2806 15.6211 30.3756L17.0011 35.9806L14.7661 44.9806C14.7031 45.2103 14.7552 45.4564 14.9061 45.6406L14.906 45.6406ZM17.0911 41.8606C17.1074 41.8136 17.1191 41.7649 17.1261 41.7156L18.0561 37.9606C18.2042 38.0769 18.3909 38.1328 18.5785 38.117C18.7662 38.1012 18.9408 38.0149 19.0675 37.8756C19.1941 37.7361 19.2633 37.554 19.261 37.3657C19.265 37.1443 19.1669 36.9334 18.9952 36.7937C18.8233 36.6542 18.5969 36.6013 18.3809 36.6507L18.5059 36.1507V35.9807V35.9806C18.6933 35.9723 18.871 35.8958 19.0059 35.7656C19.1467 35.6241 19.2258 35.4327 19.2258 35.2332C19.2258 35.0335 19.1467 34.8421 19.0059 34.7006C18.8933 34.5988 18.7535 34.5319 18.6036 34.5079C18.4535 34.4839 18.2999 34.504 18.1611 34.5656L17.921 33.6155V33.6456C18.0632 33.7832 18.2532 33.8601 18.4511 33.8606C18.5257 33.8592 18.5997 33.8473 18.671 33.8256L19.8409 35.0607H19.8411C19.8362 35.1172 19.8362 35.1741 19.8411 35.2306C19.8409 35.431 19.92 35.6233 20.061 35.7656C20.143 35.8481 20.2444 35.9083 20.356 35.9406V36.5656L20.336 36.6806C20.2454 36.7135 20.1633 36.7666 20.096 36.8356C19.9563 36.9767 19.8772 37.167 19.8761 37.3657C19.8777 37.4992 19.9138 37.6302 19.981 37.7456L18.906 40.9956C18.7639 40.9045 18.5956 40.8629 18.4273 40.8774C18.2592 40.8919 18.1005 40.9616 17.976 41.0757C17.8352 41.2171 17.7563 41.4085 17.7563 41.6082C17.7563 41.8078 17.8352 41.9992 17.976 42.1406C18.1104 42.271 18.2888 42.346 18.476 42.3506L18.246 43.0405V43.0407C18.15 43.0714 18.0626 43.1247 17.991 43.1956C17.8702 43.3166 17.7942 43.4749 17.7752 43.6448C17.756 43.8146 17.7952 43.986 17.886 44.1307L17.7861 44.4306H16.6411C16.7441 44.3948 16.838 44.3367 16.9161 44.2607C17.0568 44.1191 17.1359 43.9277 17.1359 43.7282C17.1359 43.5286 17.0568 43.3371 16.9161 43.1956C16.8759 43.1603 16.8304 43.1315 16.781 43.1107L17.0911 41.8606ZM19.441 14.2306H20.8611C21.3342 14.2887 21.7644 14.5335 22.0561 14.9106V14.9357C22.0891 14.9793 22.1176 15.0262 22.141 15.0757L25.6811 19.8657C25.7851 20.0076 25.9358 20.1083 26.1067 20.1505C26.2778 20.1925 26.458 20.1731 26.616 20.0956L30.491 18.1956L30.7111 18.4706L26.8361 21.7356C26.5885 21.9343 26.2781 22.0382 25.9609 22.0281C25.6437 22.018 25.3404 21.8946 25.1061 21.6806L20.7411 17.4206C20.549 17.2329 20.2715 17.1621 20.0132 17.2345C19.7547 17.3071 19.5545 17.512 19.4881 17.7721C19.4217 18.0322 19.499 18.3079 19.6911 18.4954L22.081 20.8255L21.581 27.1405C21.5721 27.2673 21.5944 27.3944 21.6461 27.5106L23.8361 32.4156C24.1754 33.1581 24.2867 33.9846 24.1561 34.7906L22.6561 44.4306H21.6061L21.9162 35.3406C21.9254 35.1399 21.8512 34.9445 21.7111 34.8006L17.5061 30.3606C16.2812 28.9306 16.0061 28.3606 16.251 26.6706L17.671 15.6706H17.6711C17.7561 15.2639 17.9784 14.8987 18.3007 14.6364C18.6229 14.3742 19.0256 14.231 19.4411 14.2305L19.441 14.2306ZM25.581 12.9555L34.366 12.9905L34.3361 21.2355H29.8361L30.5411 20.6405C30.5755 20.7497 30.6355 20.8492 30.7161 20.9305C30.8571 21.0715 31.0485 21.1504 31.2479 21.1499C31.4472 21.1494 31.6382 21.0695 31.7786 20.9281C31.9189 20.7865 31.9972 20.5949 31.9961 20.3955C31.9948 20.197 31.9158 20.0067 31.776 19.8656C31.7212 19.8197 31.6606 19.7811 31.596 19.7505L32.2861 19.1805C32.4352 19.0558 32.5296 18.8778 32.5491 18.6844C32.5688 18.4911 32.512 18.2977 32.3911 18.1455L31.3911 16.9006C31.5211 16.8656 31.6409 16.8005 31.741 16.7105C31.8818 16.569 31.9609 16.3776 31.9609 16.1781C31.9609 15.9784 31.8818 15.787 31.741 15.6455C31.5968 15.5121 31.4075 15.4379 31.211 15.4379C31.0146 15.4379 30.8253 15.5121 30.6811 15.6455C30.5491 15.7919 30.4792 15.9836 30.4861 16.1805C30.4877 16.3179 30.5256 16.4525 30.5959 16.5705C30.5393 16.5785 30.484 16.5936 30.4311 16.6156L27.6611 17.9706C27.6254 17.8967 27.5782 17.8293 27.5211 17.7706C27.3972 17.6454 27.233 17.5683 27.0577 17.5526C26.8824 17.537 26.7073 17.584 26.5633 17.6851C26.4192 17.7863 26.3157 17.9353 26.2711 18.1055L25.566 17.1456V16.4356C25.6391 16.2577 25.6391 16.0583 25.566 15.8806V14.2906C25.5955 14.2087 25.6108 14.1225 25.6111 14.0356C25.6111 13.9503 25.5958 13.8656 25.566 13.7856L25.581 12.9555ZM17.746 32.7955L17.8109 32.8605C17.7987 32.888 17.7888 32.9165 17.781 32.9454L17.746 32.7955Z" fill="white"/>
<path d="M33.336 14.7872C33.5354 14.7886 33.7268 14.7101 33.8678 14.5692C34.0087 14.4282 34.0873 14.2366 34.086 14.0372C34.0847 13.8387 34.0058 13.6484 33.866 13.5073C33.7218 13.3736 33.5325 13.2996 33.336 13.2996C33.1396 13.2996 32.9503 13.3736 32.8061 13.5073C32.6653 13.6487 32.5862 13.8401 32.5862 14.0396C32.5862 14.2394 32.6653 14.4308 32.8061 14.5722C32.9483 14.7097 33.1383 14.7867 33.336 14.7872L33.336 14.7872Z" fill="white"/>
<path d="M33.8861 16.6822C34.0269 16.5408 34.1058 16.3492 34.1058 16.1497C34.1058 15.9502 34.0269 15.7588 33.8861 15.6173C33.7419 15.4837 33.5526 15.4095 33.3562 15.4095C33.1595 15.4095 32.9703 15.4837 32.8262 15.6173C32.6867 15.7601 32.6094 15.9523 32.6114 16.1518C32.6132 16.3514 32.694 16.5421 32.8361 16.6822C32.9781 16.8203 33.1682 16.8976 33.3661 16.8976C33.5642 16.8976 33.7543 16.8203 33.8962 16.6822H33.8861Z" fill="white"/>
<path d="M33.886 18.8123C34.0268 18.6707 34.1057 18.4792 34.1057 18.2797C34.1057 18.0802 34.0268 17.8888 33.886 17.7472C33.7418 17.6137 33.5525 17.5395 33.356 17.5395C33.1594 17.5395 32.9701 17.6137 32.8261 17.7472C32.6853 17.8888 32.6062 18.0802 32.6062 18.2797C32.6062 18.4793 32.6853 18.6707 32.8261 18.8123C32.9679 18.9503 33.1581 19.0276 33.356 19.0276C33.554 19.0276 33.7441 18.9503 33.886 18.8123Z" fill="white"/>
<path d="M32.8359 19.8672C32.6951 20.0087 32.6162 20.2001 32.6162 20.3996C32.6162 20.5991 32.6951 20.7907 32.8359 20.9321C32.977 21.0731 33.1683 21.152 33.3677 21.1516C33.5671 21.1511 33.758 21.0711 33.8984 20.9297C34.0389 20.7881 34.117 20.5965 34.1159 20.3972C34.1147 20.1986 34.0356 20.0083 33.896 19.8672C33.7518 19.7336 33.5625 19.6594 33.3659 19.6594C33.1694 19.6594 32.9802 19.7336 32.8359 19.8672Z" fill="white"/>
<path d="M30.7061 13.5072C30.5653 13.6487 30.4863 13.8401 30.4863 14.0396C30.4863 14.2393 30.5653 14.4307 30.7061 14.5722C30.8472 14.7131 31.0386 14.792 31.2378 14.7916C31.4372 14.7911 31.6283 14.7113 31.7686 14.5697C31.909 14.4281 31.9873 14.2365 31.9862 14.0372C31.9849 13.8386 31.9059 13.6483 31.7661 13.5072C31.6219 13.3736 31.4326 13.2995 31.2362 13.2995C31.0395 13.2995 30.8503 13.3736 30.7061 13.5072Z" fill="white"/>
<path d="M29.6409 14.5722C29.7842 14.4321 29.8649 14.2402 29.8649 14.0397C29.8649 13.8393 29.7842 13.6474 29.6409 13.5073C29.4619 13.3284 29.2046 13.2519 28.9568 13.3039C28.7091 13.3558 28.5044 13.5293 28.4123 13.765C28.3201 14.0008 28.3532 14.2671 28.5002 14.4731C28.6471 14.6793 28.888 14.7973 29.1409 14.7872C29.3286 14.7802 29.5068 14.7036 29.6409 14.5722Z" fill="white"/>
<path d="M28.5811 15.6272C28.4403 15.7684 28.3613 15.9596 28.3618 16.159C28.3621 16.3584 28.4421 16.5493 28.5837 16.6897C28.7251 16.8302 28.9167 16.9085 29.116 16.9072C29.3037 16.9002 29.4819 16.8235 29.616 16.6922C29.7593 16.552 29.84 16.3602 29.84 16.1598C29.84 15.9595 29.7593 15.7674 29.616 15.6273C29.4735 15.5008 29.2894 15.4308 29.0986 15.4308C28.9079 15.4308 28.7238 15.5008 28.5811 15.6272Z" fill="white"/>
<path d="M27.521 14.5723C27.6616 14.4308 27.7407 14.2394 27.7407 14.0397C27.7407 13.8402 27.6616 13.6488 27.521 13.5073C27.3768 13.3737 27.1875 13.2997 26.9909 13.2997C26.7944 13.2997 26.6052 13.3737 26.4609 13.5073C26.3201 13.6488 26.2412 13.8402 26.2412 14.0397C26.2412 14.2394 26.3201 14.4308 26.4609 14.5723C26.6029 14.7103 26.793 14.7876 26.9909 14.7876C27.189 14.7876 27.3791 14.7103 27.521 14.5723Z" fill="white"/>
<path d="M26.4609 15.6272C26.3201 15.7687 26.2412 15.9603 26.2412 16.1598C26.2412 16.3593 26.3201 16.5507 26.4609 16.6922C26.5999 16.8312 26.7879 16.9101 26.9845 16.9119C27.181 16.9135 27.3704 16.8382 27.5119 16.7018C27.6533 16.5652 27.7356 16.3787 27.7409 16.1822C27.7397 15.9837 27.6606 15.7934 27.521 15.6523C27.3799 15.5152 27.1924 15.4366 26.9958 15.4319C26.7993 15.4273 26.6082 15.497 26.4609 15.6272L26.4609 15.6272Z" fill="white"/>
<path d="M21.576 4.11224C20.4778 4.11224 19.4249 4.54845 18.6484 5.32483C17.872 6.1012 17.4358 7.15424 17.4358 8.25224C17.4358 9.35024 17.872 10.4033 18.6484 11.1797C19.4249 11.956 20.4778 12.3922 21.576 12.3922C22.674 12.3922 23.7268 11.956 24.5034 11.1797C25.2797 10.4033 25.716 9.35024 25.716 8.25224C25.716 7.15424 25.2797 6.1012 24.5034 5.32483C23.7268 4.54845 22.674 4.11224 21.576 4.11224ZM18.9358 8.2522C18.9358 7.55199 19.214 6.88062 19.7091 6.38549C20.2042 5.89037 20.8758 5.6122 21.576 5.6122C22.276 5.6122 22.9476 5.89036 23.4427 6.38549C23.9378 6.88062 24.216 7.55199 24.216 8.2522C24.216 8.95241 23.9378 9.62395 23.4427 10.1189C22.9476 10.614 22.276 10.8922 21.576 10.8922C20.8761 10.8909 20.2054 10.6124 19.7106 10.1175C19.2158 9.62266 18.9373 8.95191 18.9358 8.2522Z" fill="white"/>
</svg>
