<svg width="51" height="51" viewBox="0 0 51 51" fill="none" xmlns="http://www.w3.org/2000/svg">
<path d="M38.5305 25.5633C38.6719 25.4213 38.7511 25.2291 38.7511 25.0288C38.7511 24.8283 38.6719 24.6361 38.5305 24.4941C38.3857 24.3601 38.1957 24.2856 37.9985 24.2856C37.801 24.2856 37.611 24.3601 37.4662 24.4941C37.3249 24.6361 37.2456 24.8283 37.2456 25.0288C37.2456 25.2291 37.3249 25.4213 37.4662 25.5633C37.6087 25.702 37.7996 25.7795 37.9985 25.7795C38.1972 25.7795 38.388 25.702 38.5305 25.5633Z" fill="white"/>
<path d="M37.4662 26.6275C37.3249 26.7695 37.2456 26.9617 37.2456 27.1622C37.2456 27.3625 37.3249 27.5547 37.4662 27.6967C37.6079 27.8382 37.8001 27.9174 38.0001 27.9169C38.2003 27.9164 38.3921 27.8364 38.533 27.6942C38.674 27.552 38.7526 27.3597 38.7514 27.1595C38.7501 26.9602 38.6709 26.7691 38.5305 26.6275C38.3857 26.4935 38.1957 26.4189 37.9984 26.4189C37.801 26.4189 37.611 26.4935 37.4662 26.6275Z" fill="white"/>
<path d="M37.4662 28.7559C37.3249 28.8979 37.2456 29.0903 37.2456 29.2906C37.2456 29.4909 37.3249 29.6831 37.4662 29.8253C37.6071 29.9658 37.7978 30.0451 37.9968 30.0454C38.1959 30.0459 38.3869 29.9674 38.5282 29.8274C38.6697 29.6874 38.7498 29.4971 38.7514 29.2981C38.7501 29.0988 38.6709 28.9077 38.5305 28.766C38.387 28.6306 38.1976 28.5543 38.0004 28.5525C37.803 28.5505 37.6123 28.6232 37.4662 28.7559Z" fill="white"/>
<path d="M37.4662 30.8844C37.3249 31.0264 37.2456 31.2186 37.2456 31.4189C37.2456 31.6193 37.3249 31.8116 37.4662 31.9536C37.6079 32.0949 37.8001 32.1742 38.0001 32.1739C38.2003 32.1734 38.3921 32.0931 38.533 31.9511C38.674 31.809 38.7526 31.6166 38.7514 31.4165C38.7501 31.217 38.6709 31.0261 38.5305 30.8844C38.3857 30.7502 38.1957 30.6757 37.9984 30.6757C37.801 30.6757 37.611 30.7503 37.4662 30.8844Z" fill="white"/>
<path d="M37.4662 33.0129C37.3249 33.1549 37.2456 33.347 37.2456 33.5474C37.2456 33.7479 37.3249 33.94 37.4662 34.082C37.6079 34.2235 37.8001 34.3028 38.0001 34.3023C38.2003 34.3018 38.3921 34.2217 38.533 34.0796C38.674 33.9374 38.7526 33.7451 38.7514 33.5449C38.7501 33.3455 38.6709 33.1545 38.5305 33.0128C38.3857 32.8787 38.1957 32.8043 37.9984 32.8043C37.801 32.8043 37.611 32.8787 37.4662 33.0129Z" fill="white"/>
<path d="M37.4662 35.1413C37.3249 35.2833 37.2456 35.4757 37.2456 35.676C37.2456 35.8763 37.3249 36.0685 37.4662 36.2105C37.6079 36.352 37.8001 36.4313 38.0001 36.4308C38.2003 36.4303 38.3921 36.3502 38.533 36.2081C38.674 36.0661 38.7526 35.8736 38.7514 35.6734C38.7501 35.474 38.6709 35.283 38.5305 35.1413C38.3857 35.0073 38.1957 34.9328 37.9984 34.9328C37.801 34.9328 37.611 35.0073 37.4662 35.1413Z" fill="white"/>
<path d="M37.4662 37.2748C37.3249 37.4168 37.2456 37.6091 37.2456 37.8095C37.2456 38.0098 37.3249 38.202 37.4662 38.344C37.6058 38.4835 37.7945 38.5628 37.9919 38.5646C38.1891 38.5662 38.3793 38.4905 38.5213 38.3536C38.6633 38.2165 38.746 38.0292 38.7514 37.832C38.7501 37.6326 38.6708 37.4416 38.5305 37.2999C38.3888 37.1623 38.2006 37.0834 38.0033 37.0786C37.8059 37.0741 37.6141 37.144 37.4662 37.2747L37.4662 37.2748Z" fill="white"/>
<path d="M37.4662 39.4033C37.3249 39.5455 37.2456 39.7376 37.2456 39.938C37.2456 40.1383 37.3249 40.3305 37.4662 40.4726C37.6079 40.614 37.8001 40.6932 38.0001 40.6928C38.2003 40.6924 38.3921 40.6122 38.533 40.47C38.674 40.328 38.7526 40.1357 38.7514 39.9355C38.7501 39.736 38.6709 39.545 38.5305 39.4033C38.3857 39.2693 38.1957 39.1948 37.9984 39.1948C37.801 39.1948 37.611 39.2693 37.4662 39.4033Z" fill="white"/>
<path d="M37.4662 41.5318C37.3249 41.6738 37.2456 41.8659 37.2456 42.0663C37.2456 42.2666 37.3249 42.4589 37.4662 42.6009C37.6079 42.7424 37.8001 42.8217 38.0001 42.8212C38.2003 42.8207 38.3921 42.7405 38.533 42.5985C38.674 42.4563 38.7526 42.264 38.7514 42.0638C38.7501 41.8644 38.6709 41.6734 38.5305 41.5317C38.3857 41.3976 38.1957 41.3231 37.9984 41.3231C37.801 41.3231 37.611 41.3976 37.4662 41.5318Z" fill="white"/>
<path d="M36.4024 25.5633C36.5435 25.4213 36.623 25.2291 36.623 25.0288C36.623 24.8283 36.5435 24.6361 36.4024 24.4941C36.2576 24.3601 36.0675 24.2856 35.8701 24.2856C35.6729 24.2856 35.4828 24.3601 35.338 24.4941C35.1967 24.6361 35.1174 24.8283 35.1174 25.0288C35.1174 25.2291 35.1967 25.4213 35.338 25.5633C35.4805 25.702 35.6714 25.7795 35.8701 25.7795C36.069 25.7795 36.2598 25.702 36.4024 25.5633Z" fill="white"/>
<path d="M36.4024 27.6967C36.5435 27.5547 36.623 27.3626 36.623 27.1622C36.623 26.9617 36.5435 26.7696 36.4024 26.6276C36.2576 26.4936 36.0675 26.4191 35.8701 26.4191C35.6729 26.4191 35.4828 26.4936 35.338 26.6276C35.1967 26.7696 35.1174 26.9618 35.1174 27.1622C35.1174 27.3626 35.1967 27.5548 35.338 27.6967C35.4805 27.8355 35.6714 27.9129 35.8701 27.9129C36.069 27.9129 36.2598 27.8355 36.4024 27.6967Z" fill="white"/>
<path d="M35.338 28.7559C35.1967 28.8979 35.1174 29.0903 35.1174 29.2906C35.1174 29.4909 35.1967 29.6831 35.338 29.8253C35.4789 29.9658 35.6696 30.0451 35.8686 30.0454C36.0675 30.0459 36.2587 29.9674 36.4001 29.8274C36.5414 29.6874 36.6216 29.4971 36.6231 29.2981C36.622 29.0988 36.5425 28.9077 36.4023 28.766C36.2587 28.6306 36.0695 28.5543 35.8721 28.5525C35.6748 28.5505 35.4841 28.6232 35.338 28.7559Z" fill="white"/>
<path d="M35.338 30.8844C35.1967 31.0264 35.1174 31.2186 35.1174 31.4189C35.1174 31.6193 35.1967 31.8116 35.338 31.9536C35.4797 32.0949 35.6717 32.1742 35.8719 32.1739C36.0721 32.1734 36.2638 32.0931 36.4048 31.9511C36.5458 31.809 36.6242 31.6166 36.6231 31.4165C36.622 31.217 36.5425 31.0261 36.4023 30.8844C36.2576 30.7502 36.0675 30.6757 35.8701 30.6757C35.6729 30.6757 35.4828 30.7503 35.338 30.8844Z" fill="white"/>
<path d="M35.338 33.0129C35.1967 33.1549 35.1174 33.347 35.1174 33.5474C35.1174 33.7479 35.1967 33.94 35.338 34.082C35.4797 34.2235 35.6717 34.3028 35.8719 34.3023C36.0721 34.3018 36.2638 34.2217 36.4048 34.0796C36.5458 33.9374 36.6242 33.7451 36.6231 33.5449C36.622 33.3455 36.5425 33.1545 36.4023 33.0128C36.2576 32.8787 36.0675 32.8043 35.8701 32.8043C35.6729 32.8043 35.4828 32.8787 35.338 33.0129Z" fill="white"/>
<path d="M35.338 35.1413C35.1967 35.2833 35.1174 35.4757 35.1174 35.676C35.1174 35.8763 35.1967 36.0685 35.338 36.2105C35.4797 36.352 35.6717 36.4313 35.8719 36.4308C36.0721 36.4303 36.2638 36.3502 36.4048 36.2081C36.5458 36.0661 36.6242 35.8736 36.6231 35.6734C36.622 35.474 36.5425 35.283 36.4023 35.1413C36.2576 35.0073 36.0675 34.9328 35.8701 34.9328C35.6729 34.9328 35.4828 35.0073 35.338 35.1413Z" fill="white"/>
<path d="M35.338 37.2748C35.1967 37.4168 35.1174 37.6091 35.1174 37.8095C35.1174 38.0098 35.1967 38.202 35.338 38.344C35.4776 38.4835 35.6663 38.5628 35.8637 38.5646C36.0609 38.5662 36.2512 38.4905 36.3932 38.3536C36.5352 38.2165 36.6177 38.0292 36.6231 37.832C36.6219 37.6326 36.5425 37.4416 36.4023 37.2999C36.2606 37.1623 36.0724 37.0834 35.875 37.0786C35.6778 37.0741 35.4859 37.144 35.338 37.2747L35.338 37.2748Z" fill="white"/>
<path d="M35.338 39.4033C35.1967 39.5455 35.1174 39.7376 35.1174 39.938C35.1174 40.1383 35.1967 40.3305 35.338 40.4726C35.4797 40.614 35.6717 40.6932 35.8719 40.6928C36.0721 40.6924 36.2638 40.6122 36.4048 40.47C36.5458 40.328 36.6242 40.1357 36.6231 39.9355C36.622 39.736 36.5425 39.545 36.4023 39.4033C36.2576 39.2693 36.0675 39.1948 35.8701 39.1948C35.6729 39.1948 35.4828 39.2693 35.338 39.4033Z" fill="white"/>
<path d="M35.338 41.5318C35.1967 41.6738 35.1174 41.8659 35.1174 42.0663C35.1174 42.2666 35.1967 42.4589 35.338 42.6009C35.4797 42.7424 35.6717 42.8217 35.8719 42.8212C36.0721 42.8207 36.2638 42.7405 36.4048 42.5985C36.5458 42.4563 36.6242 42.264 36.6231 42.0638C36.622 41.8644 36.5425 41.6734 36.4023 41.5317C36.2576 41.3976 36.0675 41.3231 35.8701 41.3231C35.6729 41.3231 35.4828 41.3976 35.338 41.5318Z" fill="white"/>
<path d="M34.2737 25.5633C34.415 25.4213 34.4945 25.2291 34.4945 25.0288C34.4945 24.8283 34.415 24.6361 34.2737 24.4941C34.1289 24.3601 33.9389 24.2856 33.7416 24.2856C33.5444 24.2856 33.3543 24.3601 33.2095 24.4941C33.0682 24.6361 32.9888 24.8283 32.9888 25.0288C32.9888 25.2291 33.0682 25.4213 33.2095 25.5633C33.3519 25.702 33.5429 25.7795 33.7416 25.7795C33.9403 25.7795 34.1313 25.702 34.2737 25.5633Z" fill="white"/>
<path d="M34.2737 27.6967C34.415 27.5547 34.4945 27.3626 34.4945 27.1622C34.4945 26.9617 34.415 26.7696 34.2737 26.6276C34.1289 26.4936 33.9389 26.4191 33.7416 26.4191C33.5444 26.4191 33.3543 26.4936 33.2095 26.6276C33.0682 26.7696 32.9888 26.9618 32.9888 27.1622C32.9888 27.3626 33.0682 27.5548 33.2095 27.6967C33.3519 27.8355 33.5429 27.9129 33.7416 27.9129C33.9403 27.9129 34.1313 27.8355 34.2737 27.6967Z" fill="white"/>
<path d="M33.7416 30.041C33.9418 30.0423 34.134 29.9634 34.2755 29.8219C34.417 29.6804 34.4959 29.488 34.4946 29.288C34.4933 29.0885 34.4141 28.8974 34.2737 28.7558C34.1289 28.6218 33.9389 28.5472 33.7416 28.5472C33.5444 28.5472 33.3543 28.6218 33.2095 28.7558C33.0682 28.8978 32.9888 29.0901 32.9888 29.2904C32.9888 29.4908 33.0682 29.6829 33.2095 29.8251C33.3524 29.963 33.5431 30.0405 33.7416 30.041L33.7416 30.041Z" fill="white"/>
<path d="M33.7416 32.1695C33.9418 32.1708 34.134 32.0919 34.2755 31.9503C34.417 31.8088 34.4959 31.6165 34.4946 31.4165C34.4933 31.217 34.4141 31.0261 34.2737 30.8844C34.1289 30.7502 33.9389 30.6757 33.7416 30.6757C33.5444 30.6757 33.3543 30.7502 33.2095 30.8844C33.0682 31.0264 32.9888 31.2186 32.9888 31.4189C32.9888 31.6192 33.0682 31.8116 33.2095 31.9536C33.3524 32.0917 33.5431 32.1689 33.7416 32.1694L33.7416 32.1695Z" fill="white"/>
<path d="M33.7416 34.3181C33.9418 34.3194 34.134 34.2405 34.2755 34.099C34.417 33.9575 34.4959 33.7653 34.4946 33.5651C34.4933 33.3657 34.4141 33.1747 34.2737 33.033C34.1289 32.8989 33.9389 32.8243 33.7416 32.8243C33.5444 32.8243 33.3543 32.8989 33.2095 33.033C33.0682 33.175 32.9888 33.3672 32.9888 33.5675C32.9888 33.768 33.0682 33.9602 33.2095 34.1022C33.3524 34.2403 33.5431 34.3176 33.7416 34.3181L33.7416 34.3181Z" fill="white"/>
<path d="M33.7416 36.4264C33.9418 36.4279 34.134 36.3489 34.2755 36.2074C34.417 36.0659 34.4959 35.8736 34.4946 35.6734C34.4933 35.474 34.4141 35.283 34.2737 35.1413C34.1289 35.0073 33.9389 34.9328 33.7416 34.9328C33.5444 34.9328 33.3543 35.0073 33.2095 35.1413C33.0682 35.2833 32.9888 35.4757 32.9888 35.676C32.9888 35.8763 33.0682 36.0685 33.2095 36.2105C33.3524 36.3486 33.5431 36.426 33.7416 36.4264L33.7416 36.4264Z" fill="white"/>
<path d="M33.7416 38.5599C33.9418 38.5614 34.134 38.4825 34.2755 38.341C34.417 38.1995 34.4959 38.0071 34.4946 37.8069C34.4933 37.6076 34.4141 37.4165 34.2737 37.2749C34.1289 37.1409 33.9389 37.0663 33.7416 37.0663C33.5444 37.0663 33.3543 37.1409 33.2095 37.2749C33.0682 37.4169 32.9888 37.6092 32.9888 37.8095C32.9888 38.0099 33.0682 38.202 33.2095 38.344C33.3524 38.4821 33.5431 38.5596 33.7416 38.5599L33.7416 38.5599Z" fill="white"/>
<path d="M33.2095 39.4033C33.0682 39.5455 32.9888 39.7376 32.9888 39.938C32.9888 40.1383 33.0682 40.3305 33.2095 40.4726C33.3511 40.614 33.5432 40.6932 33.7434 40.6928C33.9436 40.6924 34.1353 40.6122 34.2763 40.47C34.4171 40.328 34.4957 40.1357 34.4946 39.9355C34.4933 39.736 34.414 39.545 34.2737 39.4033C34.1289 39.2693 33.9388 39.1948 33.7416 39.1948C33.5443 39.1948 33.3543 39.2693 33.2095 39.4033Z" fill="white"/>
<path d="M33.2095 41.5318C33.0682 41.6738 32.9888 41.8659 32.9888 42.0663C32.9888 42.2666 33.0682 42.4589 33.2095 42.6009C33.3511 42.7424 33.5432 42.8217 33.7434 42.8212C33.9436 42.8207 34.1353 42.7405 34.2763 42.5985C34.4171 42.4563 34.4957 42.264 34.4946 42.0638C34.4933 41.8644 34.414 41.6734 34.2737 41.5317C34.1289 41.3976 33.9388 41.3231 33.7416 41.3231C33.5443 41.3231 33.3543 41.3976 33.2095 41.5318Z" fill="white"/>
<path d="M32.1453 25.5633C32.2866 25.4213 32.3659 25.2291 32.3659 25.0288C32.3659 24.8283 32.2866 24.6361 32.1453 24.4941C32.0005 24.3601 31.8104 24.2856 31.6132 24.2856C31.4158 24.2856 31.2258 24.3601 31.081 24.4941C30.9398 24.6361 30.8604 24.8283 30.8604 25.0288C30.8604 25.2291 30.9398 25.4213 31.081 25.5633C31.2234 25.702 31.4143 25.7795 31.6132 25.7795C31.8119 25.7795 32.0028 25.702 32.1453 25.5633Z" fill="white"/>
<path d="M32.1453 27.6967C32.2866 27.5547 32.3659 27.3626 32.3659 27.1622C32.3659 26.9617 32.2866 26.7696 32.1453 26.6276C32.0005 26.4936 31.8104 26.4191 31.6132 26.4191C31.4158 26.4191 31.2258 26.4936 31.081 26.6276C30.9398 26.7696 30.8604 26.9618 30.8604 27.1622C30.8604 27.3626 30.9398 27.5548 31.081 27.6967C31.2234 27.8355 31.4143 27.9129 31.6132 27.9129C31.8119 27.9129 32.0028 27.8355 32.1453 27.6967Z" fill="white"/>
<path d="M31.6129 30.0411C31.8103 30.0411 31.9998 29.963 32.1401 29.8237C32.2801 29.6845 32.3595 29.4956 32.3608 29.2981C32.3595 29.0987 32.2803 28.9077 32.1399 28.766C31.9951 28.6318 31.8051 28.5573 31.6078 28.5573C31.4106 28.5573 31.2205 28.6318 31.0757 28.766C30.9344 28.908 30.855 29.1002 30.855 29.3005C30.855 29.501 30.9344 29.6932 31.0757 29.8352C31.2213 29.9708 31.4138 30.0445 31.6129 30.0411Z" fill="white"/>
<path d="M31.6132 32.1695C31.8132 32.1708 32.0055 32.0919 32.1471 31.9503C32.2886 31.8088 32.3675 31.6165 32.3662 31.4165C32.3649 31.217 32.2856 31.0261 32.1453 30.8844C32.0005 30.7502 31.8104 30.6757 31.6132 30.6757C31.4158 30.6757 31.2258 30.7502 31.081 30.8844C30.9398 31.0264 30.8604 31.2186 30.8604 31.4189C30.8604 31.6192 30.9398 31.8116 31.081 31.9536C31.2238 32.0917 31.4145 32.1689 31.6132 32.1694L31.6132 32.1695Z" fill="white"/>
<path d="M31.6132 34.3181C31.8132 34.3194 32.0055 34.2405 32.1471 34.099C32.2886 33.9575 32.3675 33.7653 32.3662 33.5651C32.3649 33.3657 32.2856 33.1747 32.1453 33.033C32.0005 32.8989 31.8104 32.8243 31.6132 32.8243C31.4158 32.8243 31.2258 32.8989 31.081 33.033C30.9398 33.175 30.8604 33.3672 30.8604 33.5675C30.8604 33.768 30.9398 33.9602 31.081 34.1022C31.2238 34.2403 31.4145 34.3176 31.6132 34.3181L31.6132 34.3181Z" fill="white"/>
<path d="M31.6129 36.4264C31.8121 36.4264 32.0031 36.347 32.1435 36.2056C32.284 36.0643 32.3621 35.8728 32.3608 35.6734C32.3595 35.474 32.2803 35.283 32.1399 35.1413C31.9951 35.0073 31.8051 34.9328 31.6078 34.9328C31.4106 34.9328 31.2205 35.0073 31.0757 35.1413C30.9344 35.2833 30.855 35.4757 30.855 35.676C30.855 35.8763 30.9344 36.0685 31.0757 36.2105C31.2197 36.3499 31.4125 36.4273 31.6129 36.4264L31.6129 36.4264Z" fill="white"/>
<path d="M31.6129 38.56C31.8078 38.5601 31.9951 38.484 32.1348 38.348C32.2746 38.212 32.3556 38.0271 32.3608 37.8321C32.3595 37.6328 32.2803 37.4417 32.1399 37.3C31.9951 37.1659 31.8051 37.0914 31.6078 37.0914C31.4106 37.0914 31.2205 37.1659 31.0757 37.3C30.9344 37.442 30.855 37.6342 30.855 37.8345C30.855 38.0351 30.9344 38.2272 31.0757 38.3692C31.2236 38.4993 31.416 38.5676 31.6129 38.56Z" fill="white"/>
<path d="M31.6132 40.6884C31.8132 40.6897 32.0055 40.6108 32.1471 40.4693C32.2886 40.3278 32.3675 40.1354 32.3662 39.9354C32.3649 39.7359 32.2856 39.5448 32.1453 39.4032C32.0005 39.2692 31.8104 39.1946 31.6132 39.1946C31.4158 39.1946 31.2258 39.2692 31.081 39.4032C30.9398 39.5453 30.8604 39.7375 30.8604 39.9378C30.8604 40.1382 30.9398 40.3303 31.081 40.4725C31.2238 40.6106 31.4145 40.6879 31.6132 40.6884L31.6132 40.6884Z" fill="white"/>
<path d="M31.081 41.5317C30.9398 41.6737 30.8604 41.8659 30.8604 42.0662C30.8604 42.2665 30.9398 42.4589 31.081 42.6009C31.223 42.7399 31.4141 42.8174 31.6129 42.8161C31.8117 42.8148 32.0019 42.735 32.142 42.594C32.2822 42.4532 32.3609 42.2625 32.3611 42.0637C32.3598 41.8644 32.2805 41.6734 32.1402 41.5317C31.9957 41.399 31.8068 41.3254 31.6106 41.3254C31.4145 41.3254 31.2256 41.399 31.081 41.5317L31.081 41.5317Z" fill="white"/>
<path d="M30.0166 25.5633C30.158 25.4213 30.2372 25.2291 30.2372 25.0288C30.2372 24.8283 30.158 24.6361 30.0166 24.4941C29.8718 24.3601 29.6818 24.2856 29.4844 24.2856C29.2871 24.2856 29.0971 24.3601 28.9523 24.4941C28.8109 24.6361 28.7317 24.8283 28.7317 25.0288C28.7317 25.2291 28.8109 25.4213 28.9523 25.5633C29.0948 25.702 29.2857 25.7795 29.4844 25.7795C29.6832 25.7795 29.8741 25.702 30.0166 25.5633Z" fill="white"/>
<path d="M29.4849 27.9125C29.685 27.914 29.8774 27.8351 30.0189 27.6936C30.1604 27.5521 30.2393 27.3597 30.2379 27.1595C30.2367 26.9602 30.1575 26.7691 30.0171 26.6275C29.8723 26.4935 29.6823 26.4189 29.4849 26.4189C29.2876 26.4189 29.0976 26.4935 28.9528 26.6275C28.8114 26.7695 28.7322 26.9616 28.7322 27.1621C28.7322 27.3625 28.8114 27.5546 28.9528 27.6966C29.0956 27.8347 29.2863 27.9122 29.4849 27.9125L29.4849 27.9125Z" fill="white"/>
<path d="M29.4849 30.041C29.685 30.0423 29.8774 29.9634 30.0189 29.8219C30.1604 29.6804 30.2393 29.488 30.2379 29.288C30.2367 29.0885 30.1575 28.8974 30.0171 28.7558C29.8723 28.6218 29.6823 28.5472 29.4849 28.5472C29.2876 28.5472 29.0976 28.6218 28.9528 28.7558C28.8114 28.8978 28.7322 29.0901 28.7322 29.2904C28.7322 29.4908 28.8114 29.6829 28.9528 29.8251C29.0956 29.963 29.2863 30.0405 29.4849 30.041L29.4849 30.041Z" fill="white"/>
<path d="M29.4849 32.1695C29.685 32.1708 29.8774 32.0919 30.0189 31.9503C30.1604 31.8088 30.2393 31.6165 30.2379 31.4165C30.2367 31.217 30.1575 31.0261 30.0171 30.8844C29.8723 30.7502 29.6823 30.6757 29.4849 30.6757C29.2876 30.6757 29.0976 30.7502 28.9528 30.8844C28.8114 31.0264 28.7322 31.2186 28.7322 31.4189C28.7322 31.6192 28.8114 31.8116 28.9528 31.9536C29.0956 32.0917 29.2863 32.1689 29.4849 32.1694L29.4849 32.1695Z" fill="white"/>
<path d="M29.4849 34.3181C29.685 34.3194 29.8774 34.2405 30.0189 34.099C30.1604 33.9575 30.2393 33.7653 30.2379 33.5651C30.2367 33.3657 30.1575 33.1747 30.0171 33.033C29.8723 32.8989 29.6823 32.8243 29.4849 32.8243C29.2876 32.8243 29.0976 32.8989 28.9528 33.033C28.8114 33.175 28.7322 33.3672 28.7322 33.5675C28.7322 33.768 28.8114 33.9602 28.9528 34.1022C29.0956 34.2403 29.2863 34.3176 29.4849 34.3181L29.4849 34.3181Z" fill="white"/>
<path d="M29.4849 36.4264C29.685 36.4279 29.8774 36.3489 30.0189 36.2074C30.1604 36.0659 30.2393 35.8736 30.2379 35.6734C30.2367 35.474 30.1575 35.283 30.0171 35.1413C29.8723 35.0073 29.6823 34.9328 29.4849 34.9328C29.2876 34.9328 29.0976 35.0073 28.9528 35.1413C28.8114 35.2833 28.7322 35.4757 28.7322 35.676C28.7322 35.8763 28.8114 36.0685 28.9528 36.2105C29.0956 36.3486 29.2863 36.426 29.4849 36.4264L29.4849 36.4264Z" fill="white"/>
<path d="M29.4849 38.5599C29.685 38.5614 29.8774 38.4825 30.0189 38.341C30.1604 38.1995 30.2393 38.0071 30.2379 37.8069C30.2367 37.6076 30.1575 37.4165 30.0171 37.2749C29.8723 37.1409 29.6823 37.0663 29.4849 37.0663C29.2876 37.0663 29.0976 37.1409 28.9528 37.2749C28.8114 37.4169 28.7322 37.6092 28.7322 37.8095C28.7322 38.0099 28.8114 38.202 28.9528 38.344C29.0956 38.4821 29.2863 38.5596 29.4849 38.5599L29.4849 38.5599Z" fill="white"/>
<path d="M29.4849 40.6884C29.685 40.6897 29.8774 40.6108 30.0189 40.4693C30.1604 40.3278 30.2393 40.1354 30.2379 39.9354C30.2367 39.7359 30.1575 39.5448 30.0171 39.4032C29.8723 39.2692 29.6823 39.1946 29.4849 39.1946C29.2876 39.1946 29.0976 39.2692 28.9528 39.4032C28.8114 39.5453 28.7322 39.7375 28.7322 39.9378C28.7322 40.1382 28.8114 40.3303 28.9528 40.4725C29.0956 40.6106 29.2863 40.6879 29.4849 40.6884L29.4849 40.6884Z" fill="white"/>
<path d="M29.4849 42.8185C29.685 42.8198 29.8774 42.7409 30.0189 42.5994C30.1604 42.4579 30.2393 42.2657 30.2379 42.0655C30.2367 41.8662 30.1575 41.6751 30.0171 41.5334C29.8723 41.3993 29.6823 41.3248 29.4849 41.3248C29.2876 41.3248 29.0976 41.3993 28.9528 41.5334C28.8114 41.6754 28.7322 41.8676 28.7322 42.0679C28.7322 42.2683 28.8114 42.4606 28.9528 42.6026C29.0956 42.7407 29.2863 42.818 29.4849 42.8185L29.4849 42.8185Z" fill="white"/>
<path d="M40.629 20.729H32.7978C33.1083 20.2947 33.3036 19.7886 33.365 19.2582C33.4935 18.2671 33.1366 17.2748 32.4061 16.5926L28.847 13.2041C28.8158 13.1745 28.7823 13.1477 28.7467 13.1237C28.0411 12.6485 27.2355 12.3428 26.3923 12.2302L22.8231 11.7633C22.2216 11.6862 21.6106 11.7838 21.0632 12.0446C20.5156 12.3055 20.0548 12.7185 19.7358 13.2342L16.3924 17.4058L12.7078 15.0966C12.5546 15.0005 12.3717 14.9628 12.1929 14.9906C12.014 15.0182 11.8511 15.1094 11.7341 15.2473L10.4691 16.7533H10.4689C10.3385 16.8974 10.2684 17.086 10.2732 17.2803C10.297 17.477 10.3959 17.657 10.5493 17.7823L15.2932 21.6327C15.7225 21.9787 16.2489 22.1823 16.7992 22.215L15.6094 26L12.8636 31.2007L12.8385 31.256C12.2997 32.5288 12.3909 33.981 13.0844 35.1765L16.5984 40.6985L15.7851 45.2165H15.7853C15.7451 45.4358 15.8042 45.6616 15.9466 45.8332C16.089 46.0046 16.3002 46.1043 16.5231 46.1051H18.5913C18.7471 46.1061 18.8992 46.0582 19.0262 45.9681C19.1532 45.8779 19.2487 45.7503 19.2992 45.6031L24.9919 29.1878C24.9919 29.1577 25.3333 28.0483 25.3432 28.0081V27.958L26.0761 24.8355L26.4427 24.6247V45.3618C26.4427 45.5615 26.5221 45.753 26.6633 45.8942C26.8045 46.0355 26.996 46.1148 27.1957 46.1148H40.6291C40.8314 46.1189 41.0269 46.0413 41.1713 45.8996C41.3158 45.7581 41.3972 45.5641 41.3972 45.3618V21.4818C41.3972 21.2795 41.3158 21.0855 41.1713 20.944C41.0269 20.8024 40.8314 20.7247 40.6291 20.7288L40.629 20.729ZM27.9435 42.5257C28.0481 42.3945 28.1046 42.2316 28.1041 42.0639C28.1048 41.8977 28.0481 41.7365 27.9435 41.607V40.3973C28.0481 40.2661 28.1046 40.1032 28.1041 39.9355C28.1048 39.7693 28.0481 39.6079 27.9435 39.4786V38.2689C28.0481 38.1377 28.1046 37.9747 28.1041 37.8069C28.1074 37.6342 28.0505 37.4657 27.9435 37.3301V36.1253C28.0481 35.9921 28.1046 35.8277 28.1041 35.6584C28.104 35.4924 28.0472 35.3313 27.9435 35.2017V34.0068C28.0474 33.8763 28.104 33.7143 28.104 33.5475C28.104 33.3808 28.0474 33.2189 27.9435 33.0883V31.8784C28.0474 31.7478 28.104 31.5859 28.104 31.4191C28.104 31.2523 28.0474 31.0903 27.9435 30.9598V29.75C28.0481 29.6188 28.1046 29.4559 28.1041 29.2882C28.1048 29.1219 28.0481 28.9606 27.9435 28.8313V27.6216C28.0481 27.4904 28.1046 27.3275 28.1041 27.1596C28.104 26.9921 28.0472 26.8294 27.9435 26.6978V25.493C28.0481 25.3598 28.1046 25.1954 28.1041 25.0261C28.104 24.8601 28.0472 24.699 27.9435 24.5694V23.7762L28.8472 23.2742C28.8782 23.3296 28.9171 23.3804 28.9627 23.4249C29.1042 23.5662 29.2964 23.6455 29.4966 23.645C29.6967 23.6445 29.8884 23.5644 30.0294 23.4223C30.1703 23.2803 30.2489 23.0878 30.2478 22.8878C30.2458 22.7644 30.2129 22.6436 30.1523 22.5363L30.7146 22.225H31.297L31.2968 22.2251C31.22 22.2539 31.1499 22.2983 31.0911 22.3555C30.9498 22.4975 30.8705 22.6899 30.8705 22.8902C30.8705 23.0906 30.9498 23.2827 31.0911 23.4249C31.2328 23.5587 31.4209 23.6326 31.6158 23.6306C31.8108 23.6287 31.9974 23.5512 32.1363 23.4146C32.2753 23.2778 32.3559 23.0927 32.3611 22.8977C32.3598 22.6984 32.2806 22.5073 32.1402 22.3657C32.0796 22.3083 32.0078 22.2639 31.9294 22.2351H33.4153C33.3385 22.264 33.2684 22.3085 33.2096 22.3657C33.0682 22.5077 32.9888 22.6998 32.9888 22.9002C32.9888 23.1007 33.0682 23.2928 33.2096 23.4348C33.3511 23.5763 33.5432 23.6556 33.7434 23.6551C33.9436 23.6546 34.1353 23.5744 34.2763 23.4324C34.4172 23.2902 34.4958 23.0979 34.4946 22.8977C34.4933 22.6984 34.4141 22.5073 34.2737 22.3656C34.2131 22.3083 34.1413 22.2638 34.0629 22.2351H35.5689C35.4905 22.2638 35.4187 22.3083 35.3581 22.3656C35.2167 22.5076 35.1375 22.6998 35.1375 22.9001C35.1375 23.1006 35.2167 23.2928 35.3581 23.4348C35.4996 23.5763 35.6918 23.6556 35.892 23.6551C36.0921 23.6546 36.2838 23.5744 36.4248 23.4324C36.5657 23.2902 36.6443 23.0979 36.6431 22.8977C36.6418 22.6983 36.5626 22.5073 36.4222 22.3656C36.3624 22.3071 36.2905 22.2627 36.2114 22.235H37.7174C37.6391 22.2638 37.5674 22.3083 37.5066 22.3656C37.3653 22.5076 37.286 22.6998 37.286 22.9001C37.286 23.1006 37.3653 23.2928 37.5066 23.4348C37.6483 23.5763 37.8403 23.6555 38.0405 23.6551C38.2407 23.6546 38.4323 23.5743 38.5734 23.4323C38.7144 23.2902 38.7928 23.0978 38.7917 22.8977C38.7905 22.6983 38.7111 22.5073 38.5709 22.3656C38.5119 22.3084 38.4418 22.2639 38.365 22.235H39.871C39.7926 22.2638 39.721 22.3082 39.6602 22.3656C39.5213 22.5089 39.4435 22.7006 39.4435 22.9001C39.4435 23.0998 39.5213 23.2915 39.6602 23.4348C39.7413 23.5103 39.837 23.5683 39.9413 23.6055V24.3333C39.837 24.3657 39.7411 24.4206 39.6602 24.494C39.5213 24.6373 39.4435 24.829 39.4435 25.0286C39.4435 25.2282 39.5213 25.4198 39.6602 25.5631C39.7399 25.6404 39.836 25.6988 39.9413 25.7339V26.4617C39.8359 26.4939 39.7395 26.5508 39.6602 26.6274C39.5213 26.7707 39.4435 26.9624 39.4435 27.1621C39.4435 27.3616 39.5213 27.5533 39.6602 27.6966C39.7414 27.7706 39.8372 27.827 39.9413 27.8623V28.5901C39.8359 28.6224 39.7395 28.6791 39.6602 28.7558C39.5213 28.8991 39.4435 29.0909 39.4435 29.2904C39.4435 29.49 39.5213 29.6818 39.6602 29.8251C39.7426 29.8988 39.8378 29.9567 39.9413 29.9957V30.7235C39.8352 30.7518 39.7383 30.8072 39.6602 30.8843C39.5213 31.0275 39.4435 31.2193 39.4435 31.4188C39.4435 31.6185 39.5213 31.8102 39.6602 31.9535C39.7426 32.0272 39.8378 32.085 39.9413 32.1241V32.8521C39.837 32.8844 39.7411 32.9392 39.6602 33.0127C39.5213 33.156 39.4435 33.3477 39.4435 33.5472C39.4435 33.7469 39.5213 33.9386 39.6602 34.0819C39.7413 34.1574 39.837 34.2154 39.9413 34.2526V34.9805C39.837 35.0128 39.7411 35.0677 39.6602 35.1411C39.5213 35.2844 39.4435 35.4761 39.4435 35.6758C39.4435 35.8753 39.5213 36.0671 39.6602 36.2103C39.7399 36.2876 39.836 36.3459 39.9413 36.381V37.1088C39.8359 37.1412 39.7395 37.1979 39.6602 37.2745C39.5213 37.4178 39.4435 37.6095 39.4435 37.8092C39.4435 38.0087 39.5213 38.2006 39.6602 38.3437C39.7414 38.4177 39.8372 38.4741 39.9413 38.5094V39.2374C39.8359 39.2696 39.7395 39.3263 39.6602 39.4029C39.5213 39.5462 39.4435 39.7381 39.4435 39.9376C39.4435 40.1371 39.5213 40.3289 39.6602 40.4722C39.7426 40.5459 39.8378 40.6038 39.9413 40.6428V41.3708C39.8352 41.3989 39.7383 41.4543 39.6602 41.5315C39.5213 41.6748 39.4435 41.8665 39.4435 42.066C39.4435 42.2656 39.5213 42.4573 39.6602 42.6006C39.7426 42.6743 39.8378 42.7322 39.9413 42.7712V43.4992C39.837 43.5316 39.7411 43.5865 39.6602 43.6598C39.5027 43.7942 39.4051 43.9855 39.3891 44.1919C39.3873 44.3396 39.4291 44.4847 39.5095 44.6086H38.631C38.7091 44.4836 38.7508 44.3393 38.7516 44.1919C38.7503 43.9926 38.6711 43.8015 38.5307 43.6598C38.3859 43.5257 38.1959 43.4513 37.9986 43.4513C37.8012 43.4513 37.6112 43.5257 37.4664 43.6598C37.326 43.8015 37.2468 43.9925 37.2456 44.1919C37.2455 44.3401 37.2891 44.4851 37.3711 44.6086H36.4975C36.5795 44.4851 36.6232 44.3401 36.623 44.1919C36.6219 43.9926 36.5425 43.8015 36.4023 43.6598C36.2575 43.5257 36.0674 43.4513 35.87 43.4513C35.6728 43.4513 35.4827 43.5257 35.3379 43.6598C35.1976 43.8015 35.1183 43.9925 35.117 44.1919C35.117 44.3401 35.1606 44.4851 35.2425 44.6086H34.3691C34.4509 44.4851 34.4947 44.3401 34.4946 44.1919C34.4933 43.9926 34.414 43.8015 34.2736 43.6598C34.1289 43.5257 33.9388 43.4513 33.7416 43.4513C33.5443 43.4513 33.3543 43.5257 33.2095 43.6598C33.0691 43.8015 32.9899 43.9925 32.9886 44.1919C32.9884 44.3401 33.0322 44.4851 33.1141 44.6086H32.2406C32.3225 44.4851 32.3661 44.3401 32.3661 44.1919C32.3648 43.9926 32.2856 43.8015 32.1452 43.6598C32.0004 43.5257 31.8104 43.4513 31.6131 43.4513C31.4157 43.4513 31.2257 43.5257 31.0809 43.6598C30.9387 43.8007 30.8577 43.9919 30.855 44.1919C30.8557 44.3393 30.8974 44.4836 30.9755 44.6086H30.112C30.194 44.4851 30.2377 44.3401 30.2375 44.1919C30.2364 43.9926 30.1571 43.8015 30.0167 43.6598C29.872 43.5257 29.6819 43.4513 29.4845 43.4513C29.2873 43.4513 29.0972 43.5257 28.9524 43.6598C28.8121 43.8015 28.7328 43.9925 28.7315 44.1919C28.7297 44.3396 28.7717 44.4847 28.8521 44.6086H27.9835C28.0639 44.4847 28.1059 44.3396 28.104 44.1919C28.1046 44.0257 28.0479 43.8644 27.9434 43.7352L27.9435 42.5257ZM23.541 28.7308L18.019 44.609H17.4065L18.1094 40.7086L20.5038 27.4257V27.4256C20.5164 27.3424 20.5164 27.2579 20.5038 27.1746C20.502 27.1664 20.502 27.1577 20.5038 27.1496C20.4883 27.0716 20.4593 26.9969 20.4185 26.9286V26.8986C20.3781 26.8322 20.3273 26.7729 20.268 26.7229L20.2379 26.6977H20.2378C20.1755 26.6502 20.1061 26.6129 20.032 26.5873H19.9516C19.8982 26.5825 19.8444 26.5825 19.791 26.5873H19.7609C19.6887 26.5917 19.6176 26.6069 19.5501 26.6325H19.515C19.4467 26.6618 19.3838 26.7026 19.3292 26.753L19.2941 26.783C19.2378 26.8373 19.1905 26.9 19.1535 26.9688L16.1415 33.0229C16.0415 33.2308 16.0415 33.4728 16.1415 33.6807L17.3614 36.3261L16.9699 38.4998L14.3746 34.3784H14.3744C13.9376 33.6112 13.8767 32.6863 14.2087 31.8684L16.9646 26.6376L16.9648 26.6374C16.9846 26.5969 17.0012 26.5549 17.015 26.5119L20.8151 14.464C20.9241 14.0782 21.1694 13.745 21.5053 13.5262C21.8415 13.3074 22.2454 13.218 22.6424 13.2744L26.1915 13.7463V13.7461C26.7789 13.8226 27.3427 14.0265 27.8431 14.3436L31.357 17.6918C31.7329 18.0491 31.9172 18.5633 31.8538 19.0781C31.7906 19.5926 31.487 20.0469 31.0358 20.3023L26.4475 22.8877L26.5127 22.5412L30.1573 19.725C30.3393 19.5812 30.4455 19.3621 30.4455 19.1302C30.4455 18.8982 30.3393 18.679 30.1573 18.5352L27.341 16.3266C27.136 16.1638 26.8606 16.1202 26.6152 16.2115C26.3697 16.3029 26.19 16.516 26.1413 16.7733L24.6353 24.1878L23.8772 27.5964C23.822 27.7771 23.5409 28.731 23.5409 28.731L23.541 28.7308ZM17.6124 33.3442L18.0742 32.4105L17.8031 33.8162L17.6124 33.3442ZM12.2812 17.2502C12.3402 17.2662 12.4008 17.2747 12.4619 17.2753C12.6604 17.2748 12.8511 17.1974 12.994 17.0595L14.4147 17.9479C14.2792 17.9718 14.1535 18.0345 14.0532 18.1286C13.9442 18.2396 13.8723 18.3818 13.8475 18.5352L12.2812 17.2502ZM18.3051 17.436L17.3714 20.4179V20.4177C17.3384 20.355 17.2961 20.2974 17.2459 20.2471C17.1011 20.1129 16.9111 20.0386 16.7138 20.0386C16.5164 20.0386 16.3264 20.1129 16.1816 20.2471C16.1506 20.2817 16.122 20.3187 16.0963 20.3576L14.8563 19.3536C14.9537 19.3189 15.0428 19.2642 15.1175 19.1929C15.259 19.05 15.3384 18.857 15.3382 18.6558C15.3434 18.6091 15.3434 18.5618 15.3382 18.5151L16.036 18.9519H16.0362C16.0759 19.0406 16.1303 19.122 16.1968 19.1929C16.3507 19.3473 16.5641 19.4276 16.7816 19.4127C16.9993 19.3977 17.1998 19.2892 17.3312 19.1151C17.4626 18.9409 17.5121 18.7185 17.4668 18.5051L18.3051 17.436ZM26.9997 20.2973L27.4063 18.2893L28.5057 19.1528L26.9997 20.2973Z" fill="white"/>
<path d="M24.3292 11.4471C25.3494 11.4471 26.3277 11.0416 27.0489 10.3202C27.77 9.59869 28.175 8.6202 28.1744 7.60006C28.1741 6.57987 27.7684 5.60169 27.0464 4.8809C26.3246 4.16012 25.346 3.75551 24.3258 3.75647C23.3058 3.75729 22.3278 4.16353 21.6073 4.88563C20.8867 5.60775 20.4826 6.58656 20.4839 7.60675C20.4854 8.62576 20.8909 9.60248 21.6121 10.3225C22.333 11.0426 23.3102 11.4471 24.3292 11.4471ZM26.6636 7.60675C26.6636 8.22739 26.4168 8.82267 25.9777 9.26146C25.5386 9.7002 24.9433 9.94648 24.3225 9.94597C23.7019 9.94565 23.1068 9.6984 22.6683 9.25916C22.2299 8.81974 21.984 8.22412 21.9849 7.60332C21.9858 6.98268 22.2333 6.38769 22.6731 5.94961C23.1128 5.5115 23.7086 5.26606 24.3292 5.26736C24.9445 5.27537 25.5318 5.52522 25.964 5.96317C26.3962 6.40095 26.6385 6.99151 26.6384 7.60675H26.6636Z" fill="white"/>
</svg>
