<svg width="51" height="51" viewBox="0 0 51 51" fill="none" xmlns="http://www.w3.org/2000/svg">
<path d="M42.578 24.8099H11.4462L11.3697 14.5683C11.3639 13.9212 10.8403 13.3995 10.1932 13.3995L5.63212 13.4015C4.98304 13.4015 4.45557 13.929 4.45557 14.5781V32.0852C4.45557 32.7343 4.98304 33.2618 5.63212 33.2618H9.00492V35.9874C9.00492 36.6365 9.53239 37.164 10.1815 37.164C10.8306 37.164 11.358 36.6365 11.358 35.9874V33.2618H39.7288V35.9874C39.7288 36.6365 40.2563 37.164 40.9054 37.164C41.5545 37.164 42.0819 36.6365 42.0819 35.9874V33.2618H45.6352C46.2843 33.2618 46.8117 32.7343 46.8117 32.0852V29.0065C46.8117 26.6927 44.9135 24.8103 42.5782 24.8103L42.578 24.8099ZM44.4585 30.9083H6.80873V15.7538H9.02847L9.10495 25.9954C9.11083 26.6425 9.63439 27.1641 10.2815 27.1641H42.58C43.6174 27.1641 44.4605 27.9916 44.4605 29.0074L44.4585 30.9083ZM17.5368 23.4469C20.1312 23.4469 22.2431 21.335 22.2431 18.7407C22.2431 16.1464 20.1312 14.0345 17.5368 14.0345C14.9425 14.0345 12.8306 16.1464 12.8306 18.7407C12.8306 21.335 14.9425 23.4469 17.5368 23.4469ZM17.5368 16.388C18.835 16.388 19.8899 17.443 19.8899 18.7411C19.8899 20.0392 18.835 21.0942 17.5368 21.0942C16.2387 21.0942 15.1837 20.0392 15.1837 18.7411C15.1837 17.443 16.2387 16.388 17.5368 16.388ZM24.2883 23.2608C24.9374 23.2608 25.4648 22.7333 25.4648 22.0842V16.5777C25.4648 16.1228 25.8453 15.7541 26.3139 15.7541H33.7493C37.5673 15.7541 40.6736 18.8171 40.6736 22.5821C40.6736 23.2312 41.201 23.7587 41.8501 23.7587C42.4992 23.7587 43.0267 23.2312 43.0267 22.5821C43.0267 17.5191 38.8656 13.401 33.7498 13.401H26.3143C24.5495 13.401 23.1121 14.8266 23.1121 16.5777V22.0842C23.1121 22.7333 23.6376 23.2608 24.2887 23.2608H24.2883Z" fill="white"/>
</svg>
