<svg width="51" height="51" viewBox="0 0 51 51" fill="none" xmlns="http://www.w3.org/2000/svg">
<path d="M20.0343 39.4575C19.893 39.5996 19.8137 39.7918 19.8137 39.9921C19.8137 40.1925 19.893 40.3848 20.0343 40.5268C20.176 40.6682 20.3682 40.7474 20.5682 40.7471C20.7684 40.7466 20.9602 40.6664 21.1011 40.5244C21.2421 40.3822 21.3207 40.1899 21.3195 39.9897C21.3182 39.7902 21.239 39.5993 21.0986 39.4574C20.9538 39.3235 20.7638 39.2489 20.5665 39.2489C20.3691 39.2489 20.1791 39.3235 20.0343 39.4575Z" fill="white"/>
<path d="M31.8564 31.2749C31.206 30.2686 30.0876 29.6632 28.8895 29.6684L24.6627 29.2166L25.5211 26.0791V26.1144C26.0141 26.9738 26.8748 27.5588 27.8554 27.7006C28.0216 27.726 28.1894 27.7377 28.3574 27.7358C29.1791 27.7372 29.97 27.4227 30.5662 26.8573L36.3493 21.4106C36.4832 21.2822 36.5654 21.109 36.5803 20.924C36.5952 20.7388 36.5414 20.5548 36.4296 20.4066L35.0591 18.6346C34.9986 18.5552 34.9215 18.4902 34.8333 18.4439L33.7539 17.0382C33.6435 16.8956 33.4858 16.7969 33.3091 16.7601C33.1323 16.7232 32.9483 16.7506 32.7901 16.8374L28.3575 19.2922L27.0875 16.6315L27.0473 16.5462C26.5631 15.6288 25.7255 14.9488 24.728 14.6637H24.6578L22.926 14.3124C22.0409 14.1477 21.1262 14.2998 20.3423 14.7423C19.5582 15.1848 18.9552 15.8891 18.6389 16.732L14.6781 28.9656C13.9861 30.7417 14.2013 32.7437 15.2554 34.332C16.0681 35.4703 17.3325 36.2022 18.7242 36.34L16.4 45.3759C16.3406 45.6005 16.3888 45.8397 16.5305 46.0235C16.6742 46.2073 16.8946 46.3147 17.1278 46.3147H20.0646C20.2182 46.3123 20.3674 46.2627 20.4921 46.173C20.6168 46.0833 20.711 45.9577 20.7624 45.8127L24.5021 36.335H24.8384L22.1327 45.3208V45.3206C22.0655 45.5482 22.1103 45.794 22.2533 45.9832C22.3927 46.1767 22.6172 46.2908 22.8556 46.2895H25.9981C26.1398 46.2893 26.2785 46.2493 26.3983 46.1738C26.5183 46.0983 26.6144 45.9904 26.6758 45.8628L32.0773 34.6883C32.6058 33.5902 32.5219 32.2957 31.8564 31.2748L31.8564 31.2749ZM30.7168 34.0158L25.5261 44.8088H23.8694L26.5752 35.818C26.6458 35.5897 26.6031 35.3415 26.4602 35.1498C26.3172 34.9583 26.0913 34.8465 25.8524 34.8493L19.467 34.8844C18.2977 34.9354 17.1796 34.4009 16.4851 33.4587C15.7086 32.263 15.5661 30.7632 16.1037 29.4427L20.0696 17.2291H20.0694C20.2625 16.7237 20.6274 16.3022 21.1002 16.0388C21.573 15.7754 22.1233 15.6868 22.6547 15.7885L24.3364 16.1047C24.9294 16.2815 25.4255 16.6907 25.712 17.2392C25.7736 17.358 25.8241 17.4824 25.8625 17.6106L28.3172 22.731C28.4084 22.9235 28.5771 23.068 28.7812 23.1283C28.9853 23.1887 29.2056 23.1593 29.3866 23.0474L34.266 20.0957L34.8032 20.7985L29.5322 25.7583C29.1457 26.1204 28.6151 26.2866 28.0911 26.2093C27.567 26.132 27.1069 25.8198 26.8415 25.3616L23.965 20.3417C23.8305 20.1085 23.5818 19.9648 23.3126 19.9647C23.0435 19.9647 22.7946 20.1081 22.6599 20.3412C22.5253 20.5742 22.5253 20.8615 22.6598 21.0947L24.4619 24.2222L22.9559 29.6638C22.898 29.8761 22.9346 30.1029 23.0564 30.2863C23.1814 30.4675 23.3794 30.5848 23.5984 30.6075L28.7489 31.1546H28.8443V31.1548C29.5411 31.1355 30.198 31.4792 30.5797 32.0624C30.9614 32.6457 31.0132 33.3852 30.7167 34.0161L30.7168 34.0158ZM20.8776 41.4454C20.7389 41.3831 20.5848 41.3634 20.4348 41.3884C20.2848 41.4134 20.1455 41.4822 20.0342 41.5859C19.8929 41.7279 19.8136 41.9201 19.8136 42.1204C19.8136 42.3209 19.8929 42.5131 20.0342 42.6551C20.1178 42.7361 20.2192 42.7964 20.3305 42.8308L19.9239 43.8348H19.9238C19.8784 43.9125 19.846 43.9973 19.8285 44.0857L19.5474 44.7886H18.9399H18.97H18.9701C19.1113 44.6466 19.1907 44.4544 19.1907 44.2539C19.1907 44.0536 19.1113 43.8614 18.9701 43.7194C18.8268 43.5831 18.6356 43.5091 18.4379 43.5135L18.6085 42.8559H18.6087C18.7438 42.8223 18.8681 42.755 18.9701 42.6602C19.1113 42.5182 19.1907 42.3258 19.1907 42.1255C19.1907 41.9252 19.1113 41.733 18.9701 41.5908H18.935L19.8387 38.0769H19.8385C19.9014 38.3145 20.0763 38.5063 20.3068 38.5909C20.5376 38.6758 20.7949 38.6426 20.9966 38.5022C21.1982 38.3618 21.3188 38.1319 21.3195 37.8861C21.3182 37.6868 21.2389 37.4958 21.0985 37.3541C20.9538 37.2199 20.7637 37.1455 20.5665 37.1455C20.3691 37.1455 20.179 37.2199 20.0342 37.3541L20.2702 36.4305V36.4303C20.3661 36.4746 20.4709 36.4968 20.5764 36.4957C20.707 36.4957 20.8351 36.461 20.9478 36.3952H22.3184C22.4359 36.4633 22.5691 36.4996 22.7048 36.5006H22.8504L22.5844 37.1683C22.4303 37.1864 22.2862 37.2532 22.1728 37.3591C22.0404 37.4897 21.9615 37.6647 21.9514 37.8503C21.9411 38.036 22.0004 38.2188 22.1176 38.3631L20.8776 41.4454ZM31.1836 19.4579H31.2138C31.4124 19.4574 31.6031 19.3801 31.7459 19.242C31.7904 19.1932 31.8293 19.1392 31.8615 19.0814L32.5944 18.6748C32.5919 18.6846 32.5919 18.6949 32.5944 18.7049C32.5991 18.8928 32.6743 19.0719 32.8052 19.2069L31.3394 20.0954C31.1047 20.0519 30.8632 20.1207 30.6867 20.2811C30.5986 20.3709 30.5347 20.4813 30.5009 20.6024L29.8082 21.0191C29.8301 20.9526 29.8419 20.8833 29.8433 20.8132C29.8368 20.6258 29.7618 20.4472 29.6325 20.3112L31.1836 19.4579Z" fill="white"/>
<path d="M24.8634 4.64894C23.586 4.64763 22.3604 5.15403 21.4566 6.05654C20.5528 6.95921 20.0445 8.18396 20.0442 9.46138C20.0437 10.7388 20.5509 11.964 21.4543 12.8672C22.3574 13.7705 23.5825 14.2777 24.8599 14.2772C26.1373 14.2768 27.3622 13.7687 28.2647 12.8649C29.1674 11.9609 29.6738 10.7355 29.6725 9.45807C29.6697 8.18329 29.1623 6.96164 28.261 6.06043C27.3596 5.15905 26.1379 4.65149 24.8633 4.6489L24.8634 4.64894ZM24.8634 12.7662C23.9857 12.7675 23.1435 12.4201 22.522 11.8003C21.9007 11.1805 21.551 10.3391 21.5502 9.46142C21.5492 8.58376 21.8971 7.7417 22.5173 7.12073C23.1374 6.49959 23.979 6.15041 24.8567 6.14991C25.7343 6.14958 26.5762 6.49781 27.197 7.11826C27.8177 7.73873 28.1665 8.58046 28.1665 9.45816C28.1652 10.3342 27.8168 11.1742 27.1979 11.7941C26.5789 12.4141 25.7394 12.7636 24.8634 12.7662Z" fill="white"/>
</svg>
