<svg width="51" height="51" viewBox="0 0 51 51" fill="none" xmlns="http://www.w3.org/2000/svg">
<path d="M25.5426 36.8168C22.752 36.2013 20.8926 35.0779 20.003 33.9464C19.7385 33.6104 19.57 33.2774 19.4769 32.9543C19.4224 32.7639 19.3884 32.5764 19.3939 32.3969C19.4069 32.0173 19.5699 31.6059 19.912 31.2014C20.4275 30.589 21.3601 29.991 22.8235 29.5214C21.7115 29.249 20.732 28.9198 19.8734 28.548C18.8775 29.1539 18.2554 29.8209 17.8763 30.448C17.4323 31.1875 17.3153 31.8696 17.2998 32.324C17.2738 33.08 17.4768 33.817 17.8718 34.5156C18.0383 34.81 18.2352 35.0976 18.4688 35.3771C19.7813 36.9376 22.1184 38.2091 25.0913 38.8655C26.9453 39.2736 27.7798 40.1061 27.7868 40.75C27.7892 41.014 27.6468 41.3135 27.3592 41.6065C27.1447 41.8249 26.8481 42.0389 26.4622 42.2339C26.4367 42.2455 26.4103 42.2585 26.3833 42.2699V40.4714C26.0988 40.2798 25.6217 40.0549 24.8664 39.8884C24.6683 39.844 24.4808 39.7909 24.2884 39.7419V42.2579C23.3424 41.8008 22.9009 41.2214 22.9054 40.7494C22.909 40.3884 23.182 39.9724 23.736 39.6024C22.953 39.378 22.2155 39.1099 21.529 38.8025C21.0326 39.4335 20.8154 40.114 20.8094 40.7294C20.7964 42.0374 21.7269 43.6488 24.2884 44.5149C24.5529 44.6054 24.8289 44.6879 25.1289 44.7603H25.5619C25.8553 44.6894 26.1249 44.6093 26.3833 44.5214C26.9794 44.3224 27.4883 44.081 27.9169 43.8129C28.2349 43.6139 28.5153 43.3979 28.7494 43.1744C29.5589 42.3984 29.8889 41.5094 29.8823 40.729C29.869 39.2976 28.7215 37.5197 25.5423 36.817L25.5426 36.8168Z" fill="white"/>
<path d="M26.3829 35.3906V30.2056C25.9818 30.1151 25.5465 30.0326 25.0639 29.9626C24.7979 29.9206 24.5405 29.8776 24.2878 29.8325V35.3825C24.6298 35.497 24.9893 35.5995 25.3598 35.6921L25.5869 35.6316C25.8668 35.5577 26.1288 35.4751 26.3829 35.3907L26.3829 35.3906Z" fill="white"/>
<path d="M47.8359 12.1593V10.0643C40.8705 10.0643 33.0225 6.09683 32.9438 6.05633L32.0603 5.60533L31.5618 6.46437C30.2748 8.68441 27.8883 10.0643 25.3355 10.0643C22.7805 10.0643 20.3955 8.68475 19.1093 6.46437L18.6107 5.60533L17.7263 6.05633C17.6469 6.09686 9.80087 10.0643 2.83545 10.0643V12.1593C8.99462 12.1593 15.5288 9.40233 17.8296 8.33333C18.1537 8.77733 18.5152 9.18879 18.9081 9.56575C17.2411 10.5592 14.0247 12.1963 10.9072 12.1963V14.2913C15.0939 14.2913 19.2118 11.8903 20.7114 10.9154C21.8024 11.544 23.0179 11.9518 24.2869 12.0978V25.5512C24.758 25.6592 25.2269 25.7486 25.6834 25.8166C25.9235 25.8521 26.1559 25.8907 26.3824 25.931V12.0977C27.6529 11.9517 28.8694 11.5437 29.9589 10.9153C31.457 11.8902 35.576 14.2912 39.7627 14.2912V12.1962C36.6442 12.1962 33.4277 10.5582 31.7631 9.56417C32.1546 9.18869 32.5156 8.77676 32.8411 8.33321C35.142 9.40176 41.6765 12.1592 47.8361 12.1592L47.8359 12.1593Z" fill="white"/>
<path d="M32.4833 15.4027C32.2934 15.3332 30.5878 14.7538 29.2673 15.5187C28.7883 15.7967 28.1793 16.3592 27.9864 17.4697L30.0525 17.8278C30.1174 17.4499 30.2624 17.3643 30.3165 17.3328C30.6579 17.1323 31.3879 17.2388 31.7359 17.3594C33.2323 17.9634 34.08 19.3813 33.8918 20.9744C33.6708 22.8489 31.9348 25.0505 27.876 26.2553C29.0784 26.5649 30.064 26.9473 30.8685 27.3738C35.0918 25.3588 35.8418 22.3225 35.9718 21.2188C36.2687 18.7001 34.8823 16.3675 32.4832 15.4025L32.4833 15.4027Z" fill="white"/>
<path d="M25.5288 26.8535C19.4967 25.951 17.0634 23.2244 16.7992 20.9756C16.6112 19.3836 17.4563 17.9635 18.9131 17.3757C19.1472 17.2941 19.5056 17.2227 19.8287 17.2227C20.0417 17.2227 20.2387 17.2536 20.3721 17.3327C20.4276 17.3652 20.5726 17.4507 20.6381 17.8276L22.702 17.4691C22.5095 16.3605 21.9001 15.7961 21.4226 15.52C20.912 15.2235 20.3432 15.1281 19.8246 15.1281C19.0041 15.1281 18.3101 15.3661 18.1706 15.4172C15.8082 16.3692 14.4206 18.7002 14.7172 21.2209C14.8887 22.6864 16.1561 27.5701 25.2176 28.9263C29.6326 29.5858 31.2522 31.1524 31.2951 32.3954C31.338 33.6314 29.9447 35.1944 27.193 36.219C28.1151 36.5689 28.8431 37.019 29.3996 37.524C31.943 36.212 33.457 34.3266 33.389 32.3236C33.3467 31.0261 32.4901 27.8948 25.5286 26.8536L25.5288 26.8535Z" fill="white"/>
</svg>
