<svg width="51" height="51" viewBox="0 0 51 51" fill="none" xmlns="http://www.w3.org/2000/svg">
<path d="M15.2008 26.4973C15.1401 26.6971 15.1655 26.9131 15.2708 27.0935C15.3761 27.2738 15.5519 27.4021 15.7557 27.4473L17.4707 27.8274C17.5239 27.8344 17.5776 27.8344 17.6307 27.8274C17.7764 27.8334 17.9206 27.7969 18.0457 27.7224C18.1711 27.6477 18.2718 27.5383 18.3358 27.4073L20.5908 22.4873L20.1608 25.5722C20.1203 25.9039 20.1069 26.2384 20.1208 26.5722C20.1133 26.6404 20.1133 26.7091 20.1208 26.7773L20.9308 35.0623L18.5809 44.0623H18.5807C18.5347 44.2355 18.5522 44.4196 18.6302 44.581C18.7082 44.7425 18.8415 44.8706 19.0057 44.9422L20.9457 45.7921L20.9458 45.7923C21.0414 45.8362 21.1455 45.8585 21.2508 45.8572C21.3467 45.8564 21.4416 45.8377 21.5308 45.8022C21.7197 45.726 21.8696 45.5763 21.9458 45.3873L25.4009 36.8073H25.4007C25.5995 36.3116 25.7128 35.7858 25.7359 35.2523L25.7759 34.3124L25.8659 34.4024L25.0759 43.3124C25.0567 43.5253 25.1294 43.7364 25.2757 43.8923C25.4178 44.0417 25.6146 44.1267 25.8208 44.1273H25.8358L27.9859 44.0672C28.1574 44.062 28.322 43.9982 28.452 43.8863C28.5823 43.7743 28.67 43.6211 28.7009 43.4523L30.3358 34.5323C30.5053 33.6238 30.4061 32.6857 30.0508 31.8325L27.8959 26.6025L28.2108 22.7574C28.2557 22.8023 28.3008 22.8574 28.3508 22.9024L33.0358 27.0424V27.0426C33.1727 27.1664 33.3512 27.2343 33.5358 27.2325C33.7417 27.2307 33.9381 27.1461 34.0807 26.9975L35.2707 25.7275H35.2708C35.3984 25.5945 35.473 25.4194 35.4803 25.2352C35.4876 25.0509 35.4274 24.8704 35.3107 24.7275L31.4407 19.9425L28.6857 14.6025C28.5553 14.1316 28.3156 13.6982 27.9858 13.3375C27.4277 12.7213 26.6419 12.36 25.8107 12.3375H25.7358L24.4209 12.4275H24.4207C23.6175 12.4798 22.8677 12.8483 22.3358 13.4526H22.3058L18.4707 17.6826C17.9168 18.2947 17.5023 19.0197 17.2557 19.8076L15.2008 26.4973ZM30.1408 20.7123C30.1662 20.7559 30.1947 20.7977 30.2258 20.8373L30.7958 21.5472V21.5474C30.7086 21.5816 30.6288 21.6325 30.5608 21.6973C30.4201 21.8387 30.3411 22.0303 30.3411 22.2298C30.3411 22.4294 30.4201 22.6208 30.5608 22.7624C30.7027 22.9004 30.8928 22.9775 31.0909 22.9775C31.2888 22.9775 31.4789 22.9004 31.6209 22.7624C31.6502 22.7313 31.677 22.6978 31.7009 22.6623L32.656 23.8473H32.6559C32.5322 23.9847 32.4628 24.1624 32.4609 24.3473C32.4628 24.4186 32.4745 24.4892 32.4959 24.5573L29.7058 22.0923C29.6767 21.9422 29.6056 21.8035 29.5009 21.6922C29.3948 21.5989 29.2651 21.5368 29.1259 21.5124C29.0932 21.4796 29.0631 21.4445 29.0359 21.4072L28.6309 20.7723H28.6308C28.7367 20.8241 28.853 20.8514 28.9708 20.8522C29.1702 20.8537 29.3617 20.7751 29.5027 20.6341C29.6437 20.4932 29.7223 20.3016 29.7208 20.1022C29.7197 19.9036 29.6407 19.7134 29.5009 19.5722C29.3582 19.4458 29.1741 19.376 28.9833 19.376C28.7927 19.376 28.6085 19.4458 28.4659 19.5722L28.546 18.6172L28.5458 18.6173C28.6718 18.7011 28.8196 18.7464 28.9708 18.7472C29.0191 18.7524 29.0676 18.7524 29.1158 18.7472L30.1408 20.7123ZM33.4859 25.4373L33.0909 25.0873H33.2108C33.3428 25.0857 33.4722 25.0496 33.5858 24.9823L33.7308 25.1624L33.4859 25.4373ZM23.3359 14.5823C23.6022 14.1916 24.0341 13.9462 24.5058 13.9172L25.7809 13.8272C26.1988 13.8466 26.5918 14.0315 26.8732 14.341C27.1546 14.6506 27.3012 15.0593 27.2809 15.4771L26.3909 26.6821C26.3792 26.7995 26.3965 26.918 26.4409 27.0272L28.6658 32.4222H28.666C28.9095 33.0102 28.9772 33.6562 28.861 34.2821L27.3359 42.5821H26.6308L27.3609 34.1821C27.3821 33.9591 27.3012 33.7384 27.1409 33.5821L22.8359 29.3621C21.8892 28.4248 21.4375 27.0973 21.6158 25.7772L22.4459 19.8022L25.4459 17.2122V17.212C25.6477 17.0335 25.739 16.7607 25.6852 16.4965C25.6315 16.2324 25.4409 16.017 25.1852 15.9316C24.9296 15.8461 24.6478 15.9034 24.4459 16.0821L20.2509 19.717C20.1721 19.7893 20.1075 19.8759 20.0608 19.9721L17.2009 26.2321L16.8709 26.1821L18.6909 20.2721C18.8645 19.6821 19.1687 19.1386 19.5808 18.6821L23.3359 14.5823ZM24.0009 36.2673L23.0359 38.6022C22.8922 38.5024 22.719 38.4546 22.5445 38.4663C22.3701 38.4782 22.2047 38.549 22.076 38.6673C21.9352 38.8088 21.8561 39.0002 21.8561 39.1999C21.8561 39.3994 21.9352 39.5908 22.076 39.7322C22.1933 39.8423 22.3416 39.9139 22.5009 39.9373L22.186 40.7173H22.1858C22.1474 40.7376 22.1106 40.7611 22.076 40.7873C21.9288 40.9251 21.8424 41.1157 21.8359 41.3172C21.8307 41.3739 21.8307 41.4307 21.8359 41.4873L21.1909 43.1823C21.1533 43.076 21.0937 42.9789 21.0159 42.8973C20.867 42.756 20.6657 42.6836 20.4609 42.6973L20.6308 42.0423C20.8092 42.0068 20.9686 41.9079 21.0794 41.7637C21.1901 41.6195 21.2448 41.4399 21.2331 41.2585C21.2215 41.0772 21.1442 40.9061 21.0159 40.7773C21.0005 40.7655 20.9837 40.7554 20.966 40.7472L21.881 37.2472H21.8809C21.9136 37.3807 21.9808 37.5033 22.076 37.6022C22.2173 37.7336 22.4038 37.8053 22.5967 37.8027C22.7895 37.8 22.974 37.7231 23.1116 37.5881C23.2493 37.453 23.3296 37.27 23.3359 37.0773C23.3346 36.8787 23.2557 36.6885 23.1159 36.5473C22.9717 36.4137 22.7824 36.3395 22.5859 36.3395C22.3894 36.3395 22.2002 36.4137 22.056 36.5473L22.296 35.6224L22.2959 35.6222C22.3911 35.6678 22.4952 35.6917 22.6009 35.6922C22.8003 35.6937 22.9918 35.6151 23.1328 35.4741C23.2737 35.3332 23.3522 35.1416 23.3509 34.9422C23.3496 34.7436 23.2706 34.5534 23.1308 34.4122C23.0249 34.3169 22.8943 34.2527 22.754 34.227C22.6136 34.2015 22.4689 34.2155 22.3359 34.2672L22.2609 33.4921V33.4923C22.3686 33.5499 22.4888 33.5808 22.611 33.5823C22.8058 33.5769 22.991 33.4956 23.1266 33.3553C23.2622 33.2151 23.3372 33.0273 23.3359 32.8323C23.3346 32.6336 23.2557 32.4433 23.1159 32.3022C22.9803 32.1791 22.8053 32.1082 22.6224 32.1017C22.4393 32.0953 22.2599 32.1539 22.1159 32.2672L22.0309 31.1822C22.0309 31.1822 22.0309 31.2223 22.0758 31.2372H22.076C22.2181 31.3748 22.408 31.4517 22.6059 31.4522C22.6737 31.4524 22.7412 31.4423 22.806 31.4223L24.0111 32.6123H24.0109C23.9896 32.6803 23.9779 32.7509 23.9759 32.8222C23.9759 33.0226 24.055 33.215 24.196 33.3572C24.2235 33.3836 24.2536 33.407 24.286 33.4272L24.241 34.3872C24.241 34.3872 24.2111 34.3872 24.1961 34.4171L24.196 34.4173C24.0618 34.5561 23.9868 34.7417 23.9868 34.9347C23.9868 35.1279 24.0618 35.3134 24.196 35.4523C24.1593 35.7325 24.0853 36.0066 23.9759 36.2672L24.0009 36.2673Z" fill="white"/>
<path d="M28.1158 4.37727C27.0247 3.73632 25.6974 3.64015 24.5252 4.11702C23.353 4.5939 22.4697 5.58952 22.1358 6.81006C21.8022 8.03077 22.0559 9.33723 22.8224 10.3442C23.5887 11.3512 24.7804 11.9439 26.0458 11.9473C26.3933 11.9489 26.7397 11.9051 27.076 11.8172C28.1188 11.5456 29.0113 10.8714 29.5579 9.94256C30.1043 9.01352 30.2601 7.90593 29.9908 6.86231C29.7244 5.8161 29.049 4.92057 28.1158 4.37727ZM24.7558 10.0923C24.1707 9.74917 23.7459 9.18748 23.5751 8.5309C23.4044 7.87448 23.5019 7.1769 23.8458 6.59227C24.1868 6.00277 24.7509 5.57552 25.4109 5.40723C25.6231 5.35206 25.8416 5.32341 26.0608 5.32227C26.5105 5.32553 26.9509 5.44988 27.3359 5.6823C27.9425 6.01677 28.3881 6.58221 28.5712 7.25034C28.7545 7.9183 28.6596 8.632 28.3084 9.22917C27.9573 9.82617 27.3795 10.2557 26.7067 10.4203C26.0337 10.5846 25.3229 10.4701 24.736 10.1022L24.7558 10.0923Z" fill="white"/>
</svg>
