<svg width="51" height="51" viewBox="0 0 51 51" fill="none" xmlns="http://www.w3.org/2000/svg">
<path d="M6.70887 8.39725C7.51353 8.05154 8.24403 7.51054 8.85145 6.82692C9.4667 6.1355 9.95495 5.29958 10.2714 4.36987C10.5526 3.54762 11.0663 2.86987 11.7284 2.39525C12.3905 1.92258 13.1952 1.655 14.0605 1.655H36.613C37.4782 1.655 38.2829 1.92258 38.945 2.39525C39.6071 2.86792 40.1208 3.54758 40.402 4.36987C40.7204 5.3015 41.2087 6.13746 41.8239 6.82887C42.4313 7.51246 43.1598 8.05154 43.9645 8.40112C44.7067 8.71753 45.3122 9.23121 45.7321 9.87183C46.154 10.5085 46.3844 11.2664 46.3844 12.075V25.1845C46.3844 31.2412 44.281 37.2195 40.242 41.7587C36.4255 46.0479 31.1478 48.7116 25.3374 48.7116C19.527 48.7116 14.2495 46.0475 10.4328 41.7587C6.3937 37.2216 4.29028 31.2412 4.29028 25.1845V12.075C4.29028 11.2644 4.5227 10.5085 4.9387 9.87183C5.36253 9.23317 5.96799 8.7195 6.70824 8.40112L6.70887 8.39725ZM7.00965 31.0356H43.6642C44.133 29.1723 44.3849 27.2094 44.3849 25.1822V12.0727C44.3849 11.6586 44.2697 11.2758 44.0646 10.9633C43.8615 10.6508 43.5588 10.3969 43.1779 10.2328C42.0939 9.76212 41.1271 9.04925 40.3342 8.15667C39.547 7.27192 38.922 6.20158 38.5138 5.01017C38.3713 4.59415 38.1174 4.25429 37.7912 4.02187C37.465 3.78946 37.0588 3.65664 36.6154 3.65664H14.0629C13.6215 3.65664 13.2133 3.78945 12.8871 4.02187C12.5609 4.25429 12.305 4.59608 12.1644 5.01017C11.7582 6.20158 11.1332 7.26992 10.346 8.15471C9.55309 9.04729 8.58434 9.76017 7.50034 10.2289C7.11948 10.3969 6.8148 10.6508 6.60971 10.9613C6.40659 11.2777 6.29135 11.6586 6.29135 12.0727V25.1822C6.29135 27.2096 6.54331 29.1725 7.01206 31.0356H7.00965ZM43.0642 33.0356H7.60923C7.72642 33.3715 7.85142 33.7035 7.98228 34.0297H42.6914C42.8223 33.7016 42.9473 33.3715 43.0645 33.0356H43.0642ZM41.7713 36.0297H8.90419C9.74207 37.6391 10.7597 39.1176 11.9257 40.428C15.3749 44.303 20.1232 46.7089 25.3378 46.7089C30.5528 46.7089 35.3028 44.3026 38.7499 40.428C39.9159 39.1175 40.9334 37.6409 41.7714 36.0297H41.7713ZM28.0759 11.2289L29.0368 13.4027C29.1129 13.5765 29.2243 13.7172 29.359 13.8148C29.4899 13.9125 29.6559 13.975 29.8473 13.9965L32.2888 14.2601C32.8864 14.3246 33.4274 14.555 33.8669 14.9125C34.3063 15.2718 34.6403 15.7543 34.8239 16.3265C35.0095 16.9008 35.0212 17.4887 34.8727 18.0336C34.7243 18.5785 34.4157 19.0805 33.9685 19.4808L32.1989 21.0668C32.0622 21.1898 31.9626 21.3402 31.9099 21.5023C31.8571 21.6625 31.8493 21.8402 31.8864 22.0257L32.3903 24.428C32.5134 25.0159 32.4626 25.5999 32.2575 26.1292C32.0524 26.6585 31.695 27.1253 31.2067 27.4769C30.7204 27.8284 30.1638 28.0198 29.5974 28.0491C29.0329 28.0765 28.4626 27.9417 27.9431 27.6409L25.8884 26.4475C25.7224 26.3499 25.5486 26.3011 25.3864 26.3011C25.2204 26.3011 25.0466 26.3479 24.8806 26.4456L22.7516 27.6663C22.2321 27.9632 21.6599 28.096 21.0915 28.0647C20.529 28.0335 19.9743 27.8382 19.488 27.4827C18.9977 27.1272 18.6442 26.6605 18.4431 26.1311C18.2419 25.6018 18.195 25.0178 18.32 24.43L18.82 22.1077C18.861 21.9202 18.8532 21.7386 18.8024 21.5804C18.7517 21.4202 18.652 21.2698 18.5134 21.1448L16.693 19.4964C16.2458 19.0921 15.943 18.5882 15.7985 18.0413C15.654 17.4945 15.6676 16.9085 15.8532 16.3382C16.0407 15.766 16.3766 15.2835 16.82 14.9261C17.2614 14.5706 17.8024 14.344 18.4001 14.2835L20.7634 14.0413C20.9528 14.0218 21.1227 13.9593 21.2575 13.8616C21.3903 13.764 21.5016 13.6253 21.5797 13.4534L22.5856 11.2132C22.8337 10.6624 23.2185 10.2171 23.695 9.91042C24.1716 9.60573 24.7341 9.43971 25.3317 9.43971C25.9352 9.44166 26.4977 9.61158 26.9684 9.92017C27.4469 10.2307 27.8297 10.676 28.0739 11.2268L28.0759 11.2289ZM27.2087 14.2074L26.2478 12.0335C26.1638 11.846 26.0368 11.6937 25.8825 11.5921C25.7263 11.4886 25.5388 11.432 25.3337 11.432C25.1247 11.432 24.9333 11.4867 24.779 11.5863C24.6208 11.6898 24.4919 11.8402 24.408 12.0277L23.4021 14.2679C23.1794 14.766 22.8415 15.1781 22.4236 15.4808C22.0056 15.7835 21.5095 15.973 20.9685 16.0277L18.6052 16.2699C18.3982 16.2914 18.2146 16.3656 18.07 16.4828C17.9275 16.598 17.8142 16.7601 17.7517 16.9554C17.6853 17.1546 17.6794 17.3539 17.7263 17.5335C17.7732 17.7132 17.8767 17.8832 18.029 18.0199L19.8494 19.6683C20.2556 20.0355 20.5427 20.4828 20.7009 20.971C20.8591 21.4632 20.8865 21.9925 20.7732 22.5218L20.2732 24.8441C20.2302 25.0472 20.2439 25.2464 20.3103 25.4203C20.3767 25.5941 20.4978 25.7523 20.6638 25.8734C20.8279 25.9945 21.0154 26.0628 21.201 26.0726C21.3826 26.0824 21.576 26.0355 21.7576 25.932L23.8865 24.7113C24.3552 24.4417 24.8689 24.307 25.3845 24.3089C25.9041 24.3089 26.4177 24.4476 26.8865 24.7191L28.9412 25.9125C29.1228 26.0179 29.3162 26.0648 29.5017 26.057C29.6853 26.0472 29.8728 25.9808 30.0408 25.8597C30.2088 25.7386 30.3298 25.5824 30.3963 25.4105C30.4627 25.2386 30.4783 25.0394 30.4353 24.8343L29.9314 22.432C29.8201 21.8968 29.8494 21.3695 30.0095 20.8832C30.1697 20.3949 30.4607 19.9496 30.8689 19.5824L32.6384 17.9965C32.7888 17.8598 32.8943 17.6937 32.9412 17.5141C32.99 17.3285 32.9861 17.1312 32.9236 16.9359C32.8611 16.7387 32.7498 16.5746 32.6052 16.4574C32.4627 16.3402 32.2791 16.2641 32.074 16.2426L29.6326 15.9789C29.0935 15.9203 28.5994 15.727 28.1794 15.4223C27.7595 15.1176 27.4255 14.7055 27.2048 14.2055L27.2087 14.2074Z" fill="white"/>
</svg>
