<svg width="51" height="51" viewBox="0 0 51 51" fill="none" xmlns="http://www.w3.org/2000/svg">
<g clip-path="url(#clip0_1039_668)">
<path d="M4.26875 40.8176H7.73637C8.01551 40.8176 8.27333 40.6687 8.41296 40.427C8.55244 40.1853 8.55244 39.8875 8.41296 39.6458C8.27331 39.4041 8.01549 39.2551 7.73637 39.2551H4.26875C3.98961 39.2551 3.73179 39.4041 3.59216 39.6458C3.45268 39.8875 3.45268 40.1853 3.59216 40.427C3.73181 40.6687 3.98963 40.8176 4.26875 40.8176Z" fill="white"/>
<path d="M47.015 0.989368C46.8807 0.745226 46.6835 0.541451 46.4435 0.399534C46.2038 0.257443 45.9302 0.182413 45.6516 0.182251H22.992C22.7848 0.182251 22.586 0.264609 22.4396 0.411093C22.2931 0.557576 22.2107 0.756309 22.2107 0.963509V29.4793H15.6665C14.6556 29.4793 13.7614 29.9406 12.9135 30.9121L10.07 34.4217C9.97092 34.5264 9.82948 34.5801 9.68593 34.5674L4.24343 34.5575H4.24196C3.96283 34.5571 3.70484 34.7059 3.56504 34.9474C3.42523 35.189 3.42491 35.4868 3.56423 35.7287C3.70355 35.9706 3.96136 36.1196 4.24048 36.12L9.65506 36.1296C10.2711 36.1548 10.8647 35.8958 11.2653 35.4273L14.1087 31.9181C14.6381 31.3119 15.1184 31.0419 15.6666 31.0419H24.2446C24.4881 31.0651 24.7203 31.1558 24.9153 31.3037C25.1103 31.4515 25.26 31.6509 25.3481 31.8792V37.9359C25.3016 38.3567 25.1071 38.7473 24.7991 39.0378C24.4913 39.3283 24.0901 39.5 23.6673 39.5222H23.6612C23.2739 39.5318 22.899 39.3846 22.6217 39.114C22.3221 38.801 22.1596 38.3814 22.1705 37.9481L22.1854 35.3759C22.1865 35.1687 22.1054 34.9695 21.9598 34.8222C21.8141 34.6749 21.6159 34.5914 21.4086 34.5901L18.6913 34.5741H18.6868C18.4806 34.5741 18.2827 34.6557 18.1363 34.801C17.99 34.9463 17.907 35.1438 17.9055 35.35L17.8907 37.5348C17.8889 37.7903 17.783 38.0341 17.5971 38.2095C17.4112 38.385 17.1617 38.477 16.9065 38.4639H14.7955C14.5164 38.4639 14.2584 38.6129 14.1189 38.8546C13.9793 39.0963 13.9793 39.3941 14.1189 39.6358C14.2584 39.8775 14.5164 40.0264 14.7955 40.0264H16.9065C17.5759 40.0413 18.2231 39.786 18.7023 39.3183C19.1813 38.8505 19.4519 38.2096 19.4532 37.5399L19.4628 36.141L20.6182 36.1479L20.608 37.9436C20.5948 38.7939 20.9229 39.614 21.5188 40.2206C21.8687 40.5684 22.3007 40.8225 22.7747 40.9594C22.7812 40.9854 22.7874 41.0118 22.7948 41.0375V41.0376C22.3876 41.2274 22.0431 41.5294 21.8013 41.9079C21.5595 42.2867 21.4306 42.7263 21.4296 43.1755V44.69V44.6899C21.4298 45.067 21.5204 45.4384 21.6942 45.773C21.3778 45.9509 21.1145 46.2097 20.9307 46.5227C20.747 46.8357 20.6497 47.1918 20.6484 47.5548V48.1232C20.6503 48.291 20.6731 48.4579 20.7159 48.6202H14.8876C14.5599 48.6202 14.3409 48.4379 13.9156 48.0579L10.5033 45.2125C10.1372 44.8911 9.66653 44.7138 9.17924 44.714H4.24174C3.96261 44.714 3.70478 44.8629 3.56516 45.1046C3.42567 45.3463 3.42567 45.6441 3.56516 45.8859C3.70481 46.1276 3.96262 46.2765 4.24174 46.2765H9.17924C9.29415 46.2778 9.40434 46.3221 9.48832 46.4005L12.7281 49.0934L12.8754 49.2239C13.379 49.6731 13.9496 50.1827 14.8876 50.1827H27.1822C27.7282 50.1821 28.2517 49.965 28.6379 49.5789C29.024 49.1927 29.2411 48.6692 29.2418 48.1232V47.5548C29.2398 47.387 29.217 47.22 29.1742 47.0577H29.2178H29.2177C29.8454 47.0571 30.4473 46.8074 30.8913 46.3635C31.3352 45.9195 31.5849 45.3176 31.5855 44.6899V43.1754V43.1755C31.5842 42.9565 31.5521 42.7389 31.4901 42.5287C31.898 42.3359 32.2427 42.0312 32.4844 41.6502C32.7261 41.2691 32.8547 40.8274 32.8553 40.3762V38.8955C32.8548 38.4251 32.7155 37.9655 32.4548 37.574C32.194 37.1827 31.8235 36.877 31.3897 36.6954C31.5188 36.4037 31.5855 36.0885 31.5855 35.7696V34.127C31.5848 33.5162 31.3418 32.9307 30.91 32.4988C30.4781 32.067 29.8926 31.824 29.2818 31.8233H26.9095C26.9092 31.8064 26.9089 31.7896 26.9074 31.7725C26.8094 30.5938 25.5152 29.4796 24.2442 29.4796H23.773V18.9329H45.6513C46.0256 18.9318 46.3871 18.7964 46.67 18.5512C46.9531 18.3061 47.1386 17.9676 47.193 17.5972C47.2473 17.2269 47.1671 16.8493 46.9666 16.533L42.5553 9.55595L46.9666 2.58262C47.1165 2.34564 47.2 2.07287 47.2084 1.79274C47.2169 1.51262 47.15 1.23545 47.0147 0.989828L47.015 0.989368ZM27.6796 47.556V48.1244C27.6791 48.3988 27.4569 48.621 27.1825 48.6215H22.7079C22.4335 48.621 22.2113 48.3988 22.2108 48.1244V47.556C22.2113 47.2816 22.4335 47.0595 22.7079 47.059H27.1825C27.4569 47.0594 27.6791 47.2816 27.6796 47.556ZM30.0233 44.6911C30.0232 44.9047 29.9382 45.1094 29.7872 45.2603C29.6363 45.4113 29.4315 45.4963 29.218 45.4965H23.7972H23.7973C23.5838 45.4961 23.379 45.4113 23.2282 45.2603C23.0771 45.1094 22.9922 44.9047 22.992 44.6911V43.1766V43.1768C22.9923 42.966 23.0753 42.7639 23.2231 42.6134C23.3708 42.4632 23.5716 42.377 23.7822 42.3729C24.1688 42.627 24.6211 42.7622 25.0836 42.762H29.9049C29.9817 42.8867 30.0227 43.0303 30.0234 43.1768L30.0233 44.6911ZM30.0233 34.1282V35.7708C30.023 35.9672 29.9449 36.1557 29.8059 36.2945C29.6671 36.4335 29.4786 36.5117 29.2821 36.512H26.9106V33.387H29.2821C29.4786 33.3873 29.6671 33.4654 29.8059 33.6044C29.9449 33.7433 30.023 33.9318 30.0233 34.1282ZM26.9018 38.0745H30.4713C30.6892 38.0748 30.898 38.1614 31.0521 38.3155C31.2063 38.4697 31.293 38.6787 31.2932 38.8966V40.3774C31.293 40.5953 31.2063 40.8043 31.0521 40.9584C30.898 41.1126 30.6892 41.1991 30.4713 41.1995H25.0838C24.8676 41.1995 24.6603 41.114 24.5069 40.9618C25.1479 40.773 25.718 40.3975 26.1446 39.8832C26.5711 39.3689 26.8347 38.7392 26.9018 38.0745L26.9018 38.0745ZM41.2351 8.72199C41.0775 8.97281 40.9939 9.26283 40.9939 9.55908C40.9939 9.85533 41.0775 10.1455 41.2351 10.3963L45.6518 17.3713H23.7734V1.74633L45.6463 1.74828L41.2351 8.72199Z" fill="white"/>
<path d="M29.3082 10.4914L32.3455 13.8872C32.5501 14.1148 32.8418 14.2447 33.1479 14.2447C33.4539 14.2447 33.7456 14.1148 33.9504 13.8872L37.1501 10.3106C37.6094 9.78648 37.8539 9.10827 37.8345 8.41165C37.8044 7.68948 37.5039 7.00507 36.9929 6.49415C36.4816 5.9834 35.7971 5.68327 35.0749 5.65348C34.3656 5.63867 33.6769 5.89339 33.1482 6.36652C32.6197 5.89307 31.9309 5.63819 31.2214 5.65348C30.4992 5.68343 29.8147 5.9834 29.3036 6.49432C28.7924 7.00523 28.4918 7.68948 28.4615 8.41165V8.41197C28.4582 8.89652 28.581 9.37356 28.8178 9.79643C28.9527 10.0469 29.1174 10.2803 29.3083 10.4914L29.3082 10.4914ZM31.2983 7.21452C31.7977 7.25326 32.2472 7.53207 32.5037 7.96223C32.6494 8.17464 32.8905 8.30175 33.1481 8.30175C33.4058 8.30175 33.6468 8.17463 33.7925 7.96223C34.0485 7.53157 34.4982 7.25261 34.9979 7.21452C35.3255 7.22689 35.6371 7.36019 35.8724 7.58839C36.1078 7.81674 36.2503 8.12401 36.2728 8.45118C36.2816 8.75001 36.1792 9.04151 35.9855 9.26905L33.1481 12.4406L30.4733 9.44989C30.3664 9.33302 30.2739 9.20347 30.1983 9.06431C30.0882 8.87844 30.0278 8.66717 30.0231 8.45118C30.0457 8.12403 30.1883 7.81689 30.4238 7.58856C30.6592 7.3602 30.9707 7.22706 31.2983 7.21452Z" fill="white"/>
</g>
<defs>
<clipPath id="clip0_1039_668">
<rect width="50" height="50" fill="white" transform="translate(0.335938 0.182251)"/>
</clipPath>
</defs>
</svg>
