<svg width="51" height="51" viewBox="0 0 51 51" fill="none" xmlns="http://www.w3.org/2000/svg">
<path d="M17.981 38.6823C17.8402 38.8237 17.7612 39.0153 17.7612 39.2148C17.7612 39.4143 17.8402 39.6058 17.981 39.7472C18.1243 39.8909 18.32 39.9703 18.523 39.9674C18.7261 39.9643 18.9191 39.879 19.0583 39.7311C19.1973 39.5831 19.2705 39.385 19.2609 39.1822C19.2521 38.9941 19.1737 38.8159 19.041 38.6822C18.8968 38.5488 18.7075 38.4745 18.5109 38.4745C18.3145 38.4745 18.1252 38.5488 17.981 38.6823Z" fill="white"/>
<path d="M16.3859 42.0656C16.5853 42.0671 16.7769 41.9884 16.9178 41.8475C17.0588 41.7065 17.1372 41.515 17.1359 41.3156C17.1346 41.117 17.0557 40.9267 16.916 40.7856C16.7718 40.6522 16.5825 40.5779 16.3859 40.5779C16.1895 40.5779 16.0002 40.6522 15.856 40.7856C15.7152 40.9271 15.6362 41.1186 15.6362 41.3182C15.6362 41.5177 15.7152 41.7091 15.856 41.8505C15.9982 41.9881 16.1882 42.0652 16.3859 42.0655L16.3859 42.0656Z" fill="white"/>
<path d="M41.836 18.7373C42.0354 18.7386 42.2268 18.66 42.3678 18.519C42.5087 18.3781 42.5873 18.1866 42.586 17.9873C42.5847 17.7887 42.5058 17.5984 42.366 17.4573C42.2218 17.3237 42.0325 17.2495 41.836 17.2495C41.6396 17.2495 41.4503 17.3237 41.3061 17.4573C41.1653 17.5987 41.0862 17.7901 41.0862 17.9897C41.0862 18.1892 41.1653 18.3808 41.3061 18.5222C41.4483 18.6597 41.6383 18.7367 41.836 18.7372L41.836 18.7373Z" fill="white"/>
<path d="M42.3692 20.6423C42.51 20.5008 42.5889 20.3094 42.5889 20.1099C42.5889 19.9102 42.51 19.7188 42.3692 19.5773C42.225 19.4437 42.0357 19.3697 41.8392 19.3697C41.6426 19.3697 41.4533 19.4437 41.3091 19.5773C41.1685 19.7188 41.0894 19.9102 41.0894 20.1099C41.0894 20.3094 41.1685 20.5008 41.3091 20.6423C41.451 20.7803 41.6411 20.8576 41.8392 20.8576C42.0371 20.8576 42.2272 20.7803 42.3692 20.6423Z" fill="white"/>
<path d="M41.3359 21.6823C41.1951 21.8237 41.1162 22.0153 41.1162 22.2148C41.1162 22.4143 41.1951 22.6057 41.3359 22.7472C41.477 22.8881 41.6683 22.9671 41.8677 22.9666C42.0671 22.9661 42.258 22.8863 42.3984 22.7447C42.5389 22.6031 42.617 22.4116 42.6159 22.2122C42.6081 22.01 42.5199 21.8193 42.3709 21.6822C42.2282 21.5558 42.0441 21.4858 41.8535 21.4858C41.6628 21.4858 41.4787 21.5558 41.3359 21.6823Z" fill="white"/>
<path d="M41.3359 23.8223C41.1951 23.9637 41.1162 24.1553 41.1162 24.3548C41.1162 24.5543 41.1951 24.7458 41.3359 24.8873C41.477 25.0281 41.6683 25.1071 41.8677 25.1066C42.0671 25.1061 42.258 25.0263 42.3984 24.8847C42.5389 24.7433 42.617 24.5516 42.6159 24.3522C42.6147 24.1536 42.5356 23.9634 42.396 23.8222C42.2518 23.6888 42.0625 23.6146 41.8659 23.6146C41.6694 23.6146 41.4802 23.6888 41.3359 23.8223Z" fill="white"/>
<path d="M41.3359 25.9423C41.1951 26.0839 41.1162 26.2753 41.1162 26.4748C41.1162 26.6744 41.1951 26.8659 41.3359 27.0073C41.477 27.1481 41.6683 27.2271 41.8677 27.2266C42.0671 27.2263 42.258 27.1463 42.3984 27.0049C42.5389 26.8633 42.617 26.6717 42.6159 26.4724C42.6147 26.2736 42.5356 26.0835 42.396 25.9422C42.2518 25.8088 42.0625 25.7346 41.8659 25.7346C41.6694 25.7346 41.4802 25.8088 41.3359 25.9423Z" fill="white"/>
<path d="M41.3359 28.0623C41.1951 28.2037 41.1162 28.3951 41.1162 28.5946C41.1162 28.7944 41.1951 28.9858 41.3359 29.1272C41.477 29.2681 41.6683 29.3471 41.8677 29.3466C42.0671 29.3461 42.258 29.2662 42.3984 29.1247C42.5389 28.9831 42.617 28.7916 42.6159 28.5922C42.6147 28.3936 42.5356 28.2034 42.396 28.0622C42.2518 27.9286 42.0625 27.8544 41.8659 27.8544C41.6694 27.8544 41.4802 27.9286 41.3359 28.0623Z" fill="white"/>
<path d="M41.3359 30.1823C41.1951 30.3237 41.1162 30.5153 41.1162 30.7148C41.1162 30.9143 41.1951 31.1057 41.3359 31.2472C41.477 31.3881 41.6683 31.4671 41.8677 31.4666C42.0671 31.4661 42.258 31.3863 42.3984 31.2447C42.5389 31.1031 42.617 30.9116 42.6159 30.7122C42.6081 30.51 42.5199 30.3193 42.3709 30.1822C42.2282 30.0558 42.0441 29.9858 41.8535 29.9858C41.6628 29.9858 41.4787 30.0558 41.3359 30.1823Z" fill="white"/>
<path d="M41.3359 32.3022C41.1951 32.4438 41.1162 32.6353 41.1162 32.8348C41.1162 33.0343 41.1951 33.2257 41.3359 33.3673C41.477 33.5081 41.6683 33.5871 41.8677 33.5866C42.0671 33.5861 42.258 33.5063 42.3984 33.3647C42.5389 33.2233 42.617 33.0316 42.6159 32.8324C42.6147 32.6336 42.5356 32.4434 42.396 32.3022C42.2518 32.1688 42.0625 32.0945 41.8659 32.0945C41.6694 32.0945 41.4802 32.1688 41.3359 32.3022Z" fill="white"/>
<path d="M41.3359 34.4273C41.1951 34.5689 41.1162 34.7603 41.1162 34.9598C41.1162 35.1594 41.1951 35.3508 41.3359 35.4924C41.477 35.6331 41.6683 35.7121 41.8677 35.7116C42.0671 35.7111 42.258 35.6313 42.3984 35.4897C42.5389 35.3483 42.617 35.1566 42.6159 34.9574C42.6147 34.7586 42.5356 34.5684 42.396 34.4272C42.2523 34.2926 42.0628 34.2178 41.8659 34.2178C41.6691 34.2178 41.4797 34.2927 41.3359 34.4273Z" fill="white"/>
<path d="M41.3359 36.5473C41.1951 36.6887 41.1162 36.8801 41.1162 37.0796C41.1162 37.2792 41.1951 37.4707 41.3359 37.6122C41.477 37.7531 41.6683 37.8319 41.8677 37.8316C42.0671 37.8311 42.258 37.7512 42.3984 37.6097C42.5389 37.4681 42.617 37.2766 42.6159 37.0772C42.6147 36.8786 42.5356 36.6884 42.396 36.5472C42.2518 36.4136 42.0625 36.3394 41.8659 36.3394C41.6694 36.3394 41.4802 36.4136 41.3359 36.5473Z" fill="white"/>
<path d="M41.3359 38.6822C41.1951 38.8237 41.1162 39.0153 41.1162 39.2148C41.1162 39.4143 41.1951 39.6057 41.3359 39.7472C41.481 39.8793 41.6719 39.9493 41.8679 39.9423C42.0638 39.9353 42.2492 39.8518 42.3844 39.7097C42.5195 39.5676 42.5937 39.3783 42.591 39.1822C42.582 38.9941 42.5037 38.8159 42.3709 38.6822C42.2282 38.5558 42.0441 38.4858 41.8535 38.4858C41.6628 38.4858 41.4787 38.5558 41.3359 38.6822Z" fill="white"/>
<path d="M41.3359 40.7873C41.1951 40.9287 41.1162 41.1203 41.1162 41.3198C41.1162 41.5194 41.1951 41.7108 41.3359 41.8522C41.477 41.9931 41.6683 42.0721 41.8677 42.0716C42.0671 42.0711 42.258 41.9913 42.3984 41.8497C42.5389 41.7083 42.617 41.5166 42.6159 41.3172C42.6147 41.1186 42.5356 40.9284 42.396 40.7872C42.2518 40.6538 42.0625 40.5796 41.8659 40.5796C41.6694 40.5796 41.4802 40.6538 41.3359 40.7873Z" fill="white"/>
<path d="M41.3359 42.9073C41.1951 43.0489 41.1162 43.2403 41.1162 43.4398C41.1162 43.6394 41.1951 43.8309 41.3359 43.9723C41.477 44.1131 41.6683 44.1921 41.8677 44.1916C42.0671 44.1913 42.258 44.1113 42.3984 43.9699C42.5389 43.8283 42.617 43.6367 42.6159 43.4374C42.6147 43.2386 42.5356 43.0484 42.396 42.9072C42.2518 42.7738 42.0625 42.6996 41.8659 42.6996C41.6694 42.6996 41.4802 42.7738 41.3359 42.9073Z" fill="white"/>
<path d="M39.716 18.7373C39.9147 18.7371 40.1053 18.658 40.2458 18.5174C40.3864 18.3768 40.4653 18.1862 40.4653 17.9873C40.4653 17.7885 40.3864 17.5979 40.246 17.4573C40.0557 17.2679 39.7788 17.1944 39.5199 17.2644C39.2608 17.3346 39.0586 17.5375 38.9897 17.797C38.9209 18.0564 38.9958 18.3329 39.1859 18.5222C39.3281 18.6598 39.5181 18.7367 39.716 18.7372L39.716 18.7373Z" fill="white"/>
<path d="M40.246 20.6422C40.3867 20.5008 40.4657 20.3094 40.4657 20.1099C40.4657 19.9102 40.3867 19.7188 40.246 19.5773C40.0557 19.388 39.7788 19.3145 39.5199 19.3846C39.2608 19.4546 39.0586 19.6576 38.9897 19.917C38.9209 20.1764 38.9958 20.453 39.1859 20.6422C39.3281 20.7798 39.5181 20.8568 39.716 20.8573C39.9139 20.8579 40.1043 20.7808 40.246 20.6422Z" fill="white"/>
<path d="M40.246 22.7623C40.3868 22.6207 40.4657 22.4292 40.4657 22.2297C40.4657 22.0302 40.3868 21.8386 40.246 21.6972C40.0557 21.5079 39.7788 21.4343 39.5199 21.5045C39.2608 21.5746 39.0586 21.7776 38.9898 22.037C38.9209 22.2964 38.9958 22.5728 39.1859 22.7623C39.3281 22.8996 39.5181 22.9768 39.716 22.9771C39.9139 22.9777 40.1044 22.9006 40.246 22.7623Z" fill="white"/>
<path d="M39.186 23.8223C39.0454 23.9637 38.9663 24.1553 38.9663 24.3548C38.9663 24.5543 39.0454 24.7458 39.186 24.8873C39.3283 25.0247 39.5182 25.1019 39.7162 25.1022C39.9149 25.102 40.1055 25.0231 40.246 24.8825C40.3866 24.7418 40.4655 24.5511 40.4655 24.3523C40.4655 24.1536 40.3866 23.9629 40.2461 23.8222C40.1019 23.6888 39.9126 23.6145 39.7162 23.6145C39.5195 23.6145 39.3303 23.6888 39.186 23.8222L39.186 23.8223Z" fill="white"/>
<path d="M39.186 25.9423C39.0454 26.0839 38.9663 26.2753 38.9663 26.4748C38.9663 26.6743 39.0454 26.8659 39.186 27.0073C39.3283 27.1449 39.5182 27.2219 39.7162 27.2223C39.9149 27.2222 40.1055 27.1431 40.246 27.0025C40.3866 26.8618 40.4655 26.6712 40.4655 26.4723C40.4655 26.2736 40.3866 26.083 40.2461 25.9422C40.1019 25.8087 39.9126 25.7345 39.7162 25.7345C39.5195 25.7345 39.3303 25.8087 39.186 25.9422L39.186 25.9423Z" fill="white"/>
<path d="M39.186 28.0623C39.0454 28.2037 38.9663 28.3951 38.9663 28.5946C38.9663 28.7943 39.0454 28.9857 39.186 29.1272C39.3283 29.2647 39.5182 29.3417 39.7162 29.3422C39.9149 29.342 40.1055 29.2629 40.246 29.1223C40.3866 28.9817 40.4655 28.7911 40.4655 28.5923C40.4655 28.3934 40.3866 28.2029 40.2461 28.0622C40.1019 27.9286 39.9126 27.8544 39.7162 27.8544C39.5195 27.8544 39.3303 27.9286 39.186 28.0622L39.186 28.0623Z" fill="white"/>
<path d="M39.186 30.1823C39.0454 30.3237 38.9663 30.5153 38.9663 30.7148C38.9663 30.9144 39.0454 31.1058 39.186 31.2472C39.3283 31.3847 39.5182 31.4619 39.7162 31.4622C39.9149 31.462 40.1055 31.3829 40.246 31.2423C40.3866 31.1019 40.4655 30.9111 40.4655 30.7124C40.4655 30.5136 40.3866 30.3229 40.2461 30.1822C40.1019 30.0488 39.9126 29.9745 39.7162 29.9745C39.5195 29.9745 39.3303 30.0488 39.186 30.1822L39.186 30.1823Z" fill="white"/>
<path d="M39.186 32.3023C39.0454 32.4439 38.9663 32.6353 38.9663 32.8348C38.9663 33.0344 39.0454 33.2258 39.186 33.3674C39.3283 33.5047 39.5182 33.5819 39.7162 33.5824C39.9149 33.5822 40.1055 33.5031 40.246 33.3625C40.3866 33.2219 40.4655 33.0311 40.4655 32.8324C40.4655 32.6336 40.3866 32.4429 40.2461 32.3022C40.1019 32.1688 39.9126 32.0945 39.7162 32.0945C39.5195 32.0945 39.3303 32.1688 39.186 32.3022L39.186 32.3023Z" fill="white"/>
<path d="M39.186 34.4273C39.0454 34.5689 38.9663 34.7603 38.9663 34.9598C38.9663 35.1593 39.0454 35.3508 39.186 35.4923C39.3283 35.6297 39.5182 35.7069 39.7162 35.7073C39.9149 35.7072 40.1055 35.6281 40.246 35.4875C40.3866 35.3468 40.4655 35.1561 40.4655 34.9573C40.4655 34.7586 40.3866 34.5679 40.2461 34.4272C40.1026 34.2926 39.9129 34.2177 39.7162 34.2177C39.5192 34.2177 39.3298 34.2926 39.186 34.4272L39.186 34.4273Z" fill="white"/>
<path d="M39.186 36.5472C39.0454 36.6887 38.9663 36.8801 38.9663 37.0796C38.9663 37.2792 39.0454 37.4707 39.186 37.6122C39.3283 37.7497 39.5182 37.8267 39.7162 37.8272C39.9149 37.827 40.1055 37.7479 40.246 37.6073C40.3866 37.4667 40.4655 37.2761 40.4655 37.0772C40.4655 36.8784 40.3866 36.6878 40.2461 36.5472C40.1019 36.4136 39.9126 36.3394 39.7162 36.3394C39.5195 36.3394 39.3303 36.4136 39.186 36.5472L39.186 36.5472Z" fill="white"/>
<path d="M39.186 38.6823C39.0454 38.8237 38.9663 39.0153 38.9663 39.2148C38.9663 39.4144 39.0454 39.6058 39.186 39.7472C39.3283 39.8847 39.5182 39.9619 39.7162 39.9622C39.9149 39.962 40.1055 39.8829 40.246 39.7423C40.3866 39.6019 40.4655 39.4111 40.4655 39.2124C40.4655 39.0136 40.3866 38.8229 40.2461 38.6822C40.1019 38.5488 39.9126 38.4745 39.7162 38.4745C39.5195 38.4745 39.3303 38.5488 39.186 38.6822L39.186 38.6823Z" fill="white"/>
<path d="M39.186 40.7873C39.0454 40.9287 38.9663 41.1203 38.9663 41.3198C38.9663 41.5193 39.0454 41.7108 39.186 41.8522C39.3283 41.9897 39.5182 42.0669 39.7162 42.0672C39.9149 42.067 40.1055 41.9879 40.246 41.8475C40.3866 41.7068 40.4655 41.5161 40.4655 41.3173C40.4655 41.1186 40.3866 40.9278 40.2461 40.7872C40.1019 40.6537 39.9126 40.5795 39.7162 40.5795C39.5195 40.5795 39.3303 40.6537 39.186 40.7872L39.186 40.7873Z" fill="white"/>
<path d="M39.186 42.9073C39.0454 43.0489 38.9663 43.2403 38.9663 43.4398C38.9663 43.6393 39.0454 43.8309 39.186 43.9723C39.3283 44.1099 39.5182 44.1869 39.7162 44.1873C39.9149 44.1872 40.1055 44.1081 40.246 43.9675C40.3866 43.8268 40.4655 43.6362 40.4655 43.4373C40.4655 43.2386 40.3866 43.048 40.2461 42.9072C40.1019 42.7737 39.9126 42.6995 39.7162 42.6995C39.5195 42.6995 39.3303 42.7737 39.186 42.9072L39.186 42.9073Z" fill="white"/>
<path d="M37.5959 18.7373C37.7953 18.7386 37.9868 18.66 38.1278 18.519C38.2687 18.3781 38.3474 18.1866 38.3459 17.9873C38.3447 17.7887 38.2658 17.5984 38.126 17.4573C37.9818 17.3237 37.7925 17.2495 37.5959 17.2495C37.3994 17.2495 37.2101 17.3237 37.0659 17.4573C36.9251 17.5987 36.8462 17.7901 36.8462 17.9897C36.8462 18.1892 36.9251 18.3808 37.0659 18.5222C37.2082 18.6597 37.3981 18.7367 37.5959 18.7372L37.5959 18.7373Z" fill="white"/>
<path d="M38.126 20.6423C38.2668 20.5008 38.3457 20.3094 38.3457 20.1099C38.3457 19.9102 38.2668 19.7188 38.126 19.5773C37.9818 19.4437 37.7925 19.3697 37.5959 19.3697C37.3994 19.3697 37.2101 19.4437 37.0659 19.5773C36.9251 19.7188 36.8462 19.9102 36.8462 20.1099C36.8462 20.3094 36.9251 20.5008 37.0659 20.6423C37.2078 20.7803 37.3979 20.8576 37.5959 20.8576C37.794 20.8576 37.9841 20.7803 38.126 20.6423Z" fill="white"/>
<path d="M38.126 22.7623C38.2668 22.6207 38.3457 22.4293 38.3457 22.2297C38.3457 22.0302 38.2668 21.8386 38.126 21.6972C37.9818 21.5637 37.7925 21.4895 37.5959 21.4895C37.3994 21.4895 37.2101 21.5637 37.0659 21.6972C36.9251 21.8386 36.8462 22.0302 36.8462 22.2297C36.8462 22.4293 36.9251 22.6207 37.0659 22.7623C37.2078 22.9003 37.3979 22.9774 37.5959 22.9774C37.794 22.9774 37.9841 22.9003 38.126 22.7623Z" fill="white"/>
<path d="M38.126 24.8873C38.2668 24.7457 38.3457 24.5543 38.3457 24.3547C38.3457 24.1552 38.2668 23.9636 38.126 23.8222C37.9818 23.6887 37.7925 23.6145 37.5959 23.6145C37.3994 23.6145 37.2101 23.6887 37.0659 23.8222C36.9251 23.9636 36.8462 24.1552 36.8462 24.3547C36.8462 24.5543 36.9251 24.7457 37.0659 24.8873C37.2078 25.0253 37.3979 25.1024 37.5959 25.1024C37.794 25.1024 37.9841 25.0253 38.126 24.8873Z" fill="white"/>
<path d="M37.0659 25.9423C36.9251 26.0839 36.8462 26.2753 36.8462 26.4748C36.8462 26.6744 36.9251 26.8659 37.0659 27.0073C37.2077 27.1436 37.3971 27.2189 37.5938 27.2168C37.7904 27.2147 37.9784 27.1356 38.1172 26.9964C38.2558 26.8571 38.3345 26.669 38.3359 26.4724C38.3346 26.2736 38.2557 26.0835 38.1159 25.9422C37.9723 25.8115 37.7851 25.7391 37.591 25.7391C37.3968 25.7391 37.2094 25.8115 37.0659 25.9422L37.0659 25.9423Z" fill="white"/>
<path d="M37.0659 28.0623C36.9251 28.2037 36.8462 28.3951 36.8462 28.5946C36.8462 28.7943 36.9251 28.9857 37.0659 29.1272C37.2077 29.2636 37.3971 29.3388 37.5938 29.3366C37.7904 29.3347 37.9784 29.2554 38.1172 29.1163C38.2558 28.9769 38.3345 28.7888 38.3359 28.5922C38.3346 28.3936 38.2557 28.2034 38.1159 28.0622C37.9723 27.9315 37.7851 27.8591 37.591 27.8591C37.3968 27.8591 37.2094 27.9315 37.0659 28.0622L37.0659 28.0623Z" fill="white"/>
<path d="M37.0659 30.1823C36.9251 30.3237 36.8462 30.5153 36.8462 30.7148C36.8462 30.9143 36.9251 31.1058 37.0659 31.2472C37.2077 31.3836 37.3971 31.4588 37.5938 31.4568C37.7904 31.4547 37.9784 31.3756 38.1172 31.2363C38.2558 31.0971 38.3345 30.9088 38.3359 30.7122C38.3374 30.5151 38.262 30.325 38.126 30.1822C37.9817 30.0488 37.7925 29.9745 37.5958 29.9745C37.3994 29.9745 37.2101 30.0488 37.0659 30.1822L37.0659 30.1823Z" fill="white"/>
<path d="M37.0659 32.3023C36.9251 32.4439 36.8462 32.6353 36.8462 32.8348C36.8462 33.0344 36.9251 33.2258 37.0659 33.3674C37.2077 33.5036 37.3971 33.5788 37.5938 33.5768C37.7904 33.5747 37.9784 33.4956 38.1172 33.3563C38.2558 33.2171 38.3345 33.029 38.3359 32.8324C38.3346 32.6336 38.2557 32.4434 38.1159 32.3022C37.9723 32.1716 37.7851 32.0991 37.591 32.0991C37.3968 32.0991 37.2094 32.1716 37.0659 32.3022L37.0659 32.3023Z" fill="white"/>
<path d="M37.5959 35.7073C37.7953 35.7086 37.9868 35.6299 38.1278 35.489C38.2687 35.348 38.3474 35.1565 38.3459 34.9572C38.3447 34.7585 38.2658 34.5683 38.126 34.4271C37.9823 34.2925 37.7928 34.2177 37.5959 34.2177C37.3991 34.2177 37.2096 34.2925 37.0659 34.4271C36.9251 34.5687 36.8462 34.7601 36.8462 34.9597C36.8462 35.1592 36.9251 35.3506 37.0659 35.4922C37.2082 35.6296 37.3981 35.7067 37.5959 35.7072L37.5959 35.7073Z" fill="white"/>
<path d="M37.0659 36.5473C36.9251 36.6887 36.8462 36.8801 36.8462 37.0796C36.8462 37.2792 36.9251 37.4708 37.0659 37.6122C37.2077 37.7486 37.3971 37.8238 37.5938 37.8217C37.7904 37.8197 37.9784 37.7404 38.1172 37.6013C38.2558 37.462 38.3345 37.2738 38.3359 37.0772C38.3346 36.8786 38.2557 36.6884 38.1159 36.5472C37.9723 36.4165 37.7851 36.3441 37.591 36.3441C37.3968 36.3441 37.2094 36.4165 37.0659 36.5472L37.0659 36.5473Z" fill="white"/>
<path d="M37.5959 39.9473C37.7963 39.946 37.9875 39.8643 38.1267 39.7202C38.266 39.5763 38.3413 39.3825 38.336 39.1823C38.3298 38.9954 38.2551 38.8174 38.126 38.6823C37.9818 38.5488 37.7925 38.4746 37.5959 38.4746C37.3994 38.4746 37.2101 38.5488 37.0659 38.6823C36.9251 38.8237 36.8462 39.0153 36.8462 39.2148C36.8462 39.4144 36.9251 39.6058 37.0659 39.7472C37.2105 39.8794 37.4003 39.9508 37.5959 39.9473Z" fill="white"/>
<path d="M37.0659 40.7873C36.9251 40.9287 36.8462 41.1203 36.8462 41.3198C36.8462 41.5194 36.9251 41.7108 37.0659 41.8522C37.2077 41.9886 37.3971 42.0638 37.5938 42.0618C37.7904 42.0597 37.9784 41.9806 38.1172 41.8413C38.2558 41.7021 38.3345 41.5138 38.3359 41.3172C38.3346 41.1186 38.2557 40.9284 38.1159 40.7872C37.9723 40.6565 37.7851 40.5841 37.591 40.5841C37.3968 40.5841 37.2094 40.6565 37.0659 40.7872L37.0659 40.7873Z" fill="white"/>
<path d="M37.0659 42.9073C36.9251 43.0489 36.8462 43.2403 36.8462 43.4398C36.8462 43.6393 36.9251 43.8309 37.0659 43.9723C37.2077 44.1086 37.3971 44.1839 37.5938 44.1818C37.7904 44.1797 37.9784 44.1006 38.1172 43.9613C38.2558 43.8221 38.3345 43.634 38.3359 43.4374C38.3346 43.2386 38.2557 43.0484 38.1159 42.9072C37.9723 42.7765 37.7851 42.7041 37.591 42.7041C37.3968 42.7041 37.2094 42.7765 37.0659 42.9072L37.0659 42.9073Z" fill="white"/>
<path d="M35.476 18.7373C35.6754 18.7386 35.8669 18.66 36.0079 18.519C36.1489 18.3781 36.2273 18.1866 36.226 17.9873C36.2247 17.7887 36.1458 17.5984 36.006 17.4573C35.8619 17.3237 35.6726 17.2495 35.476 17.2495C35.2796 17.2495 35.0903 17.3237 34.946 17.4573C34.8053 17.5987 34.7263 17.7901 34.7263 17.9897C34.7263 18.1892 34.8053 18.3808 34.946 18.5222C35.0883 18.6597 35.2782 18.7367 35.476 18.7372L35.476 18.7373Z" fill="white"/>
<path d="M36.006 20.6423C36.1467 20.5008 36.2258 20.3094 36.2258 20.1099C36.2258 19.9102 36.1467 19.7188 36.006 19.5773C35.8619 19.4437 35.6726 19.3697 35.476 19.3697C35.2796 19.3697 35.0903 19.4437 34.946 19.5773C34.8053 19.7188 34.7263 19.9102 34.7263 20.1099C34.7263 20.3094 34.8053 20.5008 34.946 20.6423C35.088 20.7803 35.2781 20.8576 35.476 20.8576C35.6739 20.8576 35.8642 20.7803 36.006 20.6423Z" fill="white"/>
<path d="M36.006 22.7623C36.1467 22.6207 36.2258 22.4293 36.2258 22.2297C36.2258 22.0302 36.1467 21.8386 36.006 21.6972C35.8619 21.5637 35.6726 21.4895 35.476 21.4895C35.2796 21.4895 35.0903 21.5637 34.946 21.6972C34.8053 21.8386 34.7263 22.0302 34.7263 22.2297C34.7263 22.4293 34.8053 22.6207 34.946 22.7623C35.088 22.9003 35.2781 22.9774 35.476 22.9774C35.6739 22.9774 35.8642 22.9003 36.006 22.7623Z" fill="white"/>
<path d="M36.006 24.8873C36.1467 24.7457 36.2258 24.5543 36.2258 24.3547C36.2258 24.1552 36.1467 23.9636 36.006 23.8222C35.8619 23.6887 35.6726 23.6145 35.476 23.6145C35.2796 23.6145 35.0903 23.6887 34.946 23.8222C34.8053 23.9636 34.7263 24.1552 34.7263 24.3547C34.7263 24.5543 34.8053 24.7457 34.946 24.8873C35.088 25.0253 35.2781 25.1024 35.476 25.1024C35.6739 25.1024 35.8642 25.0253 36.006 24.8873Z" fill="white"/>
<path d="M35.476 27.2223C35.6754 27.2236 35.8669 27.1449 36.0079 27.004C36.1489 26.863 36.2273 26.6715 36.226 26.4722C36.2247 26.2735 36.1458 26.0834 36.006 25.9421C35.8619 25.8087 35.6726 25.7344 35.476 25.7344C35.2796 25.7344 35.0903 25.8087 34.946 25.9421C34.8053 26.0837 34.7263 26.2751 34.7263 26.4747C34.7263 26.6742 34.8053 26.8658 34.946 27.0072C35.0883 27.1447 35.2782 27.2217 35.476 27.2222L35.476 27.2223Z" fill="white"/>
<path d="M36.006 29.1273C36.1467 28.9858 36.2258 28.7944 36.2258 28.5947C36.2258 28.3952 36.1467 28.2038 36.006 28.0623C35.8619 27.9287 35.6726 27.8545 35.476 27.8545C35.2796 27.8545 35.0903 27.9287 34.946 28.0623C34.8053 28.2038 34.7263 28.3952 34.7263 28.5947C34.7263 28.7944 34.8053 28.9858 34.946 29.1273C35.088 29.2653 35.2781 29.3426 35.476 29.3426C35.6739 29.3426 35.8642 29.2653 36.006 29.1273Z" fill="white"/>
<path d="M35.476 31.4623C35.6754 31.4637 35.8669 31.3851 36.0079 31.2442C36.1489 31.1032 36.2273 30.9116 36.226 30.7123C36.2247 30.5137 36.1458 30.3234 36.006 30.1823C35.8619 30.0488 35.6726 29.9746 35.476 29.9746C35.2796 29.9746 35.0903 30.0488 34.946 30.1823C34.8053 30.3237 34.7263 30.5153 34.7263 30.7148C34.7263 30.9144 34.8053 31.1058 34.946 31.2472C35.0883 31.3847 35.2782 31.4619 35.476 31.4622L35.476 31.4623Z" fill="white"/>
<path d="M35.476 33.5823C35.6754 33.5836 35.8669 33.505 36.0079 33.364C36.1489 33.2231 36.2273 33.0315 36.226 32.8323C36.2247 32.6335 36.1458 32.4433 36.006 32.3021C35.8619 32.1687 35.6726 32.0945 35.476 32.0945C35.2796 32.0945 35.0903 32.1687 34.946 32.3021C34.8053 32.4437 34.7263 32.6351 34.7263 32.8347C34.7263 33.0342 34.8053 33.2256 34.946 33.3672C35.0883 33.5046 35.2782 33.5817 35.476 33.5822L35.476 33.5823Z" fill="white"/>
<path d="M35.476 35.7073C35.6754 35.7086 35.8669 35.6299 36.0079 35.489C36.1489 35.348 36.2273 35.1565 36.226 34.9572C36.2247 34.7585 36.1458 34.5683 36.006 34.4271C35.8624 34.2925 35.673 34.2177 35.476 34.2177C35.2792 34.2177 35.0896 34.2925 34.946 34.4271C34.8053 34.5687 34.7263 34.7601 34.7263 34.9597C34.7263 35.1592 34.8053 35.3506 34.946 35.4922C35.0883 35.6296 35.2782 35.7067 35.476 35.7072L35.476 35.7073Z" fill="white"/>
<path d="M34.946 36.5473C34.8053 36.6887 34.7263 36.8801 34.7263 37.0796C34.7263 37.2792 34.8053 37.4707 34.946 37.6122C35.087 37.7531 35.2784 37.8319 35.4778 37.8316C35.6772 37.8311 35.8681 37.7512 36.0085 37.6097C36.1488 37.4681 36.2271 37.2766 36.226 37.0772C36.2247 36.8786 36.1458 36.6884 36.0059 36.5472C35.8619 36.4136 35.6726 36.3394 35.476 36.3394C35.2795 36.3394 35.0903 36.4136 34.946 36.5473Z" fill="white"/>
<path d="M35.476 39.9473C35.6754 39.9486 35.8669 39.8701 36.0079 39.7292C36.1489 39.5882 36.2273 39.3966 36.226 39.1973C36.221 39.0039 36.1422 38.8196 36.006 38.6823C35.8619 38.5488 35.6726 38.4746 35.476 38.4746C35.2796 38.4746 35.0903 38.5488 34.946 38.6823C34.8053 38.8237 34.7263 39.0153 34.7263 39.2148C34.7263 39.4144 34.8053 39.6058 34.946 39.7472C35.0906 39.8794 35.2802 39.9508 35.476 39.9473Z" fill="white"/>
<path d="M35.476 42.0656C35.6754 42.0671 35.8669 41.9884 36.0079 41.8475C36.1489 41.7065 36.2273 41.515 36.226 41.3156C36.2247 41.117 36.1458 40.9267 36.006 40.7856C35.8619 40.6522 35.6726 40.5779 35.476 40.5779C35.2796 40.5779 35.0903 40.6522 34.946 40.7856C34.8053 40.9271 34.7263 41.1186 34.7263 41.3182C34.7263 41.5177 34.8053 41.7091 34.946 41.8505C35.0883 41.9881 35.2782 42.0652 35.476 42.0655L35.476 42.0656Z" fill="white"/>
<path d="M34.946 42.9073C34.8053 43.0489 34.7263 43.2403 34.7263 43.4398C34.7263 43.6394 34.8053 43.8309 34.946 43.9723C35.087 44.1131 35.2784 44.1921 35.4778 44.1916C35.6772 44.1913 35.8681 44.1113 36.0085 43.9699C36.1488 43.8283 36.2271 43.6367 36.226 43.4374C36.2247 43.2386 36.1458 43.0484 36.0059 42.9072C35.8619 42.7738 35.6726 42.6996 35.476 42.6996C35.2795 42.6996 35.0903 42.7738 34.946 42.9073Z" fill="white"/>
<path d="M33.336 18.7373C33.5354 18.7386 33.7268 18.66 33.8678 18.519C34.0087 18.3781 34.0873 18.1866 34.086 17.9873C34.0847 17.7887 34.0058 17.5984 33.866 17.4573C33.7218 17.3237 33.5325 17.2495 33.336 17.2495C33.1396 17.2495 32.9503 17.3237 32.8061 17.4573C32.6653 17.5987 32.5862 17.7901 32.5862 17.9897C32.5862 18.1892 32.6653 18.3808 32.8061 18.5222C32.9483 18.6597 33.1383 18.7367 33.336 18.7372L33.336 18.7373Z" fill="white"/>
<path d="M33.886 20.6423C34.0268 20.5008 34.1057 20.3094 34.1057 20.1099C34.1057 19.9102 34.0268 19.7188 33.886 19.5773C33.7418 19.4437 33.5525 19.3697 33.356 19.3697C33.1594 19.3697 32.9701 19.4437 32.8261 19.5773C32.6853 19.7188 32.6062 19.9102 32.6062 20.1099C32.6062 20.3094 32.6853 20.5008 32.8261 20.6423C32.9679 20.7803 33.1581 20.8576 33.356 20.8576C33.554 20.8576 33.7441 20.7803 33.886 20.6423Z" fill="white"/>
<path d="M33.8859 22.7623C34.0267 22.6207 34.1056 22.4292 34.1056 22.2297C34.1056 22.0302 34.0267 21.8386 33.8859 21.6972C33.7441 21.5644 33.5581 21.4893 33.3638 21.4866C33.1696 21.4838 32.9814 21.5535 32.8359 21.6822C32.6951 21.8236 32.6162 22.0152 32.6162 22.2147C32.6162 22.4143 32.6951 22.6057 32.8359 22.7471C32.9779 22.8853 33.168 22.9624 33.3659 22.9624C33.564 22.9624 33.7541 22.8853 33.896 22.7471L33.8859 22.7623Z" fill="white"/>
<path d="M33.336 25.1023C33.5354 25.1037 33.7268 25.0251 33.8678 24.8842C34.0087 24.7432 34.0873 24.5516 34.086 24.3522C34.0847 24.1537 34.0058 23.9634 33.866 23.8223C33.7218 23.6888 33.5325 23.6146 33.336 23.6146C33.1396 23.6146 32.9503 23.6888 32.8061 23.8223C32.6653 23.9637 32.5862 24.1553 32.5862 24.3548C32.5862 24.5544 32.6653 24.7458 32.8061 24.8874C32.9483 25.0247 33.1383 25.1019 33.336 25.1022L33.336 25.1023Z" fill="white"/>
<path d="M33.886 27.0073C34.0268 26.8658 34.1057 26.6743 34.1057 26.4747C34.1057 26.2752 34.0268 26.0838 33.886 25.9422C33.7418 25.8087 33.5525 25.7345 33.356 25.7345C33.1594 25.7345 32.9701 25.8087 32.8261 25.9422C32.6853 26.0838 32.6062 26.2752 32.6062 26.4747C32.6062 26.6743 32.6853 26.8658 32.8261 27.0073C32.9679 27.1453 33.1581 27.2226 33.356 27.2226C33.554 27.2226 33.7441 27.1453 33.886 27.0073Z" fill="white"/>
<path d="M33.886 29.1273C34.0268 28.9858 34.1057 28.7944 34.1057 28.5947C34.1057 28.3952 34.0268 28.2038 33.886 28.0623C33.7418 27.9287 33.5525 27.8545 33.356 27.8545C33.1594 27.8545 32.9701 27.9287 32.8261 28.0623C32.6853 28.2038 32.6062 28.3952 32.6062 28.5947C32.6062 28.7944 32.6853 28.9858 32.8261 29.1273C32.9679 29.2653 33.1581 29.3426 33.356 29.3426C33.554 29.3426 33.7441 29.2653 33.886 29.1273Z" fill="white"/>
<path d="M33.336 31.4623C33.5353 31.4637 33.7267 31.3851 33.8677 31.2442C34.0087 31.1032 34.0873 30.9116 34.086 30.7122C34.09 30.5164 34.0184 30.3267 33.8859 30.1823C33.7424 30.0516 33.5552 29.9792 33.361 29.9792C33.1668 29.9792 32.9795 30.0516 32.8359 30.1823C32.6952 30.3237 32.6162 30.5153 32.6162 30.7148C32.6162 30.9144 32.6952 31.1058 32.8359 31.2472C32.9705 31.3777 33.1486 31.4542 33.3359 31.4622L33.336 31.4623Z" fill="white"/>
<path d="M33.336 33.5823C33.5354 33.5836 33.7268 33.505 33.8678 33.364C34.0087 33.2231 34.0873 33.0315 34.086 32.8323C34.0847 32.6335 34.0058 32.4433 33.866 32.3021C33.7218 32.1687 33.5325 32.0945 33.336 32.0945C33.1396 32.0945 32.9503 32.1687 32.8061 32.3021C32.6653 32.4437 32.5862 32.6351 32.5862 32.8347C32.5862 33.0342 32.6653 33.2256 32.8061 33.3672C32.9483 33.5046 33.1383 33.5817 33.336 33.5822L33.336 33.5823Z" fill="white"/>
<path d="M33.336 35.7073C33.5354 35.7086 33.7268 35.6299 33.8678 35.489C34.0087 35.348 34.0873 35.1565 34.086 34.9572C34.0847 34.7585 34.0058 34.5683 33.866 34.4271C33.7224 34.2925 33.533 34.2177 33.336 34.2177C33.1391 34.2177 32.9496 34.2925 32.8061 34.4271C32.6653 34.5687 32.5862 34.7601 32.5862 34.9597C32.5862 35.1592 32.6653 35.3506 32.8061 35.4922C32.9483 35.6296 33.1383 35.7067 33.336 35.7072L33.336 35.7073Z" fill="white"/>
<path d="M32.8359 36.5473C32.6951 36.6887 32.6162 36.8801 32.6162 37.0796C32.6162 37.2792 32.6951 37.4707 32.8359 37.6122C32.977 37.7531 33.1683 37.8319 33.3677 37.8316C33.5671 37.8311 33.758 37.7512 33.8984 37.6097C34.0389 37.4681 34.117 37.2766 34.1159 37.0772C34.1147 36.8786 34.0356 36.6884 33.896 36.5472C33.7518 36.4136 33.5625 36.3394 33.3659 36.3394C33.1694 36.3394 32.9802 36.4136 32.8359 36.5473Z" fill="white"/>
<path d="M33.336 39.9473C33.5353 39.9486 33.7267 39.8701 33.8677 39.7292C34.0087 39.5882 34.0873 39.3966 34.086 39.1972C34.0863 39.0066 34.0148 38.8227 33.8859 38.6823C33.7424 38.5516 33.5552 38.4792 33.361 38.4792C33.1668 38.4792 32.9795 38.5516 32.8359 38.6823C32.6952 38.8237 32.6162 39.0153 32.6162 39.2148C32.6162 39.4144 32.6952 39.6058 32.8359 39.7472C32.9728 39.8724 33.1506 39.9433 33.336 39.9473Z" fill="white"/>
<path d="M32.8359 40.7873C32.6951 40.9287 32.6162 41.1203 32.6162 41.3198C32.6162 41.5194 32.6951 41.7108 32.8359 41.8522C32.977 41.9931 33.1683 42.0721 33.3677 42.0716C33.5671 42.0711 33.758 41.9913 33.8984 41.8497C34.0389 41.7083 34.117 41.5166 34.1159 41.3172C34.1147 41.1186 34.0356 40.9284 33.896 40.7872C33.7518 40.6538 33.5625 40.5796 33.3659 40.5796C33.1694 40.5796 32.9802 40.6538 32.8359 40.7873Z" fill="white"/>
<path d="M31.2359 18.7373C31.4351 18.7386 31.6267 18.66 31.7677 18.519C31.9086 18.3781 31.9872 18.1866 31.9859 17.9873C31.9846 17.7887 31.9057 17.5984 31.7659 17.4573C31.6217 17.3237 31.4324 17.2495 31.2359 17.2495C31.0393 17.2495 30.85 17.3237 30.7058 17.4573C30.565 17.5987 30.4861 17.7901 30.4861 17.9897C30.4861 18.1892 30.565 18.3808 30.7058 18.5222C30.8481 18.6597 31.038 18.7367 31.2359 18.7372L31.2359 18.7373Z" fill="white"/>
<path d="M31.7659 20.6423C31.9067 20.5008 31.9856 20.3094 31.9856 20.1099C31.9856 19.9102 31.9067 19.7188 31.7659 19.5773C31.6217 19.4437 31.4324 19.3697 31.2359 19.3697C31.0393 19.3697 30.85 19.4437 30.7058 19.5773C30.565 19.7188 30.4861 19.9102 30.4861 20.1099C30.4861 20.3094 30.565 20.5008 30.7058 20.6423C30.8477 20.7803 31.0378 20.8576 31.2359 20.8576C31.4339 20.8576 31.624 20.7803 31.7659 20.6423Z" fill="white"/>
<path d="M31.2359 22.9773C31.4351 22.9787 31.6267 22.9001 31.7677 22.7592C31.9086 22.6182 31.9872 22.4266 31.9859 22.2272C31.9885 22.0235 31.9093 21.8272 31.7659 21.6823C31.6217 21.5489 31.4324 21.4746 31.2359 21.4746C31.0393 21.4746 30.85 21.5489 30.7058 21.6823C30.565 21.8238 30.4861 22.0153 30.4861 22.2149C30.4861 22.4144 30.565 22.6058 30.7058 22.7472C30.8456 22.8903 31.0359 22.9729 31.2359 22.9773Z" fill="white"/>
<path d="M31.7659 24.8873C31.9067 24.7457 31.9856 24.5543 31.9856 24.3547C31.9856 24.1552 31.9067 23.9636 31.7659 23.8222C31.6217 23.6887 31.4324 23.6145 31.2359 23.6145C31.0393 23.6145 30.85 23.6887 30.7058 23.8222C30.565 23.9636 30.4861 24.1552 30.4861 24.3547C30.4861 24.5543 30.565 24.7457 30.7058 24.8873C30.8477 25.0253 31.0378 25.1024 31.2359 25.1024C31.4339 25.1024 31.624 25.0253 31.7659 24.8873Z" fill="white"/>
<path d="M31.7659 27.0073C31.9067 26.8658 31.9856 26.6743 31.9856 26.4747C31.9856 26.2752 31.9067 26.0838 31.7659 25.9422C31.6217 25.8087 31.4324 25.7345 31.2359 25.7345C31.0393 25.7345 30.85 25.8087 30.7058 25.9422C30.565 26.0838 30.4861 26.2752 30.4861 26.4747C30.4861 26.6743 30.565 26.8658 30.7058 27.0073C30.8477 27.1453 31.0378 27.2226 31.2359 27.2226C31.4339 27.2226 31.624 27.1453 31.7659 27.0073Z" fill="white"/>
<path d="M31.2359 29.3422C31.4351 29.3436 31.6267 29.2649 31.7677 29.124C31.9086 28.9832 31.9872 28.7916 31.9859 28.5922C31.9846 28.3937 31.9057 28.2034 31.7659 28.0623C31.6217 27.9287 31.4324 27.8544 31.2359 27.8544C31.0393 27.8544 30.85 27.9286 30.7058 28.0623C30.565 28.2037 30.4861 28.3951 30.4861 28.5947C30.4861 28.7944 30.565 28.9858 30.7058 29.1272C30.8481 29.2647 31.038 29.3417 31.2359 29.3422L31.2359 29.3422Z" fill="white"/>
<path d="M31.2359 31.4623C31.4351 31.4637 31.6267 31.3851 31.7677 31.2442C31.9086 31.1032 31.9872 30.9116 31.9859 30.7123C31.9846 30.5137 31.9057 30.3234 31.7659 30.1823C31.6217 30.0488 31.4324 29.9746 31.2359 29.9746C31.0393 29.9746 30.85 30.0488 30.7058 30.1823C30.565 30.3237 30.4861 30.5153 30.4861 30.7148C30.4861 30.9144 30.565 31.1058 30.7058 31.2472C30.8481 31.3847 31.038 31.4619 31.2359 31.4622L31.2359 31.4623Z" fill="white"/>
<path d="M31.2359 33.5823C31.4351 33.5836 31.6267 33.505 31.7677 33.364C31.9086 33.2231 31.9872 33.0315 31.9859 32.8323C31.9846 32.6335 31.9057 32.4433 31.7659 32.3021C31.6217 32.1687 31.4324 32.0945 31.2359 32.0945C31.0393 32.0945 30.85 32.1687 30.7058 32.3021C30.565 32.4437 30.4861 32.6351 30.4861 32.8347C30.4861 33.0342 30.565 33.2256 30.7058 33.3672C30.8481 33.5046 31.038 33.5817 31.2359 33.5822L31.2359 33.5823Z" fill="white"/>
<path d="M31.2359 35.7073C31.4351 35.7086 31.6267 35.6299 31.7677 35.489C31.9086 35.348 31.9872 35.1565 31.9859 34.9572C31.9846 34.7585 31.9057 34.5683 31.7659 34.4271C31.6222 34.2925 31.4327 34.2177 31.2359 34.2177C31.039 34.2177 30.8495 34.2925 30.7058 34.4271C30.565 34.5687 30.4861 34.7601 30.4861 34.9597C30.4861 35.1592 30.565 35.3506 30.7058 35.4922C30.8481 35.6296 31.038 35.7067 31.2359 35.7072L31.2359 35.7073Z" fill="white"/>
<path d="M31.2359 37.8273C31.4351 37.8286 31.6267 37.75 31.7677 37.609C31.9086 37.4681 31.9872 37.2766 31.9859 37.0773C31.9846 36.8787 31.9057 36.6884 31.7659 36.5473C31.6217 36.4137 31.4324 36.3394 31.2359 36.3394C31.0393 36.3394 30.85 36.4137 30.7058 36.5473C30.565 36.6887 30.4861 36.8801 30.4861 37.0797C30.4861 37.2792 30.565 37.4708 30.7058 37.6122C30.8481 37.7497 31.038 37.8267 31.2359 37.8272L31.2359 37.8273Z" fill="white"/>
<path d="M31.7659 39.7323C31.9067 39.5908 31.9856 39.3994 31.9856 39.1999C31.9856 39.0002 31.9067 38.8088 31.7659 38.6673C31.6217 38.5337 31.4324 38.4597 31.2359 38.4597C31.0393 38.4597 30.85 38.5337 30.7058 38.6673C30.565 38.8088 30.4861 39.0002 30.4861 39.1999C30.4861 39.3994 30.565 39.5908 30.7058 39.7323C30.8477 39.8703 31.0378 39.9476 31.2359 39.9476C31.4339 39.9476 31.624 39.8703 31.7659 39.7323Z" fill="white"/>
<path d="M29.1159 25.1023C29.3036 25.0953 29.4818 25.0186 29.6159 24.8874C29.7591 24.7471 29.8399 24.5552 29.8399 24.3549C29.8399 24.1545 29.7591 23.9625 29.6159 23.8224C29.4369 23.6435 29.1797 23.567 28.932 23.6189C28.6843 23.671 28.4794 23.8443 28.3873 24.0802C28.2953 24.3158 28.3283 24.5821 28.4751 24.7883C28.6221 24.9944 28.863 25.1125 29.1159 25.1023Z" fill="white"/>
<path d="M29.6409 27.0073C29.7842 26.8671 29.8649 26.6751 29.8649 26.4747C29.8649 26.2744 29.7842 26.0825 29.6409 25.9422C29.4619 25.7633 29.2046 25.6868 28.9568 25.7389C28.7091 25.7908 28.5044 25.9641 28.4123 26.2C28.3201 26.4356 28.3532 26.7021 28.5002 26.9081C28.6471 27.1142 28.888 27.2324 29.1409 27.2223C29.3286 27.2153 29.5068 27.1386 29.6409 27.0073Z" fill="white"/>
<path d="M29.1159 29.3423C29.3036 29.3353 29.4818 29.2586 29.6159 29.1273C29.7591 28.9871 29.8399 28.7952 29.8399 28.5947C29.8399 28.3944 29.7591 28.2025 29.6159 28.0623C29.4369 27.8835 29.1797 27.807 28.932 27.8589C28.6843 27.9108 28.4794 28.0843 28.3873 28.32C28.2953 28.5558 28.3283 28.8221 28.4751 29.0281C28.6221 29.2344 28.863 29.3524 29.1159 29.3423Z" fill="white"/>
<path d="M29.1159 31.4623C29.3036 31.4553 29.4818 31.3786 29.6159 31.2473C29.7591 31.1071 29.8399 30.9152 29.8399 30.7149C29.8399 30.5144 29.7591 30.3225 29.6159 30.1823C29.4369 30.0035 29.1797 29.927 28.932 29.9789C28.6843 30.0308 28.4794 30.2043 28.3873 30.44C28.2953 30.6758 28.3283 30.9421 28.4751 31.1483C28.6221 31.3544 28.863 31.4725 29.1159 31.4623Z" fill="white"/>
<path d="M29.1159 33.5823C29.3036 33.5753 29.4818 33.4986 29.6159 33.3673C29.7591 33.2271 29.8399 33.0351 29.8399 32.8347C29.8399 32.6344 29.7591 32.4423 29.6159 32.3022C29.4369 32.1233 29.1797 32.0468 28.932 32.0987C28.6843 32.1508 28.4794 32.3242 28.3873 32.56C28.2953 32.7957 28.3283 33.0619 28.4751 33.2681C28.6221 33.4742 28.863 33.5924 29.1159 33.5823Z" fill="white"/>
<path d="M28.5811 34.4272C28.4403 34.5684 28.3613 34.7598 28.3618 34.959C28.3621 35.1584 28.4421 35.3495 28.5837 35.4897C28.7251 35.6302 28.9167 35.7085 29.116 35.7074C29.3037 35.7004 29.4819 35.6237 29.616 35.4924C29.7593 35.3522 29.84 35.1602 29.84 34.9598C29.84 34.7595 29.7593 34.5674 29.616 34.4273C29.4739 34.2998 29.2895 34.2292 29.0986 34.2292C28.9075 34.2292 28.7233 34.2998 28.5811 34.4272Z" fill="white"/>
<path d="M26.4609 23.8223C26.3201 23.9637 26.2412 24.1553 26.2412 24.3548C26.2412 24.5543 26.3201 24.7458 26.4609 24.8873C26.602 25.0281 26.7933 25.1071 26.9927 25.1066C27.1921 25.1061 27.383 25.0263 27.5234 24.8847C27.6639 24.7433 27.742 24.5516 27.7409 24.3522C27.7397 24.1536 27.6606 23.9634 27.521 23.8222C27.3768 23.6888 27.1875 23.6146 26.9909 23.6146C26.7944 23.6146 26.6052 23.6888 26.4609 23.8223Z" fill="white"/>
<path d="M26.9909 27.2223C27.1903 27.2236 27.3818 27.1449 27.5228 27.004C27.6638 26.863 27.7424 26.6715 27.7409 26.4722C27.7398 26.2735 27.6607 26.0834 27.521 25.9421C27.3768 25.8087 27.1875 25.7344 26.9909 25.7344C26.7944 25.7344 26.6052 25.8087 26.4609 25.9421C26.3201 26.0837 26.2412 26.2751 26.2412 26.4747C26.2412 26.6742 26.3201 26.8658 26.4609 27.0072C26.6032 27.1447 26.7931 27.2217 26.9909 27.2222L26.9909 27.2223Z" fill="white"/>
<path d="M26.9909 29.3422C27.1903 29.3436 27.3818 29.2649 27.5228 29.124C27.6638 28.9832 27.7424 28.7916 27.7409 28.5922C27.7398 28.3937 27.6607 28.2034 27.521 28.0623C27.3768 27.9287 27.1875 27.8544 26.9909 27.8544C26.7944 27.8544 26.6052 27.9286 26.4609 28.0623C26.3201 28.2037 26.2412 28.3951 26.2412 28.5947C26.2412 28.7944 26.3201 28.9858 26.4609 29.1272C26.6032 29.2647 26.7931 29.3417 26.9909 29.3422L26.9909 29.3422Z" fill="white"/>
<path d="M26.9909 31.4623C27.1903 31.4637 27.3818 31.3851 27.5228 31.2442C27.6638 31.1032 27.7424 30.9116 27.7409 30.7123C27.7398 30.5137 27.6607 30.3234 27.521 30.1823C27.3768 30.0488 27.1875 29.9746 26.9909 29.9746C26.7944 29.9746 26.6052 30.0488 26.4609 30.1823C26.3201 30.3237 26.2412 30.5153 26.2412 30.7148C26.2412 30.9144 26.3201 31.1058 26.4609 31.2472C26.6032 31.3847 26.7931 31.4619 26.9909 31.4622L26.9909 31.4623Z" fill="white"/>
<path d="M27.521 33.3672C27.6616 33.2256 27.7407 33.0342 27.7407 32.8347C27.7407 32.6352 27.6616 32.4438 27.521 32.3022C27.3768 32.1687 27.1875 32.0945 26.9909 32.0945C26.7944 32.0945 26.6052 32.1687 26.4609 32.3022C26.3201 32.4438 26.2412 32.6352 26.2412 32.8347C26.2412 33.0343 26.3201 33.2257 26.4609 33.3672C26.6029 33.5053 26.793 33.5824 26.9909 33.5824C27.189 33.5824 27.3791 33.5053 27.521 33.3672Z" fill="white"/>
<path d="M24.8709 25.1023C25.0703 25.1037 25.2619 25.0251 25.4027 24.8842C25.5436 24.7432 25.6222 24.5516 25.6209 24.3522C25.6196 24.1537 25.5407 23.9634 25.4009 23.8223C25.2567 23.6888 25.0676 23.6146 24.8709 23.6146C24.6745 23.6146 24.4852 23.6888 24.341 23.8223C24.2002 23.9637 24.1211 24.1553 24.1211 24.3548C24.1211 24.5544 24.2002 24.7458 24.341 24.8874C24.4832 25.0247 24.6732 25.1019 24.8709 25.1022L24.8709 25.1023Z" fill="white"/>
<path d="M24.8709 27.2223C25.0703 27.2236 25.2619 27.1449 25.4027 27.004C25.5436 26.863 25.6222 26.6715 25.6209 26.4722C25.6196 26.2735 25.5407 26.0834 25.4009 25.9421C25.2567 25.8087 25.0676 25.7344 24.8709 25.7344C24.6745 25.7344 24.4852 25.8087 24.341 25.9421C24.2002 26.0837 24.1211 26.2751 24.1211 26.4747C24.1211 26.6742 24.2002 26.8658 24.341 27.0072C24.4832 27.1447 24.6732 27.2217 24.8709 27.2222L24.8709 27.2223Z" fill="white"/>
<path d="M24.8709 29.3422C25.0703 29.3436 25.2619 29.2649 25.4027 29.124C25.5436 28.9832 25.6222 28.7916 25.6209 28.5922C25.6196 28.3937 25.5407 28.2034 25.4009 28.0623C25.2567 27.9287 25.0676 27.8544 24.8709 27.8544C24.6745 27.8544 24.4852 27.9286 24.341 28.0623C24.2002 28.2037 24.1211 28.3951 24.1211 28.5947C24.1211 28.7944 24.2002 28.9858 24.341 29.1272C24.4832 29.2647 24.6732 29.3417 24.8709 29.3422L24.8709 29.3422Z" fill="white"/>
<path d="M25.4009 31.2473C25.5416 31.1058 25.6207 30.9144 25.6207 30.7149C25.6207 30.5154 25.5416 30.3238 25.4009 30.1824C25.2565 30.0474 25.0661 29.9722 24.8685 29.9722C24.6707 29.9722 24.4805 30.0474 24.3359 30.1824C24.1952 30.3238 24.1162 30.5154 24.1162 30.7149C24.1162 30.9144 24.1952 31.1058 24.3359 31.2473C24.4779 31.3855 24.668 31.4626 24.8659 31.4626C25.064 31.4626 25.2541 31.3855 25.396 31.2473H25.4009Z" fill="white"/>
<path d="M24.3359 42.9073C24.1951 43.0489 24.1162 43.2403 24.1162 43.4398C24.1162 43.6394 24.1951 43.8309 24.3359 43.9723C24.477 44.1131 24.6683 44.1921 24.8677 44.1916C25.0671 44.1913 25.258 44.1113 25.3984 43.9699C25.5389 43.8283 25.617 43.6367 25.6159 43.4374C25.6147 43.2386 25.5356 43.0484 25.396 42.9072C25.2518 42.7738 25.0625 42.6996 24.8659 42.6996C24.6694 42.6996 24.4802 42.7738 24.3359 42.9073Z" fill="white"/>
<path d="M12.776 15.3222C11.8975 14.9031 10.9145 14.7536 9.95117 14.8922L8.17121 15.1372H8.1162L8.11604 15.1374C7.23762 15.3296 6.45508 15.8255 5.90625 16.5381C5.35741 17.2505 5.07762 18.1338 5.11604 19.0322L6.11604 31.2472C6.52603 34.4022 7.951 35.8422 9.61604 36.4072C9.67203 36.4315 9.73078 36.4482 9.79117 36.4573C10.6685 36.7047 11.5861 36.7762 12.491 36.6673L16.6011 36.8022L11.4311 44.7722C11.3578 44.8863 11.3165 45.0178 11.3111 45.1531C11.3059 45.2885 11.337 45.4228 11.401 45.5422C11.4658 45.6606 11.5613 45.7592 11.6775 45.8279C11.7936 45.8966 11.926 45.9325 12.061 45.9322H15.601C15.8097 45.9316 16.0087 45.8448 16.151 45.6921L20.591 40.8621L20.5911 45.1821C20.5911 45.3802 20.6694 45.5702 20.8089 45.7108C20.9486 45.8513 21.138 45.9309 21.3361 45.9322H45.3361C45.535 45.9322 45.7257 45.8532 45.8664 45.7124C46.0071 45.5718 46.0861 45.3811 46.0861 45.1821V16.2521C46.0861 16.0533 46.0071 15.8625 45.8664 15.7219C45.7257 15.5812 45.535 15.5021 45.3361 15.5021H21.3361C21.1372 15.5021 20.9464 15.5812 20.8058 15.7219C20.665 15.8625 20.5861 16.0532 20.5861 16.2521V18.0972L18.5011 18.0272L12.7861 15.3221L12.776 15.3222ZM18.776 40.6272C18.6424 40.5783 18.4979 40.5674 18.3585 40.5957C18.2191 40.6238 18.0902 40.6902 17.9862 40.7872C17.8463 40.9284 17.7674 41.1186 17.7661 41.3172C17.7653 41.43 17.791 41.5413 17.8411 41.6422L16.7661 42.8073C16.624 42.7264 16.4599 42.6924 16.2973 42.7104C16.1347 42.7283 15.9821 42.7972 15.8611 42.9072C15.7343 43.0332 15.6572 43.2003 15.6434 43.3784C15.6295 43.5565 15.6803 43.7334 15.7861 43.8773L15.2861 44.4323H13.4411L13.736 43.9723H13.7361C13.8771 44.1131 14.0685 44.1921 14.2679 44.1916C14.4673 44.1913 14.6582 44.1113 14.7986 43.9699C14.9389 43.8283 15.0172 43.6367 15.0161 43.4374C15.0148 43.2386 14.9359 43.0484 14.796 42.9072C14.7212 42.8345 14.6305 42.7798 14.5311 42.7472L16.3361 39.9422H16.3761C16.5789 39.9465 16.7745 39.8677 16.9179 39.7243C17.0615 39.5807 17.1403 39.3851 17.136 39.1823C17.1357 39.0638 17.1066 38.9471 17.0511 38.8423L17.9111 37.5122V37.5124C17.9316 37.5428 17.9551 37.5713 17.9811 37.5973C18.1222 37.7381 18.3135 37.8171 18.5129 37.8166C18.7122 37.8162 18.9032 37.7363 19.0436 37.5949C19.1839 37.4533 19.2622 37.2617 19.2611 37.0624C19.2601 37.0015 19.2518 36.9411 19.2362 36.8823H19.8962C19.8911 36.9356 19.8911 36.9891 19.8962 37.0423C19.8934 37.2347 19.9661 37.4206 20.099 37.5597C20.2318 37.6991 20.4137 37.7808 20.6061 37.7873V38.4323C20.4199 38.4323 20.2409 38.5039 20.1061 38.6323C19.9596 38.7775 19.8784 38.9761 19.881 39.1823C19.8735 39.2454 19.8735 39.3092 19.881 39.3722L18.776 40.6272ZM22.096 38.4873L22.251 38.6473H22.2512C22.1978 38.7013 22.1538 38.7638 22.1211 38.8323L22.096 38.4873ZM22.096 41.6673C22.1289 41.7356 22.1729 41.7981 22.2261 41.8522C22.3672 41.9931 22.5585 42.0721 22.7578 42.0716C22.9572 42.0711 23.1483 41.9913 23.2886 41.8497C23.4291 41.7083 23.5073 41.5166 23.506 41.3172C23.5049 41.1186 23.426 40.9284 23.2862 40.7872C23.12 40.6142 22.8799 40.5332 22.6429 40.57C22.4059 40.6067 22.2018 40.757 22.096 40.9723V39.5473C22.1302 39.6149 22.174 39.6772 22.2261 39.7322C22.368 39.8703 22.5581 39.9476 22.756 39.9476C22.9541 39.9476 23.1442 39.8703 23.2862 39.7322L24.3361 40.7923C24.2022 40.9251 24.1236 41.1038 24.1161 41.2923C24.1148 41.4915 24.1934 41.6831 24.3343 41.824C24.4753 41.965 24.6669 42.0436 24.8661 42.0423C25.0526 42.0389 25.231 41.9658 25.3661 41.8372L26.416 42.9123H26.4162C26.2945 43.0509 26.2253 43.2278 26.2211 43.4123C26.2198 43.6116 26.2984 43.8032 26.4393 43.9442C26.5803 44.0851 26.7718 44.1636 26.9711 44.1623C27.1542 44.1654 27.3321 44.1012 27.4711 43.9823L27.8861 44.4072H22.0911V43.7873C22.1238 43.8558 22.1678 43.9183 22.221 43.9723C22.3621 44.1131 22.5535 44.192 22.7529 44.1916C22.9521 44.1912 23.1432 44.1113 23.2835 43.9699C23.4239 43.8283 23.5022 43.6367 23.5011 43.4373C23.4998 43.2386 23.4209 43.0483 23.281 42.9072C23.115 42.7342 22.875 42.6531 22.6378 42.6899C22.4008 42.7269 22.1967 42.8769 22.0911 43.0923L22.096 41.6673ZM32.546 43.6173C32.5749 43.5887 32.6001 43.5568 32.6211 43.5223C32.6364 43.6922 32.7106 43.8514 32.831 43.9723C32.9722 44.1131 33.1636 44.192 33.3628 44.1916C33.5622 44.1912 33.7533 44.1113 33.8935 43.9699C34.034 43.8283 34.1123 43.6367 34.1112 43.4373C34.1099 43.2386 34.0309 43.0483 33.8911 42.9072C33.7469 42.7738 33.5576 42.6995 33.3611 42.6995C33.1645 42.6995 32.9752 42.7737 32.831 42.9072L32.7811 42.9673C32.7708 42.8472 32.7295 42.7316 32.6611 42.6323L31.9362 41.5874L31.936 41.5872C31.972 41.5018 31.9907 41.41 31.991 41.3172C31.9899 41.1186 31.9108 40.9284 31.7711 40.7873C31.6278 40.6494 31.4349 40.5755 31.2361 40.5823L29.3011 37.8024V37.8022C29.43 37.7685 29.5487 37.7033 29.6462 37.6123C29.7894 37.4721 29.8701 37.2801 29.8701 37.0797C29.8701 36.8794 29.7894 36.6875 29.6462 36.5474C29.502 36.4137 29.3127 36.3395 29.116 36.3395C28.9196 36.3395 28.7303 36.4137 28.5861 36.5474C28.5538 36.5789 28.5254 36.6143 28.5011 36.6523L27.6162 35.3773H27.616C27.7015 35.2539 27.7469 35.1072 27.7461 34.9573C27.7448 34.7586 27.6658 34.5683 27.526 34.4272C27.3421 34.2531 27.0817 34.1852 26.8361 34.2472L25.8911 32.8922C25.7534 32.6975 25.603 32.5122 25.441 32.3372L25.4111 32.3022C24.8692 31.7277 24.2018 31.2861 23.461 31.0123C23.5014 30.9192 23.5219 30.8186 23.5211 30.7172C23.5159 30.514 23.4295 30.3213 23.281 30.1822C23.115 30.0092 22.8749 29.9282 22.6378 29.965C22.4008 30.0017 22.1967 30.152 22.0911 30.3673V28.9422C22.1251 29.0099 22.1689 29.0722 22.2209 29.1272C22.3621 29.2682 22.5535 29.3471 22.7529 29.3466C22.9521 29.3462 23.1432 29.2662 23.2834 29.1248C23.4239 28.9832 23.5022 28.7916 23.5011 28.5923C23.4998 28.3937 23.4208 28.2034 23.281 28.0623C23.1368 27.9287 22.9475 27.8545 22.7511 27.8545C22.5544 27.8545 22.3651 27.9287 22.2209 28.0623C22.1677 28.1163 22.1238 28.1788 22.091 28.2472V26.8222C22.1251 26.8899 22.1688 26.9523 22.2209 27.0073C22.362 27.1481 22.5534 27.227 22.7528 27.2265C22.9521 27.2262 23.1431 27.1463 23.2834 27.0049C23.4239 26.8633 23.5022 26.6717 23.501 26.4723C23.4997 26.2736 23.4208 26.0835 23.281 25.9422C23.1368 25.8087 22.9475 25.7345 22.751 25.7345C22.5544 25.7345 22.3651 25.8087 22.2209 25.9422C22.1677 25.9962 22.1237 26.0589 22.091 26.1272V24.6822C22.125 24.75 22.1688 24.8123 22.2209 24.8673C22.362 25.0081 22.5534 25.087 22.7528 25.0865C22.952 25.0861 23.1431 25.0063 23.2834 24.8647C23.4239 24.7233 23.5022 24.5315 23.501 24.3323C23.4997 24.1336 23.4208 23.9433 23.281 23.8022C23.1368 23.6687 22.9475 23.5945 22.751 23.5945C22.5544 23.5945 22.3651 23.6687 22.2209 23.8022C22.1665 23.8554 22.1224 23.9181 22.091 23.9873V22.9622H22.526H22.5259C22.599 22.9843 22.6746 22.9962 22.751 22.9972C22.856 22.9959 22.9596 22.9739 23.056 22.9322L24.436 22.8572H24.4359C24.5625 22.9487 24.7148 22.9977 24.8709 22.9972C25.0553 22.9975 25.2332 22.9298 25.3709 22.8072L26.4359 22.7472V22.7822C26.5778 22.9203 26.7679 22.9975 26.966 22.9975C27.1639 22.9975 27.354 22.9203 27.496 22.7822C27.5252 22.7529 27.5521 22.7211 27.576 22.6873L28.451 22.6373C28.4789 22.6902 28.5143 22.739 28.556 22.7822C28.7002 22.9195 28.8918 22.9965 29.091 22.9972C29.2785 22.9902 29.4569 22.9135 29.591 22.7822C29.7342 22.642 29.815 22.4501 29.815 22.2498C29.815 22.0493 29.7342 21.8574 29.591 21.7172C29.4755 21.6105 29.3277 21.5454 29.1709 21.5322V20.8473C29.329 20.8246 29.4759 20.753 29.591 20.6422C29.7342 20.5021 29.815 20.3102 29.815 20.1098C29.815 19.9093 29.7342 19.7174 29.591 19.5773C29.4755 19.4705 29.3277 19.4054 29.1709 19.3922V19.1172V19.1173C29.1708 18.9835 29.1345 18.8522 29.0659 18.7373C29.2627 18.7324 29.4497 18.6499 29.5858 18.5078C29.7221 18.3655 29.7963 18.1753 29.7927 17.9783C29.7889 17.7815 29.7074 17.5942 29.566 17.4573C29.4263 17.3157 29.2357 17.236 29.0368 17.2358C28.8379 17.2355 28.6474 17.3149 28.5072 17.456C28.3671 17.5971 28.2893 17.7884 28.2911 17.9873C28.2909 18.1204 28.3254 18.2514 28.391 18.3673L27.576 18.3374V18.3372C27.6361 18.2304 27.6672 18.1098 27.6661 17.9873C27.6647 17.7887 27.5858 17.5984 27.446 17.4573C27.3018 17.3237 27.1125 17.2495 26.916 17.2495C26.7194 17.2495 26.5301 17.3237 26.3859 17.4573C26.2461 17.5984 26.1672 17.7887 26.166 17.9873C26.1673 18.0922 26.1893 18.1959 26.231 18.2923H25.4909C25.5264 18.2031 25.5451 18.1082 25.5459 18.0123C25.5448 17.8136 25.4657 17.6233 25.326 17.4822C25.1818 17.3487 24.9925 17.2745 24.7959 17.2745C24.5994 17.2745 24.4101 17.3487 24.2659 17.4822C24.1261 17.6233 24.0472 17.8136 24.0459 18.0123C24.0467 18.0922 24.0602 18.1715 24.0859 18.2472H23.3909C23.4122 18.1792 23.424 18.1085 23.4259 18.0372C23.4246 17.8387 23.3457 17.6484 23.2059 17.5073C23.0398 17.3343 22.7998 17.253 22.5628 17.29C22.3258 17.3268 22.1215 17.477 22.0159 17.6922V17.0022H44.5159V17.5773C44.3947 17.386 44.1927 17.2608 43.9674 17.2376C43.7423 17.2141 43.5188 17.295 43.361 17.4573C43.2202 17.5987 43.1411 17.7901 43.1411 17.9897C43.1411 18.1892 43.2202 18.3808 43.361 18.5222C43.5188 18.6843 43.7423 18.7654 43.9674 18.7419C44.1927 18.7185 44.3947 18.5933 44.5159 18.4023V19.6822C44.3947 19.4911 44.1927 19.366 43.9674 19.3425C43.7423 19.3191 43.5188 19.4 43.361 19.5623C43.2202 19.7037 43.1411 19.8951 43.1411 20.0946C43.1411 20.2943 43.2202 20.4858 43.361 20.6272C43.5188 20.7893 43.7423 20.8703 43.9674 20.8469C44.1927 20.8235 44.3947 20.6983 44.5159 20.5072V21.8021L44.4908 21.6822C44.3466 21.5487 44.1573 21.4745 43.9609 21.4745C43.7644 21.4745 43.5751 21.5487 43.4309 21.6822C43.2901 21.8236 43.211 22.0152 43.211 22.2147C43.211 22.4143 43.2901 22.6057 43.4309 22.7471C43.5727 22.8853 43.763 22.9624 43.9609 22.9624C44.1588 22.9624 44.3491 22.8853 44.4908 22.7471C44.5252 22.7111 44.5569 22.6727 44.5859 22.6322V23.9222C44.5569 23.8817 44.5252 23.8431 44.4908 23.8072C44.3466 23.6737 44.1573 23.5995 43.9609 23.5995C43.7644 23.5995 43.5751 23.6737 43.4309 23.8072C43.2901 23.9486 43.211 24.1402 43.211 24.3397C43.211 24.5392 43.2901 24.7307 43.4309 24.8721C43.5727 25.0103 43.763 25.0874 43.9609 25.0874C44.1588 25.0874 44.3491 25.0103 44.4908 24.8721L44.5859 24.7521V26.0472C44.4646 25.856 44.2627 25.7308 44.0374 25.7074C43.8123 25.6841 43.5888 25.765 43.4309 25.9271C43.2901 26.0687 43.211 26.2601 43.211 26.4596C43.211 26.6592 43.2901 26.8506 43.4309 26.9922C43.5888 27.1543 43.8123 27.2352 44.0374 27.2117C44.2627 27.1885 44.4646 27.0633 44.5859 26.8721V28.1821C44.4646 27.991 44.2627 27.8659 44.0374 27.8424C43.8123 27.819 43.5888 27.8999 43.4309 28.0622C43.2901 28.2036 43.211 28.395 43.211 28.5945C43.211 28.7942 43.2901 28.9856 43.4309 29.1271C43.5888 29.2892 43.8123 29.3702 44.0374 29.3468C44.2627 29.3234 44.4646 29.1982 44.5859 29.0071V30.302C44.4646 30.111 44.2627 29.9858 44.0374 29.9624C43.8123 29.9389 43.5888 30.02 43.4309 30.1821C43.2901 30.3235 43.211 30.5151 43.211 30.7146C43.211 30.9142 43.2901 31.1056 43.4309 31.247C43.5888 31.4093 43.8123 31.4902 44.0374 31.4667C44.2627 31.4433 44.4646 31.3183 44.5859 31.127V32.422L44.4908 32.302C44.3466 32.1685 44.1573 32.0943 43.9609 32.0943C43.7644 32.0943 43.5751 32.1685 43.4309 32.302C43.2901 32.4436 43.211 32.635 43.211 32.8345C43.211 33.0341 43.2901 33.2255 43.4309 33.3671C43.5727 33.5051 43.763 33.5823 43.9609 33.5823C44.1588 33.5823 44.3491 33.5051 44.4908 33.3671C44.5252 33.331 44.5569 33.2925 44.5859 33.252V34.5421C44.5569 34.5015 44.5252 34.4631 44.4908 34.427C44.3473 34.2924 44.1578 34.2175 43.9609 34.2175C43.7639 34.2175 43.5745 34.2924 43.4309 34.427C43.2901 34.5686 43.211 34.76 43.211 34.9595C43.211 35.1591 43.2901 35.3505 43.4309 35.4921C43.5727 35.6301 43.763 35.7072 43.9609 35.7072C44.1588 35.7072 44.3491 35.6301 44.4908 35.4921L44.5859 35.3721V36.682C44.5569 36.6415 44.5252 36.6031 44.4908 36.567C44.3466 36.4335 44.1573 36.3593 43.9609 36.3593C43.7644 36.3593 43.5751 36.4335 43.4309 36.567C43.2901 36.7086 43.211 36.9 43.211 37.0995C43.211 37.299 43.2901 37.4906 43.4309 37.632C43.5727 37.7701 43.763 37.8474 43.9609 37.8474C44.1588 37.8474 44.3491 37.7701 44.4908 37.632L44.5859 37.5121V38.807C44.4654 38.6151 44.264 38.489 44.0387 38.4646C43.8134 38.4403 43.5895 38.5204 43.4309 38.682C43.2901 38.8234 43.211 39.015 43.211 39.2145C43.211 39.4141 43.2901 39.6055 43.4309 39.7469C43.5888 39.9092 43.8123 39.9901 44.0374 39.9666C44.2627 39.9432 44.4646 39.8182 44.5859 39.627V40.9221C44.4646 40.7308 44.2627 40.6056 44.0374 40.5822C43.8123 40.5589 43.5888 40.6398 43.4309 40.8019C43.2901 40.9435 43.211 41.1349 43.211 41.3345C43.211 41.534 43.2901 41.7254 43.4309 41.867C43.5888 42.0291 43.8123 42.11 44.0374 42.0866C44.2627 42.0633 44.4646 41.9381 44.5859 41.7469V43.0418L44.4908 42.9219V42.922C44.3466 42.7884 44.1573 42.7142 43.9609 42.7142C43.7644 42.7142 43.5751 42.7884 43.4309 42.922C43.2901 43.0635 43.211 43.2549 43.211 43.4544C43.211 43.654 43.2901 43.8455 43.4309 43.9869C43.5727 44.125 43.763 44.2023 43.9609 44.2023C44.1588 44.2023 44.3491 44.125 44.4908 43.9869C44.5252 43.9508 44.5569 43.9124 44.5859 43.8719V44.4319H31.6359L32.546 43.6173ZM16.046 29.3323L15.6411 25.4474L18.0111 25.9175V25.9173C18.0592 25.9225 18.1079 25.9225 18.1561 25.9173H18.1961L20.6112 25.7873V30.2873L16.046 29.3323ZM15.8361 22.7373C15.9783 22.8749 16.1683 22.9518 16.366 22.9523C16.4749 22.9528 16.5827 22.9289 16.6811 22.8824L17.9712 23.1374H17.971C18.0194 23.1424 18.0679 23.1424 18.116 23.1374H18.1561L20.5711 23.0074V23.5774C20.3843 23.5791 20.2054 23.6526 20.0711 23.7823C19.9372 23.9151 19.8586 24.0938 19.8511 24.2823L19.2261 24.3173C19.2248 24.1187 19.1458 23.9284 19.006 23.7873C18.862 23.6538 18.6727 23.5796 18.4761 23.5796C18.2796 23.5796 18.0903 23.6538 17.9461 23.7873C17.8112 23.9195 17.7324 24.0985 17.7261 24.2873L17.0911 24.1623C17.0631 24.0122 16.9899 23.8744 16.881 23.7673C16.737 23.6338 16.5477 23.5596 16.3511 23.5596C16.1546 23.5596 15.9653 23.6338 15.8211 23.7673C15.7838 23.8057 15.7503 23.8475 15.721 23.8923L15.4261 23.8322L15.3361 22.6374L15.8361 22.7373ZM18.006 19.4523C18.0993 19.4937 18.1992 19.5174 18.3011 19.5223L27.7211 19.8423V21.1823L18.1911 21.6823L11.6161 20.3674C11.4151 20.3145 11.201 20.3473 11.0253 20.4582C10.8493 20.5692 10.7274 20.748 10.6885 20.9523C10.6496 21.1566 10.6973 21.3677 10.82 21.5355C10.9427 21.7033 11.1297 21.8125 11.3361 21.8372L13.8011 22.3372L14.6011 30.0372C14.6195 30.1907 14.6844 30.3347 14.7873 30.4501C14.89 30.5655 15.0257 30.6464 15.1761 30.6822L22.4311 32.2672C23.3346 32.4672 24.1284 33.0035 24.651 33.7672L31.046 42.9422L29.711 44.1422L21.441 35.6822C21.3094 35.546 21.1303 35.4654 20.941 35.4573L12.476 35.1822H12.3711C9.50111 35.5073 8.03106 34.2423 7.62106 31.1022L6.62106 18.9572V18.9573C6.60153 18.422 6.76901 17.8966 7.09469 17.4715C7.42053 17.0462 7.88406 16.7477 8.40606 16.6272L10.1411 16.3823C10.8872 16.2662 11.6507 16.4073 12.3061 16.7822L18.006 19.4523Z" fill="white"/>
<path d="M9.58596 14.3273C10.9414 14.3286 12.242 13.7913 13.2014 12.8334C14.1607 11.8758 14.7001 10.5761 14.701 9.22064C14.7019 7.86501 14.1641 6.56472 13.2061 5.60572C12.2481 4.64672 10.9481 4.10768 9.59262 4.10718C8.23712 4.10668 6.93687 4.64493 5.97821 5.60326C5.01954 6.5616 4.48096 7.86172 4.48096 9.21718C4.48226 10.5712 5.02033 11.8693 5.97737 12.8272C6.93425 13.7852 8.23192 14.3246 9.58592 14.3272L9.58596 14.3273ZM9.58596 5.61226C10.544 5.61096 11.4632 5.99052 12.1413 6.66726C12.8193 7.34401 13.2005 8.26264 13.201 9.22064C13.2014 10.1786 12.821 11.0974 12.1436 11.7748C11.4662 12.4523 10.5472 12.8326 9.58921 12.8323C8.63121 12.8318 7.71275 12.4506 7.036 11.7726C6.35925 11.0945 5.97967 10.1752 5.981 9.21722C5.9823 8.26147 6.36251 7.3453 7.03829 6.66951C7.71407 5.99372 8.63025 5.61351 9.586 5.61222L9.58596 5.61226Z" fill="white"/>
</svg>
