<svg width="51" height="51" viewBox="0 0 51 51" fill="none" xmlns="http://www.w3.org/2000/svg">
<path d="M45.1068 25.2772C45.0309 25.1101 44.8965 24.9765 44.7287 24.9018C44.561 24.8272 44.3717 24.8166 44.1968 24.8721L38.0068 26.8721L35.6568 22.0821L35.6567 22.0823C35.6114 21.9119 35.5546 21.7449 35.4868 21.5823L35.4568 21.5174L34.6368 20.0174C33.6368 18.1523 31.9918 17.5174 30.0568 18.2174L29.9868 18.2473L19.1568 23.3723C18.4934 23.7275 17.9295 24.2431 17.5169 24.8723C17.4763 24.9182 17.441 24.9685 17.4119 25.0224C17.2075 25.3461 17.0398 25.6915 16.9119 26.0524L13.5919 32.8724L4.99689 37.2424C4.83104 37.3265 4.70229 37.4693 4.63572 37.6429C4.56932 37.8166 4.56964 38.0088 4.63686 38.1823L5.50682 40.4123C5.55825 40.5575 5.65282 40.6831 5.77814 40.7726C5.9033 40.8622 6.05305 40.9108 6.20685 40.9123C6.28335 40.9129 6.35936 40.9011 6.43195 40.8773L9.67203 39.8773V40.2272H9.67187C9.68212 40.4193 9.76562 40.5998 9.90527 40.7319C10.0448 40.8641 10.2298 40.9375 10.4218 40.9374H22.8368C24.1819 40.95 25.4524 40.3206 26.2574 39.243C27.0626 38.1654 27.3056 36.7686 26.9119 35.4823L25.4568 30.5073L28.2718 29.1023L29.0667 32.3622H29.0668C29.3216 33.4241 29.9083 34.3769 30.7418 35.0823L37.3368 40.7073C37.4748 40.8292 37.6526 40.8966 37.8368 40.8966C38.0211 40.8966 38.1988 40.8292 38.3368 40.7073L39.9568 39.2372C40.1024 39.1028 40.1884 38.9159 40.196 38.718C40.2035 38.5201 40.1317 38.3272 39.9968 38.1822L34.4968 31.8272L34.3768 30.4223C35.073 31.2613 36.1065 31.747 37.1968 31.7471C37.7139 31.7444 38.2248 31.6337 38.6968 31.4223L45.6369 28.2773C45.8183 28.1933 45.9594 28.0414 46.0296 27.8543C46.0999 27.6671 46.0934 27.4597 46.0119 27.2773L45.1068 25.2772ZM38.1068 30.0522V30.0521C37.6626 30.2542 37.1637 30.3014 36.6896 30.1862C36.2155 30.0711 35.7938 29.8003 35.4917 29.4172L31.3367 24.1822C31.1706 23.9714 30.9046 23.8653 30.639 23.9037C30.3734 23.9422 30.1486 24.1195 30.049 24.3687C29.9495 24.618 29.9906 24.9014 30.1567 25.1122L30.9367 26.1122L24.2267 29.4471C24.0675 29.5233 23.9406 29.6537 23.8691 29.8151C23.7977 29.9764 23.7861 30.1581 23.8367 30.3272L25.4668 35.9022C25.7081 36.7283 25.545 37.62 25.0267 38.3071C24.511 38.9961 23.6973 39.3975 22.8367 39.3872H11.1517L11.0817 38.0923L20.6417 36.7373V36.7371C20.8759 36.7041 21.0807 36.5617 21.1931 36.3535C21.3056 36.1453 21.3124 35.8961 21.2117 35.6821L18.4217 29.7571C17.5667 27.9371 18.2416 25.5321 19.8217 24.7171L30.6017 19.5771C31.8368 19.1372 32.6517 19.4722 33.3368 20.6821L33.8368 21.5921C33.8454 21.6773 33.869 21.7603 33.9068 21.8371L36.9668 28.0871C37.0433 28.2438 37.1719 28.369 37.3307 28.4411C37.4894 28.5132 37.6685 28.5277 37.8368 28.4821L44.0068 26.4821L44.3369 27.2172L38.1068 30.0522ZM38.4067 38.6072L38.0317 38.9473V38.9471C37.9883 38.8449 37.9214 38.7541 37.8367 38.6821C37.7339 38.5864 37.6068 38.5208 37.4692 38.4927C37.3315 38.4643 37.189 38.4746 37.0568 38.5221L35.8368 37.4572C35.904 37.3416 35.9401 37.2107 35.9417 37.0771C35.9404 36.8785 35.8615 36.6883 35.7217 36.5472C35.5873 36.4223 35.4124 36.3497 35.2292 36.3424C35.0458 36.3351 34.8659 36.3935 34.7217 36.5071L33.5667 35.5071H33.6017C33.7425 35.3657 33.8215 35.1741 33.8215 34.9746C33.8215 34.775 33.7425 34.5836 33.6017 34.442C33.4582 34.3074 33.2686 34.2326 33.0718 34.2326C32.8748 34.2326 32.6854 34.3074 32.5418 34.442C32.5026 34.4819 32.4674 34.5254 32.4367 34.5721L31.7166 33.957L31.7168 33.9572C31.5622 33.8217 31.4184 33.6746 31.2868 33.5171C31.3578 33.4814 31.4233 33.436 31.4818 33.3821C31.6226 33.2407 31.7015 33.0491 31.7015 32.8496C31.7015 32.6501 31.6226 32.4587 31.4818 32.3171C31.3659 32.203 31.217 32.1284 31.0562 32.1042C30.8953 32.0799 30.7311 32.1073 30.5867 32.1821C30.5867 32.1172 30.5368 32.0571 30.5218 31.9922L30.2969 31.0723L30.2967 31.0721C30.3281 31.1314 30.3686 31.1854 30.4168 31.2321C30.5578 31.3731 30.7492 31.452 30.9486 31.4515C31.1479 31.451 31.3389 31.3713 31.4791 31.2297C31.6196 31.0881 31.6979 30.8965 31.6968 30.6971C31.6916 30.5038 31.6129 30.3195 31.4767 30.1822C31.3325 30.0487 31.1432 29.9745 30.9468 29.9745C30.7501 29.9745 30.5608 30.0487 30.4168 30.1822C30.2843 30.3161 30.206 30.4942 30.1967 30.6822L29.6468 28.4172L30.6468 27.9172C30.561 27.9515 30.4829 28.0027 30.4168 28.0671C30.276 28.2087 30.1969 28.4001 30.1969 28.5996C30.1969 28.7992 30.276 28.9908 30.4168 29.1322C30.5578 29.273 30.7492 29.3519 30.9486 29.3514C31.1479 29.3511 31.3389 29.2712 31.4791 29.1297C31.6196 28.9881 31.6979 28.7966 31.6968 28.5972C31.6955 28.3985 31.6165 28.2084 31.4767 28.0671C31.3696 27.9668 31.236 27.8988 31.0918 27.8714C30.9474 27.8439 30.7983 27.8581 30.6618 27.9121L31.8818 27.3021L32.5119 28.097L32.5117 28.0972C32.3865 28.2336 32.3169 28.412 32.3167 28.5972C32.3167 28.7975 32.3958 28.9898 32.5368 29.1322C32.6015 29.1922 32.6759 29.2412 32.7566 29.2772L32.8367 30.0171C32.7301 30.049 32.6325 30.1057 32.5517 30.1821C32.4109 30.3236 32.332 30.5152 32.332 30.7147C32.332 30.9142 32.4109 31.1056 32.5517 31.2471C32.6635 31.3538 32.8045 31.4251 32.9567 31.4521L33.0117 32.1071C32.8405 32.1169 32.6779 32.1857 32.5517 32.3021C32.4109 32.4437 32.332 32.6351 32.332 32.8346C32.332 33.0342 32.4109 33.2256 32.5517 33.3672C32.6937 33.5052 32.8838 33.5823 33.0817 33.5823C33.2798 33.5823 33.4699 33.5052 33.6118 33.3672C33.6566 33.3255 33.6937 33.2764 33.7217 33.2222L34.7217 34.3872C34.7007 34.3987 34.6805 34.4121 34.6618 34.4271C34.521 34.5687 34.4421 34.7601 34.4421 34.9596C34.4421 35.1592 34.521 35.3506 34.6618 35.4922C34.804 35.6295 34.994 35.7067 35.1917 35.7072C35.3776 35.705 35.5558 35.6338 35.6917 35.5071L36.6917 36.6572V36.657C36.6094 36.7819 36.5641 36.9276 36.5617 37.0771C36.5604 37.2765 36.639 37.4679 36.78 37.6089C36.9209 37.7498 37.1125 37.8284 37.3117 37.8271C37.4265 37.8262 37.5394 37.7988 37.6418 37.7471L38.4067 38.6072ZM8.21174 38.7223L8.1468 38.6821C8.00259 38.5487 7.8133 38.4744 7.61667 38.4744C7.42022 38.4744 7.23093 38.5486 7.08671 38.6821C6.95243 38.8143 6.87513 38.9938 6.8717 39.1821L6.65165 39.2521L6.2817 38.3121L7.2817 37.8121C7.38001 37.8597 7.48743 37.8854 7.59664 37.8872C7.79456 37.8867 7.9845 37.8095 8.12677 37.6722C8.23142 37.5647 8.30255 37.4292 8.33168 37.282L8.99673 36.942C8.97703 37.0052 8.96694 37.0709 8.96678 37.1372C8.96336 37.3068 9.01951 37.4721 9.12547 37.6046C9.23143 37.7371 9.38052 37.8283 9.54668 37.8621L9.57174 38.3621L8.21174 38.7223ZM11.5267 35.6173V35.6172C11.6344 35.6748 11.7546 35.7057 11.8768 35.7072C12.0745 35.7067 12.2645 35.6295 12.4068 35.4922C12.52 35.3743 12.5936 35.2239 12.6167 35.0622L13.2917 34.7171H13.2918C13.2643 34.7943 13.2492 34.8753 13.2468 34.9572C13.2466 35.2077 13.3714 35.4419 13.5798 35.5812C13.7881 35.7205 14.0521 35.7466 14.2837 35.6507C14.5152 35.5548 14.6836 35.3498 14.7325 35.104C14.7813 34.8581 14.7041 34.6042 14.5267 34.4271C14.4369 34.3423 14.3267 34.2821 14.2068 34.2521L14.5168 34.0972C14.6622 34.0228 14.7795 33.9035 14.8518 33.7572L15.4118 32.6022V32.602C15.3848 32.6759 15.3697 32.7536 15.3667 32.8322C15.3666 33.0827 15.4916 33.3169 15.6997 33.4562C15.9081 33.5956 16.1722 33.6216 16.4037 33.5257C16.6353 33.4299 16.8036 33.2248 16.8524 32.979C16.9013 32.7331 16.8241 32.4792 16.6469 32.3021C16.5027 32.1686 16.3134 32.0944 16.1168 32.0944C15.9203 32.0944 15.731 32.1686 15.5868 32.3021L15.5067 32.4071L15.9717 31.4471C16.0201 31.4523 16.0686 31.4523 16.1167 31.4471C16.3161 31.4484 16.5077 31.37 16.6487 31.229C16.7896 31.0881 16.8682 30.8965 16.8668 30.6971C16.8563 30.5008 16.7704 30.3162 16.6268 30.1821C16.6268 30.1821 16.5969 30.1821 16.5819 30.1522L16.802 29.6971H16.8018C16.8739 29.9364 16.9625 30.1702 17.0668 30.3972L17.9017 32.1822C17.8238 32.2134 17.7527 32.2591 17.6918 32.3171C17.551 32.4587 17.4721 32.6501 17.4721 32.8496C17.4721 33.0492 17.551 33.2407 17.6918 33.3822C17.834 33.5197 18.024 33.5967 18.2217 33.5972H18.2667L16.7667 35.3571H16.7668C16.8362 35.2425 16.8726 35.111 16.8718 34.977C16.8705 34.7785 16.7916 34.5882 16.6518 34.4471C16.5082 34.3125 16.3187 34.2376 16.1218 34.2376C15.9249 34.2376 15.7354 34.3125 15.5918 34.4471C15.4511 34.5885 15.372 34.7801 15.372 34.9796C15.372 35.1792 15.4511 35.3706 15.5918 35.5122C15.7341 35.6495 15.924 35.7267 16.1218 35.727C16.2933 35.7259 16.4592 35.6658 16.5918 35.5571L16.3319 35.8571L12.2168 36.442C12.0778 36.374 11.9217 36.3489 11.7684 36.3704C11.6151 36.3917 11.4717 36.4585 11.3568 36.5621L10.3717 36.6821C10.3425 36.6329 10.3071 36.5875 10.2668 36.5472C10.1914 36.471 10.0988 36.4143 9.99675 36.3821L11.5267 35.6173ZM19.1817 34.8374L19.4416 35.3974L18.5917 35.5174L19.1817 34.8374Z" fill="white"/>
<path d="M34.0459 10.2372C32.9894 10.9187 32.2474 11.9925 31.9834 13.2216C31.7192 14.4506 31.9548 15.7345 32.6382 16.7897C33.3214 17.845 34.3963 18.5852 35.626 18.8473C35.9543 18.9205 36.2896 18.9573 36.626 18.9573C37.7673 18.9545 38.8693 18.54 39.7295 17.79C40.5898 17.04 41.1505 16.0046 41.3087 14.8744C41.4671 13.7441 41.2122 12.5946 40.5909 11.6373C39.9064 10.5862 38.8338 9.84906 37.6072 9.58669C36.3808 9.32432 35.1004 9.55821 34.0459 10.2372L34.0459 10.2372ZM33.9009 15.9771C33.4264 15.2546 33.2611 14.3721 33.4414 13.5267C33.6218 12.6813 34.133 11.9432 34.861 11.4771C35.3846 11.1426 35.9946 10.9688 36.6159 10.9771C37.7593 10.9753 38.819 11.5762 39.4045 12.5583C39.9898 13.5405 40.0142 14.7585 39.4686 15.7632C38.923 16.7681 37.8882 17.4108 36.7456 17.4548C35.603 17.4987 34.522 16.9372 33.9009 15.9771Z" fill="white"/>
</svg>
