<svg width="51" height="51" viewBox="0 0 51 51" fill="none" xmlns="http://www.w3.org/2000/svg">
<path d="M25.3359 2.26556C19.2579 2.26556 13.4288 4.67994 9.13127 8.97765C4.83377 13.2751 2.41919 19.1043 2.41919 25.1822C2.41919 31.2601 4.83356 37.0893 9.13127 41.3868C13.4288 45.6843 19.2579 48.0989 25.3359 48.0989C31.4138 48.0989 37.2429 45.6845 41.5404 41.3868C45.8379 37.0893 48.2525 31.2601 48.2525 25.1822C48.2457 19.1064 45.829 13.2814 41.5329 8.98515C37.2367 4.6889 31.4117 2.27223 25.3359 2.26556ZM25.3359 46.0156C19.8104 46.0156 14.5113 43.8206 10.6046 39.9135C6.69769 36.0064 4.50252 30.7072 4.50252 25.1822C4.50252 19.6572 6.69752 14.3576 10.6046 10.451C14.5117 6.54406 19.8109 4.3489 25.3359 4.3489C30.8609 4.3489 36.1604 6.5439 40.0671 10.451C43.974 14.3581 46.1692 19.6572 46.1692 25.1822C46.1628 30.7056 43.9659 36.001 40.0604 39.9068C36.1547 43.8124 30.8596 46.0093 25.3359 46.0156Z" fill="white"/>
<path d="M34.0575 30.7351C33.7899 30.6673 33.5064 30.7083 33.2691 30.8494C33.0318 30.9903 32.8602 31.2198 32.7919 31.4873C32.3656 33.1408 31.4019 34.6058 30.0521 35.6516C28.7023 36.6975 27.0432 37.2653 25.3355 37.2653C23.6277 37.2653 21.9687 36.6975 20.6188 35.6516C19.269 34.6057 18.3053 33.1407 17.879 31.4873C17.7824 31.1321 17.5055 30.8544 17.1507 30.7566C16.7959 30.6588 16.4158 30.7555 16.1509 31.011C15.8859 31.2664 15.7755 31.6427 15.8603 32.0008C16.4009 34.103 17.6251 35.9656 19.3405 37.2954C21.0558 38.6254 23.1647 39.3473 25.3355 39.3473C27.5063 39.3473 29.615 38.6254 31.3305 37.2954C33.0458 35.9654 34.2701 34.1028 34.8106 32.0008C34.8785 31.7332 34.8373 31.4495 34.6962 31.212C34.5549 30.9747 34.3252 30.8031 34.0575 30.7351Z" fill="white"/>
<path d="M19.9192 20.8072C19.9192 21.1793 20.1178 21.5232 20.44 21.7094C20.7623 21.8954 21.1594 21.8954 21.4817 21.7094C21.804 21.5232 22.0025 21.1793 22.0025 20.8072C22.0025 18.872 20.9701 17.0839 19.2942 16.1164C17.6182 15.1488 15.5535 15.1488 13.8775 16.1164C12.2016 17.084 11.1692 18.8721 11.1692 20.8072C11.1692 21.1793 11.3678 21.5232 11.69 21.7094C12.0123 21.8954 12.4094 21.8954 12.7317 21.7094C13.054 21.5232 13.2525 21.1793 13.2525 20.8072C13.2525 19.6163 13.8878 18.5159 14.9192 17.9205C15.9506 17.325 17.2211 17.325 18.2525 17.9205C19.2839 18.5159 19.9192 19.6163 19.9192 20.8072Z" fill="white"/>
<path d="M34.0859 15.3906C32.6498 15.3922 31.273 15.9635 30.2576 16.9789C29.2421 17.9944 28.6708 19.3712 28.6692 20.8072C28.6692 21.1793 28.8678 21.5232 29.19 21.7094C29.5123 21.8954 29.9094 21.8954 30.2317 21.7094C30.554 21.5232 30.7525 21.1793 30.7525 20.8072C30.7525 19.6163 31.3878 18.5159 32.4192 17.9205C33.4506 17.325 34.7211 17.325 35.7525 17.9205C36.7839 18.5159 37.4192 19.6163 37.4192 20.8072C37.4192 21.1793 37.6178 21.5232 37.94 21.7094C38.2623 21.8954 38.6594 21.8954 38.9817 21.7094C39.304 21.5232 39.5025 21.1793 39.5025 20.8072C39.5009 19.3712 38.9296 17.9944 37.9141 16.9789C36.8987 15.9635 35.5219 15.3922 34.0859 15.3906Z" fill="white"/>
</svg>
