<svg width="51" height="51" viewBox="0 0 51 51" fill="none" xmlns="http://www.w3.org/2000/svg">
<path d="M42.6025 34.0885L32.0559 27.526C31.9777 27.4479 31.8215 27.4479 31.7434 27.4479L24.4775 26.8229L23.54 24.401L29.165 22.0572C29.5557 21.901 29.8682 21.5885 30.1807 21.276L31.9775 21.9791C32.0557 21.9791 32.1338 22.0572 32.29 22.0572C32.3682 22.0572 32.5244 22.0572 32.6025 21.9791C32.7588 21.901 32.915 21.7447 32.9932 21.5104L36.2744 12.9945C36.4307 12.6039 36.1963 12.1352 35.8057 11.9789L30.259 9.79141C30.1027 9.71328 29.8684 9.71328 29.634 9.79141C29.4777 9.86953 29.3215 10.0258 29.2434 10.2602L26.4309 17.4477L21.5092 19.1664L20.8842 17.6039C20.4155 16.3539 19.3998 15.4164 18.228 14.9477C19.0873 14.0883 19.6342 12.9164 19.6342 11.5883C19.6342 8.93203 17.5248 6.82245 14.8684 6.82245C12.2119 6.82245 10.1025 8.93182 10.1025 11.5883C10.1025 13.6195 11.3525 15.3383 13.1494 16.0416C11.8213 17.3697 11.2744 19.3229 12.0557 21.1199L15.6494 30.2608C16.665 32.8389 19.165 34.4795 21.8994 34.4014L30.8836 34.0889L39.7119 39.0106C40.1025 39.245 40.6494 39.4012 41.1182 39.4012C42.0557 39.4012 42.915 38.9325 43.4619 38.1512C43.9307 37.5262 44.0869 36.745 43.9307 35.9637C43.7744 35.1825 43.3057 34.5575 42.6025 34.0887V34.0885ZM30.415 11.5885L34.5557 13.151L31.8213 20.1822L30.8057 19.7916C30.8057 19.401 30.8057 18.9322 30.6494 18.5416C30.2588 17.6041 29.3213 16.9791 28.3838 16.9791L30.415 11.5885ZM11.5867 11.5885C11.5867 9.79162 12.993 8.38537 14.7898 8.38537C16.5867 8.38537 17.993 9.79162 17.993 11.5885C17.993 13.0729 16.9773 14.3229 15.5711 14.7135C15.493 14.7135 15.4148 14.7135 15.3367 14.7916C15.1805 14.7916 14.9461 14.8697 14.7898 14.8697C13.0711 14.7916 11.5867 13.3854 11.5867 11.5885ZM42.1334 37.2918C41.7427 37.8387 41.0396 37.995 40.4146 37.6825L31.4305 32.6825C31.2742 32.6043 31.1961 32.6043 31.0398 32.6043L21.8211 32.9168C19.7117 32.995 17.8367 31.745 17.0552 29.7918L13.4615 20.651C12.8365 18.9322 13.6177 17.0572 15.2584 16.4322C15.3365 16.3541 15.4927 16.3541 15.649 16.3541C15.7271 16.3541 15.8052 16.3541 15.9615 16.276C16.1177 16.276 16.274 16.1979 16.4302 16.1979C17.7584 16.1979 18.9302 16.9791 19.399 18.2291L20.3365 20.4947C20.3365 20.5729 20.4146 20.5729 20.4146 20.651L20.649 20.8854C20.649 20.8854 20.7271 20.8854 20.7271 20.9635C20.8052 20.9635 20.8834 21.0416 20.9615 21.0416H21.0396H21.274H21.3521L27.8363 18.776C28.3832 18.6197 28.93 18.8541 29.1644 19.3229C29.2425 19.5572 29.2425 19.8697 29.1644 20.1041C29.0863 20.3385 28.8519 20.5729 28.6175 20.651L22.055 23.3854C20.8832 23.8541 19.555 23.4635 18.93 22.3697L17.3675 19.8697C17.1332 19.4791 16.6644 19.401 16.2738 19.6354C15.8832 19.8697 15.805 20.3385 16.0394 20.7291L17.6019 23.2291C18.3832 24.4791 19.7113 25.1822 21.1175 25.1822C21.43 25.1822 21.8207 25.1041 22.1332 25.026L23.305 27.9947C23.3832 28.3072 23.6957 28.4635 23.93 28.4635L31.5084 29.0885L41.8209 35.4947C42.1334 35.651 42.3677 35.9635 42.4459 36.3541C42.4459 36.6666 42.3677 36.9791 42.1334 37.2916V37.2918Z" fill="white"/>
<path d="M14.9451 37.7606L11.8201 42.2918C11.5858 42.6824 11.6639 43.1512 12.0545 43.3856C12.2108 43.4637 12.367 43.5418 12.5233 43.5418C12.7576 43.5418 12.992 43.3856 13.1483 43.2293L16.2733 38.6981L30.3358 37.8387L38.2266 42.6824C38.3828 42.7606 38.461 42.7606 38.6172 42.7606C38.8516 42.7606 39.1641 42.6043 39.3203 42.3699C39.5547 41.9793 39.3985 41.5106 39.086 41.2762L30.961 36.3545C30.8047 36.2764 30.6485 36.1983 30.4922 36.2764L16.3514 37.1358L8.22638 17.9949C8.07013 17.6043 7.60138 17.4481 7.21075 17.6043C6.82013 17.7606 6.66388 18.2293 6.82013 18.6199L14.9451 37.7606Z" fill="white"/>
</svg>
