<svg width="51" height="51" viewBox="0 0 51 51" fill="none" xmlns="http://www.w3.org/2000/svg">
<path d="M28.8935 20.4619C28.7521 20.6036 28.6729 20.7956 28.6733 20.9958C28.6737 21.1959 28.7539 21.3876 28.8961 21.5286C29.0381 21.6697 29.2304 21.7481 29.4306 21.747C29.619 21.7399 29.7979 21.663 29.9326 21.5311C30.0764 21.3904 30.1574 21.1977 30.1574 20.9966C30.1574 20.7953 30.0764 20.6026 29.9326 20.4619C29.7894 20.3349 29.6046 20.2647 29.4131 20.2647C29.2216 20.2647 29.0368 20.3349 28.8935 20.4619Z" fill="white"/>
<path d="M36.3832 31.5058C35.2637 29.5732 34.4355 29.0259 32.3673 28.8604L28.2609 28.4337L27.0309 22.4951L28.6474 23.0974C29.03 23.26 29.4416 23.3437 29.8573 23.3433C30.608 23.3407 31.3334 23.0712 31.9035 22.5828C32.4737 22.0945 32.8516 21.4192 32.9696 20.6778L34.1945 12.0183C34.2205 11.8394 34.1816 11.657 34.0849 11.5042C33.9883 11.3514 33.8401 11.2382 33.6674 11.1849L31.2679 10.5524V10.5525C31.0795 10.5007 30.8785 10.5241 30.707 10.6177C30.5356 10.7114 30.4074 10.8681 30.3492 11.0545L28.6474 17.1337L24.3804 15.2161C23.9619 14.8556 23.4268 14.6593 22.8744 14.6637L20.254 14.6235V14.6237C19.3273 14.5567 18.4154 14.885 17.744 15.5272C17.3521 15.9526 17.0756 16.4709 16.9408 17.0332L14.4008 24.9296L11.0173 34.4676H8.41683C8.21714 34.4676 8.02562 34.5468 7.88442 34.688C7.74323 34.8294 7.66382 35.0209 7.66382 35.2205V45.5617C7.66382 45.7614 7.74323 45.9529 7.88442 46.0941C8.02561 46.2355 8.21712 46.3147 8.41683 46.3147H32.2968C32.4967 46.3147 32.6882 46.2355 32.8294 46.0941C32.9706 45.9529 33.0498 45.7614 33.0498 45.5617V37.605L38.9834 45.9984C39.1258 46.1952 39.3531 46.3127 39.5959 46.3146H42.854C43.1168 46.3154 43.3607 46.1782 43.4965 45.9532C43.6243 45.7237 43.6243 45.4446 43.4965 45.2152L36.3832 31.5058ZM39.9874 44.8087L32.9093 34.7989C32.8834 34.7664 32.855 34.7362 32.824 34.7085L32.7789 34.6683L32.6633 34.583H32.6132C32.5775 34.5651 32.5406 34.5499 32.5027 34.5379H32.4574C32.4025 34.5306 32.3468 34.5306 32.2919 34.5379H23.2559C20.8012 34.292 19.6666 32.6957 19.4106 29.1766L19.1847 27.4196L22.2217 21.737C22.35 21.5002 22.3422 21.2131 22.2013 20.9837C22.0604 20.7542 21.8078 20.6175 21.5387 20.6247C21.2695 20.632 21.0247 20.7824 20.8964 21.0191L17.6686 26.9879L13.6928 34.4827H12.6135L15.8263 25.4166L18.266 17.9118L18.3062 17.9569C18.3436 17.4526 18.5327 16.9713 18.8484 16.5764C19.2287 16.2285 19.7426 16.0651 20.2539 16.1296L22.8843 16.1698C23.7929 16.1698 24.3903 17.7712 24.8371 19.3424L26.9003 29.2519C26.9342 29.4082 27.0163 29.5502 27.1353 29.6574C27.2543 29.7646 27.4038 29.8318 27.563 29.8491L32.2366 30.3511C33.8279 30.4766 34.1995 30.7276 35.0628 32.2186L41.5887 44.8237L39.9874 44.8087ZM9.1698 35.9886H9.52129C9.54466 36.1481 9.61852 36.296 9.73209 36.4102C9.87459 36.549 10.0655 36.6264 10.2642 36.6264C10.463 36.6264 10.6539 36.549 10.7964 36.4102C10.91 36.296 10.9838 36.1481 11.0072 35.9886H11.6497C11.6731 36.1481 11.747 36.296 11.8605 36.4102C12.003 36.549 12.1939 36.6264 12.3928 36.6264C12.5915 36.6264 12.7823 36.549 12.9248 36.4102C13.0384 36.296 13.1123 36.1481 13.1356 35.9886H13.7782C13.8015 36.1481 13.8754 36.296 13.9891 36.4102C14.1315 36.549 14.3225 36.6264 14.5212 36.6264C14.7199 36.6264 14.9109 36.549 15.0533 36.4102C15.1668 36.296 15.2409 36.1481 15.2641 35.9886H15.9117C15.9329 36.1478 16.0051 36.2957 16.1176 36.4102C16.26 36.549 16.4509 36.6264 16.6496 36.6264C16.8483 36.6264 17.0394 36.549 17.1819 36.4102C17.2954 36.296 17.3693 36.1481 17.3927 35.9886H18.0402C18.0635 36.1481 18.1375 36.296 18.2511 36.4102C18.3935 36.549 18.5844 36.6264 18.7831 36.6264C18.9818 36.6264 19.1729 36.549 19.3154 36.4102C19.4276 36.2957 19.4999 36.1478 19.5211 35.9886H20.1687C20.192 36.1481 20.2659 36.296 20.3795 36.4102C20.522 36.549 20.7128 36.6264 20.9116 36.6264C21.1104 36.6264 21.3013 36.549 21.4438 36.4102C21.5574 36.296 21.6312 36.1481 21.6546 35.9886H22.2971C22.3205 36.1481 22.3943 36.296 22.5079 36.4102C22.6504 36.549 22.8413 36.6264 23.0402 36.6264C23.2389 36.6264 23.4297 36.549 23.5722 36.4102C23.6785 36.3053 23.7502 36.1705 23.7781 36.0238H24.4558C24.4934 36.2014 24.5935 36.3597 24.738 36.4699C24.8825 36.5799 25.0617 36.6344 25.2429 36.6235C25.4243 36.6125 25.5956 36.5369 25.7258 36.4102C25.8355 36.3039 25.9077 36.1646 25.9315 36.0138H26.5842C26.6179 36.1939 26.7161 36.3555 26.8606 36.4684C27.0048 36.5813 27.1854 36.6377 27.3684 36.6271C27.5513 36.6163 27.724 36.5393 27.8543 36.4102C27.9649 36.2998 28.0384 36.1578 28.0651 36.0037H28.7126C28.7386 36.1569 28.8103 36.2988 28.9185 36.4102C29.0635 36.5481 29.2556 36.6254 29.4557 36.6261C29.6441 36.6191 29.823 36.5421 29.9577 36.4102C30.0609 36.3045 30.1292 36.1695 30.1534 36.0238H30.801C30.8244 36.1818 30.8982 36.328 31.0118 36.4405C31.1463 36.5727 31.3254 36.6498 31.5138 36.6563V37.2938C31.3177 37.3 31.1318 37.3828 30.9961 37.5248C30.8607 37.6668 30.7863 37.8564 30.7892 38.0525C30.7922 38.2487 30.8721 38.436 31.0118 38.5739C31.1469 38.7043 31.326 38.7795 31.5138 38.7847V39.4272C31.3264 39.4292 31.1466 39.5027 31.0118 39.6331C30.8705 39.7751 30.7912 39.9673 30.7912 40.1676C30.7912 40.3681 30.8705 40.5603 31.0118 40.7023C31.1469 40.8327 31.326 40.9079 31.5138 40.9131V41.5457C31.3264 41.5475 31.1466 41.6212 31.0118 41.7516C30.8705 41.8936 30.7912 42.0857 30.7912 42.2861C30.7912 42.4864 30.8705 42.6787 31.0118 42.8207C31.1476 42.951 31.3259 43.0276 31.5138 43.0366V43.654C31.3172 43.6514 31.128 43.7282 30.9891 43.8672C30.85 44.0061 30.7732 44.1955 30.7758 44.3919C30.7765 44.5393 30.8183 44.6836 30.8964 44.8086H30.058C30.14 44.6851 30.1836 44.5402 30.1835 44.3919C30.1831 44.1914 30.1016 43.9994 29.9576 43.8599C29.8173 43.7179 29.6261 43.6378 29.4264 43.6375C29.2267 43.6373 29.0352 43.7169 28.8947 43.8586C28.754 44.0002 28.6759 44.1923 28.6775 44.3919C28.6757 44.5397 28.7175 44.6848 28.7981 44.8086H27.9295C28.0099 44.6848 28.0519 44.5397 28.05 44.3919C28.0488 44.1926 27.9694 44.0016 27.8292 43.8599C27.6844 43.7257 27.4944 43.6514 27.297 43.6514C27.0997 43.6514 26.9097 43.7257 26.7649 43.8599C26.6245 44.0015 26.5453 44.1926 26.544 44.3919C26.544 44.5402 26.5876 44.6851 26.6695 44.8086H25.796C25.8779 44.6851 25.9217 44.5401 25.9215 44.3919C25.9202 44.1926 25.841 44.0016 25.7006 43.8599C25.5558 43.7257 25.3659 43.6514 25.1685 43.6514C24.9713 43.6514 24.7812 43.7257 24.6365 43.8599C24.4961 44.0015 24.4168 44.1926 24.4155 44.3919C24.4155 44.5402 24.4592 44.6851 24.541 44.8086H23.6676C23.7495 44.6851 23.7931 44.5401 23.7931 44.3919C23.7918 44.1926 23.7125 44.0016 23.5722 43.8599C23.4274 43.7257 23.2373 43.6514 23.0401 43.6514C22.8427 43.6514 22.6526 43.7257 22.5078 43.8599C22.3676 44.0015 22.2882 44.1926 22.2871 44.3919C22.2869 44.5402 22.3305 44.6851 22.4126 44.8086H21.539C21.621 44.6851 21.6646 44.5401 21.6645 44.3919C21.6633 44.1926 21.5841 44.0016 21.4437 43.8599C21.2989 43.7257 21.1089 43.6514 20.9115 43.6514C20.7142 43.6514 20.5242 43.7257 20.3794 43.8599C20.239 44.0015 20.1598 44.1926 20.1585 44.3919C20.1593 44.5393 20.2009 44.6836 20.2791 44.8086H19.4105C19.4925 44.6851 19.5362 44.5401 19.536 44.3919C19.5347 44.1926 19.4555 44.0016 19.3153 43.8599C19.1705 43.7257 18.9804 43.6514 18.783 43.6514C18.5858 43.6514 18.3957 43.7257 18.2509 43.8599C18.1106 44.0015 18.0313 44.1926 18.03 44.3919C18.0282 44.5397 18.07 44.6848 18.1504 44.8086H17.2821C17.3625 44.6848 17.4045 44.5397 17.4025 44.3919C17.4012 44.1926 17.3219 44.0016 17.1817 43.8599C17.037 43.7257 16.8469 43.6514 16.6495 43.6514C16.4523 43.6514 16.2622 43.7257 16.1174 43.8599C15.977 44.0015 15.8978 44.1926 15.8965 44.3919C15.8965 44.5402 15.9401 44.6851 16.022 44.8086H15.1536C15.2317 44.6836 15.2734 44.5393 15.274 44.3919C15.2727 44.1926 15.1935 44.0016 15.0531 43.8599C14.9083 43.7257 14.7183 43.6514 14.521 43.6514C14.3236 43.6514 14.1336 43.7257 13.989 43.8599C13.8486 44.0015 13.7693 44.1926 13.768 44.3919C13.7679 44.5402 13.8117 44.6851 13.8935 44.8086H13.0201C13.102 44.6851 13.1456 44.5401 13.1456 44.3919C13.1443 44.1926 13.065 44.0016 12.9247 43.8599C12.7799 43.7257 12.5898 43.6514 12.3926 43.6514C12.1952 43.6514 12.0052 43.7257 11.8604 43.8599C11.7201 44.0015 11.6407 44.1926 11.6396 44.3919C11.6394 44.5402 11.6831 44.6851 11.7651 44.8086H10.8915C10.9735 44.6851 11.0172 44.5401 11.017 44.3919C11.0158 44.1926 10.9364 44.0016 10.7962 43.8599C10.6514 43.7257 10.4614 43.6514 10.264 43.6514C10.0667 43.6514 9.8767 43.7257 9.73191 43.8599C9.59153 44.0015 9.51228 44.1926 9.51098 44.3919C9.51163 44.5393 9.55346 44.6836 9.63157 44.8086H9.16961L9.1698 35.9886ZM17.9447 29.6836C18.1003 31.3351 18.507 33.1975 19.7468 34.4827H15.3945L17.9447 29.6836ZM27.1714 18.1376C27.0191 18.1528 26.8761 18.2182 26.7649 18.3233C26.6235 18.4654 26.5443 18.6576 26.5443 18.8579C26.5443 19.0583 26.6235 19.2504 26.7649 19.3926C26.9065 19.5339 27.0985 19.6132 27.2987 19.6127C27.4989 19.6122 27.6906 19.5321 27.8316 19.39C27.9726 19.248 28.0511 19.0555 28.0499 18.8555C28.0494 18.7249 28.0148 18.597 27.9496 18.4839L28.6774 18.8153V18.8555C28.6733 19.0563 28.7513 19.2503 28.8934 19.3924C29.0356 19.5346 29.2296 19.6126 29.4304 19.6085C29.6188 19.6014 29.7977 19.5245 29.9324 19.3926C30.0762 19.2519 30.1572 19.0591 30.1572 18.8579C30.1572 18.6568 30.0762 18.464 29.9324 18.3233C29.9324 18.3233 29.8922 18.2981 29.8721 18.2831L30.831 14.8594C30.8642 14.9629 30.9228 15.056 31.0018 15.1305C31.1433 15.2721 31.3354 15.3513 31.5356 15.3508C31.7358 15.3503 31.9275 15.2703 32.0685 15.1281C32.2094 14.9859 32.288 14.7936 32.2868 14.5934C32.2855 14.3941 32.2063 14.203 32.0659 14.0614C31.9294 13.939 31.7544 13.8679 31.5713 13.8605C31.3879 13.8532 31.2078 13.91 31.0619 14.0212L31.2979 13.1778C31.3738 13.2038 31.4536 13.2173 31.5338 13.218C31.7445 13.2268 31.9492 13.1463 32.0973 12.9962C32.2455 12.8461 32.3234 12.6405 32.312 12.4299C32.314 12.4081 32.314 12.3862 32.312 12.3647L32.6383 12.45L32.1363 16.1747H32.1362C31.9916 16.0408 31.8015 15.9662 31.6041 15.9662C31.4069 15.9662 31.2168 16.0407 31.072 16.1747C30.9307 16.3167 30.8513 16.5091 30.8513 16.7094C30.8513 16.9098 30.9307 17.1019 31.072 17.2439C31.2049 17.3681 31.3774 17.441 31.559 17.4498C31.6915 17.449 31.8216 17.4126 31.9355 17.3444L31.825 18.1326C31.6902 18.0824 31.5441 18.0709 31.4031 18.0992C31.2621 18.1277 31.1317 18.1948 31.0268 18.2932C30.8854 18.4352 30.8062 18.6274 30.8062 18.8279C30.8062 19.0282 30.8854 19.2204 31.0268 19.3624C31.1696 19.5004 31.3603 19.5779 31.559 19.5782H31.6193L31.5289 20.2207H31.5288C31.334 20.222 31.1479 20.3015 31.0119 20.441C30.8761 20.5807 30.8019 20.769 30.806 20.9638C30.8067 21.1282 30.8593 21.288 30.9565 21.4207C30.723 21.6284 30.4345 21.7645 30.1256 21.8125C29.8166 21.8607 29.5004 21.8187 29.2146 21.6916L27.9998 21.2448C28.0315 21.1545 28.0485 21.0595 28.05 20.9638C28.0412 20.7749 27.9624 20.5959 27.8292 20.4618C27.6844 20.3278 27.4944 20.2532 27.297 20.2532C27.0997 20.2532 26.9097 20.3278 26.7649 20.4618C26.7159 20.5149 26.6737 20.5739 26.6394 20.6374L26.3031 19.0311C26.3054 19.0144 26.3054 18.9976 26.3031 18.9809C26.1827 18.5693 26.0371 18.0622 25.8413 17.5402L27.1714 18.1376Z" fill="white"/>
<path d="M24.9779 9.12176C24.9779 7.80598 24.4551 6.54429 23.5245 5.61397C22.594 4.68385 21.3322 4.16139 20.0164 4.1619C18.7008 4.16239 17.4391 4.68565 16.5093 5.61643C15.5793 6.54722 15.0576 7.80941 15.0584 9.12502C15.0592 10.4406 15.5829 11.7021 16.514 12.6316C17.4451 13.5613 18.7075 14.0827 20.0231 14.0814C21.3376 14.0801 22.5978 13.5569 23.527 12.6269C24.456 11.6969 24.9779 10.4362 24.9779 9.12171L24.9779 9.12176ZM23.4719 9.12176C23.4732 10.0383 23.1101 10.9178 22.4626 11.5665C21.8151 12.2153 20.9364 12.58 20.0198 12.5805C19.1032 12.5808 18.2241 12.2169 17.5758 11.5688C16.9277 10.9207 16.5638 10.0415 16.5643 9.12498C16.5648 8.20841 16.9295 7.32958 17.5783 6.68213C18.227 6.03456 19.1065 5.67161 20.023 5.67291C20.9373 5.67422 21.8137 6.03797 22.4601 6.68443C23.1066 7.3309 23.4705 8.20741 23.4718 9.12171L23.4719 9.12176Z" fill="white"/>
<path d="M29.9578 38.5338C30.1016 38.3931 30.1827 38.2004 30.1827 37.9991C30.1827 37.798 30.1016 37.6053 29.9578 37.4646C29.7781 37.285 29.5197 37.2082 29.271 37.2604C29.0223 37.3125 28.8167 37.4865 28.7242 37.7233C28.6318 37.9601 28.6649 38.2274 28.8125 38.4343C28.96 38.6413 29.2019 38.7598 29.4558 38.7497C29.6442 38.7426 29.8232 38.6657 29.9578 38.5338Z" fill="white"/>
<path d="M28.8935 39.6031C28.7521 39.7448 28.6729 39.9369 28.6733 40.1371C28.6737 40.3371 28.7539 40.529 28.8961 40.6698C29.0381 40.8109 29.2304 40.8895 29.4306 40.8883C29.619 40.8813 29.7979 40.8043 29.9326 40.6724C30.0764 40.5317 30.1574 40.3389 30.1574 40.1378C30.1574 39.9366 30.0764 39.7438 29.9326 39.6031C29.7894 39.4761 29.6046 39.406 29.4131 39.406C29.2216 39.406 29.0368 39.4761 28.8935 39.6031Z" fill="white"/>
<path d="M28.8935 41.7315C28.7521 41.8731 28.6729 42.0652 28.6733 42.2654C28.6737 42.4656 28.7539 42.6573 28.8961 42.7983C29.0381 42.9391 29.2304 43.0177 29.4306 43.0166C29.619 43.0096 29.7979 42.9326 29.9326 42.8007C30.0764 42.66 30.1574 42.4674 30.1574 42.2661C30.1574 42.0649 30.0764 41.8722 29.9326 41.7316C29.7894 41.6044 29.6046 41.5343 29.4131 41.5343C29.2216 41.5343 29.0368 41.6044 28.8935 41.7315Z" fill="white"/>
<path d="M27.8294 38.5337C27.9705 38.3917 28.05 38.1994 28.05 37.9991C28.05 37.7987 27.9705 37.6066 27.8294 37.4646C27.6846 37.3304 27.4945 37.2559 27.2971 37.2559C27.0999 37.2559 26.9098 37.3304 26.765 37.4646C26.6237 37.6066 26.5444 37.7987 26.5444 37.9991C26.5444 38.1994 26.6237 38.3917 26.765 38.5337C26.9075 38.6723 27.0984 38.7499 27.2971 38.7499C27.496 38.7499 27.6868 38.6723 27.8294 38.5337Z" fill="white"/>
<path d="M27.8294 40.6723C27.9705 40.5301 28.05 40.338 28.05 40.1376C28.05 39.9373 27.9705 39.7451 27.8294 39.603C27.6846 39.469 27.4945 39.3944 27.2971 39.3944C27.0999 39.3944 26.9098 39.469 26.765 39.603C26.6237 39.7451 26.5444 39.9373 26.5444 40.1376C26.5444 40.338 26.6237 40.5301 26.765 40.6723C26.9075 40.8109 27.0984 40.8885 27.2971 40.8885C27.496 40.8885 27.6868 40.8109 27.8294 40.6723Z" fill="white"/>
<path d="M26.765 41.7315C26.6237 41.8735 26.5444 42.0657 26.5444 42.266C26.5444 42.4664 26.6237 42.6587 26.765 42.8007C26.9067 42.9422 27.0987 43.0215 27.2989 43.021C27.4991 43.0205 27.6908 42.9402 27.8318 42.7982C27.9728 42.6561 28.0512 42.4637 28.0501 42.2636C28.049 42.0642 27.9695 41.8732 27.8293 41.7315C27.6846 41.5973 27.4945 41.5228 27.2971 41.5228C27.0999 41.5228 26.9098 41.5974 26.765 41.7315Z" fill="white"/>
<path d="M25.7007 38.5337C25.8421 38.3917 25.9215 38.1994 25.9215 37.9991C25.9215 37.7987 25.8421 37.6066 25.7007 37.4646C25.5559 37.3304 25.366 37.2559 25.1686 37.2559C24.9714 37.2559 24.7814 37.3304 24.6366 37.4646C24.4946 37.6059 24.4143 37.7978 24.4133 37.9981C24.4124 38.1984 24.4908 38.3911 24.6315 38.5338C24.774 38.6724 24.9649 38.75 25.1636 38.75C25.3624 38.75 25.5533 38.6724 25.6958 38.5338L25.7007 38.5337Z" fill="white"/>
<path d="M25.7009 40.6723C25.8423 40.5301 25.9217 40.338 25.9217 40.1376C25.9217 39.9373 25.8423 39.7451 25.7009 39.603C25.5562 39.469 25.3663 39.3944 25.1689 39.3944C24.9716 39.3944 24.7816 39.469 24.6368 39.603C24.4954 39.7451 24.416 39.9373 24.416 40.1376C24.416 40.338 24.4954 40.5301 24.6368 40.6723C24.7791 40.8109 24.9701 40.8885 25.1689 40.8885C25.3676 40.8885 25.5586 40.8109 25.7009 40.6723Z" fill="white"/>
<path d="M24.6317 41.7315C24.4904 41.8735 24.4111 42.0657 24.4111 42.266C24.4111 42.4664 24.4904 42.6587 24.6317 42.8007C24.7734 42.9422 24.9654 43.0215 25.1656 43.021C25.3658 43.0205 25.5575 42.9402 25.6985 42.7982C25.8395 42.6561 25.9179 42.4637 25.9168 42.2636C25.9157 42.0642 25.8362 41.8732 25.696 41.7315C25.5513 41.5973 25.3612 41.5228 25.1638 41.5228C24.9666 41.5228 24.7765 41.5974 24.6317 41.7315Z" fill="white"/>
<path d="M23.5723 38.5337C23.7136 38.3917 23.7929 38.1994 23.7929 37.9991C23.7929 37.7987 23.7136 37.6066 23.5723 37.4646C23.4275 37.3304 23.2374 37.2559 23.0402 37.2559C22.8428 37.2559 22.6528 37.3304 22.508 37.4646C22.3668 37.6066 22.2874 37.7987 22.2874 37.9991C22.2874 38.1994 22.3668 38.3917 22.508 38.5337C22.6504 38.6723 22.8413 38.7499 23.0402 38.7499C23.2389 38.7499 23.4298 38.6723 23.5723 38.5337Z" fill="white"/>
<path d="M23.5723 40.6723C23.7136 40.5301 23.7929 40.338 23.7929 40.1376C23.7929 39.9373 23.7136 39.7451 23.5723 39.603C23.4275 39.469 23.2374 39.3944 23.0402 39.3944C22.8428 39.3944 22.6528 39.469 22.508 39.603C22.3668 39.7451 22.2874 39.9373 22.2874 40.1376C22.2874 40.338 22.3668 40.5301 22.508 40.6723C22.6504 40.8109 22.8413 40.8885 23.0402 40.8885C23.2389 40.8885 23.4298 40.8109 23.5723 40.6723Z" fill="white"/>
<path d="M22.508 41.7315C22.3668 41.8735 22.2874 42.0657 22.2874 42.266C22.2874 42.4664 22.3668 42.6587 22.508 42.8007C22.6496 42.9422 22.8418 43.0215 23.042 43.021C23.242 43.0205 23.4339 42.9402 23.5747 42.7982C23.7157 42.6561 23.7943 42.4637 23.7932 42.2636C23.7919 42.0642 23.7126 41.8732 23.5723 41.7315C23.4275 41.5973 23.2374 41.5228 23.0402 41.5228C22.8428 41.5228 22.6528 41.5974 22.508 41.7315Z" fill="white"/>
<path d="M21.4441 38.5337C21.5855 38.3917 21.6647 38.1994 21.6647 37.9991C21.6647 37.7987 21.5855 37.6066 21.4441 37.4646C21.2993 37.3304 21.1093 37.2559 20.9119 37.2559C20.7146 37.2559 20.5246 37.3304 20.3798 37.4646C20.2384 37.6066 20.1592 37.7987 20.1592 37.9991C20.1592 38.1994 20.2384 38.3917 20.3798 38.5337C20.5223 38.6723 20.7131 38.7499 20.9119 38.7499C21.1107 38.7499 21.3016 38.6723 21.4441 38.5337Z" fill="white"/>
<path d="M21.4441 40.6723C21.5855 40.5301 21.6647 40.338 21.6647 40.1376C21.6647 39.9373 21.5855 39.7451 21.4441 39.603C21.2993 39.469 21.1093 39.3944 20.9119 39.3944C20.7146 39.3944 20.5246 39.469 20.3798 39.603C20.2384 39.7451 20.1592 39.9373 20.1592 40.1376C20.1592 40.338 20.2384 40.5301 20.3798 40.6723C20.5223 40.8109 20.7131 40.8885 20.9119 40.8885C21.1107 40.8885 21.3016 40.8109 21.4441 40.6723Z" fill="white"/>
<path d="M20.3798 41.7315C20.2384 41.8735 20.1592 42.0657 20.1592 42.266C20.1592 42.4664 20.2384 42.6587 20.3798 42.8007C20.5215 42.9422 20.7135 43.0215 20.9137 43.021C21.1138 43.0205 21.3057 42.9402 21.4465 42.7982C21.5875 42.6561 21.6662 42.4637 21.6648 42.2636C21.6637 42.0642 21.5844 41.8732 21.4441 41.7315C21.2993 41.5973 21.1093 41.5228 20.9118 41.5228C20.7146 41.5228 20.5246 41.5974 20.3798 41.7315Z" fill="white"/>
<path d="M19.3152 38.5337C19.4564 38.3917 19.5358 38.1994 19.5358 37.9991C19.5358 37.7987 19.4564 37.6066 19.3152 37.4646C19.1704 37.3304 18.9804 37.2559 18.783 37.2559C18.5857 37.2559 18.3957 37.3304 18.2509 37.4646C18.1095 37.6066 18.0303 37.7987 18.0303 37.9991C18.0303 38.1994 18.1095 38.3917 18.2509 38.5337C18.3934 38.6723 18.5842 38.7499 18.783 38.7499C18.9817 38.7499 19.1727 38.6723 19.3152 38.5337Z" fill="white"/>
<path d="M19.3152 40.6723C19.4564 40.5301 19.5358 40.338 19.5358 40.1376C19.5358 39.9373 19.4564 39.7451 19.3152 39.603C19.1704 39.469 18.9804 39.3944 18.783 39.3944C18.5857 39.3944 18.3957 39.469 18.2509 39.603C18.1095 39.7451 18.0303 39.9373 18.0303 40.1376C18.0303 40.338 18.1095 40.5301 18.2509 40.6723C18.3934 40.8109 18.5842 40.8885 18.783 40.8885C18.9817 40.8885 19.1727 40.8109 19.3152 40.6723Z" fill="white"/>
<path d="M18.2509 41.7315C18.1095 41.8735 18.0303 42.0657 18.0303 42.266C18.0303 42.4664 18.1095 42.6587 18.2509 42.8007C18.3926 42.9422 18.5846 43.0215 18.7848 43.021C18.9849 43.0205 19.1766 42.9402 19.3176 42.7982C19.4585 42.6561 19.5371 42.4637 19.5359 42.2636C19.5346 42.0642 19.4554 41.8732 19.3152 41.7315C19.1704 41.5973 18.9803 41.5228 18.7829 41.5228C18.5857 41.5228 18.3957 41.5974 18.2509 41.7315Z" fill="white"/>
<path d="M17.1819 38.5337C17.3231 38.3917 17.4025 38.1994 17.4025 37.9991C17.4025 37.7987 17.3231 37.6066 17.1819 37.4646C17.0371 37.3304 16.8471 37.2559 16.6497 37.2559C16.4524 37.2559 16.2624 37.3304 16.1176 37.4646C15.9736 37.604 15.8906 37.7947 15.8869 37.995C15.8831 38.1954 15.9588 38.3892 16.0975 38.5338C16.24 38.6724 16.4309 38.75 16.6296 38.75C16.8284 38.75 17.0193 38.6724 17.1618 38.5338L17.1819 38.5337Z" fill="white"/>
<path d="M17.1821 40.6723C17.3233 40.5301 17.4027 40.338 17.4027 40.1376C17.4027 39.9373 17.3233 39.7451 17.1821 39.603C17.0374 39.469 16.8473 39.3944 16.6499 39.3944C16.4527 39.3944 16.2626 39.469 16.1178 39.603C15.9765 39.7451 15.8972 39.9373 15.8972 40.1376C15.8972 40.338 15.9765 40.5301 16.1178 40.6723C16.2603 40.8109 16.4512 40.8885 16.6499 40.8885C16.8486 40.8885 17.0396 40.8109 17.1821 40.6723Z" fill="white"/>
<path d="M16.0978 41.7315C15.9565 41.8735 15.8772 42.0657 15.8772 42.266C15.8772 42.4664 15.9565 42.6587 16.0978 42.8007C16.2395 42.9422 16.4315 43.0215 16.6317 43.021C16.8319 43.0205 17.0235 42.9402 17.1645 42.7982C17.3056 42.6561 17.384 42.4637 17.3829 42.2636C17.3817 42.0642 17.3023 41.8732 17.1621 41.7315C17.0173 41.5973 16.8273 41.5228 16.6299 41.5228C16.4326 41.5228 16.2426 41.5974 16.0978 41.7315Z" fill="white"/>
<path d="M15.0535 38.5337C15.1948 38.3917 15.2742 38.1994 15.2742 37.9991C15.2742 37.7987 15.1948 37.6066 15.0535 37.4646C14.9087 37.3304 14.7186 37.2559 14.5214 37.2559C14.324 37.2559 14.1339 37.3304 13.9893 37.4646C13.848 37.6066 13.7686 37.7987 13.7686 37.9991C13.7686 38.1994 13.848 38.3917 13.9893 38.5337C14.1316 38.6723 14.3227 38.7499 14.5214 38.7499C14.7201 38.7499 14.9111 38.6723 15.0535 38.5337Z" fill="white"/>
<path d="M15.0535 40.6723C15.1948 40.5301 15.2742 40.338 15.2742 40.1376C15.2742 39.9373 15.1948 39.7451 15.0535 39.603C14.9087 39.469 14.7186 39.3944 14.5214 39.3944C14.324 39.3944 14.1339 39.469 13.9893 39.603C13.848 39.7451 13.7686 39.9373 13.7686 40.1376C13.7686 40.338 13.848 40.5301 13.9893 40.6723C14.1316 40.8109 14.3227 40.8885 14.5214 40.8885C14.7201 40.8885 14.9111 40.8109 15.0535 40.6723Z" fill="white"/>
<path d="M13.9893 41.7315C13.848 41.8735 13.7686 42.0657 13.7686 42.266C13.7686 42.4664 13.848 42.6587 13.9893 42.8007C14.1308 42.9422 14.323 43.0215 14.5232 43.021C14.7234 43.0205 14.9151 42.9402 15.0561 42.7982C15.1969 42.6561 15.2755 42.4637 15.2744 42.2636C15.2731 42.0642 15.1938 41.8732 15.0535 41.7315C14.9087 41.5973 14.7186 41.5228 14.5214 41.5228C14.324 41.5228 14.134 41.5974 13.9893 41.7315Z" fill="white"/>
<path d="M12.9251 38.5337C13.0664 38.3917 13.1457 38.1994 13.1457 37.9991C13.1457 37.7987 13.0664 37.6066 12.9251 37.4646C12.7803 37.3304 12.5902 37.2559 12.393 37.2559C12.1956 37.2559 12.0055 37.3304 11.8607 37.4646C11.7196 37.6066 11.6401 37.7987 11.6401 37.9991C11.6401 38.1994 11.7196 38.3917 11.8607 38.5337C12.0032 38.6723 12.1941 38.7499 12.393 38.7499C12.5917 38.7499 12.7826 38.6723 12.9251 38.5337Z" fill="white"/>
<path d="M12.9251 40.6723C13.0664 40.5301 13.1457 40.338 13.1457 40.1376C13.1457 39.9373 13.0664 39.7451 12.9251 39.603C12.7803 39.469 12.5902 39.3944 12.393 39.3944C12.1956 39.3944 12.0055 39.469 11.8607 39.603C11.7196 39.7451 11.6401 39.9373 11.6401 40.1376C11.6401 40.338 11.7196 40.5301 11.8607 40.6723C12.0032 40.8109 12.1941 40.8885 12.393 40.8885C12.5917 40.8885 12.7826 40.8109 12.9251 40.6723Z" fill="white"/>
<path d="M11.8607 41.7315C11.7196 41.8735 11.6401 42.0657 11.6401 42.266C11.6401 42.4664 11.7196 42.6587 11.8607 42.8007C12.0024 42.9422 12.1946 43.0215 12.3946 43.021C12.5948 43.0205 12.7866 42.9402 12.9275 42.7982C13.0685 42.6561 13.1471 42.4637 13.146 42.2636C13.1447 42.0642 13.0654 41.8732 12.925 41.7315C12.7803 41.5973 12.5902 41.5228 12.393 41.5228C12.1956 41.5228 12.0055 41.5974 11.8607 41.7315Z" fill="white"/>
<path d="M10.7964 38.5337C10.9376 38.3917 11.017 38.1994 11.017 37.9991C11.017 37.7987 10.9376 37.6066 10.7964 37.4646C10.6516 37.3304 10.4616 37.2559 10.2642 37.2559C10.0669 37.2559 9.87687 37.3304 9.73208 37.4646C9.59073 37.6066 9.51147 37.7987 9.51147 37.9991C9.51147 38.1994 9.59073 38.3917 9.73208 38.5337C9.87457 38.6723 10.0654 38.7499 10.2642 38.7499C10.463 38.7499 10.6539 38.6723 10.7964 38.5337Z" fill="white"/>
<path d="M10.2646 40.8882C10.4648 40.8895 10.6571 40.8106 10.7987 40.6691C10.9402 40.5276 11.0191 40.3352 11.0176 40.1352C11.0165 39.9357 10.9371 39.7446 10.7969 39.603C10.6521 39.469 10.4621 39.3944 10.2646 39.3944C10.0674 39.3944 9.87736 39.469 9.73257 39.603C9.59122 39.7451 9.51196 39.9373 9.51196 40.1376C9.51196 40.338 9.59122 40.5301 9.73257 40.6723C9.87539 40.8104 10.0661 40.8877 10.2646 40.8882L10.2646 40.8882Z" fill="white"/>
<path d="M10.2646 43.0183C10.4648 43.0196 10.6571 42.9407 10.7987 42.7992C10.9402 42.6577 11.0191 42.4655 11.0176 42.2653C11.0165 42.066 10.9371 41.8749 10.7969 41.7332C10.6521 41.5991 10.4621 41.5246 10.2646 41.5246C10.0674 41.5246 9.87736 41.5991 9.73257 41.7332C9.59122 41.8752 9.51196 42.0674 9.51196 42.2677C9.51196 42.4681 9.59122 42.6604 9.73257 42.8024C9.87539 42.9405 10.0661 43.0178 10.2646 43.0183L10.2646 43.0183Z" fill="white"/>
</svg>
