<svg width="51" height="51" viewBox="0 0 51 51" fill="none" xmlns="http://www.w3.org/2000/svg">
<path d="M22.3359 19.1823C22.3359 20.8392 21.3286 22.1823 20.0859 22.1823C18.8433 22.1823 17.8359 20.8392 17.8359 19.1823C17.8359 17.5253 18.8433 16.1823 20.0859 16.1823C21.3286 16.1823 22.3359 17.5253 22.3359 19.1823Z" fill="white"/>
<path d="M34.3359 16.1823C34.3359 17.8392 33.3286 19.1823 32.0859 19.1823C30.8433 19.1823 29.8359 17.8392 29.8359 16.1823C29.8359 14.5253 30.8433 13.1823 32.0859 13.1823C33.3286 13.1823 34.3359 14.5253 34.3359 16.1823Z" fill="white"/>
<path d="M25.3359 2.68225C12.9293 2.68225 2.83594 12.7756 2.83594 25.1822C2.83594 34.9989 9.15802 43.3622 17.9422 46.4281C18.1499 46.5109 18.3598 46.5821 18.5726 46.6418C20.7083 47.3164 22.9801 47.6822 25.3359 47.6822C37.7426 47.6822 47.8359 37.5888 47.8359 25.1822C47.8359 12.7755 37.7426 2.68216 25.3359 2.68216L25.3359 2.68225ZM17.2055 41.7568L16.8916 40.9012C16.2158 39.0584 15.9746 37.0539 16.1941 35.1037L16.234 34.7517L14.5623 30.1942C14.4243 29.818 14.4412 29.4106 14.6097 29.0472C14.7778 28.6836 15.0779 28.4072 15.4543 28.2694C15.6227 28.2077 15.7972 28.1768 15.9713 28.1768C16.1862 28.1768 16.4002 28.2236 16.601 28.3167C16.9647 28.4852 17.241 28.785 17.3789 29.1613L18.0732 31.0534C18.4394 32.0526 19.173 32.8496 20.1388 33.2967C21.1045 33.7441 22.1866 33.7888 23.1857 33.4222L34.2315 29.3705C34.62 29.2292 35.0515 29.4282 35.1939 29.8163C35.3365 30.2048 35.1363 30.6363 34.7481 30.779L32.0196 31.7798C31.0558 32.1333 30.2872 32.8412 29.8555 33.7726C29.4239 34.7043 29.3813 35.748 29.7346 36.7121L29.8798 37.1081C30.1772 37.9191 30.141 38.7975 29.7781 39.5815C29.4148 40.3655 28.7683 40.9609 27.9569 41.2585L21.3557 43.6798C20.7364 43.9066 20.092 43.9305 19.4942 43.7874C19.3083 43.729 19.1255 43.664 18.9421 43.6002C18.1643 43.2581 17.5202 42.6152 17.2053 41.7565L17.2055 41.7568ZM27.7593 44.5265L28.9899 44.075C30.5534 43.5015 31.7996 42.3535 32.4996 40.8426C33.1999 39.3315 33.2695 37.6385 32.6959 36.0751L32.5508 35.6791C32.4731 35.4675 32.4827 35.2385 32.5773 35.034C32.672 34.8295 32.8408 34.6741 33.0524 34.5965L35.7809 33.5956C37.7218 32.8837 38.7219 30.7253 38.0102 28.7835C37.2981 26.8426 35.1399 25.8425 33.1981 26.5542L22.1519 30.606C21.9053 30.6968 21.6377 30.6854 21.3991 30.575C21.1605 30.4644 20.9794 30.2677 20.8889 30.0205L20.1945 28.1281C19.3402 25.7987 16.751 24.5977 14.4204 25.453C13.2919 25.8667 12.392 26.6955 11.8868 27.7861C11.3814 28.8768 11.3312 30.099 11.7452 31.2272L13.1761 35.1286C13.006 37.0422 13.1971 38.9883 13.7234 40.8369C8.94051 37.2805 5.83593 31.5877 5.83593 25.1823C5.83593 14.4298 14.5834 5.68233 25.3359 5.68233C36.0884 5.68233 44.8359 14.4298 44.8359 25.1823C44.8359 35.1136 37.3714 43.3286 27.7593 44.5265Z" fill="white"/>
<path d="M22.81 13.2589L18.31 11.7589C17.5234 11.4957 16.6742 11.9218 16.4125 12.7077C16.1507 13.4936 16.5755 14.3433 17.3613 14.6051L21.8613 16.1051C22.0187 16.1577 22.1787 16.1826 22.3359 16.1826C22.9638 16.1826 23.5493 15.785 23.7587 15.1566C24.0208 14.3706 23.596 13.521 22.81 13.2589Z" fill="white"/>
<path d="M27.2756 10.6218C26.6897 11.2076 26.6897 12.1572 27.2756 12.7429C27.8611 13.3288 28.8112 13.3288 29.3967 12.7429C30.4665 11.6736 32.2058 11.6736 33.2756 12.7429C33.5684 13.0359 33.9524 13.1824 34.3362 13.1824C34.72 13.1824 35.1039 13.0359 35.3967 12.7429C35.9826 12.1571 35.9826 11.2076 35.3967 10.6218C33.158 8.38257 29.5142 8.38257 27.2755 10.6218H27.2756Z" fill="white"/>
<path d="M30.9721 22.2268L24.9721 23.7268C24.1684 23.9278 23.6796 24.7423 23.8806 25.546C24.051 26.2276 24.6627 26.6824 25.3347 26.6824C25.4553 26.6824 25.5775 26.6681 25.6998 26.6375L31.6998 25.1375C32.5035 24.9364 32.9923 24.122 32.7912 23.3183C32.5902 22.5144 31.7748 22.0266 30.9721 22.2268Z" fill="white"/>
</svg>
