<svg width="51" height="51" viewBox="0 0 51 51" fill="none" xmlns="http://www.w3.org/2000/svg">
<g clip-path="url(#clip0_1039_666)">
<path d="M38.1314 7.36513C38.1309 7.36513 38.13 7.36415 38.129 7.36318C36.0559 4.95609 33.2315 3.36822 30.1202 2.81609C30.0623 2.79461 30.0013 2.77817 29.9368 2.77003C29.8999 2.7645 29.8632 2.76596 29.8263 2.76596C29.8048 2.76303 29.7843 2.75799 29.7633 2.75538C28.8164 1.46942 27.2959 0.629883 25.58 0.629883C23.864 0.629883 22.3445 1.46938 21.3971 2.75538C21.3761 2.75831 21.3556 2.76238 21.335 2.76596C21.2986 2.76596 21.2626 2.76499 21.2255 2.77003C21.1594 2.77752 21.0969 2.7951 21.0375 2.81658C17.9275 3.36916 15.1042 4.95704 13.0309 7.36366C13.0304 7.36415 13.0294 7.36562 13.0289 7.36562C12.2979 8.21408 12.1769 9.4387 12.7284 10.4146V10.4156V10.4166C14.2185 13.0515 16.552 15.1128 19.3301 16.292V47.2628C19.3301 48.9074 20.6682 50.2464 22.3132 50.2464C23.9582 50.2464 25.2963 48.9073 25.2963 47.2628L25.2956 30.9162C25.2956 30.8146 25.3781 30.7316 25.4795 30.7316C25.5811 30.7316 25.6635 30.8146 25.6635 30.9162V47.2628C25.6635 48.9074 27.0015 50.2464 28.647 50.2464C30.2916 50.2464 31.6294 48.9073 31.6294 47.2628L31.6296 30.9162V16.3741C34.4986 15.209 36.9029 13.1185 38.4317 10.4141C38.9838 9.43945 38.8628 8.21357 38.1319 7.3649L38.1314 7.36513ZM28.8027 11.7343H22.3568C20.9319 11.3224 19.6273 10.5253 18.6028 9.45338C19.3332 8.93988 20.1438 8.54338 20.9988 8.28346C21.8762 9.91596 23.6003 11.0284 25.5804 11.0284C27.5604 11.0284 29.2848 9.91546 30.1621 8.28346C31.0171 8.54339 31.8271 8.93938 32.5586 9.45338C31.5326 10.5258 30.2276 11.3223 28.8031 11.7343H28.8027ZM25.5792 2.25055C27.5527 2.25055 29.1586 3.85651 29.1586 5.83063C29.1586 7.80363 27.5527 9.40859 25.5792 9.40859C23.6062 9.40859 22.0003 7.80359 22.0003 5.83063C22.0008 3.85651 23.6062 2.25055 25.5792 2.25055ZM30.548 15.0697C30.541 15.0712 30.5364 15.0757 30.5299 15.0777C30.5 15.0892 30.4734 15.1032 30.4459 15.1177C30.4249 15.1283 30.4034 15.1382 30.3839 15.1513C30.3614 15.1653 30.3414 15.1822 30.3204 15.1993C30.2999 15.2152 30.2784 15.2308 30.2599 15.2497C30.2418 15.2662 30.2268 15.2857 30.2099 15.3047C30.1923 15.3248 30.174 15.3448 30.1585 15.3663C30.144 15.3873 30.132 15.4102 30.1194 15.4328C30.1064 15.4558 30.0924 15.4773 30.082 15.5014C30.0714 15.5243 30.0644 15.5489 30.0564 15.5728C30.0475 15.5988 30.0379 15.6247 30.0319 15.6508C30.0263 15.6737 30.0239 15.6973 30.0213 15.7208C30.0167 15.7512 30.0128 15.7803 30.0118 15.8117C30.0114 15.8192 30.0099 15.8252 30.0099 15.8327V47.2636C30.0099 48.0145 29.3979 48.627 28.6469 48.627C27.895 48.627 27.2835 48.0146 27.2835 47.2636L27.2833 30.9165C27.2833 30.86 27.2773 30.805 27.2669 30.7524C27.1829 29.8354 26.4184 29.112 25.4795 29.112C24.5405 29.112 23.776 29.8354 23.6915 30.7524C23.681 30.805 23.6751 30.8598 23.6751 30.9165V47.2632C23.6751 48.0141 23.0636 48.6266 22.3121 48.6266C21.5607 48.6266 20.9492 48.0142 20.9492 47.2632L20.9489 30.9165V15.7581C20.9489 15.7526 20.9474 15.7482 20.9474 15.7432C20.9469 15.7123 20.9423 15.6821 20.9384 15.6512C20.9355 15.6283 20.9339 15.6047 20.929 15.5822C20.923 15.5567 20.914 15.5322 20.9056 15.5082C20.8976 15.4816 20.8901 15.4562 20.8795 15.4321C20.8701 15.4102 20.8571 15.3902 20.845 15.3687C20.832 15.3447 20.8195 15.3197 20.804 15.2972C20.789 15.2757 20.7714 15.2572 20.754 15.2367C20.7376 15.2171 20.7225 15.1966 20.7041 15.1792C20.6855 15.1607 20.664 15.1462 20.644 15.1293C20.623 15.1128 20.6035 15.0952 20.581 15.0803C20.5615 15.0677 20.54 15.0578 20.519 15.0472C20.492 15.0327 20.4659 15.0178 20.4375 15.0062C20.4324 15.0043 20.4285 15.0016 20.424 14.9992C17.7674 14.0002 15.5344 12.0892 14.1369 9.61712V9.61664C13.9209 9.23464 13.9684 8.75514 14.2544 8.42264H14.2549C15.9088 6.50059 18.106 5.17168 20.5403 4.57222C20.4392 4.97619 20.3798 5.3953 20.3798 5.83018C20.3798 6.14512 20.4124 6.45272 20.4669 6.75318C19.1729 7.15569 17.964 7.81664 16.9314 8.69768C16.9299 8.69914 16.9278 8.69963 16.9263 8.70061C16.9244 8.70256 16.9234 8.70468 16.9208 8.70565C16.9128 8.71265 16.9049 8.71819 16.8974 8.7247C16.8829 8.73772 16.8723 8.75269 16.8588 8.76571C16.8373 8.7872 16.8153 8.80819 16.7963 8.83179C16.7808 8.85132 16.7678 8.87183 16.7543 8.89282C16.7393 8.91577 16.7227 8.9384 16.7104 8.96379C16.6983 8.98722 16.6894 9.01082 16.6794 9.03475C16.6695 9.05867 16.6589 9.08325 16.6514 9.10783C16.6439 9.13338 16.6394 9.15975 16.6345 9.18482C16.63 9.20988 16.6239 9.23478 16.622 9.25985C16.6195 9.28638 16.62 9.31177 16.62 9.33781C16.62 9.36434 16.619 9.38924 16.6215 9.4148C16.6239 9.44133 16.63 9.46574 16.6345 9.49179C16.6396 9.51783 16.6439 9.54322 16.6514 9.56779C16.6589 9.59335 16.67 9.61825 16.6799 9.64332C16.6898 9.66724 16.6985 9.69133 16.7108 9.71477C16.7239 9.73983 16.7403 9.76278 16.7558 9.78573C16.7673 9.80331 16.7758 9.8217 16.7888 9.8383C16.7948 9.84627 16.8018 9.85279 16.8083 9.86076C16.8098 9.86271 16.8108 9.86483 16.8124 9.86727C16.8139 9.86874 16.8153 9.86971 16.817 9.87183C18.1309 11.5347 19.9755 12.7613 22.0174 13.3258C22.0234 13.3273 22.0294 13.3268 22.0359 13.3277C22.0994 13.3437 22.165 13.3552 22.2334 13.3552L28.9254 13.3551C28.994 13.3551 29.0599 13.344 29.1235 13.3276C29.13 13.3266 29.1356 13.3271 29.1416 13.3256C31.1845 12.7612 33.0301 11.5336 34.3445 9.86858C34.3455 9.86809 34.3465 9.8676 34.3469 9.86663C34.3479 9.86565 34.3484 9.86468 34.3494 9.86305C34.3564 9.8541 34.3639 9.8471 34.3709 9.83798C34.3854 9.81943 34.3948 9.79892 34.4073 9.78004C34.4213 9.75904 34.4363 9.73854 34.4479 9.7151C34.4614 9.69052 34.4713 9.66415 34.4819 9.63811C34.4908 9.61467 34.5004 9.59319 34.5074 9.5691C34.5164 9.54111 34.5205 9.51409 34.526 9.4861C34.5301 9.46266 34.5354 9.43955 34.5375 9.41513C34.54 9.38763 34.5395 9.36061 34.5395 9.33261C34.539 9.30869 34.5395 9.28411 34.5375 9.25953C34.5346 9.233 34.5286 9.20761 34.524 9.18108C34.519 9.15602 34.5151 9.1316 34.5076 9.10654C34.5001 9.08196 34.49 9.05852 34.4801 9.03509C34.4702 9.01002 34.4606 8.98512 34.4485 8.96152C34.4365 8.93955 34.422 8.91855 34.408 8.89755C34.3935 8.87412 34.3785 8.85052 34.3609 8.82903C34.345 8.8095 34.3264 8.79209 34.3084 8.77353C34.2924 8.75709 34.2789 8.73952 34.2609 8.72357C34.2514 8.71559 34.2418 8.70859 34.2319 8.70013C33.1979 7.81813 31.9869 7.15617 30.6918 6.75271C30.7454 6.45226 30.7789 6.14463 30.7789 5.82971C30.7789 5.39513 30.7193 4.97571 30.6189 4.57175C33.0528 5.17121 35.2498 6.50079 36.9031 8.42167L36.9041 8.42216C37.19 8.75468 37.238 9.23466 37.0216 9.61666C35.5885 12.1522 33.2895 14.0883 30.5474 15.0696L30.548 15.0697Z" fill="white"/>
</g>
<defs>
<clipPath id="clip0_1039_666">
<rect width="50" height="50" fill="white" transform="translate(0.335938 0.182251)"/>
</clipPath>
</defs>
</svg>
