<svg width="51" height="51" viewBox="0 0 51 51" fill="none" xmlns="http://www.w3.org/2000/svg">
<path d="M38.2894 10.1456C44.2373 16.0935 45.7169 25.0585 42.2336 32.5143L42.2933 32.5664C45.157 34.9896 45.5143 39.2756 43.0911 42.1393C42.9695 42.2832 42.8419 42.4217 42.7088 42.5549C40.1544 45.1092 36.0717 45.204 33.3905 42.8249L33.0874 42.5394L32.8792 42.3194L32.6724 42.0778C25.2157 45.5633 16.2486 44.0843 10.2995 38.1354C2.56945 30.4054 2.56945 17.8759 10.2995 10.1459C18.0295 2.41586 30.559 2.41586 38.289 10.1459L38.2894 10.1456ZM37.1263 30.9231C36.7998 30.6469 36.3377 30.5982 35.9609 30.8004C35.2801 31.1658 34.5911 31.6531 33.8955 32.2636L36.8163 35.1887C37.2232 35.5956 37.2232 36.2551 36.8163 36.6618C36.4548 37.0235 35.8934 37.0637 35.4875 36.7824L35.3431 36.6618L32.418 33.7411C31.8075 34.4367 31.3201 35.1257 30.9548 35.8063C30.7814 36.1294 30.7925 36.515 30.9727 36.8237L31.0768 36.971L34.4256 40.9242L34.576 41.0812C36.4151 42.9203 39.3969 42.9203 41.2356 41.0812C41.3279 40.9889 41.4163 40.8929 41.5006 40.7931C43.1043 38.8981 42.9516 36.1044 41.2076 34.3936L40.9475 34.1566L37.1263 30.9231ZM11.773 11.6185C4.85672 18.5348 4.85672 29.7456 11.773 36.6618C16.9584 41.8473 24.7071 43.2368 31.2709 40.4226L30.1666 39.1207C26.5896 39.8505 22.8199 38.8699 20.6116 36.6618C20.2047 36.2551 20.2047 35.5956 20.6116 35.1887L35.3428 20.4575C35.7497 20.0506 36.4092 20.0506 36.8159 20.4575C39.0236 22.665 40.0043 26.4337 39.2752 30.01L40.5775 31.1148C43.3909 24.5515 42.0008 16.8035 36.8159 11.6185C29.8997 4.7023 18.6888 4.7023 11.7726 11.6185L11.773 11.6185ZM36.0092 22.736L22.8905 35.8548L23.044 35.962C24.5912 36.9733 26.7358 37.4547 28.8844 37.2154C28.6454 36.4332 28.7167 35.5709 29.1191 34.8212C29.7197 33.7023 30.5679 32.5982 31.6602 31.506C32.7525 30.4137 33.8565 29.5654 34.9757 28.9648C35.7247 28.5628 36.586 28.4912 37.3669 28.7298C37.609 26.5817 37.1275 24.4369 36.1163 22.8898L36.0092 22.736ZM14.6342 24.3701C16.6804 22.5938 19.7821 22.6784 21.7276 24.624C23.7616 26.6579 23.7616 29.9557 21.7276 31.9895C19.6937 34.0235 16.3959 34.0235 14.3621 31.9895C12.4165 30.044 12.3318 26.9424 14.1082 24.8961L14.3621 24.624L14.6342 24.3701ZM20.2546 26.0972C19.0343 24.8766 17.0558 24.8766 15.8355 26.0972C14.6149 27.3175 14.6149 29.296 15.8355 30.5163C17.0558 31.7369 19.0343 31.7369 20.2546 30.5163C21.4752 29.296 21.4752 27.3175 20.2546 26.0972ZM18.6373 27.4497L18.7815 27.5703L19.8232 28.612C20.2301 29.0187 20.2301 29.6782 19.8232 30.085C19.4617 30.4466 18.9003 30.4868 18.4944 30.2056L18.3502 30.085L17.3085 29.0433C16.9016 28.6366 16.9016 27.9771 17.3085 27.5703C17.67 27.2087 18.2313 27.1685 18.6373 27.4497ZM19.1391 10.651C21.9866 7.8033 26.6033 7.8033 29.4508 10.651C32.2984 13.4985 32.2984 18.1151 29.4508 20.9626C26.6033 23.8103 21.9866 23.8103 19.1391 20.9626C16.2914 18.1151 16.2914 13.4985 19.1391 10.651ZM27.9779 12.1241C25.944 10.0901 22.6462 10.0901 20.6124 12.1241C18.5784 14.1579 18.5784 17.4558 20.6124 19.4895C22.6463 21.5235 25.9441 21.5235 27.9779 19.4895C30.0119 17.4557 30.0119 14.1578 27.9779 12.1241ZM22.8041 12.8664L22.9483 12.987L23.99 14.0287C24.3969 14.4354 24.3969 15.0949 23.99 15.5017C23.6285 15.8633 23.0671 15.9035 22.6612 15.6223L22.517 15.5017L21.4753 14.46C21.0684 14.0533 21.0684 13.3938 21.4753 12.987C21.8368 12.6254 22.3981 12.5852 22.8041 12.8664Z" fill="white"/>
</svg>
