<svg width="320" height="9" viewBox="0 0 320 9" fill="none" xmlns="http://www.w3.org/2000/svg">
<rect width="2.10837" height="15.7125" transform="matrix(0.703611 0.710585 -0.31343 0.949611 1.46094 -0.418945)" fill="white" fill-opacity="0.25"/>
<rect width="2.10837" height="15.7125" transform="matrix(0.703611 0.710585 -0.31343 0.949611 4.86914 -0.418945)" fill="white" fill-opacity="0.25"/>
<rect width="2.10837" height="15.7125" transform="matrix(0.703611 0.710585 -0.31343 0.949611 8.27734 -0.418945)" fill="white" fill-opacity="0.25"/>
<rect width="2.10837" height="15.7125" transform="matrix(0.703611 0.710585 -0.31343 0.949611 11.6855 -0.418945)" fill="white" fill-opacity="0.25"/>
<rect width="2.10837" height="15.7125" transform="matrix(0.703611 0.710585 -0.31343 0.949611 15.0938 -0.418945)" fill="white" fill-opacity="0.25"/>
<rect width="2.10837" height="15.7125" transform="matrix(0.703611 0.710585 -0.31343 0.949611 18.502 -0.418945)" fill="white" fill-opacity="0.25"/>
<rect width="2.10837" height="15.7125" transform="matrix(0.703611 0.710585 -0.31343 0.949611 21.9102 -0.418945)" fill="white" fill-opacity="0.25"/>
<rect width="2.10837" height="15.7125" transform="matrix(0.703611 0.710585 -0.31343 0.949611 25.3193 -0.418945)" fill="white" fill-opacity="0.25"/>
<rect width="2.10837" height="15.7125" transform="matrix(0.703611 0.710585 -0.31343 0.949611 28.7275 -0.418945)" fill="white" fill-opacity="0.25"/>
<rect width="2.10837" height="15.7125" transform="matrix(0.703611 0.710585 -0.31343 0.949611 32.1357 -0.418945)" fill="white" fill-opacity="0.25"/>
<rect width="2.10837" height="15.7125" transform="matrix(0.703611 0.710585 -0.31343 0.949611 35.5439 -0.418945)" fill="white" fill-opacity="0.25"/>
<rect width="2.10837" height="15.7125" transform="matrix(0.703611 0.710585 -0.31343 0.949611 38.9521 -0.418945)" fill="white" fill-opacity="0.25"/>
<rect width="2.10837" height="15.7125" transform="matrix(0.703611 0.710585 -0.31343 0.949611 42.3604 -0.418945)" fill="white" fill-opacity="0.25"/>
<rect width="2.10837" height="15.7125" transform="matrix(0.703611 0.710585 -0.31343 0.949611 45.7686 -0.418945)" fill="white" fill-opacity="0.25"/>
<rect width="2.10837" height="15.7125" transform="matrix(0.703611 0.710585 -0.31343 0.949611 49.1768 -0.418945)" fill="white" fill-opacity="0.25"/>
<rect width="2.10837" height="15.7125" transform="matrix(0.703611 0.710585 -0.31343 0.949611 52.585 -0.418945)" fill="white" fill-opacity="0.25"/>
<rect width="2.10837" height="15.7125" transform="matrix(0.703611 0.710585 -0.31343 0.949611 55.9932 -0.418945)" fill="white" fill-opacity="0.25"/>
<rect width="2.10837" height="15.7125" transform="matrix(0.703611 0.710585 -0.31343 0.949611 59.4014 -0.418945)" fill="white" fill-opacity="0.25"/>
<rect width="2.10837" height="15.7125" transform="matrix(0.703611 0.710585 -0.31343 0.949611 62.8096 -0.418945)" fill="white" fill-opacity="0.25"/>
<rect width="2.10837" height="15.7125" transform="matrix(0.703611 0.710585 -0.31343 0.949611 66.2178 -0.418945)" fill="white" fill-opacity="0.25"/>
<rect width="2.10837" height="15.7125" transform="matrix(0.703611 0.710585 -0.31343 0.949611 69.626 -0.418945)" fill="white" fill-opacity="0.25"/>
<rect width="2.10837" height="15.7125" transform="matrix(0.703611 0.710585 -0.31343 0.949611 73.0342 -0.418945)" fill="white" fill-opacity="0.25"/>
<rect width="2.10837" height="15.7125" transform="matrix(0.703611 0.710585 -0.31343 0.949611 76.4424 -0.418945)" fill="white" fill-opacity="0.25"/>
<rect width="2.10837" height="15.7125" transform="matrix(0.703611 0.710585 -0.31343 0.949611 79.8506 -0.418945)" fill="white" fill-opacity="0.25"/>
<rect width="2.10837" height="15.7125" transform="matrix(0.703611 0.710585 -0.31343 0.949611 83.2588 -0.418945)" fill="white" fill-opacity="0.25"/>
<rect width="2.10837" height="15.7125" transform="matrix(0.703611 0.710585 -0.31343 0.949611 86.667 -0.418945)" fill="white" fill-opacity="0.25"/>
<rect width="2.10837" height="15.7125" transform="matrix(0.703611 0.710585 -0.31343 0.949611 90.0752 -0.418945)" fill="white" fill-opacity="0.25"/>
<rect width="2.10837" height="15.7125" transform="matrix(0.703611 0.710585 -0.31343 0.949611 93.4834 -0.418945)" fill="white" fill-opacity="0.25"/>
<rect width="2.10837" height="15.7125" transform="matrix(0.703611 0.710585 -0.31343 0.949611 96.8916 -0.418945)" fill="white" fill-opacity="0.25"/>
<rect width="2.10837" height="15.7125" transform="matrix(0.703611 0.710585 -0.31343 0.949611 100.3 -0.418945)" fill="white" fill-opacity="0.25"/>
<rect width="2.10837" height="15.7125" transform="matrix(0.703611 0.710585 -0.31343 0.949611 103.708 -0.418945)" fill="white" fill-opacity="0.25"/>
<rect width="2.10837" height="15.7125" transform="matrix(0.703611 0.710585 -0.31343 0.949611 107.116 -0.418945)" fill="white" fill-opacity="0.25"/>
<rect width="2.10837" height="15.7125" transform="matrix(0.703611 0.710585 -0.31343 0.949611 110.525 -0.418945)" fill="white" fill-opacity="0.25"/>
<rect width="2.10837" height="15.7125" transform="matrix(0.703611 0.710585 -0.31343 0.949611 113.934 -0.418945)" fill="white" fill-opacity="0.25"/>
<rect width="2.10837" height="15.7125" transform="matrix(0.703611 0.710585 -0.31343 0.949611 117.342 -0.418945)" fill="white" fill-opacity="0.25"/>
<rect width="2.10837" height="15.7125" transform="matrix(0.703611 0.710585 -0.31343 0.949611 120.75 -0.418945)" fill="white" fill-opacity="0.25"/>
<rect width="2.10837" height="15.7125" transform="matrix(0.703611 0.710585 -0.31343 0.949611 124.158 -0.418945)" fill="white" fill-opacity="0.25"/>
<rect width="2.10837" height="15.7125" transform="matrix(0.703611 0.710585 -0.31343 0.949611 127.566 -0.418945)" fill="white" fill-opacity="0.25"/>
<rect width="2.10837" height="15.7125" transform="matrix(0.703611 0.710585 -0.31343 0.949611 130.975 -0.418945)" fill="white" fill-opacity="0.25"/>
<rect width="2.10837" height="15.7125" transform="matrix(0.703611 0.710585 -0.31343 0.949611 134.383 -0.418945)" fill="white" fill-opacity="0.25"/>
<rect width="2.10837" height="15.7125" transform="matrix(0.703611 0.710585 -0.31343 0.949611 137.791 -0.418945)" fill="white" fill-opacity="0.25"/>
<rect width="2.10837" height="15.7125" transform="matrix(0.703611 0.710585 -0.31343 0.949611 141.199 -0.418945)" fill="white" fill-opacity="0.25"/>
<rect width="2.10837" height="15.7125" transform="matrix(0.703611 0.710585 -0.31343 0.949611 144.607 -0.418945)" fill="white" fill-opacity="0.25"/>
<rect width="2.10837" height="15.7125" transform="matrix(0.703611 0.710585 -0.31343 0.949611 148.016 -0.418945)" fill="white" fill-opacity="0.25"/>
<rect width="2.10837" height="15.7125" transform="matrix(0.703611 0.710585 -0.31343 0.949611 151.424 -0.418945)" fill="white" fill-opacity="0.25"/>
<rect width="2.10837" height="15.7125" transform="matrix(0.703611 0.710585 -0.31343 0.949611 154.832 -0.418945)" fill="white" fill-opacity="0.25"/>
<rect width="2.10837" height="15.7125" transform="matrix(0.703611 0.710585 -0.31343 0.949611 158.24 -0.418945)" fill="white" fill-opacity="0.25"/>
<rect width="2.10837" height="15.7125" transform="matrix(0.703611 0.710585 -0.31343 0.949611 161.648 -0.418945)" fill="white" fill-opacity="0.25"/>
<rect width="2.10837" height="15.7125" transform="matrix(0.703611 0.710585 -0.31343 0.949611 165.057 -0.418945)" fill="white" fill-opacity="0.25"/>
<rect width="2.10837" height="15.7125" transform="matrix(0.703611 0.710585 -0.31343 0.949611 168.465 -0.418945)" fill="white" fill-opacity="0.25"/>
<rect width="2.10837" height="15.7125" transform="matrix(0.703611 0.710585 -0.31343 0.949611 171.873 -0.418945)" fill="white" fill-opacity="0.25"/>
<rect width="2.10837" height="15.7125" transform="matrix(0.703611 0.710585 -0.31343 0.949611 175.281 -0.418945)" fill="white" fill-opacity="0.25"/>
<rect width="2.10837" height="15.7125" transform="matrix(0.703611 0.710585 -0.31343 0.949611 178.689 -0.418945)" fill="white" fill-opacity="0.25"/>
<rect width="2.10837" height="15.7125" transform="matrix(0.703611 0.710585 -0.31343 0.949611 182.099 -0.418945)" fill="white" fill-opacity="0.25"/>
<rect width="2.10837" height="15.7125" transform="matrix(0.703611 0.710585 -0.31343 0.949611 185.507 -0.418945)" fill="white" fill-opacity="0.25"/>
<rect width="2.10837" height="15.7125" transform="matrix(0.703611 0.710585 -0.31343 0.949611 188.915 -0.418945)" fill="white" fill-opacity="0.25"/>
<rect width="2.10837" height="15.7125" transform="matrix(0.703611 0.710585 -0.31343 0.949611 192.323 -0.418945)" fill="white" fill-opacity="0.25"/>
<rect width="2.10837" height="15.7125" transform="matrix(0.703611 0.710585 -0.31343 0.949611 195.731 -0.418945)" fill="white" fill-opacity="0.25"/>
<rect width="2.10837" height="15.7125" transform="matrix(0.703611 0.710585 -0.31343 0.949611 199.14 -0.418945)" fill="white" fill-opacity="0.25"/>
<rect width="2.10837" height="15.7125" transform="matrix(0.703611 0.710585 -0.31343 0.949611 202.548 -0.418945)" fill="white" fill-opacity="0.25"/>
<rect width="2.10837" height="15.7125" transform="matrix(0.703611 0.710585 -0.31343 0.949611 205.956 -0.418945)" fill="white" fill-opacity="0.25"/>
<rect width="2.10837" height="15.7125" transform="matrix(0.703611 0.710585 -0.31343 0.949611 209.364 -0.418945)" fill="white" fill-opacity="0.25"/>
<rect width="2.10837" height="15.7125" transform="matrix(0.703611 0.710585 -0.31343 0.949611 212.772 -0.418945)" fill="white" fill-opacity="0.25"/>
<rect width="2.10837" height="15.7125" transform="matrix(0.703611 0.710585 -0.31343 0.949611 216.181 -0.418945)" fill="white" fill-opacity="0.25"/>
<rect width="2.10837" height="15.7125" transform="matrix(0.703611 0.710585 -0.31343 0.949611 219.589 -0.418945)" fill="white" fill-opacity="0.25"/>
<rect width="2.10837" height="15.7125" transform="matrix(0.703611 0.710585 -0.31343 0.949611 222.997 -0.418945)" fill="white" fill-opacity="0.25"/>
<rect width="2.10837" height="15.7125" transform="matrix(0.703611 0.710585 -0.31343 0.949611 226.405 -0.418945)" fill="white" fill-opacity="0.25"/>
<rect width="2.10837" height="15.7125" transform="matrix(0.703611 0.710585 -0.31343 0.949611 229.813 -0.418945)" fill="white" fill-opacity="0.25"/>
<rect width="2.10837" height="15.7125" transform="matrix(0.703611 0.710585 -0.31343 0.949611 233.222 -0.418945)" fill="white" fill-opacity="0.25"/>
<rect width="2.10837" height="15.7125" transform="matrix(0.703611 0.710585 -0.31343 0.949611 236.63 -0.418945)" fill="white" fill-opacity="0.25"/>
<rect width="2.10837" height="15.7125" transform="matrix(0.703611 0.710585 -0.31343 0.949611 240.038 -0.418945)" fill="white" fill-opacity="0.25"/>
<rect width="2.10837" height="15.7125" transform="matrix(0.703611 0.710585 -0.31343 0.949611 243.446 -0.418945)" fill="white" fill-opacity="0.25"/>
<rect width="2.10837" height="15.7125" transform="matrix(0.703611 0.710585 -0.31343 0.949611 246.854 -0.418945)" fill="white" fill-opacity="0.25"/>
<rect width="2.10837" height="15.7125" transform="matrix(0.703611 0.710585 -0.31343 0.949611 250.263 -0.418945)" fill="white" fill-opacity="0.25"/>
<rect width="2.10837" height="15.7125" transform="matrix(0.703611 0.710585 -0.31343 0.949611 253.671 -0.418945)" fill="white" fill-opacity="0.25"/>
<rect width="2.10837" height="15.7125" transform="matrix(0.703611 0.710585 -0.31343 0.949611 257.079 -0.418945)" fill="white" fill-opacity="0.25"/>
<rect width="2.10837" height="15.7125" transform="matrix(0.703611 0.710585 -0.31343 0.949611 260.488 -0.418945)" fill="white" fill-opacity="0.25"/>
<rect width="2.10837" height="15.7125" transform="matrix(0.703611 0.710585 -0.31343 0.949611 263.896 -0.418945)" fill="white" fill-opacity="0.25"/>
<rect width="2.10837" height="15.7125" transform="matrix(0.703611 0.710585 -0.31343 0.949611 267.305 -0.418945)" fill="white" fill-opacity="0.25"/>
<rect width="2.10837" height="15.7125" transform="matrix(0.703611 0.710585 -0.31343 0.949611 270.713 -0.418945)" fill="white" fill-opacity="0.25"/>
<rect width="2.10837" height="15.7125" transform="matrix(0.703611 0.710585 -0.31343 0.949611 274.121 -0.418945)" fill="white" fill-opacity="0.25"/>
<rect width="2.10837" height="15.7125" transform="matrix(0.703611 0.710585 -0.31343 0.949611 277.529 -0.418945)" fill="white" fill-opacity="0.25"/>
<rect width="2.10837" height="15.7125" transform="matrix(0.703611 0.710585 -0.31343 0.949611 280.938 -0.418945)" fill="white" fill-opacity="0.25"/>
<rect width="2.10837" height="15.7125" transform="matrix(0.703611 0.710585 -0.31343 0.949611 284.346 -0.418945)" fill="white" fill-opacity="0.25"/>
<rect width="2.10837" height="15.7125" transform="matrix(0.703611 0.710585 -0.31343 0.949611 287.754 -0.418945)" fill="white" fill-opacity="0.25"/>
<rect width="2.10837" height="15.7125" transform="matrix(0.703611 0.710585 -0.31343 0.949611 291.162 -0.418945)" fill="white" fill-opacity="0.25"/>
<rect width="2.10837" height="15.7125" transform="matrix(0.703611 0.710585 -0.31343 0.949611 294.57 -0.418945)" fill="white" fill-opacity="0.25"/>
<rect width="2.10837" height="15.7125" transform="matrix(0.703611 0.710585 -0.31343 0.949611 297.979 -0.418945)" fill="white" fill-opacity="0.25"/>
<rect width="2.10837" height="15.7125" transform="matrix(0.703611 0.710585 -0.31343 0.949611 301.387 -0.418945)" fill="white" fill-opacity="0.25"/>
<rect width="2.10837" height="15.7125" transform="matrix(0.703611 0.710585 -0.31343 0.949611 304.795 -0.418945)" fill="white" fill-opacity="0.25"/>
<rect width="2.10837" height="15.7125" transform="matrix(0.703611 0.710585 -0.31343 0.949611 308.203 -0.418945)" fill="white" fill-opacity="0.25"/>
<rect width="2.10837" height="15.7125" transform="matrix(0.703611 0.710585 -0.31343 0.949611 311.611 -0.418945)" fill="white" fill-opacity="0.25"/>
<rect width="2.10837" height="15.7125" transform="matrix(0.703611 0.710585 -0.31343 0.949611 315.02 -0.418945)" fill="white" fill-opacity="0.25"/>
<rect width="2.10837" height="15.7125" transform="matrix(0.703611 0.710585 -0.31343 0.949611 318.428 -0.418945)" fill="white" fill-opacity="0.25"/>
</svg>
