<svg width="731" height="24" viewBox="0 0 731 24" fill="none" xmlns="http://www.w3.org/2000/svg">
<path d="M0 13H371V11H0V13Z" fill="white" fill-opacity="0.29"/>
<path d="M495 13H731V11H495V13Z" fill="white" fill-opacity="0.29"/>
<path d="M388.835 -0.000732422L393.665 0.816631L383.83 24L379 23.1826L388.835 -0.000732422Z" fill="white"/>
<path d="M406.5 -0.000732422L411.329 0.816631L401.494 24L396.665 23.1826L406.5 -0.000732422Z" fill="white"/>
<path d="M424.165 -0.000732422L428.994 0.816631L419.159 24L414.329 23.1826L424.165 -0.000732422Z" fill="white"/>
<path d="M441.829 -0.000732422L446.659 0.816631L436.824 24L431.994 23.1826L441.829 -0.000732422Z" fill="white"/>
<path d="M459.494 -0.000732422L464.324 0.816631L454.489 24L449.659 23.1826L459.494 -0.000732422Z" fill="white"/>
<path d="M477.159 -0.000732422L481.988 0.816631L472.153 24L467.324 23.1826L477.159 -0.000732422Z" fill="white"/>
</svg>
