<svg width="26" height="20" viewBox="0 0 26 20" fill="none" xmlns="http://www.w3.org/2000/svg">
<path d="M23 0H3C2.33696 0 1.70107 0.263392 1.23223 0.732233C0.763392 1.20107 0.5 1.83696 0.5 2.5V17.5C0.5 18.163 0.763392 18.7989 1.23223 19.2678C1.70107 19.7366 2.33696 20 3 20H23C23.663 20 24.2989 19.7366 24.7678 19.2678C25.2366 18.7989 25.5 18.163 25.5 17.5V2.5C25.5 1.83696 25.2366 1.20107 24.7678 0.732233C24.2989 0.263392 23.663 0 23 0ZM23 8.75H3V5H23V8.75Z" fill="url(#paint0_linear_0_359)"/>
<defs>
<linearGradient id="paint0_linear_0_359" x1="13" y1="0" x2="13" y2="20" gradientUnits="userSpaceOnUse">
<stop stop-color="white"/>
<stop offset="1" stop-color="#636363"/>
</linearGradient>
</defs>
</svg>
