<svg width="61" height="59" viewBox="0 0 61 59" fill="none" xmlns="http://www.w3.org/2000/svg">
<path d="M0 5.35088C0 2.39567 2.39567 0 5.35088 0H55.6491C58.6043 0 61 2.39567 61 5.35088V53.5088C61 56.464 58.6043 58.8596 55.6491 58.8596H5.35087C2.39567 58.8596 0 56.464 0 53.5088V5.35088Z" fill="#D9D9D9"/>
<path d="M0 5.35088C0 2.39567 2.39567 0 5.35088 0H55.6491C58.6043 0 61 2.39567 61 5.35088V53.5088C61 56.464 58.6043 58.8596 55.6491 58.8596H5.35087C2.39567 58.8596 0 56.464 0 53.5088V5.35088Z" fill="url(#paint0_linear_0_361)"/>
<path d="M36.7427 31.7485C38.5812 31.7487 40.3487 32.4585 41.6766 33.73C43.0045 35.0016 43.7903 36.7366 43.8701 38.5734L43.8772 38.883V40.31C43.8774 41.0299 43.6055 41.7234 43.1159 42.2513C42.6264 42.7792 41.9554 43.1026 41.2374 43.1566L41.0234 43.1638H21.0468C20.3268 43.164 19.6333 42.8921 19.1054 42.4025C18.5775 41.9129 18.2541 41.2419 18.2001 40.524L18.193 40.31V38.883C18.1931 37.0445 18.9029 35.277 20.1745 33.9491C21.446 32.6213 23.1811 31.8355 25.0178 31.7557L25.3275 31.7485H36.7427ZM31.0351 14.6257C32.9273 14.6257 34.742 15.3774 36.0799 16.7154C37.4179 18.0534 38.1696 19.8681 38.1696 21.7602C38.1696 23.6524 37.4179 25.4671 36.0799 26.8051C34.742 28.1431 32.9273 28.8947 31.0351 28.8947C29.1429 28.8947 27.3282 28.1431 25.9902 26.8051C24.6523 25.4671 23.9006 23.6524 23.9006 21.7602C23.9006 19.8681 24.6523 18.0534 25.9902 16.7154C27.3282 15.3774 29.1429 14.6257 31.0351 14.6257Z" fill="black" fill-opacity="0.49"/>
<defs>
<linearGradient id="paint0_linear_0_361" x1="30.5" y1="0" x2="30.5" y2="58.8596" gradientUnits="userSpaceOnUse">
<stop stop-color="#BABABA"/>
<stop offset="1" stop-color="#6C6C6C"/>
</linearGradient>
</defs>
</svg>
