<svg width="25" height="22" viewBox="0 0 25 22" fill="none" xmlns="http://www.w3.org/2000/svg">
<path d="M22.3125 4.4375H3.5625C3.31386 4.4375 3.0754 4.33873 2.89959 4.16291C2.72377 3.9871 2.625 3.74864 2.625 3.5C2.625 3.25136 2.72377 3.0129 2.89959 2.83709C3.0754 2.66127 3.31386 2.5625 3.5625 2.5625H19.5C19.7486 2.5625 19.9871 2.46373 20.1629 2.28791C20.3387 2.1121 20.4375 1.87364 20.4375 1.625C20.4375 1.37636 20.3387 1.1379 20.1629 0.962088C19.9871 0.786272 19.7486 0.6875 19.5 0.6875H3.5625C2.81753 0.690585 2.10395 0.987892 1.57717 1.51467C1.05039 2.04145 0.753085 2.75503 0.75 3.5V18.5C0.753085 19.245 1.05039 19.9586 1.57717 20.4853C2.10395 21.0121 2.81753 21.3094 3.5625 21.3125H22.3125C22.8098 21.3125 23.2867 21.115 23.6383 20.7633C23.99 20.4117 24.1875 19.9348 24.1875 19.4375V6.3125C24.1875 5.81522 23.99 5.33831 23.6383 4.98668C23.2867 4.63504 22.8098 4.4375 22.3125 4.4375ZM18.0938 14.2812C17.8156 14.2812 17.5437 14.1988 17.3125 14.0443C17.0812 13.8897 16.901 13.6701 16.7945 13.4131C16.6881 13.1562 16.6603 12.8734 16.7145 12.6007C16.7688 12.3279 16.9027 12.0773 17.0994 11.8806C17.296 11.684 17.5466 11.55 17.8194 11.4958C18.0922 11.4415 18.3749 11.4694 18.6319 11.5758C18.8889 11.6822 19.1085 11.8625 19.263 12.0937C19.4175 12.325 19.5 12.5969 19.5 12.875C19.5 13.248 19.3518 13.6056 19.0881 13.8694C18.8244 14.1331 18.4667 14.2812 18.0938 14.2812Z" fill="url(#paint0_linear_0_355)"/>
<defs>
<linearGradient id="paint0_linear_0_355" x1="12.4688" y1="0.6875" x2="12.4688" y2="21.3125" gradientUnits="userSpaceOnUse">
<stop stop-color="white"/>
<stop offset="1" stop-color="#636363"/>
</linearGradient>
</defs>
</svg>
