<svg width="33" height="33" viewBox="0 0 33 33" fill="none" xmlns="http://www.w3.org/2000/svg">
<path d="M20.5808 14.4056C20.5808 14.9556 20.1308 15.4056 19.5808 15.4056H13.5808C13.0308 15.4056 12.5808 14.9556 12.5808 14.4056C12.5808 13.8556 13.0308 13.4056 13.5808 13.4056H19.5808C20.1308 13.4056 20.5808 13.8556 20.5808 14.4056ZM30.5808 17.4056V21.4056C30.5808 24.1656 28.3408 26.4056 25.5808 26.4056H7.58081C4.82081 26.4056 2.58081 24.1656 2.58081 21.4056V17.4056C2.58081 13.5456 5.72081 10.4056 9.58081 10.4056H11.5808V9.40556C11.5808 7.75556 12.9308 6.40556 14.5808 6.40556H18.5808C20.2308 6.40556 21.5808 7.75556 21.5808 9.40556V10.4056H23.5808C27.4408 10.4056 30.5808 13.5456 30.5808 17.4056ZM8.58081 12.5056C6.30081 12.9656 4.58081 14.9856 4.58081 17.4056V21.4056C4.58081 23.0556 5.93081 24.4056 7.58081 24.4056H8.58081V12.5056ZM13.5808 10.4056H19.5808V9.40556C19.5808 8.85556 19.1308 8.40556 18.5808 8.40556H14.5808C14.0308 8.40556 13.5808 8.85556 13.5808 9.40556V10.4056ZM22.5808 12.4056H10.5808V24.4056H22.5808V12.4056ZM28.5808 17.4056C28.5808 14.9956 26.8608 12.9757 24.5808 12.5056V24.4056H25.5808C27.2308 24.4056 28.5808 23.0556 28.5808 21.4056V17.4056Z" fill="white"/>
</svg>
