<svg width="33" height="32" viewBox="0 0 33 32" fill="none" xmlns="http://www.w3.org/2000/svg">
<path d="M17.9343 18.9789C17.7993 18.9827 17.6668 18.9314 17.568 18.8389C17.4705 18.7452 17.413 18.6164 17.4093 18.4802C17.4018 18.1976 17.6255 17.9627 17.908 17.9551C21.8443 17.7476 25.3643 16.6114 27.3243 14.9175C28.3281 14.05 28.8581 13.0788 28.8581 12.1074C28.8581 10.6036 27.6281 9.15994 25.3957 8.04367C23.0494 6.86991 19.9194 6.22367 16.5807 6.22367C13.2418 6.22367 10.1119 6.86991 7.7658 8.04242C5.53204 9.15866 4.3034 10.6024 4.3034 12.1062C4.3034 13.0774 4.8334 14.0487 5.83716 14.9163C7.79841 16.6125 11.3185 17.7475 15.2534 17.9539V17.9551C15.5359 17.9701 15.7534 18.2114 15.7384 18.4939C15.7234 18.7764 15.4822 18.9939 15.1997 18.9789C13.1384 18.8701 11.1296 18.5102 9.39329 17.9376C7.67204 17.3714 6.21089 16.5939 5.16716 15.6926C3.93217 14.6251 3.27966 13.3851 3.27966 12.1089C3.27966 10.1964 4.71092 8.4289 7.30846 7.12916C9.79348 5.8854 13.0861 5.20042 16.581 5.20042C20.0759 5.20042 23.3685 5.88543 25.8546 7.12791C28.4533 8.42666 29.8834 10.1954 29.8834 12.1076C29.8834 13.3851 29.2309 14.6251 27.9959 15.6914C26.9521 16.5939 25.4909 17.3701 23.7698 17.9364C22.0323 18.5089 20.026 18.8689 17.9634 18.9776C17.9534 18.9789 17.9446 18.9789 17.9346 18.9789L17.9343 18.9789Z" fill="white"/>
<path d="M27.6608 15.8176C27.5383 15.8176 27.4195 15.7726 27.3258 15.6926C25.1333 13.7976 21.0157 12.62 16.5821 12.62C12.1471 12.62 8.0306 13.7975 5.83833 15.6926C5.73583 15.7838 5.60084 15.8301 5.46335 15.8213C5.3271 15.8113 5.1996 15.7488 5.10959 15.6451C5.01958 15.5413 4.97584 15.4051 4.98709 15.2688C4.99834 15.1326 5.06334 15.0051 5.16834 14.9176C6.32708 13.9151 7.9822 13.0788 9.95207 12.4988C11.9558 11.9076 14.2483 11.5963 16.5822 11.5963C18.916 11.5963 21.2083 11.9088 23.2123 12.4988C25.1823 13.0788 26.8361 13.9163 27.9961 14.9176C28.1586 15.0576 28.2161 15.2838 28.1411 15.4838C28.0661 15.6838 27.8748 15.8176 27.6611 15.8176L27.6608 15.8176Z" fill="white"/>
<path d="M15.1521 25.3698H15.1234C11.941 25.1923 8.99485 24.4323 6.82579 23.2285C4.53829 21.9585 3.27832 20.2797 3.27832 18.5021V12.1072C3.27832 11.8247 3.50707 11.5947 3.79083 11.5947C4.07333 11.5947 4.30208 11.8247 4.30208 12.1072V18.5021C4.30208 19.8909 5.37459 21.252 7.32208 22.3336C9.35707 23.4636 12.1482 24.1786 15.1797 24.3474C15.4622 24.3549 15.6859 24.5911 15.6784 24.8736C15.6709 25.1561 15.4347 25.3786 15.1522 25.3711L15.1521 25.3698Z" fill="white"/>
<path d="M18.0098 25.3699C17.7273 25.3786 17.4911 25.1549 17.4836 24.8724C17.4761 24.5899 17.6998 24.3536 17.9823 24.3461C21.0135 24.1774 23.8034 23.4624 25.8399 22.3324C27.7874 21.2511 28.8599 19.8911 28.8599 18.5009V12.1073C28.8599 11.8248 29.0887 11.5948 29.3712 11.5948C29.6549 11.5948 29.8837 11.8248 29.8837 12.1073V18.5022C29.8837 20.2797 28.6237 21.9585 26.3362 23.2286C24.1687 24.4324 21.2213 25.1924 18.0386 25.3699L18.0098 25.3699Z" fill="white"/>
<path d="M16.5808 26.7999C16.4446 26.7999 16.3146 26.7462 16.2183 26.6499L11.6308 22.0625C11.4308 21.8625 11.4308 21.5387 11.6308 21.3387L16.2183 16.7499C16.4183 16.5499 16.7433 16.5499 16.9433 16.7499L21.5308 21.3387C21.7308 21.5387 21.7308 21.8625 21.5308 22.0625L16.9433 26.6499C16.8471 26.7462 16.7171 26.7999 16.5808 26.7999ZM12.7171 21.6997L16.5808 25.5634L20.4445 21.6997L16.5808 17.8359L12.7171 21.6997Z" fill="white"/>
<path d="M16.5808 23.5712C15.8246 23.5712 15.1421 23.115 14.8521 22.4162C14.5621 21.7175 14.7221 20.9125 15.2583 20.3775C15.7933 19.8425 16.5971 19.6825 17.2971 19.9712C17.9958 20.2612 18.4521 20.9437 18.4521 21.7C18.4508 22.7325 17.6133 23.57 16.5808 23.5712L16.5808 23.5712ZM16.5808 20.8524C16.2383 20.8524 15.9296 21.0598 15.7983 21.3761C15.6671 21.6924 15.7396 22.0561 15.9821 22.2986C16.2246 22.5411 16.5883 22.6136 16.9046 22.4824C17.2221 22.3511 17.4283 22.0424 17.4283 21.6999C17.4271 21.2324 17.0483 20.8536 16.5808 20.8524Z" fill="white"/>
<path d="M21.1684 22.2125C20.8984 22.2125 20.6759 22.0037 20.6571 21.735C20.6384 21.4662 20.8309 21.23 21.0984 21.1925C21.1096 21.1925 22.2009 21.0325 23.7184 20.435C25.1109 19.8862 27.1584 18.8437 29.0096 16.9923V16.9936C29.2108 16.8023 29.5283 16.8061 29.7246 17.0023C29.9208 17.1986 29.9246 17.5161 29.7333 17.7173C27.7458 19.7048 25.5509 20.8173 24.0597 21.401C22.4372 22.036 21.2872 22.201 21.2384 22.2073C21.2147 22.2098 21.1921 22.2123 21.1684 22.2123L21.1684 22.2125Z" fill="white"/>
<path d="M11.9933 22.2125C11.9695 22.2125 11.9458 22.21 11.9233 22.2075C11.8745 22.2012 10.7258 22.0375 9.10194 21.4013C7.61069 20.8175 5.41554 19.705 3.42834 17.7175C3.33209 17.6213 3.27834 17.4913 3.27834 17.355C3.27709 17.2188 3.33209 17.0888 3.42709 16.9925C3.62709 16.7925 3.9521 16.7925 4.1521 16.9925C6.00336 18.845 8.05237 19.8874 9.44464 20.4362C10.9621 21.0337 12.0534 21.1925 12.0646 21.1937V21.1925C12.3309 21.23 12.5234 21.4662 12.5046 21.735C12.4871 22.0037 12.2634 22.2125 11.9946 22.2125L11.9933 22.2125Z" fill="white"/>
</svg>
