<svg width="33" height="33" viewBox="0 0 33 33" fill="none" xmlns="http://www.w3.org/2000/svg">
<path d="M26.1469 14.8838C27.1532 13.1775 27.6832 11.2326 27.6807 9.25123C27.6807 5.39363 27.2019 3.45123 26.0782 2.75629C24.9557 2.06131 23.4932 2.79254 21.7968 3.6388C20.2306 4.42005 18.4545 5.30504 16.5806 5.30504C14.7067 5.30504 12.9321 4.4188 11.3643 3.6388C9.66808 2.79256 8.20432 2.06256 7.08298 2.75629C5.96298 3.4488 5.48048 5.39504 5.48048 9.25256C5.47798 11.2338 6.00797 13.179 7.01424 14.8851C6.48298 15.3526 6.25298 16.0751 6.41549 16.7638C6.57924 17.4526 7.108 17.9938 7.79298 18.1738C7.61048 18.7551 7.71673 19.3888 8.078 19.8801C8.43925 20.3701 9.01176 20.6601 9.62176 20.6601C9.68426 20.6601 9.74676 20.6576 9.80926 20.6513H9.80801C9.92301 21.3788 10.4455 21.9763 11.1505 22.1876C11.8568 22.3988 12.6205 22.1863 13.1168 21.6413L14.3705 22.1488C14.3543 22.2863 14.3455 22.4251 14.343 22.5638C14.3455 23.6451 15.1193 24.5713 16.1818 24.7638V25.3363H14.3805C14.223 25.3363 14.0793 25.4288 14.0167 25.5738L13.293 27.2251C13.2292 27.3713 13.258 27.5401 13.3655 27.6563L16.2892 30.7987C16.3642 30.88 16.4705 30.925 16.5805 30.925C16.6905 30.925 16.7967 30.88 16.8717 30.7987L19.7955 27.6563C19.903 27.5401 19.9317 27.3713 19.868 27.2251L19.1442 25.5738C19.0817 25.4288 18.938 25.3363 18.7804 25.3363H16.9779V24.7626C18.0417 24.5688 18.8154 23.6438 18.8167 22.5626C18.8154 22.4238 18.8067 22.2851 18.7904 22.1476L20.0442 21.6401C20.5392 22.1851 21.3042 22.3976 22.0092 22.1863C22.7154 21.9751 23.238 21.3776 23.3517 20.6488C23.4142 20.6551 23.4767 20.6576 23.5392 20.6576V20.6588C24.148 20.6588 24.7217 20.3688 25.0817 19.8776C25.443 19.3876 25.5492 18.7538 25.368 18.1726C26.0517 17.9938 26.5817 17.4513 26.7455 16.7626C26.908 16.0738 26.678 15.3513 26.1467 14.8838L26.1469 14.8838ZM16.5805 29.9435L14.5693 27.781H18.5917L16.5805 29.9435ZM18.8968 26.9859H14.2642L14.6392 26.1297H18.5206L18.8968 26.9859ZM7.15925 16.3198C7.15925 15.9723 7.31925 15.6448 7.59301 15.431C7.868 15.2185 8.22427 15.1448 8.56051 15.2323C8.89675 15.3185 9.17301 15.556 9.31051 15.8748C9.44676 16.1935 9.42801 16.5585 9.25926 16.861C8.86176 16.9385 8.498 17.1398 8.22176 17.4373C7.62678 17.406 7.16051 16.9147 7.15925 16.3198ZM8.50176 18.7423C8.50051 18.1335 8.988 17.636 9.59674 17.6223C10.2067 17.6098 10.7142 18.086 10.7393 18.6948C10.308 18.946 9.9905 19.356 9.85549 19.8373C9.52549 19.9098 9.17925 19.8273 8.91674 19.6148C8.65299 19.401 8.5005 19.081 8.50176 18.7423ZM11.7018 21.471C11.248 21.471 10.8393 21.1972 10.6668 20.7785C10.493 20.3597 10.5893 19.8785 10.9093 19.5585C11.2293 19.2372 11.7118 19.1422 12.1305 19.3147C12.5493 19.4885 12.8218 19.8972 12.8218 20.3497C12.8218 20.9685 12.3193 21.4697 11.7018 21.471ZM16.5804 24.0022C15.7854 24.001 15.1404 23.3572 15.1392 22.561C15.2054 21.6822 15.3804 20.8147 15.6592 19.9772C16.1042 18.5922 16.4992 18.311 16.5804 18.311C16.6617 18.311 17.0567 18.5935 17.5017 19.9772C17.7804 20.8147 17.9554 21.6822 18.0217 22.561C18.0204 23.3572 17.3754 24.001 16.5804 24.0022ZM18.6654 21.3385C18.5617 20.796 18.4267 20.261 18.2592 19.7347C17.7805 18.2422 17.2305 17.516 16.5805 17.516C15.9305 17.516 15.3805 18.2422 14.9017 19.736C14.7342 20.2622 14.5992 20.7972 14.4955 21.3397L13.5217 20.946V20.9447C13.713 20.3622 13.6117 19.7222 13.2517 19.226C12.8917 18.7285 12.3155 18.4347 11.7017 18.4347C11.638 18.4347 11.5755 18.4372 11.5142 18.4435V18.4447C11.3942 17.6935 10.843 17.0847 10.108 16.8897C10.3205 16.2097 10.138 15.4685 9.63421 14.9647C9.13045 14.4622 8.38797 14.2797 7.70797 14.4922C6.77047 12.9047 6.27546 11.0949 6.27671 9.25222C6.27671 5.84715 6.67671 3.94342 7.50295 3.43328C8.24671 2.97328 9.52797 3.61203 11.0104 4.35078C12.6542 5.17078 14.5192 6.10203 16.5803 6.10203C18.6414 6.10203 20.5067 5.17203 22.1515 4.35078C23.634 3.61203 24.9152 2.97328 25.659 3.43328C26.484 3.94328 26.8852 5.84704 26.8852 9.25222L26.8839 9.25347C26.8864 11.096 26.3914 12.906 25.4527 14.4935C24.7727 14.281 24.0314 14.4635 23.5277 14.9672C23.0239 15.471 22.8414 16.2122 23.0527 16.8935C22.3189 17.086 21.7677 17.6947 21.6464 18.4447C21.5852 18.4385 21.5227 18.436 21.4589 18.436V18.4347C20.8452 18.4347 20.2689 18.7285 19.9089 19.226C19.5489 19.7222 19.4477 20.3622 19.6389 20.9447L18.6654 21.3385ZM21.4593 21.4697C21.0068 21.4697 20.598 21.196 20.4255 20.7772C20.2518 20.3585 20.348 19.8772 20.668 19.556C20.9893 19.236 21.4718 19.141 21.8906 19.3147C22.308 19.4885 22.5806 19.8972 22.5806 20.351C22.5793 20.9697 22.078 21.4697 21.4593 21.471L21.4593 21.4697ZM23.538 19.8622H23.5393C23.4605 19.8622 23.383 19.8535 23.3056 19.836C23.1706 19.3547 22.8543 18.9447 22.4218 18.6935C22.4405 18.2447 22.7256 17.851 23.1456 17.6935C23.5643 17.5347 24.0381 17.6422 24.3493 17.966C24.6593 18.2897 24.7468 18.7672 24.5706 19.1797C24.3943 19.5935 23.9881 19.861 23.5393 19.8597L23.538 19.8622ZM24.938 17.436H24.9393C24.6631 17.1385 24.2993 16.9373 23.9018 16.861C23.6581 16.4235 23.7356 15.8785 24.0881 15.5248C24.4418 15.171 24.9868 15.0948 25.4243 15.336C25.8618 15.5785 26.0856 16.0823 25.973 16.5685C25.8605 17.056 25.4381 17.4098 24.9393 17.436L24.938 17.436Z" fill="white"/>
</svg>
