<svg width="24" height="24" viewBox="0 0 24 24" fill="none" xmlns="http://www.w3.org/2000/svg">
<g clip-path="url(#clip0_1080_340)">
<path fill-rule="evenodd" clip-rule="evenodd" d="M1.41271 17.927C1.22615 17.927 1.03865 17.9364 0.853027 17.9532L0.853147 17.9532C0.685327 17.9673 0.519395 17.911 0.394707 17.7976C0.270957 17.6841 0.200645 17.5238 0.199707 17.3551V10.066C0.199707 9.71727 0.330007 9.38165 0.564387 9.12383L5.73919 3.43423C7.61439 1.37639 10.2672 0.202642 13.0508 0.199829H19.9996C21.0073 0.201689 21.9729 0.602149 22.6854 1.31451C23.3979 2.02687 23.7982 2.99249 23.8001 4.00031V19.9997C23.7982 21.0077 23.3979 21.9733 22.6854 22.6849C21.973 23.3974 21.0074 23.7977 19.9996 23.7996H8.92859C8.29203 23.8061 7.73327 23.3768 7.57671 22.759C7.24107 21.3788 6.45071 20.1507 5.33231 19.2742C4.21391 18.3976 2.83395 17.9232 1.41271 17.926V17.927ZM1.39959 10.066H1.40053L1.39993 16.726H1.41493C3.10433 16.7223 4.74595 17.2876 6.07533 18.3301C7.40557 19.3727 8.34495 20.8323 8.74433 22.4739C8.77151 22.5526 8.84745 22.6042 8.93089 22.6004H15.3102C16.1181 23.0612 17.0532 23.3245 18.0499 23.3245C19.3355 23.3245 20.5187 22.8864 21.4586 22.1514C21.6399 22.0282 21.8048 21.8826 21.9495 21.7188C22.9613 20.7153 23.588 19.324 23.588 17.7863C23.588 16.6129 23.2231 15.5247 22.6005 14.629V4.00044C22.5987 2.56516 21.4352 1.40171 19.9999 1.39984H13.0511C10.6059 1.40164 8.27347 2.43294 6.62629 4.24044L1.45209 9.93104C1.41834 9.9676 1.39959 10.0163 1.39959 10.066ZM20.5247 12.8305C20.7077 12.5941 20.8167 12.2975 20.8171 11.9756V4.56557C20.8161 3.79307 20.1899 3.16681 19.4164 3.16589H13.0884C11.2284 3.16964 9.45204 3.93371 8.16844 5.27989L5.28004 8.50869C5.05036 8.76463 4.92286 9.09651 4.92286 9.43963V12.7724C4.92192 12.9318 4.98474 13.0846 5.0963 13.1981C5.2088 13.3106 5.36068 13.3743 5.52006 13.3752L5.52004 13.3753H14.7007C15.6308 12.668 16.7913 12.2482 18.0499 12.2482C18.9394 12.2482 19.7799 12.4579 20.5247 12.8305ZM6.12004 9.44245C6.12004 9.3937 6.13879 9.34589 6.1716 9.30933L9.0516 6.09453V6.09547C10.1054 4.99297 11.5632 4.36859 13.0884 4.36579H19.4165C19.4699 4.36579 19.5205 4.38641 19.558 4.42391C19.5955 4.46141 19.6171 4.51203 19.6171 4.56547V11.9755C19.6162 12.0852 19.5271 12.1742 19.4165 12.1752H6.12267L6.12004 9.44245Z" fill="white"/>
<path fill-rule="evenodd" clip-rule="evenodd" d="M18.1082 23.4411C21.1991 23.4411 23.7047 20.9355 23.7047 17.8446C23.7047 14.7538 21.1991 12.2481 18.1082 12.2481C15.0174 12.2481 12.5117 14.7538 12.5117 17.8446C12.5117 20.9355 15.0174 23.4411 18.1082 23.4411ZM14.5962 14.3646V20.8446H17.3482V20.0286H15.7802V14.3646H14.5962ZM18.5092 20.6526C18.7812 20.8393 19.1546 20.9326 19.6292 20.9326C20.0879 20.9326 20.4426 20.85 20.6932 20.6846C20.9492 20.514 21.1279 20.282 21.2292 19.9886C21.3306 19.69 21.3812 19.3486 21.3812 18.9646V18.4446H20.2452V19.0286C20.2452 19.2206 20.2346 19.394 20.2132 19.5486C20.1919 19.7033 20.1386 19.8286 20.0532 19.9246C19.9732 20.0153 19.8345 20.0606 19.6372 20.0606C19.4666 20.0606 19.3306 20.0233 19.2292 19.9486C19.1332 19.8686 19.0666 19.754 19.0292 19.6046C18.9919 19.45 18.9732 19.2553 18.9732 19.0206V16.2046C18.9732 16.0073 18.9866 15.8313 19.0132 15.6766C19.0399 15.5166 19.0986 15.3913 19.1892 15.3006C19.2852 15.2046 19.4346 15.1566 19.6372 15.1566C19.8399 15.1566 19.9812 15.202 20.0612 15.2926C20.1466 15.378 20.1972 15.4953 20.2132 15.6446C20.2346 15.794 20.2452 15.9593 20.2452 16.1406V16.7006H21.3812V16.1566C21.3812 15.7833 21.3279 15.4553 21.2212 15.1726C21.1146 14.89 20.9332 14.674 20.6772 14.5246C20.4266 14.37 20.0772 14.2926 19.6292 14.2926C19.1546 14.2926 18.7812 14.3806 18.5092 14.5566C18.2426 14.7326 18.0559 14.9833 17.9492 15.3086C17.8426 15.634 17.7892 16.018 17.7892 16.4606V18.7726C17.7892 19.194 17.8426 19.5673 17.9492 19.8926C18.0559 20.2126 18.2426 20.466 18.5092 20.6526Z" fill="white"/>
</g>
<defs>
<clipPath id="clip0_1080_340">
<rect width="24" height="24" fill="white"/>
</clipPath>
</defs>
</svg>
