<svg width="24" height="24" viewBox="0 0 24 24" fill="none" xmlns="http://www.w3.org/2000/svg">
<g id="noun-car-door-6970341 4" clip-path="url(#clip0_1080_329)">
<path id="Subtract" fill-rule="evenodd" clip-rule="evenodd" d="M23.7882 17.4726C23.7119 16.309 23.2799 15.2425 22.5999 14.3807L22.5995 10.066H22.6004C22.6004 10.0163 22.5817 9.9676 22.5479 9.93104L17.3737 4.24044C15.7265 2.43294 13.3941 1.40164 10.9489 1.39984H4.00011C2.56479 1.40171 1.40131 2.56516 1.39951 4.00044V19.9998C1.40138 21.4352 2.56483 22.5986 4.00011 22.6004H15.0691C15.1144 22.6025 15.1574 22.5882 15.1917 22.5622C15.5326 22.7803 15.8987 22.9625 16.2846 23.1034C16.0413 23.5304 15.5813 23.8048 15.0714 23.7996H4.00041C2.99259 23.7977 2.02697 23.3974 1.31461 22.6849C0.602112 21.9733 0.201792 21.0077 0.199932 19.9997V4.00031C0.201807 2.99249 0.602112 2.02687 1.31461 1.31451C2.02711 0.602149 2.99273 0.201689 4.00041 0.199829H10.9492C13.7328 0.202642 16.3856 1.37639 18.2608 3.43423L23.4356 9.12383C23.67 9.38165 23.8003 9.71727 23.8003 10.066V17.3551C23.8001 17.3949 23.796 17.4343 23.7882 17.4726ZM14.8351 13.3753H4.58356C3.81012 13.3743 3.18388 12.7481 3.18294 11.9756V4.56557C3.18388 3.79307 3.81012 3.16681 4.58356 3.16589H10.9116C12.7716 3.16964 14.548 3.93371 15.8316 5.27989L18.72 8.50869C18.9496 8.76463 19.0771 9.09651 19.0771 9.43963V12.3159C18.7926 12.2713 18.501 12.2482 18.2039 12.2482C16.9391 12.2482 15.7723 12.6677 14.8351 13.3753ZM7.41367 15.2494H4.01427C3.85491 15.2494 3.70302 15.3131 3.58958 15.4256C3.47708 15.5382 3.41427 15.691 3.41427 15.8494V16.9135C3.41427 17.2453 3.68333 17.5135 4.01427 17.5135C4.34521 17.5135 4.61427 17.2453 4.61427 16.9135V16.4494H6.81367V16.9135C6.81367 17.2453 7.08179 17.5135 7.41367 17.5135C7.74461 17.5135 8.01367 17.2453 8.01367 16.9135V15.8494C8.01367 15.5185 7.74461 15.2494 7.41367 15.2494ZM17.88 9.44245C17.88 9.3937 17.8612 9.34589 17.8284 9.30933L14.9484 6.09453V6.09547C13.8946 4.99297 12.4368 4.36859 10.9116 4.36579H4.58353C4.53009 4.36579 4.47947 4.38641 4.44197 4.42391C4.40447 4.46141 4.38291 4.51203 4.38291 4.56547V11.9755C4.38385 12.0852 4.47291 12.1742 4.58353 12.1752H17.8773L17.88 9.44245Z" fill="white"/>
<path id="Subtract_2" fill-rule="evenodd" clip-rule="evenodd" d="M18.2039 23.4412C21.2948 23.4412 23.8004 20.9355 23.8004 17.8447C23.8004 14.7538 21.2948 12.2482 18.2039 12.2482C15.1131 12.2482 12.6074 14.7538 12.6074 17.8447C12.6074 20.9355 15.1131 23.4412 18.2039 23.4412ZM14.1919 14.3331V20.8131H15.3759V17.8451H15.9199L16.7039 20.8131H17.8879L16.9839 17.6211C17.1865 17.5411 17.3439 17.4291 17.4559 17.2851C17.5732 17.1358 17.6559 16.9571 17.7039 16.7491C17.7519 16.5411 17.7759 16.3064 17.7759 16.0451C17.7759 15.6131 17.6959 15.2718 17.5359 15.0211C17.3812 14.7704 17.1519 14.5944 16.8479 14.4931C16.5492 14.3864 16.1812 14.3331 15.7439 14.3331H14.1919ZM15.7439 17.1011H15.3759V15.1411H15.8079C16.1439 15.1411 16.3705 15.2238 16.4879 15.3891C16.6105 15.5491 16.6719 15.7918 16.6719 16.1171C16.6719 16.3464 16.6425 16.5358 16.5839 16.6851C16.5252 16.8291 16.4265 16.9358 16.2879 17.0051C16.1545 17.0691 15.9732 17.1011 15.7439 17.1011ZM18.6762 14.3331V20.8131H20.5402C20.8442 20.8131 21.1082 20.7731 21.3322 20.6931C21.5616 20.6131 21.7509 20.4958 21.9002 20.3411C22.0549 20.1811 22.1696 19.9838 22.2442 19.7491C22.3242 19.5091 22.3642 19.2344 22.3642 18.9251C22.3642 18.6158 22.3216 18.3518 22.2362 18.1331C22.1562 17.9144 22.0309 17.7384 21.8602 17.6051C21.6949 17.4664 21.4842 17.3758 21.2282 17.3331C21.4362 17.2958 21.6096 17.2238 21.7482 17.1171C21.8869 17.0051 21.9909 16.8558 22.0602 16.6691C22.1349 16.4824 22.1722 16.2584 22.1722 15.9971C22.1722 15.6718 22.1269 15.4024 22.0362 15.1891C21.9456 14.9758 21.8149 14.8078 21.6442 14.6851C21.4789 14.5571 21.2789 14.4664 21.0442 14.4131C20.8149 14.3598 20.5562 14.3331 20.2682 14.3331H18.6762ZM20.3082 19.9811H19.8602V17.7971H20.2682C20.5029 17.7971 20.6896 17.8371 20.8282 17.9171C20.9722 17.9971 21.0736 18.1198 21.1322 18.2851C21.1962 18.4451 21.2282 18.6558 21.2282 18.9171C21.2282 19.2798 21.1642 19.5491 21.0362 19.7251C20.9082 19.8958 20.6656 19.9811 20.3082 19.9811ZM20.2602 16.9811H19.8602V15.1571H20.0922C20.3322 15.1571 20.5296 15.1811 20.6842 15.2291C20.8389 15.2718 20.9536 15.3571 21.0282 15.4851C21.1082 15.6078 21.1482 15.7838 21.1482 16.0131C21.1482 16.2318 21.1216 16.4131 21.0682 16.5571C21.0202 16.7011 20.9322 16.8078 20.8042 16.8771C20.6762 16.9464 20.4949 16.9811 20.2602 16.9811Z" fill="white"/>
</g>
<defs>
<clipPath id="clip0_1080_329">
<rect width="24" height="24" fill="white" transform="matrix(-1 0 0 1 24 0)"/>
</clipPath>
</defs>
</svg>
