<svg width="24" height="24" viewBox="0 0 24 24" fill="none" xmlns="http://www.w3.org/2000/svg">
<g id="noun-car-door-6970341 2" clip-path="url(#clip0_1080_303)">
<path id="Subtract" fill-rule="evenodd" clip-rule="evenodd" d="M23.7882 17.4726C23.7119 16.309 23.2799 15.2425 22.5999 14.3807L22.5995 10.066H22.6004C22.6004 10.0163 22.5817 9.9676 22.5479 9.93104L17.3737 4.24044C15.7265 2.43294 13.3941 1.40164 10.9489 1.39984H4.00011C2.56479 1.40171 1.40131 2.56516 1.39951 4.00044V19.9998C1.40138 21.4352 2.56483 22.5986 4.00011 22.6004H15.0691C15.1144 22.6025 15.1574 22.5882 15.1917 22.5622C15.5326 22.7803 15.8987 22.9625 16.2846 23.1034C16.0413 23.5304 15.5813 23.8048 15.0714 23.7996H4.00041C2.99259 23.7977 2.02697 23.3974 1.31461 22.6849C0.602112 21.9733 0.201792 21.0077 0.199932 19.9997V4.00031C0.201807 2.99249 0.602112 2.02687 1.31461 1.31451C2.02711 0.602149 2.99273 0.201689 4.00041 0.199829H10.9492C13.7328 0.202642 16.3856 1.37639 18.2608 3.43423L23.4356 9.12383C23.67 9.38165 23.8003 9.71727 23.8003 10.066V17.3551C23.8001 17.3949 23.796 17.4343 23.7882 17.4726ZM14.8351 13.3753H4.58356C3.81012 13.3743 3.18388 12.7481 3.18294 11.9756V4.56557C3.18388 3.79307 3.81012 3.16681 4.58356 3.16589H10.9116C12.7716 3.16964 14.548 3.93371 15.8316 5.27989L18.72 8.50869C18.9496 8.76463 19.0771 9.09651 19.0771 9.43963V12.3159C18.7926 12.2713 18.501 12.2482 18.2039 12.2482C16.9391 12.2482 15.7723 12.6677 14.8351 13.3753ZM7.41367 15.2494H4.01427C3.85491 15.2494 3.70302 15.3131 3.58958 15.4256C3.47708 15.5382 3.41427 15.691 3.41427 15.8494V16.9135C3.41427 17.2453 3.68333 17.5135 4.01427 17.5135C4.34521 17.5135 4.61427 17.2453 4.61427 16.9135V16.4494H6.81367V16.9135C6.81367 17.2453 7.08179 17.5135 7.41367 17.5135C7.74461 17.5135 8.01367 17.2453 8.01367 16.9135V15.8494C8.01367 15.5185 7.74461 15.2494 7.41367 15.2494ZM17.88 9.44245C17.88 9.3937 17.8612 9.34589 17.8284 9.30933L14.9484 6.09453V6.09547C13.8946 4.99297 12.4368 4.36859 10.9116 4.36579H4.58353C4.53009 4.36579 4.47947 4.38641 4.44197 4.42391C4.40447 4.46141 4.38291 4.51203 4.38291 4.56547V11.9755C4.38385 12.0852 4.47291 12.1742 4.58353 12.1752H17.8773L17.88 9.44245Z" fill="white"/>
<path id="Subtract_2" fill-rule="evenodd" clip-rule="evenodd" d="M18.2039 23.4412C21.2948 23.4412 23.8004 20.9355 23.8004 17.8447C23.8004 14.7538 21.2948 12.2482 18.2039 12.2482C15.1131 12.2482 12.6074 14.7538 12.6074 17.8447C12.6074 20.9355 15.1131 23.4412 18.2039 23.4412ZM14.6919 14.3647V20.8447H15.8759V17.8767H16.4199L17.2039 20.8447H18.3879L17.4839 17.6527C17.6865 17.5727 17.8439 17.4607 17.9559 17.3167C18.0732 17.1673 18.1559 16.9887 18.2039 16.7807C18.2519 16.5727 18.2759 16.338 18.2759 16.0767C18.2759 15.6447 18.1959 15.3033 18.0359 15.0527C17.8812 14.802 17.6519 14.626 17.3479 14.5247C17.0492 14.418 16.6812 14.3647 16.2439 14.3647H14.6919ZM16.2439 17.1327H15.8759V15.1727H16.3079C16.6439 15.1727 16.8705 15.2553 16.9879 15.4207C17.1105 15.5807 17.1719 15.8233 17.1719 16.1487C17.1719 16.378 17.1425 16.5673 17.0839 16.7167C17.0252 16.8607 16.9265 16.9673 16.7879 17.0367C16.6545 17.1007 16.4732 17.1327 16.2439 17.1327ZM19.1762 14.3647V20.8447H20.3602V17.8927H21.5682V17.0687H20.3602V15.1807H21.8402V14.3647H19.1762Z" fill="white"/>
</g>
<defs>
<clipPath id="clip0_1080_303">
<rect width="24" height="24" fill="white" transform="matrix(-1 0 0 1 24 0)"/>
</clipPath>
</defs>
</svg>
