<svg width="24" height="24" viewBox="0 0 24 24" fill="none" xmlns="http://www.w3.org/2000/svg">
<g id="noun-car-door-6970341 3" clip-path="url(#clip0_1080_322)">
<path id="Subtract" fill-rule="evenodd" clip-rule="evenodd" d="M1.41271 17.927C1.22615 17.927 1.03865 17.9364 0.853027 17.9532L0.853147 17.9532C0.685327 17.9673 0.519395 17.911 0.394707 17.7976C0.270957 17.6841 0.200645 17.5238 0.199707 17.3551V10.066C0.199707 9.71727 0.330007 9.38165 0.564387 9.12383L5.73919 3.43423C7.61439 1.37639 10.2672 0.202642 13.0508 0.199829H19.9996C21.0073 0.201689 21.9729 0.602149 22.6854 1.31451C23.3979 2.02687 23.7982 2.99249 23.8001 4.00031V19.9997C23.7982 21.0077 23.3979 21.9733 22.6854 22.6849C21.973 23.3974 21.0074 23.7977 19.9996 23.7996H8.92859C8.29203 23.8061 7.73327 23.3768 7.57671 22.759C7.24107 21.3788 6.45071 20.1507 5.33231 19.2742C4.21391 18.3976 2.83395 17.9232 1.41271 17.926V17.927ZM1.39959 10.066H1.40053L1.39993 16.726H1.41493C3.10433 16.7223 4.74595 17.2876 6.07533 18.3301C7.40557 19.3727 8.34495 20.8323 8.74433 22.4739C8.77151 22.5526 8.84745 22.6042 8.93089 22.6004H15.3102C16.1181 23.0612 17.0532 23.3245 18.0499 23.3245C19.3355 23.3245 20.5187 22.8864 21.4586 22.1514C21.6399 22.0282 21.8048 21.8826 21.9495 21.7188C22.9613 20.7153 23.588 19.324 23.588 17.7863C23.588 16.6129 23.2231 15.5247 22.6005 14.629V4.00044C22.5987 2.56516 21.4352 1.40171 19.9999 1.39984H13.0511C10.6059 1.40164 8.27347 2.43294 6.62629 4.24044L1.45209 9.93104C1.41834 9.9676 1.39959 10.0163 1.39959 10.066ZM20.5247 12.8305C20.7077 12.5941 20.8167 12.2975 20.8171 11.9756V4.56557C20.8161 3.79307 20.1899 3.16681 19.4164 3.16589H13.0884C11.2284 3.16964 9.45204 3.93371 8.16844 5.27989L5.28004 8.50869C5.05036 8.76463 4.92286 9.09651 4.92286 9.43963V12.7724C4.92192 12.9318 4.98474 13.0846 5.0963 13.1981C5.2088 13.3106 5.36068 13.3743 5.52006 13.3752L5.52004 13.3753H14.7007C15.6308 12.668 16.7913 12.2482 18.0499 12.2482C18.9394 12.2482 19.7799 12.4579 20.5247 12.8305ZM6.12004 9.44245C6.12004 9.3937 6.13879 9.34589 6.1716 9.30933L9.0516 6.09453V6.09547C10.1054 4.99297 11.5632 4.36859 13.0884 4.36579H19.4165C19.4699 4.36579 19.5205 4.38641 19.558 4.42391C19.5955 4.46141 19.6171 4.51203 19.6171 4.56547V11.9755C19.6162 12.0852 19.5271 12.1742 19.4165 12.1752H6.12267L6.12004 9.44245Z" fill="white"/>
<path id="Subtract_2" fill-rule="evenodd" clip-rule="evenodd" d="M18.1085 23.4411C21.1993 23.4411 23.705 20.9355 23.705 17.8446C23.705 14.7538 21.1993 12.2481 18.1085 12.2481C15.0176 12.2481 12.512 14.7538 12.512 17.8446C12.512 20.9355 15.0176 23.4411 18.1085 23.4411ZM14.5964 14.3646V20.8446H17.3484V20.0286H15.7804V14.3646H14.5964ZM17.9636 14.3646V20.8446H19.8276C20.1316 20.8446 20.3956 20.8046 20.6196 20.7246C20.8489 20.6446 21.0383 20.5273 21.1876 20.3726C21.3423 20.2126 21.4569 20.0153 21.5316 19.7806C21.6116 19.5406 21.6516 19.266 21.6516 18.9566C21.6516 18.6473 21.6089 18.3833 21.5236 18.1646C21.4436 17.946 21.3183 17.77 21.1476 17.6366C20.9823 17.498 20.7716 17.4073 20.5156 17.3646C20.7236 17.3273 20.8969 17.2553 21.0356 17.1486C21.1743 17.0366 21.2783 16.8873 21.3476 16.7006C21.4223 16.514 21.4596 16.29 21.4596 16.0286C21.4596 15.7033 21.4143 15.434 21.3236 15.2206C21.2329 15.0073 21.1023 14.8393 20.9316 14.7166C20.7663 14.5886 20.5663 14.498 20.3316 14.4446C20.1023 14.3913 19.8436 14.3646 19.5556 14.3646H17.9636ZM19.5956 20.0126H19.1476V17.8286H19.5556C19.7903 17.8286 19.9769 17.8686 20.1156 17.9486C20.2596 18.0286 20.3609 18.1513 20.4196 18.3166C20.4836 18.4766 20.5156 18.6873 20.5156 18.9486C20.5156 19.3113 20.4516 19.5806 20.3236 19.7566C20.1956 19.9273 19.9529 20.0126 19.5956 20.0126ZM19.5476 17.0126H19.1476V15.1886H19.3796C19.6196 15.1886 19.8169 15.2126 19.9716 15.2606C20.1263 15.3033 20.2409 15.3886 20.3156 15.5166C20.3956 15.6393 20.4356 15.8153 20.4356 16.0446C20.4356 16.2633 20.4089 16.4446 20.3556 16.5886C20.3076 16.7326 20.2196 16.8393 20.0916 16.9086C19.9636 16.978 19.7823 17.0126 19.5476 17.0126Z" fill="white"/>
</g>
<defs>
<clipPath id="clip0_1080_322">
<rect width="24" height="24" fill="white"/>
</clipPath>
</defs>
</svg>
