<svg width="33" height="33" viewBox="0 0 33 33" fill="none" xmlns="http://www.w3.org/2000/svg">
<path d="M29.3061 13.531H28.0211C27.3461 12.316 26.0411 11.481 24.5613 11.481H8.59146C7.11146 11.481 5.80639 12.311 5.13172 13.531H3.84671C3.19172 13.541 3.19172 14.521 3.84671 14.531H4.74671C4.49671 15.871 4.71671 17.5561 5.01171 18.571C6.45171 23.9611 16.6066 23.6761 15.8568 14.9961H17.2918C16.5418 23.6761 26.6968 23.9611 28.1368 18.571C28.4318 17.556 28.6518 15.871 28.4068 14.531H29.3068C29.9618 14.521 29.9618 13.541 29.3068 13.531H29.3061ZM18.3461 12.481C17.9361 12.891 17.6311 13.406 17.4661 13.991H15.7011C15.5361 13.406 15.2311 12.886 14.8211 12.481H18.3509H18.3461ZM11.301 21.0261C8.77599 21.4861 5.39087 20.6561 5.65114 15.341C5.68114 13.766 7.00114 12.481 8.5962 12.481H12.3911C13.6061 12.481 14.6161 13.361 14.8011 14.566C15.6411 20.1359 11.491 20.9911 11.3009 21.0263L11.301 21.0261ZM27.1861 18.2762C26.0861 21.8762 22.0311 21.0661 21.8458 21.0261C21.6708 20.9911 17.5159 20.141 18.3559 14.5658C18.5409 13.3558 19.5509 12.4808 20.7659 12.4808H24.5609C26.1559 12.4808 27.4758 13.7658 27.5059 15.3408C27.5259 16.4958 27.4159 17.5108 27.1809 18.2757L27.1861 18.2762ZM12.0311 14.2263L7.73087 17.5813C7.21588 17.9813 6.60087 17.1962 7.11588 16.7913C7.10088 16.8013 11.3756 13.4713 11.4161 13.4363C11.9361 13.0363 12.5461 13.8213 12.0311 14.2263ZM11.3961 16.9013L9.88116 18.0863C9.66616 18.2563 9.35116 18.2213 9.18116 18.0013C9.01116 17.7813 9.05116 17.4713 9.26616 17.3013L10.7811 16.1163C11.3011 15.7163 11.9111 16.5013 11.3961 16.9063L11.3961 16.9013ZM7.24602 14.6213L8.761 13.4362C8.981 13.2662 9.291 13.3062 9.461 13.5212C9.631 13.7412 9.591 14.0512 9.376 14.2212L7.86102 15.4063C7.77102 15.4763 7.66102 15.5113 7.556 15.5113C7.10102 15.5263 6.87099 14.8913 7.246 14.6163L7.24602 14.6213ZM24.5311 14.2263L20.2308 17.5812C19.7158 17.9812 19.1008 17.1962 19.6158 16.7912C19.6008 16.8012 23.8756 13.4712 23.9161 13.4363C24.4361 13.0363 25.0461 13.8213 24.5311 14.2263ZM23.8961 16.9012L22.3811 18.0862C21.8661 18.4912 21.2561 17.6962 21.7661 17.2962L23.2811 16.1112C23.7961 15.7112 24.4111 16.4962 23.8961 16.9012ZM19.746 14.6212L21.261 13.4362C21.4809 13.2662 21.7909 13.3062 21.9609 13.5212C22.1309 13.7412 22.091 14.0512 21.8759 14.2212L20.361 15.4062C20.271 15.4762 20.161 15.5112 20.056 15.5112C19.601 15.5262 19.3709 14.8912 19.7459 14.6162L19.746 14.6212Z" fill="white"/>
</svg>
