<svg width="32" height="32" viewBox="0 0 32 32" fill="none" xmlns="http://www.w3.org/2000/svg">
<path d="M26.7307 18.0539L25.3494 19.4326V11.8651C25.3494 11.3777 25.1569 10.9164 24.8081 10.5677C24.4594 10.2189 23.9981 10.0264 23.5107 10.0264C23.2056 10.0264 22.9169 10.1002 22.6632 10.2327C22.6407 9.77391 22.4519 9.34641 22.1269 9.0214C21.7869 8.67639 21.3119 8.47764 20.8232 8.47764C19.8357 8.47764 19.0269 9.25639 18.9794 10.2326C18.8069 10.1426 18.6194 10.0926 18.4269 10.0626V6.36289C18.4269 5.3454 17.6007 4.51665 16.5856 4.51665C16.2881 4.51665 16.0006 4.5879 15.7394 4.7229V4.38666C15.7394 3.37416 14.9132 2.54917 13.8981 2.54917C13.5956 2.54917 13.3069 2.62042 13.0507 2.75417C13.0032 1.77793 12.1944 0.999184 11.2069 0.999184C10.7169 0.999184 10.2419 1.19668 9.90313 1.54294C9.57812 1.8742 9.39063 2.30169 9.36815 2.7542C9.1144 2.62295 8.82564 2.5492 8.52065 2.5492C8.03316 2.5492 7.57316 2.7417 7.22441 3.0892C6.87567 3.43794 6.68316 3.89794 6.68316 4.38544V11.954L5.30191 10.5765C4.58316 9.85773 3.41441 9.85773 2.6994 10.574C2.35439 10.914 2.15564 11.389 2.15564 11.8777C2.15564 12.3702 2.34814 12.834 2.69689 13.1828L6.64303 17.1289L5.86804 21.1828C5.86679 21.1903 5.86554 21.199 5.86429 21.2065L5.83679 21.3415C5.83429 21.3553 5.83804 21.369 5.83679 21.3828C5.83554 21.4028 5.82679 21.4203 5.82679 21.4403C5.82679 21.4615 5.83554 21.4802 5.83679 21.5015C5.83929 21.524 5.84179 21.544 5.84679 21.5653C6.06179 23.1027 10.1217 23.5215 12.5529 23.5215C12.9017 23.5215 13.2529 23.5027 13.6042 23.4877V24.6402L12.7979 28.6192C12.7929 28.6317 12.7942 28.6454 12.7904 28.6579L12.7579 28.8179C12.7554 28.8304 12.7592 28.8429 12.7579 28.8567C12.7567 28.8779 12.7479 28.8967 12.7479 28.9179C12.7479 28.9392 12.7567 28.9579 12.7579 28.9779C12.7604 29.0004 12.7629 29.0204 12.7679 29.0429C12.9817 30.5817 17.0442 31.0004 19.4767 31.0004C21.9092 31.0004 25.9653 30.5817 26.1855 29.0467C26.1905 29.0254 26.193 29.0042 26.1955 28.9817C26.1968 28.9592 26.2055 28.9404 26.2055 28.9179C26.2055 28.8979 26.198 28.8804 26.1968 28.8617C26.1955 28.8492 26.1993 28.8367 26.1968 28.8242L25.3893 24.6079L29.3368 20.6604C29.683 20.3142 29.8743 19.8504 29.8743 19.3554C29.8743 18.8692 29.678 18.3954 29.3355 18.0529C28.6155 17.3379 27.4468 17.3379 26.7305 18.0542L26.7307 18.0539ZM3.40212 12.4763C3.24212 12.3163 3.15462 12.1038 3.15462 11.8788C3.15462 11.6563 3.24462 11.4413 3.40212 11.285C3.73087 10.9575 4.26588 10.9563 4.59463 11.285L6.82961 13.515C6.97336 13.6575 7.18836 13.7 7.37463 13.6225C7.56089 13.545 7.68337 13.3625 7.68337 13.16L7.68212 4.38747C7.68212 4.10497 7.81712 3.91123 7.92962 3.79747C8.04212 3.68497 8.23711 3.54998 8.51837 3.54998C8.98461 3.54998 9.36461 3.92496 9.36461 4.38747C9.36461 4.38997 9.36586 4.39247 9.36586 4.39497V10.6587C9.36586 10.9349 9.58961 11.1587 9.86586 11.1587C10.1421 11.1587 10.3659 10.935 10.3659 10.6587V4.38857C10.3659 4.38607 10.3646 4.38357 10.3646 4.38107V2.84608C10.3646 2.62358 10.4534 2.40984 10.6159 2.24483C10.7684 2.08983 10.9834 1.99983 11.2059 1.99983C11.6721 1.99983 12.0521 2.37983 12.0521 2.84607V10.6586C12.0521 10.9348 12.2758 11.1586 12.5521 11.1586C12.8283 11.1586 13.0521 10.9349 13.0521 10.6586V4.38607C13.0521 4.10858 13.1896 3.91356 13.3071 3.79482C13.4621 3.63732 13.6721 3.54982 13.8971 3.54982C14.3609 3.54982 14.7384 3.9248 14.7384 4.38731V10.6585C14.7384 10.9347 14.9621 11.1585 15.2384 11.1585C15.5146 11.1585 15.7384 10.9348 15.7384 10.6585V6.36224C15.7384 6.13599 15.8259 5.9235 15.9834 5.76726C16.1484 5.60475 16.3621 5.51601 16.5846 5.51601C17.0484 5.51601 17.4259 5.89601 17.4259 6.36225V10.1686C16.7608 10.4461 16.2909 11.1012 16.2909 11.8649V12.1999C16.0321 12.0661 15.7434 11.9949 15.4446 11.9949C14.4284 11.9949 13.6021 12.8224 13.6021 13.8411V19.3912C13.2509 19.3762 12.8971 19.3575 12.5509 19.3575C10.6459 19.3575 8.43461 19.575 7.08341 20.1325L7.67215 17.0562C7.7034 16.8937 7.65215 16.7262 7.53465 16.6087L3.40079 12.4749L3.40212 12.4763ZM12.5523 22.5227C9.15732 22.5227 7.06852 21.8327 6.83492 21.4427L6.83617 21.4352C7.07117 21.0452 9.15617 20.3589 12.5524 20.3589C12.8999 20.3589 13.2524 20.3777 13.6037 20.3927V22.4877C13.2524 22.5027 12.9012 22.5214 12.5524 22.5214L12.5523 22.5227ZM19.4773 30C16.036 30 13.9384 29.2925 13.7509 28.95L13.7559 28.9225C13.9672 28.5325 16.0584 27.8363 19.4759 27.8363C22.8746 27.8363 24.9634 28.5263 25.1959 28.9163V28.9188C24.9659 29.3088 22.8759 30 19.4759 30L19.4773 30ZM28.6309 19.9536L24.4971 24.0875C24.3796 24.205 24.3283 24.3725 24.3596 24.535L24.9508 27.6251C23.5058 27.0289 21.1207 26.8363 19.4783 26.8363C17.8359 26.8363 15.4697 27.0264 14.022 27.6189L14.5945 24.7914C14.6008 24.7589 14.6045 24.7251 14.6045 24.6914V13.8429C14.6045 13.3766 14.982 12.9966 15.447 12.9966C15.672 12.9966 15.8845 13.0841 16.0445 13.2454C16.2045 13.4054 16.292 13.6166 16.292 13.8404V18.1366C16.292 18.4129 16.5158 18.6366 16.792 18.6366C17.0683 18.6366 17.292 18.4129 17.292 18.1366V11.8641C17.292 11.4016 17.6695 11.0253 18.1345 11.0253C18.357 11.0253 18.5683 11.1128 18.7283 11.2728C18.8408 11.3866 18.9758 11.5803 18.9758 11.8628C18.9758 11.8653 18.977 11.8678 18.977 11.8703V18.1341C18.977 18.4103 19.2008 18.6341 19.477 18.6341C19.7533 18.6341 19.977 18.4103 19.977 18.1341V11.8639C19.977 11.8614 19.9758 11.8589 19.9758 11.8564V10.3215C19.9758 9.85521 20.3558 9.47521 20.822 9.47521C21.0445 9.47521 21.2595 9.56521 21.4158 9.72271C21.5758 9.88271 21.6633 10.0952 21.6633 10.3202V18.1327C21.6633 18.409 21.887 18.6327 22.1633 18.6327C22.4395 18.6327 22.6633 18.409 22.6633 18.1327V11.8613C22.6633 11.3988 23.0433 11.0225 23.5095 11.0225C23.792 11.0225 23.987 11.1575 24.0995 11.27C24.212 11.3838 24.347 11.5775 24.347 11.86V20.6326C24.347 20.8351 24.4695 21.0176 24.6558 21.0951C24.842 21.1713 25.057 21.1301 25.2008 20.9876L27.4358 18.7563C27.7633 18.4288 28.2983 18.4301 28.6283 18.7563C28.7833 18.9113 28.872 19.1276 28.872 19.3501C28.872 19.5776 28.7845 19.7901 28.627 19.9476L28.6309 19.9536Z" fill="white"/>
</svg>
