<svg width="33" height="33" viewBox="0 0 33 33" fill="none" xmlns="http://www.w3.org/2000/svg">
<path d="M25.0906 13.5568C24.6081 11.153 23.7519 8.84534 22.4157 7.55814C21.7319 6.89939 20.9457 6.6219 20.0807 6.73689C19.4257 6.82314 18.8245 7.12438 18.2445 7.41564C17.9832 7.54689 17.712 7.68189 17.4382 7.79814C17.167 7.91314 16.8795 7.97064 16.582 7.97064C16.2845 7.97064 15.997 7.91314 15.7257 7.79814C15.4508 7.68189 15.1807 7.54689 14.9195 7.41564C14.3395 7.12438 13.7382 6.82438 13.0833 6.73689C12.2182 6.62189 11.432 6.89939 10.7483 7.55814C9.41203 8.84689 8.55577 11.1531 8.07334 13.5568C3.95974 14.733 1.61841 16.6917 1.61841 18.9869C1.61841 20.9332 3.31966 22.6632 6.40721 23.8605C9.14348 24.9205 12.7573 25.5056 16.5821 25.5056C20.4072 25.5056 24.0208 24.9218 26.7571 23.8605C29.8445 22.6643 31.5459 20.9331 31.5459 18.9869C31.5459 16.692 29.2046 14.7344 25.0909 13.5568H25.0906ZM12.3757 9.24801C12.4919 9.13676 12.5694 9.06176 12.7157 9.06176C12.9057 9.06176 13.2119 9.18551 13.8657 9.51426C14.1469 9.65552 14.4657 9.81426 14.8094 9.9605C15.3707 10.198 15.9669 10.318 16.5794 10.318C17.1932 10.318 17.7882 10.198 18.3494 9.9605C18.6932 9.8155 19.012 9.65549 19.2932 9.51426C20.4557 8.93176 20.5182 8.99301 20.7845 9.24801C22.032 10.4505 23.032 13.8405 23.217 17.4917C23.2232 17.6192 23.1507 17.7192 23.027 17.7517C20.9245 18.313 18.7555 18.598 16.5795 18.598C14.4033 18.598 12.2344 18.313 10.132 17.7517C10.0083 17.7192 9.93579 17.6192 9.94204 17.4917C10.127 13.8405 11.127 10.4504 12.3745 9.24801L12.3757 9.24801ZM25.9082 21.6717C23.4357 22.6305 20.1232 23.158 16.5808 23.158C13.0384 23.158 9.72582 22.6305 7.25329 21.6717C5.22454 20.8855 3.96342 19.8568 3.96342 18.9867C3.96342 18.1879 5.14217 17.0417 7.68982 16.1405C7.64857 16.5605 7.61857 16.973 7.59857 17.3718C7.53607 18.6105 8.32857 19.6993 9.52732 20.018C11.8273 20.6318 14.1999 20.943 16.5799 20.943C18.9596 20.943 21.3335 20.6318 23.6324 20.018C24.8299 19.698 25.6236 18.6093 25.5611 17.3718C25.5411 16.9718 25.5111 16.5593 25.4699 16.1405C28.0174 17.0405 29.1963 18.1868 29.1963 18.9867C29.1963 19.8567 27.9363 20.8854 25.9064 21.6717H25.9082Z" fill="white"/>
</svg>
