<svg width="24" height="24" viewBox="0 0 24 24" fill="none" xmlns="http://www.w3.org/2000/svg">
<path d="M2.53582 12.661C2.53582 11.7437 2.77728 10.8425 3.23597 10.0481C3.69465 9.25361 4.35438 8.59389 5.1488 8.13523C5.94326 7.67654 6.84444 7.43508 7.76179 7.43508H9.96978L9.03893 6.50423C7.5822 5.0475 5.61919 4.07743 3.56147 4.16886H3.56137C3.26068 4.18778 2.96797 4.06732 2.76778 3.84212C2.56747 3.61704 2.48199 3.31231 2.53579 3.0159C2.58586 2.77923 2.71855 2.56819 2.91004 2.42039C3.10153 2.27249 3.33936 2.19764 3.58092 2.20913C6.12022 2.21965 8.55158 3.23684 10.342 5.03768L12.1711 6.86674L15.0094 4.02839C15.5857 3.4516 16.2701 2.99408 17.0233 2.68191C17.7765 2.36974 18.5839 2.2091 19.3992 2.2091H20.4607C20.692 2.20495 20.9178 2.28055 21.0998 2.42334C21.2819 2.56613 21.4092 2.7673 21.4602 2.99302C21.519 3.28138 21.4452 3.58089 21.259 3.80874C21.0729 4.03669 20.7942 4.16895 20.4999 4.16884H19.3991C18.2732 4.16926 17.1935 4.61688 16.3975 5.41324L13.0823 8.7252C12.6535 9.154 12.0719 9.39483 11.4654 9.39483H7.76152C6.89531 9.39483 6.06449 9.73901 5.45197 10.3515C4.83944 10.964 4.49529 11.7948 4.49529 12.6611V16.9072C4.49529 16.9938 4.52974 17.0768 4.59098 17.1381C4.65222 17.1993 4.73526 17.2338 4.82191 17.2338H7.43489L7.45775 17.0738C7.57471 16.1874 7.96247 15.3587 8.56819 14.701C9.1738 14.0432 9.96782 13.5886 10.8416 13.3993C11.9845 13.1701 13.1714 13.4211 14.1239 14.0931C15.0763 14.7652 15.7106 15.7993 15.878 16.953L15.927 17.2339H20.4605C20.6918 17.2297 20.9176 17.3053 21.0996 17.4481C21.2817 17.5909 21.409 17.7921 21.46 18.0178C21.5188 18.3061 21.445 18.6057 21.2588 18.8335C21.0727 19.0615 20.794 19.1937 20.4997 19.1936H15.6004L15.5122 19.3798C15.0485 20.3478 14.2356 21.1044 13.2367 21.4973C12.2378 21.8903 11.1272 21.8903 10.1283 21.4973C9.12943 21.1044 8.31639 20.3479 7.8528 19.3798L7.76136 19.1936H4.82176C4.21541 19.1936 3.6338 18.9527 3.20503 18.524C2.77634 18.0952 2.5354 17.5136 2.5354 16.9072L2.53582 12.661ZM11.6813 19.8467C12.2876 19.8467 12.8692 19.6058 13.298 19.1771C13.7267 18.7483 13.9676 18.1667 13.9676 17.5604C13.9676 16.954 13.7267 16.3724 13.298 15.9437C12.8692 15.515 12.2876 15.274 11.6813 15.274C11.0749 15.274 10.4933 15.515 10.0645 15.9437C9.63584 16.3725 9.3949 16.954 9.3949 17.5604C9.3949 18.1667 9.63583 18.7483 10.0645 19.1771C10.4933 19.6058 11.0749 19.8467 11.6813 19.8467Z" fill="white"/>
</svg>
