<svg width="33" height="33" viewBox="0 0 33 33" fill="none" xmlns="http://www.w3.org/2000/svg">
<g clip-path="url(#clip0_1_156)">
<path d="M28.9753 9.80605C28.756 8.95419 28.4612 8.13491 28.0989 7.37085C26.8271 4.69219 24.7162 2.67859 21.9944 1.54685C21.2144 1.22259 20.3792 0.970506 19.512 0.798106C18.5654 0.609253 17.5799 0.513626 16.5834 0.513626C15.5857 0.513626 14.599 0.609669 13.6509 0.798719C12.7837 0.971533 11.9485 1.22363 11.1688 1.54819C8.44801 2.68037 6.33814 4.69325 5.06668 7.36899C4.7047 8.13096 4.40958 8.95056 4.18875 9.80523C3.84574 11.1358 3.67188 12.5772 3.67188 14.0911C3.67188 14.5405 3.68823 15.0041 3.72271 15.509C3.77354 16.2607 3.86562 17.0326 3.99719 17.8034C5.21313 24.9349 10.038 32.5135 16.5833 32.5135C23.1281 32.5135 27.9516 24.9349 29.1671 17.8037C29.2989 17.0268 29.3914 16.2552 29.4412 15.5086C29.4754 15.0012 29.4917 14.5379 29.4917 14.0913C29.4916 12.577 29.3178 11.1353 28.9751 9.80595L28.9753 9.80605ZM27.3132 15.3655C27.2666 16.0574 27.1819 16.7525 27.0643 17.4455C25.9361 24.0631 21.6723 30.3802 16.5835 30.3802C11.4955 30.3802 7.22883 24.0631 6.10003 17.445C5.98201 16.7524 5.89774 16.0573 5.85118 15.365C5.82233 14.9386 5.80535 14.5134 5.80535 14.091C5.80535 12.7147 5.96389 11.4656 6.25441 10.3385C6.44504 9.60037 6.69348 8.91632 6.99359 8.28445C7.91201 6.35133 9.11764 3.59139 11.0307 3.98472C11.8249 4.14795 13.682 7.02872 14.2941 8.10659C14.8982 9.17149 16.2368 13.037 16.2501 13.0727C16.3024 13.2106 16.435 13.3017 16.5825 13.3017C16.7301 13.3017 16.8623 13.2106 16.9149 13.0727C16.9284 13.0372 18.2666 9.17165 18.8708 8.10659C19.4831 7.02752 21.343 4.14605 22.1348 3.98365C24.048 3.59075 25.2535 6.35021 26.1719 8.28445C26.4713 8.91592 26.7201 9.59997 26.9103 10.3385C27.2008 11.4656 27.3594 12.7146 27.3594 14.091C27.3591 14.5133 27.3421 14.9385 27.3136 15.3652L27.3132 15.3655ZM7.16062 14.6673L14.7236 16.0009C14.3555 18.0892 12.3633 19.4839 10.2753 19.1159C8.18676 18.7472 6.79235 16.7553 7.16062 14.6673V14.6673ZM18.4404 16.0009L26.0033 14.6673C26.3713 16.7555 24.9764 18.7481 22.8884 19.1161C20.8001 19.484 18.8084 18.0891 18.4404 16.0009V16.0009ZM15.4812 22.7433L14.263 26.738C14.2403 26.813 14.1713 26.8638 14.093 26.8638C14.0148 26.8638 13.9458 26.8126 13.923 26.738L12.7049 22.7433C12.6885 22.6897 12.6985 22.6314 12.7319 22.5858C12.7653 22.5407 12.8182 22.5141 12.8748 22.5141H15.311C15.3676 22.5141 15.4205 22.5407 15.4539 22.5858C15.4875 22.6309 15.4978 22.6893 15.4812 22.7433ZM20.4593 22.7433L19.2412 26.738C19.2184 26.813 19.1491 26.8638 19.0708 26.8638C18.9926 26.8638 18.9237 26.8126 18.9005 26.738L17.6824 22.7433C17.666 22.6897 17.676 22.6314 17.7098 22.5858C17.7432 22.5407 17.7961 22.5141 17.8524 22.5141H20.2886C20.3448 22.5141 20.3981 22.5407 20.4312 22.5858C20.4653 22.6309 20.4756 22.6893 20.4593 22.7433Z" fill="white"/>
</g>
<defs>
<clipPath id="clip0_1_156">
<rect width="32" height="32" fill="white" transform="translate(0.580444 0.513794)"/>
</clipPath>
</defs>
</svg>
