<svg width="33" height="33" viewBox="0 0 33 33" fill="none" xmlns="http://www.w3.org/2000/svg">
<path d="M11.683 2.65326V2.64576L11.6842 2.64201V2.63701L11.6855 2.63326L11.6867 2.63076V2.62826L11.688 2.62451L11.6892 2.62201V2.62076L11.6905 2.61701L11.6917 2.61451V2.61326L11.6992 2.59076V2.58951L11.7005 2.58701L11.7017 2.58326L11.703 2.58201V2.57951L11.7042 2.57576L11.7055 2.57326V2.57201L11.7067 2.56826L11.708 2.56576V2.56451L11.7092 2.56076L11.7117 2.55576L11.713 2.55201V2.55076L11.7167 2.54326L11.718 2.54201L11.7205 2.53826L11.7217 2.53576V2.53451L11.7242 2.52826V2.52701L11.728 2.52076L11.733 2.51326L11.7367 2.50701L11.7405 2.50201V2.50076L11.7442 2.49576L11.7455 2.49451L11.7492 2.48951L11.7505 2.48826L11.7605 2.47576L11.7642 2.47076L11.7692 2.46576V2.46451L11.7742 2.45951V2.45826L11.7755 2.45701L11.7805 2.45326L11.7817 2.45201L11.7867 2.44826L11.788 2.44701L11.793 2.44326L11.7942 2.44201L11.7992 2.43826L11.8005 2.43701L11.8067 2.43201L11.813 2.42826V2.42701L11.818 2.42326L11.8192 2.42201L11.8255 2.41826L11.8305 2.41451L11.833 2.41326L11.8392 2.40951H11.8405L11.8442 2.40701L11.8467 2.40451L11.8505 2.40201L11.8655 2.39451L11.8667 2.39326C12.7205 1.92076 14.7179 1.6995 16.6617 1.6995C18.7017 1.6995 20.7227 1.95076 21.3467 2.417L21.3592 2.427L21.3642 2.43075L21.3655 2.432L21.3705 2.43575L21.3717 2.437L21.378 2.442V2.44325L21.3905 2.45325L21.4005 2.46325H21.4017L21.4142 2.47575L21.418 2.48075L21.4192 2.482L21.428 2.49325L21.4292 2.4945L21.433 2.4995L21.4342 2.50075L21.4705 2.57325V2.57575L21.473 2.582V2.58325L21.4755 2.5895V2.59075L21.478 2.597V2.59825L21.4805 2.6045V2.60575L21.4855 2.62075L21.488 2.63575V2.64575L21.4892 2.652V2.6595L21.638 3.92326C21.9205 4.53825 22.1292 5.15075 22.2642 5.75702C22.4005 6.37078 22.4592 6.97827 22.4417 7.57827C22.6242 8.88577 22.7092 11.2471 22.6955 14.662C22.683 18.0732 22.573 22.5356 22.3655 28.0457C22.4642 28.332 22.5217 28.622 22.538 28.9145C22.5555 29.227 22.5267 29.5432 22.453 29.8582C22.4392 29.9195 22.4067 29.9732 22.3642 30.0145L22.3605 30.017L22.358 30.0195L22.3542 30.022L22.3517 30.0245L22.348 30.027L22.3455 30.0295L22.3417 30.032L22.323 30.0457L22.3155 30.0495L22.3092 30.0532L22.308 30.0545L22.2955 30.0607L22.2942 30.062L22.288 30.0645L22.2817 30.0682L22.2755 30.0707L22.2692 30.0745H22.268L22.2542 30.0807L22.2392 30.0857C21.6367 30.3257 20.9742 30.4632 20.2555 30.497C19.5417 30.5308 18.7717 30.462 17.9442 30.292L17.9292 30.2895L17.9242 30.2883H17.9217L17.9005 30.2833H17.8992L17.893 30.2808H17.8917L17.8855 30.2783H17.8842L17.878 30.2758L17.8555 30.2683L17.843 30.2633L17.8417 30.262L17.8355 30.2595H17.8342L17.828 30.2558L17.8267 30.2545L17.8205 30.252L17.8192 30.2508L17.813 30.247L17.8117 30.2458L17.8005 30.2383L17.7992 30.237L17.788 30.2295L17.7867 30.2283L17.7817 30.2245L17.7805 30.2233L17.7692 30.2133L17.7642 30.2095L17.763 30.2083L17.7367 30.1795L17.733 30.1745L17.7317 30.1733C17.7117 30.147 17.6955 30.1183 17.6842 30.0858C17.6792 30.072 17.6755 30.057 17.6717 30.042L17.6705 30.0395C17.5955 29.6508 17.568 29.2795 17.5842 28.927C17.6017 28.5857 17.6617 28.262 17.763 27.9595C17.848 24.2171 17.7617 20.9208 17.5042 18.0731C17.2942 15.7381 16.9692 13.7046 16.528 11.9742C16.0967 13.7017 15.7955 15.7342 15.608 18.0704C15.3805 20.9243 15.3217 24.2206 15.408 27.959C15.5105 28.2615 15.5692 28.5852 15.5867 28.9277C15.6042 29.2802 15.5755 29.6515 15.5017 30.0402L15.5005 30.0427C15.498 30.0577 15.4942 30.0727 15.488 30.0865C15.4767 30.119 15.4605 30.1477 15.4405 30.174L15.4392 30.1752L15.4355 30.1802C15.428 30.1902 15.4192 30.2002 15.4092 30.209L15.408 30.2102L15.403 30.214L15.3917 30.224L15.3905 30.2252L15.3855 30.229L15.3842 30.2302L15.373 30.2377L15.3717 30.239L15.3605 30.2465L15.3592 30.2477L15.353 30.2515L15.3517 30.2527L15.3455 30.2552L15.3442 30.2565L15.338 30.2602H15.3367L15.3305 30.2627L15.3292 30.264L15.3167 30.269L15.2942 30.2765L15.288 30.279H15.2867L15.2805 30.2815H15.2792L15.273 30.284H15.2717L15.2505 30.289H15.248L15.243 30.2902L15.228 30.2927C13.5655 30.634 12.133 30.5652 10.933 30.0865L10.918 30.0815L10.9043 30.0752H10.903L10.8968 30.0715L10.8905 30.069L10.8843 30.0652L10.878 30.0627L10.8768 30.0615L10.8643 30.0552L10.863 30.054L10.8568 30.0502L10.8493 30.0465L10.8305 30.0327L10.8268 30.0302L10.8243 30.0277L10.8205 30.0252L10.818 30.0227L10.8143 30.0202L10.8118 30.0177L10.808 30.0152C10.7655 29.974 10.733 29.9215 10.7193 29.859C10.6443 29.544 10.6168 29.2277 10.6343 28.9152C10.6505 28.6215 10.7093 28.3315 10.8068 28.0465C10.5993 22.5363 10.4893 18.0739 10.4768 14.6627C10.463 11.2489 10.548 8.88646 10.7305 7.579C10.713 6.98025 10.773 6.3715 10.9093 5.75774C11.0443 5.15025 11.253 4.539 11.5343 3.92398L11.683 2.65649L11.683 2.65326ZM14.2367 3.51828C14.2142 3.64203 14.1942 3.76703 14.1755 3.89204C14.1605 3.99704 14.1467 4.09829 14.1355 4.19828C14.3617 4.23328 14.5867 4.26328 14.8117 4.28953C15.138 4.32578 15.4605 4.35328 15.7755 4.36953H15.7842L16.2342 4.38578L16.6692 4.38953H16.7055C17.1467 4.38578 17.593 4.36328 18.038 4.32203C18.3805 4.29078 18.7267 4.24703 19.0767 4.19078L18.958 3.53328C18.233 3.61203 17.4267 3.64953 16.6192 3.64828C15.8005 3.64578 14.978 3.60203 14.238 3.51953L14.2367 3.51828ZM13.5042 4.08577C13.5155 3.99202 13.528 3.89702 13.543 3.79953C13.5592 3.68453 13.5792 3.56328 13.603 3.43577C13.2992 3.38952 13.0142 3.33327 12.7542 3.27077C12.5805 3.22827 12.418 3.18327 12.2692 3.13452L12.1942 3.77452C12.3917 3.82827 12.5892 3.88077 12.7905 3.93202L12.793 3.93327L12.7992 3.93452H12.8005L12.8242 3.94077L12.8317 3.94327L13.3267 4.05327L13.5042 4.08702L13.5042 4.08577ZM19.588 3.44953L19.6417 3.75577L19.7017 4.07702L19.888 4.04077L20.3805 3.92952L20.388 3.92702L20.3942 3.92577L20.3967 3.92452L20.4042 3.92202L20.8092 3.81827L20.9655 3.77452L20.8917 3.14578C20.7517 3.19453 20.598 3.23953 20.4355 3.28078C20.1817 3.34453 19.8955 3.40078 19.588 3.44827L19.588 3.44953ZM16.2792 8.37806H16.3092L16.3667 8.37431C16.3979 7.91181 16.4192 7.4093 16.4242 6.87181C16.4292 6.30805 16.4179 5.69181 16.3829 5.02306L16.2179 5.02181L16.0817 5.01681C16.0829 5.62305 16.0942 6.20806 16.1154 6.76932C16.1367 7.32932 16.1692 7.8643 16.2117 8.37433L16.2767 8.37683L16.2792 8.37806ZM16.6804 8.98057C16.7254 9.23057 16.7617 9.47806 16.7879 9.72558L16.8092 9.94683C16.8879 9.87558 16.9729 9.80683 17.0617 9.73934C17.3979 9.48683 17.8067 9.2631 18.2854 9.07059C18.4492 9.00559 18.6354 9.08434 18.7004 9.24809C18.7654 9.41184 18.6867 9.59809 18.5229 9.66307C18.0942 9.83558 17.7342 10.0318 17.4442 10.2506C17.2067 10.4293 17.0154 10.6231 16.8704 10.8318C17.4579 12.7931 17.8804 15.1892 18.1342 18.0156C18.3879 20.8318 18.4754 24.0806 18.3992 27.7593C18.9404 27.863 19.4867 27.9218 20.0379 27.9318C20.5929 27.943 21.1554 27.9055 21.7254 27.8218C21.9279 22.4029 22.0367 18.0143 22.0479 14.6618C22.0604 11.3781 21.9817 9.08152 21.8129 7.77672C21.3579 7.42547 20.9917 6.96798 20.7179 6.40672C20.4717 5.90048 20.2967 5.30672 20.1967 4.62672L20.0192 4.66672L19.5167 4.76422L19.5092 4.76547L19.5042 4.76672H19.5017C19.0404 4.84922 18.5717 4.91172 18.0967 4.95547C17.7417 4.98797 17.3841 5.01047 17.0254 5.01922C17.0592 5.68173 17.0704 6.30173 17.0642 6.87671C17.0579 7.55295 17.0292 8.15421 16.9879 8.68173C16.9767 8.83298 16.8616 8.95047 16.7179 8.97298H16.7154L16.6854 8.97923L16.6804 8.98057ZM16.1567 9.82308L16.1529 9.79308C16.1254 9.53558 16.0854 9.27182 16.0342 9.00308L15.9004 8.98683L15.8779 8.98308L15.8729 8.98183H15.8704L15.8654 8.98058L15.8567 8.97933H15.8542L15.8479 8.97808H15.8467L15.8404 8.97683H15.8392L15.8329 8.97433H15.8317L15.8254 8.97183H15.8242L15.8179 8.96933H15.8167L15.8104 8.96683L15.8029 8.96433L15.7967 8.96183L15.7892 8.95933L15.7704 8.94808H15.7692L15.7379 8.92933H15.7367L15.7242 8.92183L15.7192 8.91683H15.7179L15.7067 8.90558H15.7054L15.6829 8.88308V8.88183L15.6767 8.87558L15.6729 8.87058V8.86933L15.6679 8.86433V8.86308L15.6642 8.85808V8.85683L15.6604 8.85058V8.84933L15.6517 8.83683L15.6479 8.83058V8.82933L15.6329 8.80433L15.6267 8.79058L15.6217 8.77558L15.6167 8.76183V8.76058L15.6129 8.74683V8.74558L15.6104 8.73183V8.73058L15.6092 8.72433V8.72183L15.6079 8.71558V8.71308L15.6067 8.70683V8.69058C15.5517 8.09183 15.5104 7.45932 15.4854 6.79183C15.4629 6.21932 15.4517 5.61684 15.4517 4.98682C15.2142 4.97057 14.9779 4.94932 14.7466 4.92307C14.4179 4.88682 14.0866 4.83807 13.7579 4.78182H13.7541L13.7491 4.78057L13.7404 4.77932L13.7379 4.77807L13.7254 4.77557L13.7179 4.77432L13.7104 4.77182L13.2042 4.67557L13.0142 4.63306C12.9129 5.30181 12.7329 5.88682 12.4804 6.38682C12.1942 6.95808 11.8129 7.41933 11.3529 7.77306C11.1842 9.0793 11.1054 11.3744 11.1179 14.6581C11.1304 18.0107 11.2379 22.3984 11.4404 27.8181C12.0092 27.9031 12.5704 27.9394 13.1242 27.9294C13.6779 27.9181 14.2254 27.8606 14.7667 27.7569C14.6879 24.0742 14.7479 20.8257 14.9717 18.0158C15.1979 15.1809 15.5942 12.7785 16.1854 10.8094C16.0829 10.6219 15.9517 10.4657 15.7929 10.3419C15.6004 10.1932 15.3629 10.0869 15.0804 10.0244C14.9092 9.98693 14.8004 9.81568 14.8379 9.64443C14.8754 9.47318 15.0467 9.36443 15.2179 9.40193C15.5842 9.48193 15.9004 9.62318 16.1617 9.82067L16.1567 9.82308ZM14.9041 29.7068C14.9429 29.4431 14.9554 29.1918 14.9441 28.9543C14.9341 28.7581 14.9067 28.5693 14.8629 28.3868C14.2916 28.4956 13.7142 28.5556 13.1329 28.5681C12.5404 28.5793 11.9454 28.5406 11.3479 28.4531C11.3054 28.6181 11.2791 28.7831 11.2691 28.9481C11.2579 29.1455 11.2704 29.3455 11.3066 29.548C12.3154 29.9131 13.5141 29.9668 14.904 29.7068L14.9041 29.7068ZM12.3841 4.48708L12.0229 4.39083C11.8029 4.89957 11.6379 5.40083 11.5291 5.89459C11.4566 6.22333 11.4079 6.55208 11.3829 6.87709C11.5829 6.65334 11.7579 6.39584 11.9054 6.10459C12.1341 5.65083 12.2966 5.11333 12.3854 4.48835L12.3841 4.48708ZM21.8516 29.5481C21.8879 29.3456 21.8991 29.1456 21.8891 28.9481C21.8791 28.7831 21.8541 28.6181 21.8104 28.4532C21.2116 28.5407 20.6166 28.5794 20.0241 28.5682C19.4429 28.5569 18.8654 28.4969 18.2954 28.3869C18.2516 28.5682 18.2241 28.7569 18.2141 28.9544C18.2029 29.1919 18.2166 29.4431 18.2541 29.7069C18.9554 29.8382 19.6091 29.8894 20.2129 29.8619C20.8054 29.8344 21.3516 29.7294 21.8504 29.5481L21.8516 29.5481ZM21.7754 6.86681C21.7504 6.5443 21.7016 6.22057 21.6291 5.8943C21.5204 5.4018 21.3541 4.89932 21.1354 4.3918L20.9741 4.43805L20.8191 4.4768C20.9079 5.11178 21.0654 5.66181 21.2916 6.12554C21.4279 6.40429 21.5891 6.6518 21.7754 6.86681ZM15.9668 4.3618C15.7906 4.35305 15.6556 4.20305 15.6643 4.02681C15.6731 3.85057 15.8231 3.71556 15.9993 3.7243L16.3293 3.7318L16.6556 3.7243C16.8318 3.71555 16.9818 3.85055 16.9905 4.02681C16.9993 4.20307 16.8643 4.35305 16.688 4.3618L16.3293 4.37305L15.9668 4.3618ZM20.2719 2.6643C19.4357 2.4568 18.0619 2.34932 16.6543 2.34932C15.2956 2.34932 13.9242 2.45432 12.9932 2.67308C13.2995 2.74308 13.6457 2.80183 14.0182 2.85057C14.8108 2.95432 15.717 3.00807 16.617 3.01057C17.5057 3.01307 18.392 2.96432 19.1632 2.86557H19.1645L19.1732 2.86432H19.177L19.1807 2.86307L19.1957 2.86057H19.197C19.5895 2.80932 19.9545 2.74308 20.272 2.66308L20.2719 2.6643Z" fill="white"/>
</svg>
