<svg width="24" height="24" viewBox="0 0 24 24" fill="none" xmlns="http://www.w3.org/2000/svg">
<g clip-path="url(#clip0_1089_2138)">
<path fill-rule="evenodd" clip-rule="evenodd" d="M19.6226 13.3294L19.2517 8.26597C19.1945 7.53941 18.9301 6.84285 18.4885 6.26157C18.0479 5.68033 17.4489 5.23781 16.7645 4.98657C16.778 4.96836 16.7933 4.95207 16.8085 4.93588C16.8269 4.91621 16.8452 4.89669 16.8601 4.87407C17.297 4.20657 17.3682 3.36375 17.0485 2.63347L16.5601 1.51971C16.2113 0.718147 15.4201 0.199707 14.5455 0.199707H9.45491C8.58023 0.199707 7.78897 0.718147 7.44031 1.51971L6.95375 2.63065C6.63313 3.36189 6.70343 4.20659 7.14218 4.87405C7.15773 4.89685 7.17614 4.9165 7.19456 4.93616L7.19457 4.93617C7.20948 4.95208 7.22439 4.968 7.23781 4.98561L7.23687 4.98655C6.55249 5.23779 5.95343 5.68031 5.51281 6.26155C5.07219 6.84373 4.80781 7.53937 4.75063 8.26595L4.16001 16.3021H4.0972C3.43438 16.3021 2.80814 16.6012 2.39002 17.115C1.97284 17.6296 1.80878 18.3046 1.9447 18.9525L2.41346 21.1921V21.193C2.41815 21.2202 2.42565 21.2464 2.43596 21.2727C2.6994 22.0115 3.18502 22.6508 3.82534 23.1027C4.46658 23.5555 5.23158 23.7983 6.01534 23.8002H16.0587C15.2312 23.5714 14.4815 23.1553 13.858 22.6005H6.01536C4.92974 22.5986 3.95936 21.9236 3.57896 20.9074L3.12052 18.708C3.05864 18.4136 3.1327 18.1061 3.32302 17.8726C3.51239 17.6383 3.7974 17.5023 4.09926 17.5023H4.96082C5.1605 17.5023 5.348 17.6017 5.45958 17.7686L6.4102 19.1832V19.1823C6.65302 19.5423 7.05988 19.7579 7.49396 19.7579H12.1525C12.06 19.3723 12.0079 18.9711 12.0008 18.5588H7.48996C7.45433 18.5598 7.42152 18.5429 7.40089 18.5138L6.45121 17.0982C6.19527 16.7204 5.80527 16.4532 5.35997 16.352L5.94591 8.35237C6.05185 6.99581 7.18059 5.94857 8.54071 5.94497L8.54168 5.94577H15.4605L15.4595 5.94483C16.8199 5.94952 17.9475 6.99765 18.0527 8.35423L18.3922 12.9892C18.8206 13.0555 19.2327 13.1708 19.6226 13.3294ZM14.1773 14.0597C14.3516 12.3993 14.8756 10.7935 15.7134 9.34881L15.8897 9.03569C15.9788 8.89787 16.0078 8.72913 15.9684 8.56881C15.93 8.40849 15.8269 8.27163 15.6834 8.19005C15.5409 8.10755 15.3703 8.0888 15.2128 8.13567C15.0553 8.18348 14.9241 8.29411 14.85 8.44129L14.6775 8.74785L14.6766 8.74691C13.7409 10.3585 13.1616 12.1521 12.9778 14.0063C12.9403 14.3823 12.9216 14.7601 12.9037 15.1379C12.8993 15.2422 12.8945 15.3466 12.8893 15.4509C13.2361 14.9165 13.6725 14.4457 14.1773 14.0597ZM8.53886 1.99969L8.05324 3.11157L8.05045 3.11155C7.89296 3.47155 7.92858 3.8878 8.1442 4.21687C8.35982 4.54594 8.72638 4.74469 9.12014 4.74469H14.8801C15.273 4.74377 15.6395 4.54501 15.8542 4.21501C16.0689 3.88595 16.1036 3.47063 15.9461 3.11063L15.4614 2.00063C15.303 1.63593 14.9439 1.39969 14.5455 1.39969H9.4548C9.0573 1.39969 8.69729 1.63593 8.53886 1.99969ZM9.82949 14.1271C9.66261 12.4425 9.13575 10.8121 8.28637 9.34774L8.11011 9.02995C8.02105 8.89213 7.99198 8.72338 8.03136 8.56307C8.0698 8.40275 8.17292 8.26587 8.31636 8.18431C8.45886 8.10181 8.62948 8.08306 8.78698 8.12993C8.94448 8.17773 9.07574 8.28837 9.1498 8.43555L9.15073 8.43462L9.32324 8.74118C10.2589 10.3528 10.8382 12.1462 11.022 14.0006V14.0015C11.0604 14.3775 11.0782 14.7543 11.0961 15.1331L11.0961 15.1333C11.1045 15.3301 11.1129 15.5269 11.1261 15.7228C11.1373 15.8812 11.0848 16.0387 10.9798 16.1587C10.8739 16.2787 10.7257 16.3528 10.5664 16.3621C10.5532 16.3631 10.5411 16.3631 10.5289 16.3621C10.2129 16.3621 9.95137 16.1175 9.92981 15.8025V15.8015C9.91683 15.6014 9.90752 15.4003 9.89826 15.2001L9.89793 15.1931C9.88199 14.8378 9.86512 14.4815 9.82949 14.1271Z" fill="white"/>
<path fill-rule="evenodd" clip-rule="evenodd" d="M17.5381 24.0763C20.5968 24.0763 23.0763 21.5968 23.0763 18.5381C23.0763 15.4795 20.5968 13 17.5381 13C14.4795 13 12 15.4795 12 18.5381C12 21.5968 14.4795 24.0763 17.5381 24.0763ZM14.4882 15.02V21.5H17.2402V20.684H15.6722V15.02H14.4882ZM18.4013 21.308C18.6733 21.4947 19.0466 21.588 19.5213 21.588C19.98 21.588 20.3346 21.5053 20.5853 21.34C20.8413 21.1693 21.02 20.9373 21.1213 20.644C21.2226 20.3453 21.2733 20.004 21.2733 19.62V19.1H20.1373V19.684C20.1373 19.876 20.1266 20.0493 20.1053 20.204C20.084 20.3587 20.0306 20.484 19.9453 20.58C19.8653 20.6707 19.7266 20.716 19.5293 20.716C19.3586 20.716 19.2226 20.6787 19.1213 20.604C19.0253 20.524 18.9586 20.4093 18.9213 20.26C18.884 20.1053 18.8653 19.9107 18.8653 19.676V16.86C18.8653 16.6627 18.8786 16.4867 18.9053 16.332C18.932 16.172 18.9906 16.0467 19.0813 15.956C19.1773 15.86 19.3266 15.812 19.5293 15.812C19.732 15.812 19.8733 15.8573 19.9533 15.948C20.0386 16.0333 20.0893 16.1507 20.1053 16.3C20.1266 16.4493 20.1373 16.6147 20.1373 16.796V17.356H21.2733V16.812C21.2733 16.4387 21.22 16.1107 21.1133 15.828C21.0066 15.5453 20.8253 15.3293 20.5693 15.18C20.3186 15.0253 19.9693 14.948 19.5213 14.948C19.0466 14.948 18.6733 15.036 18.4013 15.212C18.1346 15.388 17.948 15.6387 17.8413 15.964C17.7346 16.2893 17.6813 16.6733 17.6813 17.116V19.428C17.6813 19.8493 17.7346 20.2227 17.8413 20.548C17.948 20.868 18.1346 21.1213 18.4013 21.308Z" fill="white"/>
</g>
<defs>
<clipPath id="clip0_1089_2138">
<rect width="24" height="24" fill="white"/>
</clipPath>
</defs>
</svg>
