<svg width="24" height="24" viewBox="0 0 24 24" fill="none" xmlns="http://www.w3.org/2000/svg">
<path fill-rule="evenodd" clip-rule="evenodd" d="M19.6226 13.3294L19.2517 8.26597C19.1945 7.53941 18.9301 6.84285 18.4885 6.26157C18.0479 5.68033 17.4489 5.23781 16.7645 4.98657C16.778 4.96836 16.7933 4.95207 16.8085 4.93588C16.8269 4.91621 16.8452 4.89669 16.8601 4.87407C17.297 4.20657 17.3682 3.36375 17.0485 2.63347L16.5601 1.51971C16.2113 0.718147 15.4201 0.199707 14.5455 0.199707H9.45491C8.58023 0.199707 7.78897 0.718147 7.44031 1.51971L6.95375 2.63065C6.63313 3.36189 6.70343 4.20659 7.14218 4.87405C7.15773 4.89685 7.17614 4.9165 7.19456 4.93616L7.19457 4.93617C7.20948 4.95208 7.22439 4.968 7.23781 4.98561L7.23687 4.98655C6.55249 5.23779 5.95343 5.68031 5.51281 6.26155C5.07219 6.84373 4.80781 7.53937 4.75063 8.26595L4.16001 16.3021H4.0972C3.43438 16.3021 2.80814 16.6012 2.39002 17.115C1.97284 17.6296 1.80878 18.3046 1.9447 18.9525L2.41346 21.1921V21.193C2.41815 21.2202 2.42565 21.2464 2.43596 21.2727C2.6994 22.0115 3.18502 22.6508 3.82534 23.1027C4.46658 23.5555 5.23158 23.7983 6.01534 23.8002H16.0587C15.2312 23.5714 14.4815 23.1553 13.858 22.6005H6.01536C4.92974 22.5986 3.95936 21.9236 3.57896 20.9074L3.12052 18.708C3.05864 18.4136 3.1327 18.1061 3.32302 17.8726C3.51239 17.6383 3.7974 17.5023 4.09926 17.5023H4.96082C5.1605 17.5023 5.348 17.6017 5.45958 17.7686L6.4102 19.1832V19.1823C6.65302 19.5423 7.05988 19.7579 7.49396 19.7579H12.1525C12.06 19.3723 12.0079 18.9711 12.0008 18.5588H7.48996C7.45433 18.5598 7.42152 18.5429 7.40089 18.5138L6.45121 17.0982C6.19527 16.7204 5.80527 16.4532 5.35997 16.352L5.94591 8.35237C6.05185 6.99581 7.18059 5.94857 8.54071 5.94497L8.54168 5.94577H15.4605L15.4595 5.94483C16.8199 5.94952 17.9475 6.99765 18.0527 8.35423L18.3922 12.9892C18.8206 13.0555 19.2327 13.1708 19.6226 13.3294ZM14.1773 14.0597C14.3516 12.3993 14.8756 10.7935 15.7134 9.34881L15.8897 9.03569C15.9788 8.89787 16.0078 8.72913 15.9684 8.56881C15.93 8.40849 15.8269 8.27163 15.6834 8.19005C15.5409 8.10755 15.3703 8.0888 15.2128 8.13567C15.0553 8.18348 14.9241 8.29411 14.85 8.44129L14.6775 8.74785L14.6766 8.74691C13.7409 10.3585 13.1616 12.1521 12.9778 14.0063C12.9403 14.3823 12.9216 14.7601 12.9037 15.1379C12.8993 15.2422 12.8945 15.3466 12.8893 15.4509C13.2361 14.9165 13.6725 14.4457 14.1773 14.0597ZM8.53886 1.99969L8.05324 3.11157L8.05045 3.11155C7.89296 3.47155 7.92858 3.8878 8.1442 4.21687C8.35982 4.54594 8.72638 4.74469 9.12014 4.74469H14.8801C15.273 4.74377 15.6395 4.54501 15.8542 4.21501C16.0689 3.88595 16.1036 3.47063 15.9461 3.11063L15.4614 2.00063C15.303 1.63593 14.9439 1.39969 14.5455 1.39969H9.4548C9.0573 1.39969 8.69729 1.63593 8.53886 1.99969ZM9.82949 14.1271C9.66261 12.4425 9.13575 10.8121 8.28637 9.34774L8.11011 9.02995C8.02105 8.89213 7.99198 8.72338 8.03136 8.56307C8.0698 8.40275 8.17292 8.26587 8.31636 8.18431C8.45886 8.10181 8.62948 8.08306 8.78698 8.12993C8.94448 8.17773 9.07574 8.28837 9.1498 8.43555L9.15073 8.43462L9.32324 8.74118C10.2589 10.3528 10.8382 12.1462 11.022 14.0006V14.0015C11.0604 14.3775 11.0782 14.7543 11.0961 15.1331L11.0961 15.1333C11.1045 15.3301 11.1129 15.5269 11.1261 15.7228C11.1373 15.8812 11.0848 16.0387 10.9798 16.1587C10.8739 16.2787 10.7257 16.3528 10.5664 16.3621C10.5532 16.3631 10.5411 16.3631 10.5289 16.3621C10.2129 16.3621 9.95137 16.1175 9.92981 15.8025V15.8015C9.91683 15.6014 9.90752 15.4003 9.89826 15.2001L9.89793 15.1931C9.88199 14.8378 9.86512 14.4815 9.82949 14.1271Z" fill="white"/>
<path fill-rule="evenodd" clip-rule="evenodd" d="M17.5379 24C20.5965 24 23.076 21.5205 23.076 18.4619C23.076 15.4032 20.5965 12.9237 17.5379 12.9237C14.4793 12.9237 11.9998 15.4032 11.9998 18.4619C11.9998 21.5205 14.4793 24 17.5379 24ZM14.3466 15.2481V21.7281H17.0986V20.9121H15.5306V15.2481H14.3466ZM17.7138 15.2481V21.7281H19.5778C19.8818 21.7281 20.1458 21.6881 20.3698 21.6081C20.5992 21.5281 20.7885 21.4108 20.9378 21.2561C21.0925 21.0961 21.2072 20.8988 21.2818 20.6641C21.3618 20.4241 21.4018 20.1495 21.4018 19.8401C21.4018 19.5308 21.3592 19.2668 21.2738 19.0481C21.1938 18.8295 21.0685 18.6535 20.8978 18.5201C20.7325 18.3815 20.5218 18.2908 20.2658 18.2481C20.4738 18.2108 20.6472 18.1388 20.7858 18.0321C20.9245 17.9201 21.0285 17.7708 21.0978 17.5841C21.1725 17.3975 21.2098 17.1735 21.2098 16.9121C21.2098 16.5868 21.1645 16.3175 21.0738 16.1041C20.9832 15.8908 20.8525 15.7228 20.6818 15.6001C20.5165 15.4721 20.3165 15.3815 20.0818 15.3281C19.8525 15.2748 19.5938 15.2481 19.3058 15.2481H17.7138ZM19.3458 20.8961H18.8978V18.7121H19.3058C19.5405 18.7121 19.7272 18.7521 19.8658 18.8321C20.0098 18.9121 20.1112 19.0348 20.1698 19.2001C20.2338 19.3601 20.2658 19.5708 20.2658 19.8321C20.2658 20.1948 20.2018 20.4641 20.0738 20.6401C19.9458 20.8108 19.7032 20.8961 19.3458 20.8961ZM19.2978 17.8961H18.8978V16.0721H19.1298C19.3698 16.0721 19.5672 16.0961 19.7218 16.1441C19.8765 16.1868 19.9912 16.2721 20.0658 16.4001C20.1458 16.5228 20.1858 16.6988 20.1858 16.9281C20.1858 17.1468 20.1592 17.3281 20.1058 17.4721C20.0578 17.6161 19.9698 17.7228 19.8418 17.7921C19.7138 17.8615 19.5325 17.8961 19.2978 17.8961Z" fill="white"/>
</svg>
