<svg width="33" height="33" viewBox="0 0 33 33" fill="none" xmlns="http://www.w3.org/2000/svg">
<path d="M30.9651 17.986C30.9451 17.931 30.9251 17.871 30.8851 17.781C30.5101 17.016 29.6351 16.716 29.0551 16.521C27.4201 15.966 25.7253 15.331 24.0101 14.631C24.0501 14.276 23.8751 13.911 23.5351 13.721L22.3501 13.056C22.1251 12.931 21.865 12.896 21.6151 12.961C21.3851 13.021 21.1901 13.161 21.0601 13.356C20.6301 13.161 20.2501 12.986 19.9001 12.821C19.9751 12.636 19.9951 12.431 19.9401 12.231C19.8751 11.991 19.7151 11.786 19.4901 11.661L18.3001 10.996C17.8401 10.741 17.2451 10.891 16.9801 11.341L16.9651 11.366C16.4201 11.086 15.8401 10.776 15.2051 10.431C14.7901 10.206 14.2601 10.306 13.9701 10.671L11.6501 13.5761C11.4201 13.8611 11.2051 14.1311 10.9351 14.3011C10.6451 14.4811 10.2651 14.5461 9.92511 14.5861C8.9601 14.7111 8.1601 14.6311 7.54511 14.3411C7.40011 14.2761 7.2601 14.1911 7.1201 14.0861C6.74511 13.7961 6.4801 13.4061 6.4001 13.0161C6.3101 12.5611 5.9201 12.2461 5.45508 12.2461L4.06508 12.2411C3.58508 12.2411 3.17508 12.5861 3.1101 13.0461C2.81511 15.0461 2.5201 17.041 2.2201 19.041L2.1951 19.201C2.1751 19.331 2.1601 19.461 2.1451 19.5861C2.0801 20.1111 2.0751 20.521 2.1201 20.9111C2.2151 21.6911 2.5701 22.3411 3.1101 22.7461C3.84508 23.2961 4.8201 23.301 5.5301 23.3061H6.9201C9.66996 23.3061 12.4452 23.2811 15.1852 23.2361C16.8052 23.2061 18.4302 23.1711 20.0601 23.1261C23.1902 23.0361 26.4201 22.9461 29.3852 21.541C29.9502 21.276 30.5702 20.9261 30.8702 20.291C31.0652 19.8761 31.0852 19.426 31.0852 18.9961C31.0802 18.6811 31.0802 18.3211 30.9652 17.9861L30.9651 17.986ZM21.8649 13.866L23.0499 14.531L21.2699 17.5161C21.0799 17.8311 20.6599 17.9411 20.3349 17.7611C20.0099 17.5761 19.8949 17.1711 20.0849 16.8561L21.8649 13.866ZM17.815 11.811L19 12.476L16.805 16.156C16.615 16.471 16.195 16.581 15.87 16.401C15.71 16.311 15.6 16.171 15.55 15.996C15.5 15.821 15.525 15.646 15.62 15.491L17.815 11.811ZM3.16512 19.171C3.46512 17.176 3.76011 15.1761 4.05512 13.1761L5.44512 13.1961C5.57012 13.8111 5.95014 14.3861 6.51512 14.8211C6.71012 14.9711 6.91512 15.0961 7.12014 15.1861C7.91014 15.5561 8.89512 15.6661 10.0452 15.5161C10.4852 15.4611 10.9952 15.3711 11.4452 15.0911C11.8652 14.8361 12.1552 14.4711 12.4102 14.1511L14.7302 11.2511C15.3602 11.5961 15.9352 11.9011 16.4802 12.1861L14.7852 15.0312C14.5652 15.4012 14.5052 15.8312 14.6202 16.2461C14.7352 16.6611 15.0102 17.0061 15.3902 17.2161C15.6502 17.3611 15.9352 17.4311 16.2152 17.4311C16.7852 17.4311 17.3452 17.1461 17.6502 16.6311L19.4302 13.6461C19.7802 13.8111 20.1552 13.9861 20.5752 14.1761L19.2552 16.3911C19.0352 16.7611 18.9752 17.1911 19.0902 17.606C19.2052 18.021 19.4802 18.366 19.8602 18.576C20.1202 18.721 20.4053 18.791 20.6853 18.791C21.2553 18.791 21.8153 18.506 22.1202 17.991L23.6152 15.486C25.3602 16.201 27.0854 16.846 28.7502 17.411C29.1802 17.556 29.5851 17.711 29.8352 17.9361C28.5602 18.5561 27.2302 19.0661 25.8701 19.4411C22.6552 20.3211 19.44 20.2011 16.0301 20.0811L15.6301 20.0611C12.7701 19.9611 9.86504 19.9411 7.05518 19.9261L4.95016 19.9111C4.40016 19.9061 4.15016 19.8711 3.74515 19.6711L3.14014 19.3711C3.14014 19.3561 3.14514 19.3411 3.14514 19.3311L3.16512 19.171ZM29.9891 19.906C29.8141 20.266 29.3741 20.511 28.9591 20.706C26.1791 22.021 23.049 22.111 20.0293 22.201C18.4042 22.241 16.7842 22.281 15.1642 22.311C11.9642 22.366 8.71912 22.391 5.52926 22.381C4.78424 22.376 4.13427 22.346 3.69427 22.016C3.36427 21.771 3.13928 21.331 3.07427 20.811C3.05927 20.681 3.05427 20.541 3.05427 20.391L3.30927 20.516C3.88927 20.801 4.29927 20.856 4.94426 20.861L7.04927 20.876C9.85434 20.891 12.7543 20.906 15.5943 21.006L15.9793 21.021C17.1193 21.061 18.2743 21.106 19.4343 21.106C21.6643 21.106 23.9092 20.951 26.1193 20.346C27.4893 19.971 28.8244 19.466 30.1143 18.846C30.1143 18.901 30.1193 18.956 30.1193 19.011C30.1143 19.341 30.1043 19.661 29.9893 19.906L29.9891 19.906Z" fill="white"/>
</svg>
