<svg width="33" height="33" viewBox="0 0 33 33" fill="none" xmlns="http://www.w3.org/2000/svg">
<path d="M3.98293 14.1141L7.48266 16.8856C7.70974 17.0658 8.03912 17.0314 8.22402 16.808L9.91381 14.7699V25.6617C9.91381 26.47 10.6956 27.0716 12.2372 27.4497C13.3904 27.733 14.9335 27.8888 16.5823 27.8888C18.1469 27.8888 23.2511 27.7283 23.2511 25.6617V14.7699L24.9365 16.8069C25.1209 17.0309 25.4516 17.0658 25.6785 16.8856L29.1782 14.1141C29.3975 13.9407 29.4454 13.6276 29.2884 13.3964L25.0983 7.23959C25.0397 7.15313 24.9572 7.08647 24.8608 7.04636L20.3336 5.17916C20.1696 5.11198 19.9836 5.15312 19.8367 5.25052C19.689 5.34739 19.5992 5.53489 19.5969 5.71145C19.578 7.1078 18.4242 8.24425 17.0254 8.24425H16.1397C15.4552 8.24425 14.8085 7.97655 14.3218 7.49372C13.8449 7.013 13.5772 6.38017 13.5682 5.67236C13.5682 5.49423 13.4794 5.32809 13.3314 5.22913C13.1833 5.13017 12.9958 5.11195 12.8317 5.17913L8.30078 7.04633C8.20422 7.08644 8.12161 7.1531 8.06297 7.23956L3.87337 13.3953C3.71576 13.6265 3.76347 13.9401 3.98295 14.114L3.98293 14.1141ZM22.1845 25.6616C22.1845 26.0668 20.2606 26.822 16.5824 26.822C12.9045 26.822 10.9805 26.0668 10.9805 25.6616V24.8798C11.321 25.0501 11.7344 25.1997 12.2373 25.323C13.3904 25.6064 14.9336 25.7621 16.5824 25.7621C17.6974 25.7621 20.6026 25.6767 22.1845 24.8818L22.1845 25.6616ZM28.1277 13.5856L25.4259 15.7251L24.9623 15.1651L27.6791 12.9265L28.1277 13.5856ZM8.85493 7.97197L12.5811 6.43602C12.7259 7.11466 13.0639 7.74071 13.5675 8.24799C14.2579 8.93341 15.1714 9.31101 16.1396 9.31101H17.0252C18.7608 9.31101 20.23 8.07402 20.5831 6.43607L24.3063 7.97202L27.0764 12.0414L24.2826 14.3436L23.1286 12.9496C22.9851 12.7756 22.7479 12.7121 22.5373 12.7881C22.3255 12.8642 22.1846 13.0647 22.1846 13.2897V23.535C22.1846 23.9402 20.2607 24.6955 16.5825 24.6955C12.9046 24.6955 10.9806 23.9403 10.9806 23.535V13.2897C10.9806 13.0647 10.8397 12.8642 10.628 12.7881C10.569 12.7668 10.5079 12.7564 10.4473 12.7564C10.2916 12.7564 10.1397 12.8246 10.0367 12.9496L8.88137 14.3436L6.08617 12.0405L8.85493 7.97197ZM5.48373 12.9258L8.20106 15.1647L7.73626 15.7256L5.0344 13.586L5.48373 12.9258Z" fill="white"/>
</svg>
