<svg width="20" height="20" viewBox="0 0 20 20" fill="none" xmlns="http://www.w3.org/2000/svg">
<path d="M19.4642 10.661C19.4642 9.7437 19.2227 8.84252 18.764 8.04806C18.3053 7.25361 17.6456 6.59389 16.8512 6.13523C16.0567 5.67654 15.1556 5.43508 14.2382 5.43508H12.0302L12.9611 4.50423C14.4178 3.0475 16.3808 2.07743 18.4385 2.16886H18.4386C18.7393 2.18778 19.032 2.06732 19.2322 1.84212C19.4325 1.61704 19.518 1.31231 19.4642 1.0159C19.4141 0.77923 19.2814 0.568186 19.09 0.420389C18.8985 0.272494 18.6606 0.197643 18.4191 0.209127C15.8798 0.219653 13.4484 1.23684 11.658 3.03768L9.82893 4.86674L6.99057 2.02839C6.4143 1.4516 5.72992 0.994083 4.97673 0.681913C4.22353 0.369743 3.41612 0.209099 2.60085 0.209099H1.53932C1.30796 0.204953 1.08224 0.280548 0.90023 0.42334C0.7181 0.566131 0.590836 0.767301 0.539802 0.993024C0.481004 1.28138 0.554793 1.58089 0.740963 1.80874C0.927132 2.03669 1.2058 2.16895 1.50012 2.16884H2.60086C3.72681 2.16926 4.80652 2.61688 5.60252 3.41324L8.91774 6.7252C9.34655 7.154 9.92813 7.39483 10.5346 7.39483H14.2385C15.1047 7.39483 15.9355 7.73901 16.548 8.35151C17.1606 8.96403 17.5047 9.79483 17.5047 10.6611V14.9072C17.5047 14.9938 17.4703 15.0768 17.409 15.1381C17.3478 15.1993 17.2647 15.2338 17.1781 15.2338H14.5651L14.5422 15.0738C14.4253 14.1874 14.0375 13.3587 13.4318 12.701C12.8262 12.0432 12.0322 11.5886 11.1584 11.3993C10.0155 11.1701 8.82858 11.4211 7.87615 12.0931C6.92372 12.7652 6.28939 13.7993 6.12205 14.953L6.07303 15.2339H1.53951C1.30815 15.2297 1.08243 15.3053 0.900419 15.4481C0.718289 15.5909 0.591026 15.7921 0.539991 16.0178C0.481193 16.3061 0.554982 16.6057 0.741152 16.8335C0.927322 17.0615 1.20599 17.1937 1.50031 17.1936H6.39965L6.48779 17.3798C6.95146 18.3478 7.76439 19.1044 8.76332 19.4973C9.76221 19.8903 10.8728 19.8903 11.8717 19.4973C12.8706 19.1044 13.6836 18.3479 14.1472 17.3798L14.2386 17.1936H17.1782C17.7846 17.1936 18.3662 16.9527 18.795 16.524C19.2237 16.0952 19.4646 15.5136 19.4646 14.9072L19.4642 10.661ZM10.3187 17.8467C9.71239 17.8467 9.13079 17.6058 8.70201 17.1771C8.27332 16.7483 8.03238 16.1667 8.03238 15.5604C8.03238 14.954 8.27331 14.3724 8.70201 13.9437C9.13081 13.515 9.71239 13.274 10.3187 13.274C10.9251 13.274 11.5067 13.515 11.9355 13.9437C12.3642 14.3725 12.6051 14.954 12.6051 15.5604C12.6051 16.1667 12.3642 16.7483 11.9355 17.1771C11.5067 17.6058 10.9251 17.8467 10.3187 17.8467Z" fill="white"/>
</svg>
