<svg width="33" height="33" viewBox="0 0 33 33" fill="none" xmlns="http://www.w3.org/2000/svg">
<path d="M26.6622 11.7394C25.2222 10.6269 23.4286 8.38203 23.0734 3.99696L23.0721 3.99571C22.9759 2.87947 22.0434 2.02073 20.9234 2.01697H12.2383C11.1183 2.02072 10.1858 2.87947 10.0896 3.99571C9.73209 8.38185 7.94083 10.6282 6.49945 11.7394C5.87321 12.2257 5.50446 12.9744 5.50195 13.7682V27.2445C5.5007 28.5707 6.49819 29.6845 7.81571 29.8282L16.537 30.792V30.7907C16.5658 30.7945 16.5958 30.7945 16.6245 30.7907L25.3472 29.8282C26.6647 29.6845 27.6622 28.5707 27.661 27.2445V13.7695C27.6585 12.9758 27.2897 12.2258 26.6622 11.7395L26.6622 11.7394ZM16.7371 6.35056L13.1982 2.81296H20.0145L16.7371 6.35056ZM6.29712 27.2444V13.7695C6.29587 13.222 6.55087 12.7033 6.98587 12.3695C8.55211 11.1595 10.5021 8.7359 10.8821 4.06203C10.9384 3.41702 11.4396 2.89952 12.0834 2.82328L16.1959 6.93475L14.7297 8.51977C14.0172 9.28601 13.6222 10.2935 13.6234 11.3398V26.4886C13.6222 27.7098 14.1597 28.8698 15.0934 29.6574L15.3297 29.8574L7.90356 29.0399C6.98858 28.9386 6.29607 28.1661 6.29732 27.2449L6.29712 27.2444ZM26.8635 27.2444C26.866 28.1644 26.1735 28.9382 25.2585 29.0394L16.707 29.9819L15.607 29.0482C14.8533 28.4119 14.4183 27.4744 14.4183 26.4869V11.3394C14.4183 10.4932 14.737 9.67819 15.3133 9.05819L21.0858 2.82459C21.7258 2.90334 22.2233 3.41958 22.2796 4.06208C22.6608 8.73568 24.6083 11.1597 26.1758 12.3696C26.6108 12.7033 26.8658 13.2208 26.8646 13.7696L26.8635 27.2444ZM16.5809 12.5159C16.0596 12.5159 15.5896 12.8297 15.3909 13.3109C15.1909 13.7921 15.3009 14.3459 15.6696 14.7146C16.0371 15.0834 16.5921 15.1946 17.0734 14.9946C17.5546 14.7959 17.8684 14.3272 17.8696 13.8059C17.8696 13.0946 17.2921 12.5172 16.5809 12.5159ZM16.5809 14.2972C16.3809 14.2972 16.2009 14.1772 16.1246 13.9921C16.0484 13.8084 16.0909 13.5959 16.2321 13.4546C16.3746 13.3134 16.5871 13.2721 16.7709 13.3484C16.9546 13.4259 17.0746 13.6059 17.0746 13.8059C17.0734 14.0771 16.8521 14.2972 16.5809 14.2972ZM16.5809 17.8585C16.0596 17.8585 15.5896 18.1722 15.3909 18.6535C15.1909 19.136 15.3009 19.6897 15.6696 20.0585C16.0384 20.426 16.5921 20.5372 17.0734 20.3372C17.5559 20.1372 17.8696 19.6685 17.8696 19.1472C17.8684 18.436 17.2921 17.8597 16.5809 17.8585ZM16.5809 19.6397C16.3809 19.6397 16.2009 19.5197 16.1246 19.3347C16.0484 19.151 16.0909 18.9385 16.2321 18.7972C16.3734 18.656 16.5859 18.6135 16.7696 18.6897C16.9546 18.766 17.0746 18.946 17.0746 19.146C17.0734 19.4185 16.8534 19.6385 16.5809 19.6397ZM16.5809 23.2011V23.1998C16.0596 23.1998 15.5896 23.5148 15.3909 23.9961C15.1909 24.4773 15.3009 25.031 15.6696 25.3998C16.0384 25.7686 16.5921 25.8786 17.0734 25.6786C17.5559 25.4798 17.8696 25.0098 17.8696 24.4886C17.8684 23.7773 17.2921 23.2023 16.5809 23.2011ZM16.5809 24.9823C16.3809 24.9823 16.2009 24.8623 16.1246 24.6773C16.0484 24.4936 16.0909 24.2811 16.2321 24.1398C16.3734 23.9986 16.5859 23.9561 16.7696 24.0336C16.9546 24.1098 17.0746 24.2898 17.0746 24.4886C17.0746 24.7611 16.8534 24.9823 16.5809 24.9835L16.5809 24.9823ZM20.6923 20.4485C20.6923 20.2297 20.8711 20.051 21.0898 20.051H24.9922C25.0997 20.0485 25.2035 20.0885 25.281 20.1635C25.3572 20.2385 25.401 20.341 25.401 20.4485C25.401 20.556 25.3572 20.6597 25.281 20.7335C25.2035 20.8085 25.0997 20.8497 24.9922 20.846H21.0898C20.9848 20.846 20.8836 20.8047 20.8086 20.7297C20.7348 20.6547 20.6923 20.5535 20.6923 20.4485L20.6923 20.4485ZM7.54726 20.4485C7.54726 20.2297 7.72601 20.051 7.94475 20.051H12.0722C12.2872 20.0572 12.4585 20.2335 12.4585 20.4485C12.4585 20.6635 12.2872 20.8397 12.0722 20.846H7.94475C7.83975 20.846 7.7385 20.8047 7.6635 20.7297C7.58975 20.6547 7.54726 20.5535 7.54726 20.4485ZM11.3059 21.366H8.70968C8.05718 21.3672 7.52843 21.896 7.52843 22.5485V25.0397C7.52843 25.4685 7.76093 25.8635 8.13592 26.0722L9.43593 26.7935V26.7947C9.79217 26.9947 10.2272 26.9947 10.5834 26.7947L11.8809 26.0697C12.2559 25.861 12.4884 25.4647 12.4872 25.0359V22.5472C12.4872 21.8947 11.9584 21.3659 11.3059 21.3659L11.3059 21.366ZM11.6922 25.0396C11.6922 25.1796 11.6147 25.3083 11.4922 25.377L10.1947 26.0996C10.0784 26.1646 9.93592 26.1646 9.81843 26.0996L8.51843 25.3783V25.377C8.39593 25.3096 8.31968 25.1796 8.31843 25.0396V22.547C8.31968 22.3333 8.49218 22.1608 8.70467 22.1608H11.3022C11.5147 22.1608 11.6884 22.3333 11.6884 22.547L11.6922 25.0396ZM24.3396 21.366H21.7434C21.0909 21.366 20.5621 21.8947 20.5609 22.5472V25.0397C20.5609 25.4685 20.7934 25.8635 21.1684 26.0722L22.4684 26.7935V26.7947C22.8259 26.9947 23.2609 26.9947 23.6171 26.7947L24.9146 26.0697C25.2896 25.861 25.5209 25.4647 25.5209 25.0359V22.5472C25.5209 21.8947 24.9921 21.366 24.3396 21.366ZM24.7259 25.0396C24.7259 25.1796 24.6496 25.3083 24.5271 25.377L23.2296 26.0996C23.1134 26.1646 22.9709 26.1646 22.8546 26.0996L21.5546 25.3783V25.377C21.4309 25.3096 21.3546 25.1796 21.3546 25.0396V22.547C21.3546 22.3333 21.5271 22.1608 21.7409 22.1608H24.3371C24.5509 22.1608 24.7234 22.3333 24.7234 22.547L24.7259 25.0396Z" fill="white"/>
</svg>
