<svg width="33" height="33" viewBox="0 0 33 33" fill="none" xmlns="http://www.w3.org/2000/svg">
<path d="M30.5146 25.2129L28.5571 21.7814L28.9096 21.4289H28.9109C29.0859 21.2539 29.1059 20.9776 28.9596 20.7789L26.041 16.8189C26.0747 14.9451 25.5435 13.1053 24.516 11.5389L25.1047 10.9501C25.5322 10.5214 25.5322 9.82639 25.1047 9.39764L23.8785 8.1714C23.4497 7.74391 22.7547 7.74391 22.326 8.1714L21.7372 8.76015C20.2035 7.75764 18.4097 7.22516 16.5772 7.22889C16.536 7.22889 16.496 7.23389 16.4547 7.23514L12.5059 4.32634L12.5047 4.32509C12.3059 4.17884 12.0297 4.20009 11.8559 4.37384L11.5034 4.72635L8.07088 2.76885C7.87462 2.65635 7.62837 2.68885 7.46962 2.84885L2.72722 7.59126C2.56847 7.75 2.53472 7.99627 2.64722 8.19251L4.60472 11.625C4.34722 11.8875 3.89848 12.2101 4.20346 12.6275L7.11226 16.5763C7.11226 16.6176 7.10601 16.6576 7.10601 16.6989C7.00226 21.7887 11.4863 26.2738 16.5775 26.169C16.6175 26.169 16.6575 26.164 16.6975 26.1627L20.6575 29.0803V29.0816C20.8562 29.2278 21.1325 29.2078 21.3075 29.0328L21.66 28.6803L25.0915 30.6378V30.6366C25.2877 30.7491 25.534 30.7153 25.6927 30.5566L30.4351 25.8142C30.5939 25.6554 30.6276 25.4092 30.5151 25.2129L30.5146 25.2129ZM7.90716 3.82673L10.7685 5.45924L5.33703 10.8907L3.70452 8.02937L7.90716 3.82673ZM23.0336 8.87927H23.0323C23.0511 8.85927 23.0761 8.84801 23.1023 8.84801C23.1286 8.84801 23.1536 8.85926 23.1711 8.87927L24.3973 10.1055H24.3986C24.4173 10.123 24.4286 10.148 24.4286 10.1743C24.4273 10.2005 24.4173 10.2255 24.3973 10.243L23.9211 10.7192V10.7205C23.5136 10.2205 23.056 9.763 22.556 9.35548L23.0336 8.87927ZM5.26369 12.3803L12.2586 5.3854L14.9586 7.37415C13.0349 7.70415 11.261 8.62289 9.88129 10.0029C8.50151 11.3829 7.58255 13.1568 7.25255 15.0802L5.26369 12.3803ZM8.10743 16.699C8.11493 9.18033 17.2464 5.39793 22.5677 10.7102H22.5664C24.1452 12.3027 25.0315 14.4553 25.0315 16.699C25.0315 18.9415 24.1452 21.0939 22.5664 22.6878C17.2451 27.9993 8.11391 24.2165 8.10751 16.699H8.10743ZM20.9037 28.0217L18.1938 26.0242C20.1176 25.6942 21.8928 24.7754 23.2738 23.3954C24.6538 22.0142 25.5726 20.2392 25.9026 18.3154L27.9001 21.0266L20.9037 28.0217ZM25.2552 29.5792L22.3938 27.9467L27.8253 22.5152L29.4578 25.3776L25.2552 29.5792Z" fill="white"/>
<path d="M21.7941 21.9152C26.4243 17.3027 23.1116 9.31018 16.5779 9.32165C14.6241 9.3304 12.7528 10.1116 11.3715 11.4929C9.98999 12.8742 9.20895 14.7454 9.20021 16.6993C9.18896 23.2332 17.1826 26.5457 21.7938 21.9156L21.7941 21.9152ZM10.2005 16.699C10.1905 11.0504 17.1003 8.18752 21.0869 12.1902C22.2757 13.3889 22.9432 15.0102 22.9432 16.699C22.9432 18.3878 22.2757 20.0091 21.0869 21.2078C17.0995 25.2104 10.1907 22.3478 10.2005 16.699Z" fill="white"/>
<path d="M16.5776 17.9865C16.9589 17.9815 17.3189 17.8077 17.5602 17.5127C17.8002 17.2165 17.8976 16.8289 17.8239 16.454C17.7502 16.0802 17.5152 15.7577 17.1801 15.5752C16.8452 15.3915 16.4464 15.3665 16.0914 15.5065L14.4389 13.854C14.2426 13.6652 13.9314 13.669 13.7389 13.8615C13.5464 14.054 13.5439 14.3652 13.7326 14.5615L15.3851 16.214C15.2589 16.5252 15.2589 16.8727 15.3851 17.184L14.1926 18.3765C14.0039 18.574 14.0064 18.884 14.1989 19.0777C14.3914 19.2702 14.7026 19.2727 14.8989 19.084L16.0914 17.8915C16.2464 17.954 16.4114 17.9865 16.5776 17.9865ZM16.7814 16.4952C16.8901 16.609 16.8876 16.7877 16.7764 16.899C16.6664 17.009 16.4864 17.0115 16.3739 16.9027C16.2651 16.789 16.2676 16.6102 16.3776 16.499C16.4889 16.389 16.6676 16.3865 16.7814 16.4952Z" fill="white"/>
</svg>
