<svg width="167" height="130" viewBox="0 0 167 130" fill="none" xmlns="http://www.w3.org/2000/svg">
<path opacity="0.2" fill-rule="evenodd" clip-rule="evenodd" d="M22.4353 139.958L92.3706 88.953L143.091 106.987L106.316 0.5L22.4353 139.958ZM117.06 77.9254C116.028 77.5805 81.0075 63.7966 81.0075 63.7966L106.007 66.0932L104.559 36.8012C104.559 36.8012 118.092 78.2702 117.058 77.9254H117.06ZM135.449 46.6794L176.871 11.5276L120.572 24.5092L138.651 75.9713L135.449 46.6794ZM78.9297 36.5832L78.9409 36.5713L78.9385 36.569L78.9297 36.5832ZM54.9739 62.1874L78.9297 36.5832L49.602 84.1277C49.602 84.1277 0.328527 69.7221 0.638172 69.6306C0.950163 69.5392 54.9739 62.1874 54.9739 62.1874Z" fill="#4A4B47"/>
</svg>
