<?xml version="1.0" encoding="utf-8"?>
<!-- Generator: Adobe Illustrator 27.7.0, SVG Export Plug-In . SVG Version: 6.00 Build 0)  -->
<svg version="1.1" id="Layer_1" xmlns="http://www.w3.org/2000/svg" xmlns:xlink="http://www.w3.org/1999/xlink" x="0px" y="0px"
	 viewBox="0 0 1350.2 262.9" style="enable-background:new 0 0 1350.2 262.9;" xml:space="preserve">
<style type="text/css">
	.st0{fill:#87DA21;}
</style>
<g>
	<path class="st0" d="M49,244.3l113.6-82.9l82.4,29.3l-59.8-173L49,244.3z M202.8,143.5c-1.7-0.6-58.6-23-58.6-23l40.6,3.7
		l-2.3-47.6C182.5,76.6,204.5,144,202.8,143.5z"/>
	<polygon class="st0" points="232.7,92.7 300,35.6 208.5,56.7 237.9,140.3 	"/>
	<path class="st0" d="M140.9,76.3L102,117.9c0,0-87.8,11.9-88.3,12.1c-0.5,0.1,79.6,23.6,79.6,23.6L140.9,76.3z"/>
	<path class="st0" d="M318.3,19.3l18.3,18.8L300,179.9h45.5l12.9-51.5h93.3l27.8-109.1C479.5,19.3,318.3,19.3,318.3,19.3z
		 M416.4,88.7h-47.9l4.3-16.9l-9-11.8H424L416.4,88.7z"/>
	<path class="st0" d="M500.4,179.9l14.5-55.8h22.2l11.1,55.8h45.7L583.1,124H608l26.7-104.7H496.9l-41.3,160.6L500.4,179.9
		L500.4,179.9z M579.6,60L572,88.7h-48l4.3-16.9l-9-11.8C519.3,60,579.6,60,579.6,60z"/>
	<path class="st0" d="M652.3,19.3l-41.6,160.6h137.7l41.4-160.6C789.8,19.3,652.3,19.3,652.3,19.3z M714.1,140.1h-48.6l17.4-68.3
		l-9-11.8h60.3L714.1,140.1z"/>
	<path class="st0" d="M807.2,19.3l-41.4,160.6h96.3l53.4-48.6l29.2-112L807.2,19.3L807.2,19.3z M876.2,110.1l-31.2,30h-24.9
		l17.4-68.3l-9-11.8h60.3L876.2,110.1z"/>
	<polygon class="st0" points="962.2,19.3 921.5,179.9 966.3,179.9 1007.7,19.3 	"/>
	<polygon class="st0" points="983.8,179.9 1121.5,179.9 1147,80 1079.9,80 1069.6,119.5 1091.2,119.5 1086.5,139.9 1038.9,139.9 
		1056.1,72.1 1044,59.4 1151.5,59.4 1162.5,19.3 1025.2,19.3 	"/>
	<polygon class="st0" points="1275.1,19.3 1267.6,49.8 1236.1,79.6 1219.1,50 1227.7,19.3 1180.1,19.3 1167.2,68.6 1201.1,125.3 
		1187.8,179.9 1232.6,179.9 1246.4,126.3 1306.6,71.6 1315.4,38.6 1335.4,19.3 	"/>
	<path class="st0" d="M344.9,187.7h-47.2l-14.4,54.9h15.2l5-18.9h10.4l4.1,18.9h15.9l-3.9-18.8h5.3L344.9,187.7z M323.2,210.5h-16.6
		l2.5-8.9h16.5L323.2,210.5z"/>
	<path class="st0" d="M355.7,187.7l-14.2,54.9h47.8l14-54.9L355.7,187.7L355.7,187.7z M377.3,229.4h-16.7l7.3-27.8h16.5L377.3,229.4
		z"/>
	<polygon class="st0" points="429.8,187.7 414.2,187.7 399.7,242.6 445.2,242.6 448.6,229.5 418.9,229.5 	"/>
	<polygon class="st0" points="511.6,201.3 515.3,187.7 470.1,187.7 456,242.6 501.2,242.6 504.3,229.3 474.9,229.3 476.5,222.3 
		506,222.3 509.4,208.5 480.2,208.5 482.1,201.3 	"/>
	<path class="st0" d="M526.1,187.7l-14.4,54.9h15.6L532,225h31.7l9.8-37.3H526.1z M551.8,210.5h-16.6l2.5-8.9h16.5L551.8,210.5z"/>
	<polygon class="st0" points="600,187.7 584.3,187.7 570.1,242.6 615.4,242.6 618.9,229.3 589.2,229.3 	"/>
	<path class="st0" d="M625.1,242.6h15.6l5.1-17.5h16l-4.5,17.5H673l14-54.9h-47.4L625.1,242.6z M651.7,201.6h16.5l-2.3,8.9h-16.6
		L651.7,201.6z"/>
	<polygon class="st0" points="728.2,198.1 717,208.6 711.4,198.3 714,187.7 698.4,187.7 693.8,205.4 704.8,224.4 700.3,242.6 
		716,242.6 720.4,224.9 741.8,205.6 746.3,187.7 730.4,187.7 	"/>
</g>
</svg>
