<svg width="880" height="204" viewBox="0 0 880 204" fill="none" xmlns="http://www.w3.org/2000/svg">
<path fill-rule="evenodd" clip-rule="evenodd" d="M60.707 171.898L144.749 31.1807L182.013 138.508L130.478 120.222L60.707 171.898ZM156.667 109.903L119.489 94.7641L144.754 97.2211L143.19 67.7126L156.667 109.903Z" fill="url(#paint0_linear_3561_4270)"/>
<path d="M81.1444 123.454L100.602 91.8261L110.33 76.0124C100.602 75.681 95.6006 66.4717 95.6006 66.4717L71.1426 72.7447L22.2266 85.2909C22.2266 85.2909 48.7321 82.6529 53.6996 96.9741C53.6996 96.9741 69.3374 93.919 77.7653 99.9689C86.1933 106.019 81.1444 123.454 81.1444 123.454Z" fill="url(#paint1_linear_3561_4270)"/>
<path d="M162.648 61.0628C169.051 60.5413 176.976 49.1076 176.976 49.1076L194.073 45.0017L228.267 36.79C228.267 36.79 198.435 50.559 198.978 67.146C198.978 67.146 186.919 67.9985 182.155 77.7396C177.605 87.0459 182.033 116.009 182.033 116.009L170.956 84.6111L165.418 68.9123L162.648 61.0628Z" fill="url(#paint2_linear_3561_4270)"/>
<g clip-path="url(#clip0_3561_4270)">
<path d="M238.715 33.3408L249.938 44.8856L227.492 131.412H255.43L263.19 99.9911H320.378L337.451 33.3408H238.715ZM298.769 75.7113H269.398L272.025 65.3567L266.533 58.0966H303.425L298.769 75.7113Z" fill="url(#paint3_linear_3561_4270)"/>
<path d="M238.715 33.3408L249.938 44.8856L227.492 131.412H255.43L263.19 99.9911H320.378L337.451 33.3408H238.715ZM298.769 75.7113H269.398L272.025 65.3567L266.533 58.0966H303.425L298.769 75.7113Z" fill="url(#paint4_linear_3561_4270)"/>
<path d="M350.222 131.412L359.057 97.2536H372.667L379.472 131.412H407.41L400.843 97.2536H416.126L432.601 33.3408H348.073L322.762 131.412H350.222ZM398.814 58.2156L394.158 75.7113H364.787L367.414 65.3567L361.922 58.0966H398.814V58.2156Z" fill="url(#paint5_linear_3561_4270)"/>
<path d="M350.222 131.412L359.057 97.2536H372.667L379.472 131.412H407.41L400.843 97.2536H416.126L432.601 33.3408H348.073L322.762 131.412H350.222ZM398.814 58.2156L394.158 75.7113H364.787L367.414 65.3567L361.922 58.0966H398.814V58.2156Z" fill="url(#paint6_linear_3561_4270)"/>
<path d="M443.35 33.3408L417.801 131.412H502.21L527.521 33.3408H443.35ZM481.197 107.132H451.469L462.095 65.4758L456.603 58.2156H493.495L481.197 107.132Z" fill="url(#paint7_linear_3561_4270)"/>
<path d="M443.35 33.3408L417.801 131.412H502.21L527.521 33.3408H443.35ZM481.197 107.132H451.469L462.095 65.4758L456.603 58.2156H493.495L481.197 107.132Z" fill="url(#paint8_linear_3561_4270)"/>
<path d="M538.264 33.3408L512.953 131.412H571.932L604.645 101.776L622.554 33.3408L538.264 33.3408ZM580.528 88.8033L561.426 107.132H546.144L556.77 65.4758L551.278 58.2156H588.17L580.528 88.8033Z" fill="url(#paint9_linear_3561_4270)"/>
<path d="M538.264 33.3408L512.953 131.412H571.932L604.645 101.776L622.554 33.3408L538.264 33.3408ZM580.528 88.8033L561.426 107.132H546.144L556.77 65.4758L551.278 58.2156H588.17L580.528 88.8033Z" fill="url(#paint10_linear_3561_4270)"/>
<path d="M633.183 33.3408L608.23 131.412H635.69L661.121 33.3408H633.183Z" fill="url(#paint11_linear_3561_4270)"/>
<path d="M633.183 33.3408L608.23 131.412H635.69L661.121 33.3408H633.183Z" fill="url(#paint12_linear_3561_4270)"/>
<path d="M646.434 131.412H730.843L746.483 70.4745H705.293L698.966 94.5162H712.218L709.353 107.013H680.221L690.728 65.5948L683.325 57.8586H749.229L755.915 33.3408H671.745L646.434 131.412Z" fill="url(#paint13_linear_3561_4270)"/>
<path d="M646.434 131.412H730.843L746.483 70.4745H705.293L698.966 94.5162H712.218L709.353 107.013H680.221L690.728 65.5948L683.325 57.8586H749.229L755.915 33.3408H671.745L646.434 131.412Z" fill="url(#paint14_linear_3561_4270)"/>
<path d="M824.924 33.3408L820.387 51.9077L801.046 70.1175L790.659 52.0267L795.912 33.3408H766.661L758.781 63.4524L779.555 98.0868L771.437 131.412H798.897L807.373 98.6819L844.265 65.3567L849.638 45.1236L861.816 33.3408H824.924Z" fill="url(#paint15_linear_3561_4270)"/>
<path d="M824.924 33.3408L820.387 51.9077L801.046 70.1175L790.659 52.0267L795.912 33.3408H766.661L758.781 63.4524L779.555 98.0868L771.437 131.412H798.897L807.373 98.6819L844.265 65.3567L849.638 45.1236L861.816 33.3408H824.924Z" fill="url(#paint16_linear_3561_4270)"/>
<path d="M254.95 136.173H226.058L217.223 169.736H226.535L229.639 158.191H235.967L238.474 169.736H248.264L245.877 158.191H249.1L254.95 136.173ZM241.698 150.098H231.55L233.102 144.623H243.25L241.698 150.098Z" fill="url(#paint17_linear_3561_4270)"/>
<path d="M254.95 136.173H226.058L217.223 169.736H226.535L229.639 158.191H235.967L238.474 169.736H248.264L245.877 158.191H249.1L254.95 136.173ZM241.698 150.098H231.55L233.102 144.623H243.25L241.698 150.098Z" fill="url(#paint18_linear_3561_4270)"/>
<path d="M261.634 136.173L252.918 169.736H282.169L290.765 136.173H261.634ZM274.767 161.643H264.499L268.916 144.623H279.065L274.767 161.643Z" fill="url(#paint19_linear_3561_4270)"/>
<path d="M261.634 136.173L252.918 169.736H282.169L290.765 136.173H261.634ZM274.767 161.643H264.499L268.916 144.623H279.065L274.767 161.643Z" fill="url(#paint20_linear_3561_4270)"/>
<path d="M307.003 136.173H297.452L288.617 169.736H316.435L318.465 161.762H300.318L307.003 136.173Z" fill="url(#paint21_linear_3561_4270)"/>
<path d="M307.003 136.173H297.452L288.617 169.736H316.435L318.465 161.762H300.318L307.003 136.173Z" fill="url(#paint22_linear_3561_4270)"/>
<path d="M357.15 144.504L359.299 136.173H331.6L323.004 169.736H350.703L352.613 161.643H334.585L335.659 157.358H353.687L355.836 148.908H337.928L339.002 144.504H357.15Z" fill="url(#paint23_linear_3561_4270)"/>
<path d="M357.15 144.504L359.299 136.173H331.6L323.004 169.736H350.703L352.613 161.643H334.585L335.659 157.358H353.687L355.836 148.908H337.928L339.002 144.504H357.15Z" fill="url(#paint24_linear_3561_4270)"/>
<path d="M365.983 136.173L357.148 169.736H366.7L369.565 159.024H389.026L394.995 136.292C394.995 136.292 365.983 136.292 365.983 136.173ZM381.743 150.098H371.595L373.147 144.623H383.295L381.743 150.098Z" fill="url(#paint25_linear_3561_4270)"/>
<path d="M365.983 136.173L357.148 169.736H366.7L369.565 159.024H389.026L394.995 136.292C394.995 136.292 365.983 136.292 365.983 136.173ZM381.743 150.098H371.595L373.147 144.623H383.295L381.743 150.098Z" fill="url(#paint26_linear_3561_4270)"/>
<path d="M411.232 136.173H401.561L392.965 169.736H420.664L422.813 161.643H404.665L411.232 136.173Z" fill="url(#paint27_linear_3561_4270)"/>
<path d="M411.232 136.173H401.561L392.965 169.736H420.664L422.813 161.643H404.665L411.232 136.173Z" fill="url(#paint28_linear_3561_4270)"/>
<path d="M426.633 169.736H436.184L439.288 159.024H449.078L446.332 169.736H456.003L464.599 136.173H435.468L426.633 169.736ZM442.989 144.742H453.138L451.705 150.217H441.557L442.989 144.742Z" fill="url(#paint29_linear_3561_4270)"/>
<path d="M426.633 169.736H436.184L439.288 159.024H449.078L446.332 169.736H456.003L464.599 136.173H435.468L426.633 169.736ZM442.989 144.742H453.138L451.705 150.217H441.557L442.989 144.742Z" fill="url(#paint30_linear_3561_4270)"/>
<path d="M489.913 142.6L482.989 149.027L479.526 142.719L481.079 136.173H471.647L468.781 147.004L475.467 158.667L472.721 169.736H482.392L485.018 158.905L498.151 147.123L500.897 136.173H491.107L489.913 142.6Z" fill="url(#paint31_linear_3561_4270)"/>
<path d="M489.913 142.6L482.989 149.027L479.526 142.719L481.079 136.173H471.647L468.781 147.004L475.467 158.667L472.721 169.736H482.392L485.018 158.905L498.151 147.123L500.897 136.173H491.107L489.913 142.6Z" fill="url(#paint32_linear_3561_4270)"/>
</g>
<defs>
<linearGradient id="paint0_linear_3561_4270" x1="126.91" y1="31.1807" x2="126.91" y2="171.898" gradientUnits="userSpaceOnUse">
<stop stop-color="#F79915"/>
<stop offset="1" stop-color="#FF7422"/>
</linearGradient>
<linearGradient id="paint1_linear_3561_4270" x1="133.205" y1="11.7032" x2="133.205" y2="198.305" gradientUnits="userSpaceOnUse">
<stop stop-color="#F79915"/>
<stop offset="1" stop-color="#FF7422"/>
</linearGradient>
<linearGradient id="paint2_linear_3561_4270" x1="119.906" y1="24.231" x2="119.906" y2="195.227" gradientUnits="userSpaceOnUse">
<stop stop-color="#F79915"/>
<stop offset="1" stop-color="#FF7422"/>
</linearGradient>
<linearGradient id="paint3_linear_3561_4270" x1="227.492" y1="82.3764" x2="337.451" y2="82.3764" gradientUnits="userSpaceOnUse">
<stop stop-color="#87DA21"/>
<stop offset="1" stop-color="#487412"/>
</linearGradient>
<linearGradient id="paint4_linear_3561_4270" x1="287.503" y1="33.3408" x2="287.503" y2="131.412" gradientUnits="userSpaceOnUse">
<stop stop-color="#F79915"/>
<stop offset="1" stop-color="#FF7422"/>
</linearGradient>
<linearGradient id="paint5_linear_3561_4270" x1="322.762" y1="82.3764" x2="432.601" y2="82.3764" gradientUnits="userSpaceOnUse">
<stop stop-color="#87DA21"/>
<stop offset="1" stop-color="#487412"/>
</linearGradient>
<linearGradient id="paint6_linear_3561_4270" x1="382.707" y1="33.3408" x2="382.707" y2="131.412" gradientUnits="userSpaceOnUse">
<stop stop-color="#F79915"/>
<stop offset="1" stop-color="#FF7422"/>
</linearGradient>
<linearGradient id="paint7_linear_3561_4270" x1="417.801" y1="82.3764" x2="527.521" y2="82.3764" gradientUnits="userSpaceOnUse">
<stop stop-color="#87DA21"/>
<stop offset="1" stop-color="#487412"/>
</linearGradient>
<linearGradient id="paint8_linear_3561_4270" x1="477.681" y1="33.3408" x2="477.681" y2="131.412" gradientUnits="userSpaceOnUse">
<stop stop-color="#F79915"/>
<stop offset="1" stop-color="#FF7422"/>
</linearGradient>
<linearGradient id="paint9_linear_3561_4270" x1="512.953" y1="82.3764" x2="622.554" y2="82.3764" gradientUnits="userSpaceOnUse">
<stop stop-color="#87DA21"/>
<stop offset="1" stop-color="#487412"/>
</linearGradient>
<linearGradient id="paint10_linear_3561_4270" x1="572.768" y1="33.3408" x2="572.768" y2="131.412" gradientUnits="userSpaceOnUse">
<stop stop-color="#F79915"/>
<stop offset="1" stop-color="#FF7422"/>
</linearGradient>
<linearGradient id="paint11_linear_3561_4270" x1="608.23" y1="82.3764" x2="661.121" y2="82.3764" gradientUnits="userSpaceOnUse">
<stop stop-color="#87DA21"/>
<stop offset="1" stop-color="#487412"/>
</linearGradient>
<linearGradient id="paint12_linear_3561_4270" x1="637.095" y1="33.3408" x2="637.095" y2="131.412" gradientUnits="userSpaceOnUse">
<stop stop-color="#F79915"/>
<stop offset="1" stop-color="#FF7422"/>
</linearGradient>
<linearGradient id="paint13_linear_3561_4270" x1="646.434" y1="82.3764" x2="755.915" y2="82.3764" gradientUnits="userSpaceOnUse">
<stop stop-color="#87DA21"/>
<stop offset="1" stop-color="#487412"/>
</linearGradient>
<linearGradient id="paint14_linear_3561_4270" x1="706.183" y1="33.3408" x2="706.183" y2="131.412" gradientUnits="userSpaceOnUse">
<stop stop-color="#F79915"/>
<stop offset="1" stop-color="#FF7422"/>
</linearGradient>
<linearGradient id="paint15_linear_3561_4270" x1="758.781" y1="82.3764" x2="861.816" y2="82.3764" gradientUnits="userSpaceOnUse">
<stop stop-color="#87DA21"/>
<stop offset="1" stop-color="#487412"/>
</linearGradient>
<linearGradient id="paint16_linear_3561_4270" x1="815.013" y1="33.3408" x2="815.013" y2="131.412" gradientUnits="userSpaceOnUse">
<stop stop-color="#F79915"/>
<stop offset="1" stop-color="#FF7422"/>
</linearGradient>
<linearGradient id="paint17_linear_3561_4270" x1="217.223" y1="152.954" x2="254.95" y2="152.954" gradientUnits="userSpaceOnUse">
<stop stop-color="#87DA21"/>
<stop offset="1" stop-color="#487412"/>
</linearGradient>
<linearGradient id="paint18_linear_3561_4270" x1="237.813" y1="136.173" x2="237.813" y2="169.736" gradientUnits="userSpaceOnUse">
<stop stop-color="#F79915"/>
<stop offset="1" stop-color="#FF7422"/>
</linearGradient>
<linearGradient id="paint19_linear_3561_4270" x1="252.918" y1="152.954" x2="290.765" y2="152.954" gradientUnits="userSpaceOnUse">
<stop stop-color="#87DA21"/>
<stop offset="1" stop-color="#487412"/>
</linearGradient>
<linearGradient id="paint20_linear_3561_4270" x1="273.573" y1="136.173" x2="273.573" y2="169.736" gradientUnits="userSpaceOnUse">
<stop stop-color="#F79915"/>
<stop offset="1" stop-color="#FF7422"/>
</linearGradient>
<linearGradient id="paint21_linear_3561_4270" x1="288.617" y1="152.954" x2="318.465" y2="152.954" gradientUnits="userSpaceOnUse">
<stop stop-color="#87DA21"/>
<stop offset="1" stop-color="#487412"/>
</linearGradient>
<linearGradient id="paint22_linear_3561_4270" x1="304.907" y1="136.173" x2="304.907" y2="169.736" gradientUnits="userSpaceOnUse">
<stop stop-color="#F79915"/>
<stop offset="1" stop-color="#FF7422"/>
</linearGradient>
<linearGradient id="paint23_linear_3561_4270" x1="323.004" y1="152.954" x2="359.299" y2="152.954" gradientUnits="userSpaceOnUse">
<stop stop-color="#87DA21"/>
<stop offset="1" stop-color="#487412"/>
</linearGradient>
<linearGradient id="paint24_linear_3561_4270" x1="342.812" y1="136.173" x2="342.812" y2="169.736" gradientUnits="userSpaceOnUse">
<stop stop-color="#F79915"/>
<stop offset="1" stop-color="#FF7422"/>
</linearGradient>
<linearGradient id="paint25_linear_3561_4270" x1="357.148" y1="152.954" x2="394.995" y2="152.954" gradientUnits="userSpaceOnUse">
<stop stop-color="#87DA21"/>
<stop offset="1" stop-color="#487412"/>
</linearGradient>
<linearGradient id="paint26_linear_3561_4270" x1="377.803" y1="136.173" x2="377.803" y2="169.736" gradientUnits="userSpaceOnUse">
<stop stop-color="#F79915"/>
<stop offset="1" stop-color="#FF7422"/>
</linearGradient>
<linearGradient id="paint27_linear_3561_4270" x1="392.965" y1="152.954" x2="422.813" y2="152.954" gradientUnits="userSpaceOnUse">
<stop stop-color="#87DA21"/>
<stop offset="1" stop-color="#487412"/>
</linearGradient>
<linearGradient id="paint28_linear_3561_4270" x1="409.254" y1="136.173" x2="409.254" y2="169.736" gradientUnits="userSpaceOnUse">
<stop stop-color="#F79915"/>
<stop offset="1" stop-color="#FF7422"/>
</linearGradient>
<linearGradient id="paint29_linear_3561_4270" x1="426.633" y1="152.954" x2="464.599" y2="152.954" gradientUnits="userSpaceOnUse">
<stop stop-color="#87DA21"/>
<stop offset="1" stop-color="#487412"/>
</linearGradient>
<linearGradient id="paint30_linear_3561_4270" x1="447.353" y1="136.173" x2="447.353" y2="169.736" gradientUnits="userSpaceOnUse">
<stop stop-color="#F79915"/>
<stop offset="1" stop-color="#FF7422"/>
</linearGradient>
<linearGradient id="paint31_linear_3561_4270" x1="468.781" y1="152.954" x2="500.897" y2="152.954" gradientUnits="userSpaceOnUse">
<stop stop-color="#87DA21"/>
<stop offset="1" stop-color="#487412"/>
</linearGradient>
<linearGradient id="paint32_linear_3561_4270" x1="486.309" y1="136.173" x2="486.309" y2="169.736" gradientUnits="userSpaceOnUse">
<stop stop-color="#F79915"/>
<stop offset="1" stop-color="#FF7422"/>
</linearGradient>
<clipPath id="clip0_3561_4270">
<rect width="644.592" height="136.395" fill="white" transform="translate(217.223 33.3408)"/>
</clipPath>
</defs>
</svg>
